<?xml version="1.0" encoding="UTF-8" standalone="no"?>
<svg
width="24" height="24"
viewBox="0 0 24 24" version="1.1"
id="pachde-logo"
xmlns="http://www.w3.org/2000/svg"
xmlns:svg="http://www.w3.org/2000/svg">
<g transform="scale(.375,.375)">
<circle cx="32" cy="32" r="30"
    fill="#f9a54b" stroke="#000000" stroke-width="2" />
<g style="stroke-width:3">
  <path d="m 19.07,25.93 2.68,-5.3 3.26,0.87 -2.7,5.29 4.97,1.33 2.7,-5.29 3.24,0.87 -2.68,5.3 2.35,0.63 -0.87,3.26 -3.03,-0.81 -2,3.92 3.91,1.05 -0.87,3.26 -4.59,-1.23 -2.68,5.3 -3.26,-0.87 2.68,-5.3 -5,-1.33 -2.68,5.3 -3.26,-0.87 2.68,-5.3 -2.34,-0.63 0.87,-3.26 3.03,0.81 1.97,-3.92 -3.89,-1.043 0.87,-3.26 z m 6.66,5.28 -4.97,-1.33 -1.99,3.92 4.97,1.33 z" />
  <path d="m 50.16,41.94 -0.90,3.37 -7.06,-1.89 0.47,-1.74 q -2.47,1.43 -4.75,0.81 -2.73,-0.73 -3.93,-3.43 -1.20,-3 -0.36,-5.85 0.86,-3.2 3.29,-4.89 2.43,-1.71 5.09,-1 2.55,0.68 3.68,3.1 l 1.24,-4.63 -2.28,-0.61 0.90,-3.37 6.94,1.86 -4.72,17.62 z m -5.95,-5.85 q 0.56,-2.098 -0.10,-3.23 -0.65,-1.13 -1.8,-1.44 -1.37,-0.37 -2.42,0.50 -1.02,0.86 -1.49,2.59 -0.44,1.65 -0.005,2.98 0.44,1.32 1.84,1.69 1.16,0.31 2.28,-0.36 1.14,-0.68 1.69,-2.73 z" />
</g>
</g>
</svg>