<?xml version="1.0" encoding="UTF-8" standalone="no"?>
<svg
height="380"
width="360" 
viewBox="0 0 360 380"
version="1.1"
xml:space="preserve"
xmlns="http://www.w3.org/2000/svg"
xmlns:svg="http://www.w3.org/2000/svg">
<g>
   <!--#101010  #2c1356-->
   <rect id="panel" style="fill:#101010" x="0" y="0" width="360" height="380" />
   <g aria-label="HC-1" style="fill:#d0d0d0" ><!-- Garamond -->
      <path d="m 22.942507,17.713253 q 0,-0.292969 0.05859,-0.693359 l 1.220703,-0.214844 q 0.224609,-0.04883 0.537109,-0.15625 l 0.126953,-2.441406 q -0.03906,-1.31836 -0.03906,-1.972657 l 0.0098,-0.234375 q 0.0293,-0.40039 0.0293,-2.011718 l -0.01953,-0.283203 0.01953,-0.820313 -0.0098,-0.849609 v -0.419922 q 0,-0.566406 -0.08789,-1.328125 -0.0098,-0.06836 -0.07813,-0.234375 -0.07813,-0.0293 -0.175781,-0.03906 -0.08789,-0.0098 -0.185547,-0.029297 -0.38086,-0.068359 -0.810547,-0.097656 l -0.146484,-0.039063 q -0.263672,-0.029297 -0.400391,-0.078125 -0.0293,-0.2832031 -0.0293,-0.3613281 0,-0.1171875 0.05859,-0.3222656 0.195312,-0.039063 0.546875,-0.039063 0.351562,0 0.488281,-0.00977 1.191406,0.1269531 1.767578,0.1367187 0.263672,0 0.527344,0.019531 0.273437,0.00977 0.478516,0.00977 0.322265,0 1.572265,-0.097656 0.205078,-0.048828 0.449219,-0.048828 0.361328,0 0.605469,0.039063 0.0098,0.2050781 0.0098,0.2929688 0,0.15625 -0.03906,0.3808593 l -1.71875,0.2734374 q -0.214844,0.09766 -0.214844,0.283203 l 0.0293,0.361328 0.0098,0.15625 -0.0098,0.429688 -0.01953,0.332031 v 0.07813 q 0.0098,0.107422 0.0098,0.185547 l -0.0098,1.240234 q 0.0098,0.175782 0.0098,0.263672 0,0.04883 -0.01953,0.3125 -0.0098,0.15625 -0.0098,0.322266 0,0.146484 0.0293,0.693359 0.273438,0.04883 0.458985,0.05859 l 1.445312,0.0293 h 0.703125 l 1.757813,0.0098 1.708984,-0.04883 q 0.332031,0 0.703125,-0.06836 0.01953,-0.332031 0.0293,-1.630859 l 0.01953,-0.439453 -0.05859,-1.660157 -0.06836,-0.683593 q -0.0293,-0.06836 -0.136719,-0.126954 -0.341797,-0.1953121 -1.367187,-0.4394527 -0.185547,-0.039063 -0.351563,-0.097656 0.01953,-0.3417969 0.07813,-0.5566406 0.214844,-0.00977 0.263672,-0.00977 l 0.947266,0.00977 q 0.908203,0.1171875 1.845703,0.1171875 0.214844,0 0.341797,-0.00977 l 1.269531,-0.039063 q 0.175781,-0.00977 0.341797,-0.019531 0.351562,-0.078125 0.722656,-0.078125 0.283203,0 0.683594,0.029297 -0.0098,0.3808594 -0.04883,0.6933594 -0.898438,0.1855468 -1.181641,0.2734372 -0.273437,0.07813 -0.55664,0.22461 l -0.05859,0.195312 v 0.166016 l 0.0098,0.253906 -0.0098,0.126953 q -0.01953,0.205078 -0.01953,0.3125 v 0.244141 q 0.0098,0.439453 0.0098,0.488281 v 1.240234 l 0.0098,0.9375 -0.01953,1.240235 q -0.0098,0.429687 0.0293,1.757812 v 1.386719 l 0.01953,1.152344 q 0,0.322265 -0.01953,0.78125 0.205079,0.05859 0.38086,0.09766 0.917969,0.195313 1.386719,0.400391 l 0.0293,0.683593 q -0.390625,0.0098 -0.458984,0.0098 -0.46875,0 -1.074219,-0.05859 -0.800781,-0.08789 -2.578125,-0.08789 -0.800781,0 -2.070312,0.126953 -0.136719,0 -0.332031,-0.05859 0.0098,-0.449219 0.04883,-0.634766 l 0.751953,-0.175781 0.791015,-0.126953 q 0.117188,-0.0293 0.302735,-0.08789 0.107422,-0.791015 0.117187,-2.626953 l 0.0098,-0.830078 q -0.05859,-0.517578 -0.05859,-1.240234 -0.361328,-0.0293 -0.78125,-0.03906 l -4.53125,-0.04883 -0.08789,-0.0098 -0.06836,-0.0098 q -0.06836,0 -0.15625,0.0098 -0.253906,0.0098 -0.429687,0.0098 h -0.273438 q -0.185547,0 -0.419922,0.06836 l -0.03906,0.732421 v 0.126954 q 0.01953,0.263671 0.01953,0.341796 v 3.027344 q 0,0.253906 0.0293,0.517578 l 0.09766,0.05859 1.435547,0.224609 q 0.107422,0.03906 0.166016,0.04883 0.126953,0.0293 0.214843,0.08789 0.0293,0.22461 0.0293,0.302735 0,0.126953 -0.03906,0.351562 -0.351563,0.0098 -0.595703,0.0098 -0.214844,0 -0.400391,-0.0098 -0.08789,0 -0.166016,-0.0098 l -1.376953,-0.05859 q -0.488281,-0.04883 -1.367187,-0.04883 l -0.205078,0.0098 q -0.410157,0.01953 -0.478516,0.0293 -0.605469,0.07813 -1.894531,0.07813 z" />
      <path d="m 51.614382,5.3109093 q 0.126953,0.2929687 0.517578,1.6699217 0.175781,0.625 0.185547,1.328125 h -0.888672 q -0.9375,-1.328125 -1.933594,-1.904297 -0.996094,-0.5859372 -2.226562,-0.5859372 -1.513672,0 -2.441407,1.1816402 -1.259765,1.601563 -1.259765,4.462891 0,1.660156 0.214844,2.363281 0.351562,1.142578 0.888671,1.865235 0.410157,0.546875 1.074219,0.86914 0.859375,0.439453 1.835938,0.439453 1.074218,0 2.070312,-0.664062 1.00586,-0.673828 1.923828,-2.001953 0.361328,-0.06836 0.947266,-0.07813 -0.03906,0.371094 -0.126953,0.771484 -0.0293,0.15625 -0.22461,1.240235 l -0.08789,0.292968 -0.136719,0.458985 q -0.595703,0.458984 -1.679687,0.693359 -1.074219,0.224609 -2.646485,0.224609 -1.201172,0 -2.27539,-0.224609 -1.064454,-0.224609 -1.826172,-0.712891 -1.113282,-0.703125 -1.748047,-1.523437 -0.634766,-0.820313 -0.947266,-1.787109 -0.302734,-0.966797 -0.302734,-2.167969 0,-2.910156 1.914062,-4.804688 1.923828,-1.894531 4.902344,-1.894531 1.210938,0 2.275391,0.1269531 1.074218,0.1171875 2.001953,0.3613282 z" />
      <path d="m 53.899538,10.791378 h 3.076172 l 1.5625,-0.01953 q 0.322266,0 0.595703,0.03906 0.0293,0.458985 0.05859,0.683594 l 0.0098,0.166016 -0.03906,0.507812 q -0.0098,0.117188 -0.0098,0.292969 v 0.175781 l -5.292968,0.0098 q -0.0098,-0.283203 -0.0098,-0.429688 0,-0.24414 0.01953,-0.546875 0.0098,-0.15625 0.0098,-0.224609 l -0.0098,-0.488281 z" />
      <path d="m 63.840944,4.9398155 q 0.04883,0 0.664063,-0.019531 l 0.3125,0.00977 0.615234,0.00977 q 0.03906,0.3125 0.03906,0.4589844 0,0.048828 -0.0098,0.3027344 -0.0098,0.1367187 -0.01953,1.0449217 l -0.01953,1.47461 0.0098,0.927734 -0.06836,6.591797 v 0.55664 q 0,0.292969 0.136719,0.419922 0.136718,0.126953 0.732421,0.214844 0.234375,0.0293 0.9375,0.15625 0.01953,0.09766 0.01953,0.185547 0,0.107422 -0.01953,0.46875 h -0.419921 q -0.429688,0 -1.25,-0.03906 -0.498047,-0.0293 -0.683594,-0.0293 -0.234375,0 -1.728516,0.04883 -0.166015,0.0098 -0.273437,0.0098 h -0.175782 l -0.283203,-0.01953 -0.263672,0.01953 -0.488281,-0.01953 q -0.09766,0 -0.40039,0.0293 -0.01953,-0.214844 -0.01953,-0.332031 0,-0.107422 0.01953,-0.322266 0.390625,-0.107422 0.908203,-0.214844 0.71289,-0.146484 0.86914,-0.283203 0.166016,-0.146484 0.166016,-0.380859 l -0.0098,-0.664063 0.03906,-0.722656 -0.0098,-1.484375 -0.0098,-0.380859 q 0,-0.07813 0.01953,-0.585938 0.01953,-0.263672 0.01953,-0.46875 0,-0.126953 -0.0293,-0.791015 l 0.03906,-0.556641 q -0.03906,-0.634766 -0.03906,-0.751953 0,-0.146485 0.0098,-0.292969 l 0.01953,-0.244141 -0.0293,-0.664062 0.0293,-0.302734 q 0.0098,-0.205079 0.0098,-0.546875 0,-0.332032 -0.0098,-0.810547 -0.693359,0.517578 -1.582031,1.035156 -0.09766,0.05859 -0.878906,0.400391 -0.3125,-0.46875 -0.400391,-0.703125 1.035156,-0.53711 1.40625,-0.791016 0.615234,-0.429688 1.328125,-1.0742189 0.302734,-0.2832031 0.771484,-0.8691406 z" />
   </g>
</g>
<g id="logo" style="fill:#d9d9d9">
   <path d="m 175.64711,371.63388 0.91022,-1.80007 1.10798,0.29661 -0.91635,1.79906 1.68693,0.45155 0.91635,-1.79906 1.10287,0.29559 -0.91124,1.8011 0.80014,0.21405 -0.29661,1.10798 -1.03153,-0.27624 -0.67477,1.33018 1.32814,0.35573 -0.29662,1.10696 -1.55952,-0.41689 -0.91022,1.80007 -1.10798,-0.29661 0.91125,-1.80007 -1.68693,-0.45258 -0.91125,1.8011 -1.10797,-0.29763 0.91125,-1.80008 -0.79505,-0.21303 0.29661,-1.10798 1.03153,0.27624 0.66967,-1.3312 -1.32304,-0.35471 0.29662,-1.10798 z m 2.26181,1.79294 -1.68693,-0.45155 -0.67579,1.33018 1.68795,0.45256 z" />
   <path d="m 186.21107,377.07487 -0.30681,1.14365 -2.39942,-0.64317 0.15799,-0.59018 q -0.83888,0.48519 -1.61354,0.27725 -0.92756,-0.24871 -1.33629,-1.16607 -0.40772,-0.91737 -0.1213,-1.98864 0.29152,-1.08759 1.11613,-1.66349 0.82664,-0.581 1.72872,-0.33942 0.86742,0.23342 1.25067,1.05598 l 0.42199,-1.57481 -0.77364,-0.20793 0.30578,-1.14262 2.35865,0.63195 -1.60437,5.98938 z m -2.0233,-1.98762 q 0.19061,-0.71248 -0.0357,-1.09778 -0.22119,-0.38326 -0.61158,-0.48824 -0.46582,-0.12435 -0.82053,0.17022 -0.34758,0.29254 -0.50557,0.88169 -0.14882,0.55858 -10e-4,1.01114 0.14984,0.44645 0.62687,0.57488 0.39446,0.10601 0.77466,-0.12231 0.38631,-0.23138 0.57284,-0.9296 z" />
</g>
</svg>
