<?xml version="1.0" encoding="UTF-8" standalone="no"?>
<svg
height="380"
width="360" 
viewBox="0 0 360 380"
version="1.1"
xml:space="preserve"
xmlns="http://www.w3.org/2000/svg"
xmlns:svg="http://www.w3.org/2000/svg">
<g>
   <rect id="panel" style="fill:#101010" x="0" y="0" width="360" height="380" />
   <g aria-label="HC-2" style="fill:#d0d0d0"><!-- Garamond -->
      <path d="m 23.134211,17.713247 q 0,-0.292968 0.05859,-0.693359 l 1.220703,-0.214844 q 0.22461,-0.04883 0.53711,-0.15625 l 0.126953,-2.441406 q -0.03906,-1.318359 -0.03906,-1.972656 l 0.0098,-0.234375 q 0.0293,-0.400391 0.0293,-2.0117191 l -0.01953,-0.2832031 0.01953,-0.8203125 -0.0098,-0.8496094 V 7.615591 q 0,-0.5664062 -0.08789,-1.328125 -0.0098,-0.068359 -0.07813,-0.234375 -0.07813,-0.029297 -0.175782,-0.039063 -0.08789,-0.00977 -0.185546,-0.029297 -0.38086,-0.068359 -0.810547,-0.097656 l -0.146485,-0.039063 q -0.263672,-0.029297 -0.40039,-0.078125 -0.0293,-0.2832031 -0.0293,-0.3613281 0,-0.1171875 0.05859,-0.3222656 0.195312,-0.039063 0.546875,-0.039063 0.351562,0 0.488281,-0.00977 1.191406,0.1269532 1.767578,0.1367188 0.263672,0 0.527344,0.019531 0.273437,0.00977 0.478515,0.00977 0.322266,0 1.572266,-0.097656 0.205078,-0.048828 0.449219,-0.048828 0.361328,0 0.605468,0.039063 0.0098,0.2050781 0.0098,0.2929687 0,0.15625 -0.03906,0.3808594 l -1.71875,0.2734375 q -0.214844,0.097656 -0.214844,0.2832031 l 0.0293,0.3613282 0.0098,0.15625 -0.0098,0.4296875 -0.01953,0.3320312 v 0.078125 q 0.0098,0.1074219 0.0098,0.1855469 l -0.0098,1.2402344 q 0.0098,0.1757812 0.0098,0.2636718 0,0.048828 -0.01953,0.3125 -0.0098,0.15625 -0.0098,0.3222655 0,0.146485 0.0293,0.69336 0.273438,0.04883 0.458984,0.05859 l 1.445313,0.0293 h 0.703125 l 1.757812,0.0098 1.708985,-0.04883 q 0.332031,0 0.703125,-0.06836 0.01953,-0.332031 0.0293,-1.6308591 l 0.01953,-0.4394531 -0.05859,-1.6601563 -0.06836,-0.6835937 q -0.0293,-0.068359 -0.136719,-0.1269531 -0.341797,-0.1953125 -1.367187,-0.4394532 -0.185547,-0.039063 -0.351563,-0.097656 0.01953,-0.3417969 0.07813,-0.5566406 0.214844,-0.00977 0.263672,-0.00977 l 0.947266,0.00977 q 0.908203,0.1171875 1.845703,0.1171875 0.214843,0 0.341797,-0.00977 l 1.269531,-0.039063 q 0.175781,-0.00977 0.341797,-0.019531 0.351562,-0.078125 0.722656,-0.078125 0.283203,0 0.683594,0.029297 -0.0098,0.3808593 -0.04883,0.6933593 -0.898438,0.1855469 -1.181641,0.2734375 -0.273438,0.078125 -0.556641,0.2246094 l -0.05859,0.1953125 V 6.599966 l 0.0098,0.2539063 -0.0098,0.1269531 q -0.01953,0.2050781 -0.01953,0.3125 V 7.537466 q 0.0098,0.4394532 0.0098,0.4882813 v 1.2402344 l 0.0098,0.9375003 -0.01953,1.240234 q -0.0098,0.429688 0.0293,1.757813 v 1.386718 l 0.01953,1.152344 q 0,0.322266 -0.01953,0.78125 0.205078,0.05859 0.38086,0.09766 0.917968,0.195313 1.386718,0.400391 l 0.0293,0.683594 q -0.390625,0.0098 -0.458984,0.0098 -0.46875,0 -1.074219,-0.05859 -0.800781,-0.08789 -2.578125,-0.08789 -0.800781,0 -2.070312,0.126953 -0.136719,0 -0.332032,-0.05859 0.0098,-0.449218 0.04883,-0.634765 l 0.751954,-0.175782 0.791015,-0.126953 q 0.117188,-0.0293 0.302735,-0.08789 0.107421,-0.791016 0.117187,-2.626953 l 0.0098,-0.830079 q -0.05859,-0.517578 -0.05859,-1.240234 -0.361328,-0.0293 -0.78125,-0.03906 l -4.53125,-0.04883 -0.08789,-0.0098 -0.06836,-0.0098 q -0.06836,0 -0.15625,0.0098 -0.253906,0.0098 -0.429688,0.0098 h -0.273437 q -0.185547,0 -0.419922,0.06836 l -0.03906,0.732422 v 0.126953 q 0.01953,0.263672 0.01953,0.341797 v 3.027343 q 0,0.253907 0.0293,0.517579 l 0.09766,0.05859 1.435547,0.22461 q 0.107422,0.03906 0.166015,0.04883 0.126954,0.0293 0.214844,0.08789 0.0293,0.22461 0.0293,0.302735 0,0.126953 -0.03906,0.351562 -0.351563,0.0098 -0.595704,0.0098 -0.214843,0 -0.40039,-0.0098 -0.08789,0 -0.166016,-0.0098 l -1.376953,-0.05859 q -0.488281,-0.04883 -1.367187,-0.04883 l -0.205079,0.0098 q -0.410156,0.01953 -0.478515,0.0293 -0.605469,0.07813 -1.894531,0.07813 z" />
      <path d="m 51.806086,5.3109035 q 0.126953,0.2929688 0.517578,1.6699219 0.175781,0.625 0.185547,1.328125 H 51.620539 Q 50.683039,6.9808254 49.686945,6.4046535 48.690851,5.818716 47.460382,5.818716 q -1.513671,0 -2.441406,1.1816407 -1.259765,1.6015625 -1.259765,4.4628903 0,1.660157 0.214843,2.363282 0.351563,1.142578 0.888672,1.865234 0.410156,0.546875 1.074219,0.869141 0.859375,0.439453 1.835937,0.439453 1.074219,0 2.070313,-0.664063 1.005859,-0.673828 1.923828,-2.001953 0.361328,-0.06836 0.947266,-0.07813 -0.03906,0.371094 -0.126953,0.771484 -0.0293,0.15625 -0.22461,1.240235 l -0.08789,0.292969 -0.136719,0.458984 q -0.595703,0.458984 -1.679688,0.693359 -1.074218,0.22461 -2.646484,0.22461 -1.201172,0 -2.275391,-0.22461 -1.064453,-0.224609 -1.826172,-0.71289 -1.113281,-0.703125 -1.748046,-1.523438 -0.634766,-0.820312 -0.947266,-1.787109 -0.302734,-0.966797 -0.302734,-2.167969 0,-2.9101562 1.914062,-4.8046875 1.923828,-1.8945312 4.902344,-1.8945312 1.210937,0 2.27539,0.1269531 1.074219,0.1171875 2.001954,0.3613281 z" />
      <path d="m 54.091242,10.791372 h 3.076172 l 1.5625,-0.01953 q 0.322265,0 0.595703,0.03906 0.0293,0.458984 0.05859,0.683593 l 0.0098,0.166016 -0.03906,0.507812 q -0.0098,0.117188 -0.0098,0.292969 v 0.175781 l -5.292969,0.0098 q -0.0098,-0.283203 -0.0098,-0.429687 0,-0.244141 0.01953,-0.546875 0.0098,-0.15625 0.0098,-0.22461 l -0.0098,-0.488281 z" />
      <path d="m 68.534601,17.771841 h -1.015625 q -0.361328,0 -0.566406,-0.0098 -0.322266,-0.0098 -0.390625,-0.0098 l -0.664063,0.0293 -0.175781,-0.01953 q -0.234375,-0.0293 -0.576172,-0.0293 -0.322265,0 -1.103515,0.0293 -0.371094,0.0098 -0.449219,0.0098 l -0.986328,-0.01953 -1.582031,0.01953 h -0.625 v -0.664062 q 1.386718,-1.757813 2.080078,-2.451172 0.703125,-0.703125 1.992187,-2.324219 0.898438,-1.113281 1.230469,-1.992188 0.341797,-0.8789058 0.341797,-1.5234371 0,-0.7226562 -0.214844,-1.2988281 -0.205078,-0.5761719 -0.742187,-0.9082031 -0.527344,-0.3320313 -1.152344,-0.3320313 -0.634766,0 -1.142578,0.3125 -0.507813,0.3125 -0.742188,0.7910156 -0.361328,0.6933594 -0.439453,1.4453125 h -0.712891 q -0.0293,-0.4199218 -0.0293,-0.703125 0,-0.9472656 0.732421,-1.8164062 1.132813,-1.3476563 3.19336,-1.3476563 1.71875,0 2.705078,0.9765625 0.986328,0.9667969 0.986328,2.4414063 0,0.5859375 -0.185547,1.1035156 -0.263672,0.7031246 -0.644531,1.2207036 -0.371094,0.517578 -2.060547,2.207031 -1.220703,1.220703 -3.056641,2.890625 l 1.083985,0.01953 1.777344,-0.03906 1.035156,0.01953 q 0.820312,0 1.083984,-0.175781 0.273438,-0.175782 0.498047,-0.830079 0.04883,-0.15625 0.175781,-0.46875 l 0.644532,-0.03906 0.126953,0.03906 q 0.04883,0.07813 0.04883,0.146485 0,0.15625 -0.04883,0.390625 -0.04883,0.234375 -0.117188,0.771484 -0.05859,0.53711 -0.3125,2.138672 z" />
   </g>
   </g>
</svg>