<?xml version="1.0" encoding="UTF-8" standalone="no"?>
<svg height="380" width="360" viewBox="0 0 360 380" version="1.1" xml:space="preserve"
   xmlns="http://www.w3.org/2000/svg" xmlns:svg="http://www.w3.org/2000/svg">
   <g id="g143">
      <rect id="panel" style="fill:#101010" x="0" y="0" width="360" height="380" />
      <g aria-label="HC-2" style="fill:#d0d0d0" id="g141">
         <!-- Garamond -->
         <path d="m 23.134211,17.713247 q 0,-0.292968 0.05859,-0.693359 l 1.220703,-0.214844 q 0.22461,-0.04883 0.53711,-0.15625 l 0.126953,-2.441406 q -0.03906,-1.318359 -0.03906,-1.972656 l 0.0098,-0.234375 q 0.0293,-0.400391 0.0293,-2.0117191 l -0.01953,-0.2832031 0.01953,-0.8203125 -0.0098,-0.8496094 V 7.615591 q 0,-0.5664062 -0.08789,-1.328125 -0.0098,-0.068359 -0.07813,-0.234375 -0.07813,-0.029297 -0.175782,-0.039063 -0.08789,-0.00977 -0.185546,-0.029297 -0.38086,-0.068359 -0.810547,-0.097656 l -0.146485,-0.039063 q -0.263672,-0.029297 -0.40039,-0.078125 -0.0293,-0.2832031 -0.0293,-0.3613281 0,-0.1171875 0.05859,-0.3222656 0.195312,-0.039063 0.546875,-0.039063 0.351562,0 0.488281,-0.00977 1.191406,0.1269532 1.767578,0.1367188 0.263672,0 0.527344,0.019531 0.273437,0.00977 0.478515,0.00977 0.322266,0 1.572266,-0.097656 0.205078,-0.048828 0.449219,-0.048828 0.361328,0 0.605468,0.039063 0.0098,0.2050781 0.0098,0.2929687 0,0.15625 -0.03906,0.3808594 l -1.71875,0.2734375 q -0.214844,0.097656 -0.214844,0.2832031 l 0.0293,0.3613282 0.0098,0.15625 -0.0098,0.4296875 -0.01953,0.3320312 v 0.078125 q 0.0098,0.1074219 0.0098,0.1855469 l -0.0098,1.2402344 q 0.0098,0.1757812 0.0098,0.2636718 0,0.048828 -0.01953,0.3125 -0.0098,0.15625 -0.0098,0.3222655 0,0.146485 0.0293,0.69336 0.273438,0.04883 0.458984,0.05859 l 1.445313,0.0293 h 0.703125 l 1.757812,0.0098 1.708985,-0.04883 q 0.332031,0 0.703125,-0.06836 0.01953,-0.332031 0.0293,-1.6308591 l 0.01953,-0.4394531 -0.05859,-1.6601563 -0.06836,-0.6835937 q -0.0293,-0.068359 -0.136719,-0.1269531 -0.341797,-0.1953125 -1.367187,-0.4394532 -0.185547,-0.039063 -0.351563,-0.097656 0.01953,-0.3417969 0.07813,-0.5566406 0.214844,-0.00977 0.263672,-0.00977 l 0.947266,0.00977 q 0.908203,0.1171875 1.845703,0.1171875 0.214843,0 0.341797,-0.00977 l 1.269531,-0.039063 q 0.175781,-0.00977 0.341797,-0.019531 0.351562,-0.078125 0.722656,-0.078125 0.283203,0 0.683594,0.029297 -0.0098,0.3808593 -0.04883,0.6933593 -0.898438,0.1855469 -1.181641,0.2734375 -0.273438,0.078125 -0.556641,0.2246094 l -0.05859,0.1953125 V 6.599966 l 0.0098,0.2539063 -0.0098,0.1269531 q -0.01953,0.2050781 -0.01953,0.3125 V 7.537466 q 0.0098,0.4394532 0.0098,0.4882813 v 1.2402344 l 0.0098,0.9375003 -0.01953,1.240234 q -0.0098,0.429688 0.0293,1.757813 v 1.386718 l 0.01953,1.152344 q 0,0.322266 -0.01953,0.78125 0.205078,0.05859 0.38086,0.09766 0.917968,0.195313 1.386718,0.400391 l 0.0293,0.683594 q -0.390625,0.0098 -0.458984,0.0098 -0.46875,0 -1.074219,-0.05859 -0.800781,-0.08789 -2.578125,-0.08789 -0.800781,0 -2.070312,0.126953 -0.136719,0 -0.332032,-0.05859 0.0098,-0.449218 0.04883,-0.634765 l 0.751954,-0.175782 0.791015,-0.126953 q 0.117188,-0.0293 0.302735,-0.08789 0.107421,-0.791016 0.117187,-2.626953 l 0.0098,-0.830079 q -0.05859,-0.517578 -0.05859,-1.240234 -0.361328,-0.0293 -0.78125,-0.03906 l -4.53125,-0.04883 -0.08789,-0.0098 -0.06836,-0.0098 q -0.06836,0 -0.15625,0.0098 -0.253906,0.0098 -0.429688,0.0098 h -0.273437 q -0.185547,0 -0.419922,0.06836 l -0.03906,0.732422 v 0.126953 q 0.01953,0.263672 0.01953,0.341797 v 3.027343 q 0,0.253907 0.0293,0.517579 l 0.09766,0.05859 1.435547,0.22461 q 0.107422,0.03906 0.166015,0.04883 0.126954,0.0293 0.214844,0.08789 0.0293,0.22461 0.0293,0.302735 0,0.126953 -0.03906,0.351562 -0.351563,0.0098 -0.595704,0.0098 -0.214843,0 -0.40039,-0.0098 -0.08789,0 -0.166016,-0.0098 l -1.376953,-0.05859 q -0.488281,-0.04883 -1.367187,-0.04883 l -0.205079,0.0098 q -0.410156,0.01953 -0.478515,0.0293 -0.605469,0.07813 -1.894531,0.07813 z" />
         <path d="m 51.806086,5.3109035 q 0.126953,0.2929688 0.517578,1.6699219 0.175781,0.625 0.185547,1.328125 H 51.620539 Q 50.683039,6.9808254 49.686945,6.4046535 48.690851,5.818716 47.460382,5.818716 q -1.513671,0 -2.441406,1.1816407 -1.259765,1.6015625 -1.259765,4.4628903 0,1.660157 0.214843,2.363282 0.351563,1.142578 0.888672,1.865234 0.410156,0.546875 1.074219,0.869141 0.859375,0.439453 1.835937,0.439453 1.074219,0 2.070313,-0.664063 1.005859,-0.673828 1.923828,-2.001953 0.361328,-0.06836 0.947266,-0.07813 -0.03906,0.371094 -0.126953,0.771484 -0.0293,0.15625 -0.22461,1.240235 l -0.08789,0.292969 -0.136719,0.458984 q -0.595703,0.458984 -1.679688,0.693359 -1.074218,0.22461 -2.646484,0.22461 -1.201172,0 -2.275391,-0.22461 -1.064453,-0.224609 -1.826172,-0.71289 -1.113281,-0.703125 -1.748046,-1.523438 -0.634766,-0.820312 -0.947266,-1.787109 -0.302734,-0.966797 -0.302734,-2.167969 0,-2.9101562 1.914062,-4.8046875 1.923828,-1.8945312 4.902344,-1.8945312 1.210937,0 2.27539,0.1269531 1.074219,0.1171875 2.001954,0.3613281 z" />
         <path d="m 54.091242,10.791372 h 3.076172 l 1.5625,-0.01953 q 0.322265,0 0.595703,0.03906 0.0293,0.458984 0.05859,0.683593 l 0.0098,0.166016 -0.03906,0.507812 q -0.0098,0.117188 -0.0098,0.292969 v 0.175781 l -5.292969,0.0098 q -0.0098,-0.283203 -0.0098,-0.429687 0,-0.244141 0.01953,-0.546875 0.0098,-0.15625 0.0098,-0.22461 l -0.0098,-0.488281 z" />
         <path d="m 68.534601,17.771841 h -1.015625 q -0.361328,0 -0.566406,-0.0098 -0.322266,-0.0098 -0.390625,-0.0098 l -0.664063,0.0293 -0.175781,-0.01953 q -0.234375,-0.0293 -0.576172,-0.0293 -0.322265,0 -1.103515,0.0293 -0.371094,0.0098 -0.449219,0.0098 l -0.986328,-0.01953 -1.582031,0.01953 h -0.625 v -0.664062 q 1.386718,-1.757813 2.080078,-2.451172 0.703125,-0.703125 1.992187,-2.324219 0.898438,-1.113281 1.230469,-1.992188 0.341797,-0.8789058 0.341797,-1.5234371 0,-0.7226562 -0.214844,-1.2988281 -0.205078,-0.5761719 -0.742187,-0.9082031 -0.527344,-0.3320313 -1.152344,-0.3320313 -0.634766,0 -1.142578,0.3125 -0.507813,0.3125 -0.742188,0.7910156 -0.361328,0.6933594 -0.439453,1.4453125 h -0.712891 q -0.0293,-0.4199218 -0.0293,-0.703125 0,-0.9472656 0.732421,-1.8164062 1.132813,-1.3476563 3.19336,-1.3476563 1.71875,0 2.705078,0.9765625 0.986328,0.9667969 0.986328,2.4414063 0,0.5859375 -0.185547,1.1035156 -0.263672,0.7031246 -0.644531,1.2207036 -0.371094,0.517578 -2.060547,2.207031 -1.220703,1.220703 -3.056641,2.890625 l 1.083985,0.01953 1.777344,-0.03906 1.035156,0.01953 q 0.820312,0 1.083984,-0.175781 0.273438,-0.175782 0.498047,-0.830079 0.04883,-0.15625 0.175781,-0.46875 l 0.644532,-0.03906 0.126953,0.03906 q 0.04883,0.07813 0.04883,0.146485 0,0.15625 -0.04883,0.390625 -0.04883,0.234375 -0.117188,0.771484 -0.05859,0.53711 -0.3125,2.138672 z" />
      </g>
   </g>
   <!-- <rect style="fill:#0f0f0f;fill-opacity:1;stroke-width:0.75;stroke-opacity:0.501961" width="230" height="17" x="65" y="24" />
   <rect style="fill:#0f0f0f;fill-opacity:1;stroke-width:0.75;stroke-opacity:0.501961" width="230" height="17" x="65" y="44" /> -->
   <g aria-label="CHANNEL 1" id="text993"
      style="fill:#56a1d1;fill-opacity:0.25"
      transform="translate(0,0.8187025)">
      <path d="m 125.3252,26.771141 q 0.10156,0.234375 0.41406,1.335938 0.14062,0.5 0.14844,1.0625 h -0.71094 q -0.75,-1.0625 -1.54688,-1.523438 -0.79687,-0.46875 -1.78125,-0.46875 -1.21093,0 -1.95312,0.945313 -1.00781,1.28125 -1.00781,3.570312 0,1.328125 0.17187,1.890625 0.28125,0.914063 0.71094,1.492188 0.32812,0.4375 0.85937,0.695312 0.6875,0.351563 1.46875,0.351563 0.85938,0 1.65625,-0.53125 0.80469,-0.539063 1.53907,-1.601563 0.28906,-0.05469 0.75781,-0.0625 -0.0312,0.296875 -0.10156,0.617188 -0.0234,0.125 -0.17969,0.992187 l -0.0703,0.234375 -0.10938,0.367188 q -0.47656,0.367187 -1.34375,0.554687 -0.85937,0.179688 -2.11719,0.179688 -0.96093,0 -1.82031,-0.179688 -0.85156,-0.179687 -1.46094,-0.570312 -0.89062,-0.5625 -1.39843,-1.21875 -0.50782,-0.65625 -0.75782,-1.429688 -0.24218,-0.773437 -0.24218,-1.734375 0,-2.328125 1.53125,-3.84375 1.53906,-1.515625 3.92187,-1.515625 0.96875,0 1.82031,0.101563 0.85938,0.09375 1.60157,0.289062 z" />
      <path d="m 131.05957,36.693016 q 0,-0.234375 0.0469,-0.554687 l 0.97656,-0.171875 q 0.17969,-0.03906 0.42969,-0.125 l 0.10156,-1.953125 q -0.0312,-1.054688 -0.0312,-1.578125 l 0.008,-0.1875 q 0.0234,-0.320313 0.0234,-1.609375 l -0.0156,-0.226563 0.0156,-0.65625 -0.008,-0.679687 v -0.335938 q 0,-0.453125 -0.0703,-1.0625 -0.008,-0.05469 -0.0625,-0.1875 -0.0625,-0.02344 -0.14062,-0.03125 -0.0703,-0.0078 -0.14844,-0.02344 -0.30469,-0.05469 -0.64844,-0.07813 l -0.11718,-0.03125 q -0.21094,-0.02344 -0.32032,-0.0625 -0.0234,-0.226563 -0.0234,-0.289063 0,-0.09375 0.0469,-0.257812 0.15625,-0.03125 0.4375,-0.03125 0.28125,0 0.39063,-0.0078 0.95312,0.101563 1.41406,0.109375 0.21094,0 0.42187,0.01563 0.21875,0.0078 0.38282,0.0078 0.25781,0 1.25781,-0.07813 0.16406,-0.03906 0.35937,-0.03906 0.28907,0 0.48438,0.03125 0.008,0.164063 0.008,0.234375 0,0.125 -0.0312,0.304688 l -1.375,0.21875 q -0.17187,0.07813 -0.17187,0.226562 l 0.0234,0.289063 0.008,0.125 -0.008,0.34375 -0.0156,0.265625 v 0.0625 q 0.008,0.08594 0.008,0.148437 l -0.008,0.992188 q 0.008,0.140625 0.008,0.210937 0,0.03906 -0.0156,0.25 -0.008,0.125 -0.008,0.257813 0,0.117187 0.0234,0.554687 0.21875,0.03906 0.36719,0.04687 l 1.15625,0.02344 h 0.5625 l 1.40625,0.0078 1.36719,-0.03906 q 0.26562,0 0.5625,-0.05469 0.0156,-0.265625 0.0234,-1.304687 l 0.0156,-0.351563 -0.0469,-1.328125 -0.0547,-0.546875 q -0.0234,-0.05469 -0.10938,-0.101562 -0.27344,-0.15625 -1.09375,-0.351563 -0.14844,-0.03125 -0.28125,-0.07813 0.0156,-0.273437 0.0625,-0.445312 0.17188,-0.0078 0.21094,-0.0078 l 0.75781,0.0078 q 0.72656,0.09375 1.47656,0.09375 0.17188,0 0.27344,-0.0078 l 1.01563,-0.03125 q 0.14062,-0.0078 0.27343,-0.01563 0.28125,-0.0625 0.57813,-0.0625 0.22656,0 0.54687,0.02344 -0.008,0.304687 -0.0391,0.554687 -0.71875,0.148438 -0.94531,0.21875 -0.21875,0.0625 -0.44531,0.179688 l -0.0469,0.15625 v 0.132812 l 0.008,0.203125 -0.008,0.101563 q -0.0156,0.164062 -0.0156,0.25 v 0.195312 q 0.008,0.351563 0.008,0.390625 v 0.992188 l 0.008,0.75 -0.0156,0.992187 q -0.008,0.34375 0.0234,1.40625 v 1.109375 l 0.0156,0.921875 q 0,0.257813 -0.0156,0.625 0.16407,0.04687 0.30469,0.07813 0.73438,0.15625 1.10938,0.320313 l 0.0234,0.546875 q -0.3125,0.0078 -0.36718,0.0078 -0.375,0 -0.85938,-0.04687 -0.64062,-0.07031 -2.0625,-0.07031 -0.64062,0 -1.65625,0.101562 -0.10937,0 -0.26562,-0.04687 0.008,-0.359375 0.0391,-0.507812 l 0.60156,-0.140625 0.63281,-0.101563 q 0.0937,-0.02344 0.24219,-0.07031 0.0859,-0.632813 0.0937,-2.101563 l 0.008,-0.664062 q -0.0469,-0.414063 -0.0469,-0.992188 -0.28906,-0.02344 -0.625,-0.03125 l -3.625,-0.03906 -0.0703,-0.0078 -0.0547,-0.0078 q -0.0547,0 -0.125,0.0078 -0.20313,0.0078 -0.34375,0.0078 h -0.21875 q -0.14844,0 -0.33594,0.05469 l -0.0312,0.585938 v 0.101562 q 0.0156,0.210938 0.0156,0.273438 v 2.421875 q 0,0.203125 0.0234,0.414062 l 0.0781,0.04687 1.14844,0.179688 q 0.0859,0.03125 0.13281,0.03906 0.10156,0.02344 0.17187,0.07031 0.0234,0.179687 0.0234,0.242187 0,0.101563 -0.0312,0.28125 -0.28125,0.0078 -0.47656,0.0078 -0.17188,0 -0.32031,-0.0078 -0.0703,0 -0.13282,-0.0078 l -1.10156,-0.04687 q -0.39062,-0.03906 -1.09375,-0.03906 l -0.16406,0.0078 q -0.32813,0.01563 -0.38281,0.02344 -0.48438,0.0625 -1.51563,0.0625 z" />
      <path d="m 148.19238,36.716454 0.0156,-0.53125 q 0.14844,-0.04687 0.52344,-0.117188 0.60156,-0.117187 0.72656,-0.210937 0.13281,-0.09375 0.32031,-0.453125 l 1.57813,-4.132813 1.85156,-4.859375 q 0.25781,0.0078 0.49219,0.0078 h 0.35156 l 0.0703,0.140625 1.35938,3.21875 q 0.46093,1.023437 0.82812,1.992187 0.36719,0.960938 0.63281,1.570313 0.15625,0.367187 0.42969,1.101562 0.14063,0.398438 0.42969,1 0.15625,0.328125 0.23437,0.382813 0.14063,0.117187 0.45313,0.15625 0.32031,0.03906 0.6875,0.179687 0.0391,0.257813 0.0391,0.382813 0,0.05469 -0.008,0.171875 -0.57813,0 -1.27344,-0.05469 -0.69531,-0.05469 -1.25,-0.05469 -0.61719,0 -0.89062,0.01563 l -1.32813,0.07031 -0.38281,0.01563 q 0,-0.273437 0.0234,-0.523437 l 0.86718,-0.1875 q 0.39063,-0.101563 0.45313,-0.15625 0.0781,-0.07813 0.0781,-0.179688 0,-0.101562 -0.0391,-0.210937 l -0.3125,-0.765625 -0.61719,-1.53125 -2.98437,-0.0078 q -0.16406,0.375 -0.67969,1.835938 -0.14844,0.414062 -0.14844,0.5625 0,0.203125 0.10938,0.289062 0.17969,0.148438 0.6875,0.210938 0.0703,0.01563 0.55469,0.08594 0.008,0.28125 0.008,0.390625 0,0.08594 -0.0156,0.179688 -0.48437,0 -2.3125,-0.132813 l -0.32031,0.05469 q -0.57812,0.09375 -1.10156,0.09375 z m 3.67188,-4.390625 q 1.82812,0.02344 2.15625,0.02344 l 0.19531,-0.0078 q -0.23437,-0.695313 -0.60937,-1.617188 -0.375,-0.929687 -0.60938,-1.414062 z" />
      <path d="m 162.98145,27.224266 -0.0312,-0.546875 h 0.66406 l 0.22656,-0.0078 q 0.46875,-0.02344 0.64844,-0.02344 0.0937,0 0.54687,0.01563 0.10157,0.0078 0.17188,0.0078 0.0703,0 0.49219,-0.01563 0.42187,-0.01563 0.47656,-0.01563 0.0859,0 0.24219,0.0078 1.20312,1.09375 1.96093,1.882813 0.75782,0.789062 5.53125,5.523437 v -0.195312 l -0.0312,-0.90625 q -0.0234,-0.796875 -0.0625,-1.257813 -0.0391,-0.46875 -0.0469,-1.109375 -0.008,-0.648437 -0.0547,-1.171875 -0.0937,-1.023437 -0.0937,-1.179687 -0.008,-0.507813 -0.10937,-0.617188 -0.16407,-0.171875 -0.75,-0.257812 -0.42969,-0.07031 -0.64063,-0.179688 l 0.008,-0.460937 0.20313,-0.02344 1.53906,-0.04687 1.71875,-0.04687 q 0.17188,-0.0078 0.32813,-0.0078 l 0.008,0.507812 q -0.17969,0.09375 -0.36719,0.140625 -0.5,0.117188 -0.57812,0.164063 -0.39844,0.226562 -0.42969,0.273437 -0.0703,0.09375 -0.0703,0.289063 0,0.04687 0.0156,0.328125 0.008,0.140625 0.008,0.65625 0.008,1.132812 0.0625,1.789062 0.0156,0.210938 0.0234,0.476563 l 0.0859,2.742187 q 0.008,0.289063 0.008,0.40625 v 0.960938 l 0.0234,0.40625 -0.0234,0.421875 q 0.0312,0.320312 0.0312,0.382812 v 0.414063 l -0.89844,0.03125 -0.92968,-0.960938 -1.89844,-1.882812 -1.32813,-1.328125 -0.97656,-1 q -0.95312,-0.9375 -1.73437,-1.648438 l -1.27344,-1.148437 0.0703,2.90625 q 0.008,0.265625 0.008,0.546875 l -0.008,0.554687 0.0469,1.023438 q 0.0234,0.640625 0.0859,1.390625 0.0156,0.203125 0.0391,0.289062 0.0234,0.07813 0.0937,0.234375 0.30468,0.109375 1.32812,0.164063 0.0703,0.01563 0.20313,0.05469 l 0.0312,0.632813 -0.30469,0.0078 q -0.25,0 -1.57813,-0.117187 -1.24218,0.01563 -1.65625,0.04687 -0.41406,0.03125 -0.45312,0.03125 -0.0937,0 -0.25781,-0.03125 -0.0156,-0.179688 -0.0156,-0.3125 0,-0.08594 0.008,-0.28125 0.21875,-0.03906 0.35938,-0.03906 0.0469,0 0.30469,0.01563 0.65625,0 0.77343,-0.09375 0.125,-0.101562 0.14063,-0.53125 0.0547,-1.242187 0.0547,-1.515625 v -0.429687 l 0.0156,-2.539063 -0.0234,-1.585937 q -0.008,-0.90625 -0.11718,-1.257813 -0.0469,-0.179687 -0.17969,-0.3125 -0.27344,-0.28125 -0.60938,-0.421875 -0.20312,-0.08594 -1.05468,-0.21875 z" />
      <path d="m 180.48145,27.224266 -0.0312,-0.546875 h 0.66406 l 0.22656,-0.0078 q 0.46875,-0.02344 0.64844,-0.02344 0.0937,0 0.54687,0.01563 0.10157,0.0078 0.17188,0.0078 0.0703,0 0.49219,-0.01563 0.42187,-0.01563 0.47656,-0.01563 0.0859,0 0.24219,0.0078 1.20312,1.09375 1.96093,1.882813 0.75782,0.789062 5.53125,5.523437 v -0.195312 l -0.0312,-0.90625 q -0.0234,-0.796875 -0.0625,-1.257813 -0.0391,-0.46875 -0.0469,-1.109375 -0.008,-0.648437 -0.0547,-1.171875 -0.0937,-1.023437 -0.0937,-1.179687 -0.008,-0.507813 -0.10937,-0.617188 -0.16407,-0.171875 -0.75,-0.257812 -0.42969,-0.07031 -0.64063,-0.179688 l 0.008,-0.460937 0.20313,-0.02344 1.53906,-0.04687 1.71875,-0.04687 q 0.17188,-0.0078 0.32813,-0.0078 l 0.008,0.507812 q -0.17969,0.09375 -0.36719,0.140625 -0.5,0.117188 -0.57812,0.164063 -0.39844,0.226562 -0.42969,0.273437 -0.0703,0.09375 -0.0703,0.289063 0,0.04687 0.0156,0.328125 0.008,0.140625 0.008,0.65625 0.008,1.132812 0.0625,1.789062 0.0156,0.210938 0.0234,0.476563 l 0.0859,2.742187 q 0.008,0.289063 0.008,0.40625 v 0.960938 l 0.0234,0.40625 -0.0234,0.421875 q 0.0312,0.320312 0.0312,0.382812 v 0.414063 l -0.89844,0.03125 -0.92968,-0.960938 -1.89844,-1.882812 -1.32813,-1.328125 -0.97656,-1 q -0.95312,-0.9375 -1.73437,-1.648438 l -1.27344,-1.148437 0.0703,2.90625 q 0.008,0.265625 0.008,0.546875 l -0.008,0.554687 0.0469,1.023438 q 0.0234,0.640625 0.0859,1.390625 0.0156,0.203125 0.0391,0.289062 0.0234,0.07813 0.0937,0.234375 0.30468,0.109375 1.32812,0.164063 0.0703,0.01563 0.20313,0.05469 l 0.0312,0.632813 -0.30469,0.0078 q -0.25,0 -1.57813,-0.117187 -1.24218,0.01563 -1.65625,0.04687 -0.41406,0.03125 -0.45312,0.03125 -0.0937,0 -0.25781,-0.03125 -0.0156,-0.179688 -0.0156,-0.3125 0,-0.08594 0.008,-0.28125 0.21875,-0.03906 0.35938,-0.03906 0.0469,0 0.30469,0.01563 0.65625,0 0.77343,-0.09375 0.125,-0.101562 0.14063,-0.53125 0.0547,-1.242187 0.0547,-1.515625 v -0.429687 l 0.0156,-2.539063 -0.0234,-1.585937 q -0.008,-0.90625 -0.11718,-1.257813 -0.0469,-0.179687 -0.17969,-0.3125 -0.27344,-0.28125 -0.60938,-0.421875 -0.20312,-0.08594 -1.05468,-0.21875 z" />
      <path d="m 198.21582,26.607079 q 0.44531,0.02344 0.77344,0.07031 0.61719,0.08594 1.42969,0.08594 0.28125,0 1.44531,-0.04687 1.74219,-0.07031 3.14844,-0.07031 l 1.41406,-0.01563 q 0.47656,0 1.40625,0.117188 0.14062,0.15625 0.14062,0.421875 v 1.609375 l 0.0156,0.320312 q 0,0.04687 -0.008,0.140625 l -0.32032,0.01563 q -0.0625,0 -0.26562,-0.01563 -0.0703,-0.15625 -0.1875,-0.460937 l -0.3125,-0.554688 q -0.17969,-0.351562 -0.5,-0.71875 -0.19531,-0.05469 -0.5,-0.0625 -0.0781,-0.0078 -0.47656,-0.03906 -0.72657,-0.0625 -1.5625,-0.0625 -0.95313,0 -1.70313,0.03125 -0.0234,0.195312 -0.0234,1.539062 l 0.0156,1.3125 v 0.984375 q 0.19531,0.02344 0.33594,0.02344 1.39843,0 1.99218,-0.05469 0.59375,-0.05469 0.73438,-0.148437 0.14062,-0.101563 0.25,-0.34375 0.0703,-0.171875 0.27344,-1.148438 l 0.10156,-0.0078 0.45312,0.0078 q 0.0312,0.695313 0.0312,1.054688 0,0.820312 -0.0156,1.054687 -0.008,0.234375 -0.008,0.367188 0,0.210937 0.0234,0.679687 0.0234,0.460938 0.0234,0.6875 v 0.171875 h -0.55469 q -0.0312,-0.125 -0.11718,-0.515625 -0.15625,-0.726562 -0.28125,-0.90625 -0.0937,-0.140625 -0.3125,-0.210937 -0.15625,-0.05469 -1.15625,-0.05469 -1.17969,0 -1.77344,0.0625 -0.008,0.203125 -0.008,0.265625 0,0.929688 0.0312,1.546875 l -0.0156,1.6875 q 0,0.296875 0.21094,0.40625 0.32031,0.164063 1.96094,0.164063 1.08593,0 1.84375,-0.164063 0.52343,-0.117187 0.92187,-0.523437 0.53125,-0.523438 0.88281,-1.46875 0.24219,-0.02344 0.39844,-0.02344 0.0859,0 0.25781,0.0078 -0.0234,0.195312 -0.0391,0.328125 l -0.0469,0.234375 -0.28907,1.476562 -0.14062,0.890625 q -0.50781,0.02344 -0.80469,0.02344 -0.4375,0 -2.33594,-0.07813 -1.33593,-0.05469 -3.21875,-0.05469 -0.9375,0 -2.30468,0.07813 h -0.32813 l -0.94531,0.03125 v -0.539062 q 0.14844,-0.03906 0.59375,-0.08594 0.8125,-0.09375 1.125,-0.25 0.0859,-0.226562 0.0859,-0.570312 0,-0.132813 -0.008,-0.453125 l 0.008,-0.242188 -0.0234,-2.945312 0.008,-0.882813 -0.0391,-1.25 0.008,-0.882812 -0.0703,-0.96875 q 0,-0.03906 -0.0156,-0.15625 -0.0781,-0.08594 -0.23437,-0.109375 -0.0859,-0.01563 -0.23438,-0.04687 -0.44531,-0.09375 -0.85937,-0.109375 -0.14844,-0.0078 -0.34375,-0.03125 z" />
      <path d="m 213.59082,36.075829 q 0.24219,-0.07031 0.67969,-0.132813 0.44531,-0.07031 0.52344,-0.07031 0.30468,-0.0078 0.40625,-0.101563 0.0469,-0.1875 0.0469,-0.3125 l -0.0156,-1 0.0469,-1.015625 v -0.648437 l 0.008,-0.765625 -0.0156,-0.8125 0.0312,-1.742188 0.008,-0.789062 v -0.109375 q -0.0547,-0.820313 -0.10937,-0.898438 -0.0469,-0.08594 -0.44532,-0.210937 -0.0391,-0.01563 -0.29687,-0.117188 -0.19531,-0.07813 -0.35156,-0.109375 -0.27344,-0.07031 -0.38282,-0.164062 -0.0156,-0.203125 -0.0156,-0.3125 0,-0.0625 0.008,-0.1875 0.0703,-0.03906 0.14844,-0.03906 0.1875,0 1.35937,0.0625 l 1.11719,-0.0078 0.82813,0.01563 q 0.53906,0 1.38281,-0.07031 0.25,-0.02344 0.28906,-0.02344 0.11719,0 0.16406,0.0625 0.0625,0.08594 0.0625,0.3125 0,0.179687 -0.0859,0.273437 -0.0469,0.05469 -0.34375,0.09375 l -0.96875,0.226563 q -0.0391,0.01563 -0.13282,0.0625 -0.0312,0.05469 -0.0469,0.09375 l -0.008,0.21875 -0.0234,0.492187 v 0.140625 l 0.008,0.08594 q 0,0.03906 -0.0234,0.429687 -0.008,0.101563 -0.008,0.203125 0,0.125 0.0156,0.421875 0.0234,0.46875 0.0234,0.820313 0,0.40625 -0.0234,0.929687 -0.008,0.195313 -0.008,0.507813 l -0.0312,3.703125 q 0,0.234375 0.0781,0.304687 l 0.74219,0.03125 0.46093,-0.0078 0.49219,0.01563 q 1.25781,0 1.97656,-0.289063 0.53907,-0.21875 0.70313,-0.4375 0.26562,-0.234375 0.42969,-0.507812 0.17187,-0.273438 0.38281,-0.90625 h 0.25 q 0.1875,0 0.42187,0.03125 v 0.21875 q 0,0.5625 -0.14062,1.96875 -0.0547,0.5625 -0.10938,0.6875 -0.17968,0.03125 -0.22656,0.03125 h -0.28906 l -0.40625,0.0078 q -0.0703,0 -0.92969,-0.0625 -0.15625,-0.0078 -1.49219,-0.05469 -1.33593,-0.04687 -2.61718,-0.04687 l -1.59375,0.04687 q -0.92188,0.02344 -1.72657,0.08594 h -0.11718 q -0.0469,0 -0.14844,-0.0078 -0.0156,-0.08594 -0.0156,-0.148438 0,-0.328125 0.0547,-0.476562 z" />
      <path d="m 238.60645,26.474266 q 0.0391,0 0.53125,-0.01563 l 0.25,0.0078 0.49218,0.0078 q 0.0312,0.25 0.0312,0.367188 0,0.03906 -0.008,0.242187 -0.008,0.109375 -0.0156,0.835938 l -0.0156,1.179687 0.008,0.742188 -0.0547,5.273437 v 0.445313 q 0,0.234375 0.10937,0.335937 0.10938,0.101563 0.58594,0.171875 0.1875,0.02344 0.75,0.125 0.0156,0.07813 0.0156,0.148438 0,0.08594 -0.0156,0.375 h -0.33594 q -0.34375,0 -1,-0.03125 -0.39844,-0.02344 -0.54687,-0.02344 -0.1875,0 -1.38282,0.03906 -0.13281,0.0078 -0.21875,0.0078 h -0.14062 l -0.22656,-0.01563 -0.21094,0.01563 -0.39063,-0.01563 q -0.0781,0 -0.32031,0.02344 -0.0156,-0.171875 -0.0156,-0.265625 0,-0.08594 0.0156,-0.257813 0.3125,-0.08594 0.72656,-0.171875 0.57032,-0.117187 0.69532,-0.226562 0.13281,-0.117188 0.13281,-0.304688 l -0.008,-0.53125 0.0312,-0.578125 -0.008,-1.1875 -0.008,-0.304687 q 0,-0.0625 0.0156,-0.46875 0.0156,-0.210938 0.0156,-0.375 0,-0.101563 -0.0234,-0.632813 l 0.0312,-0.445312 q -0.0312,-0.507813 -0.0312,-0.601563 0,-0.117187 0.008,-0.234375 l 0.0156,-0.195312 -0.0234,-0.53125 0.0234,-0.242188 q 0.008,-0.164062 0.008,-0.4375 0,-0.265625 -0.008,-0.648437 -0.55469,0.414062 -1.26562,0.828125 -0.0781,0.04687 -0.70313,0.320312 -0.25,-0.375 -0.32031,-0.5625 0.82812,-0.429687 1.125,-0.632812 0.49219,-0.34375 1.0625,-0.859375 0.24219,-0.226563 0.61719,-0.695313 z" />
   </g>
   <g aria-label="CHANNEL 16 " id="text993-3"
      style="fill:#56a1d1;fill-opacity:0.25"
      transform="translate(0,4)">
      <path d="m 118.48438,43.589844 q 0.10156,0.234375 0.41406,1.335937 0.14062,0.5 0.14844,1.0625 h -0.71094 q -0.75,-1.0625 -1.54688,-1.523437 -0.79687,-0.46875 -1.78125,-0.46875 -1.21093,0 -1.95312,0.945312 -1.00781,1.28125 -1.00781,3.570313 0,1.328125 0.17187,1.890625 0.28125,0.914062 0.71094,1.492187 0.32812,0.4375 0.85937,0.695313 0.6875,0.351562 1.46875,0.351562 0.85938,0 1.65625,-0.53125 0.80469,-0.539062 1.53907,-1.601562 0.28906,-0.05469 0.75781,-0.0625 -0.0312,0.296875 -0.10156,0.617187 -0.0234,0.125 -0.17969,0.992188 l -0.0703,0.234375 -0.10938,0.367187 q -0.47656,0.367188 -1.34375,0.554688 -0.85937,0.179687 -2.11719,0.179687 -0.96093,0 -1.82031,-0.179687 -0.85156,-0.179688 -1.46094,-0.570313 -0.89062,-0.5625 -1.39843,-1.21875 -0.50782,-0.65625 -0.75782,-1.429687 -0.24218,-0.773438 -0.24218,-1.734375 0,-2.328125 1.53125,-3.84375 1.53906,-1.515625 3.92187,-1.515625 0.96875,0 1.82031,0.101562 0.85938,0.09375 1.60157,0.289063 z" />
      <path d="m 124.21875,53.511719 q 0,-0.234375 0.0469,-0.554688 l 0.97656,-0.171875 q 0.17969,-0.03906 0.42969,-0.125 l 0.10156,-1.953125 q -0.0312,-1.054687 -0.0312,-1.578125 l 0.008,-0.1875 q 0.0234,-0.320312 0.0234,-1.609375 l -0.0156,-0.226562 0.0156,-0.65625 -0.008,-0.679688 v -0.335937 q 0,-0.453125 -0.0703,-1.0625 -0.008,-0.05469 -0.0625,-0.1875 -0.0625,-0.02344 -0.14062,-0.03125 -0.0703,-0.0078 -0.14844,-0.02344 -0.30469,-0.05469 -0.64844,-0.07813 l -0.11718,-0.03125 q -0.21094,-0.02344 -0.32032,-0.0625 -0.0234,-0.226562 -0.0234,-0.289062 0,-0.09375 0.0469,-0.257813 0.15625,-0.03125 0.4375,-0.03125 0.28125,0 0.39063,-0.0078 0.95312,0.101562 1.41406,0.109375 0.21094,0 0.42187,0.01563 0.21875,0.0078 0.38282,0.0078 0.25781,0 1.25781,-0.07813 0.16406,-0.03906 0.35937,-0.03906 0.28906,0 0.48438,0.03125 0.008,0.164062 0.008,0.234375 0,0.125 -0.0312,0.304687 l -1.375,0.21875 q -0.17187,0.07813 -0.17187,0.226563 l 0.0234,0.289062 0.008,0.125 -0.008,0.34375 -0.0156,0.265625 v 0.0625 q 0.008,0.08594 0.008,0.148438 l -0.008,0.992187 q 0.008,0.140625 0.008,0.210938 0,0.03906 -0.0156,0.25 -0.008,0.125 -0.008,0.257812 0,0.117188 0.0234,0.554688 0.21875,0.03906 0.36719,0.04687 l 1.15625,0.02344 h 0.5625 l 1.40625,0.0078 1.36718,-0.03906 q 0.26563,0 0.5625,-0.05469 0.0156,-0.265625 0.0234,-1.304688 l 0.0156,-0.351562 -0.0469,-1.328125 -0.0547,-0.546875 q -0.0234,-0.05469 -0.10937,-0.101563 -0.27344,-0.15625 -1.09375,-0.351562 -0.14844,-0.03125 -0.28125,-0.07813 0.0156,-0.273438 0.0625,-0.445313 0.17187,-0.0078 0.21094,-0.0078 l 0.75781,0.0078 q 0.72656,0.09375 1.47656,0.09375 0.17188,0 0.27344,-0.0078 l 1.01562,-0.03125 q 0.14063,-0.0078 0.27344,-0.01563 0.28125,-0.0625 0.57813,-0.0625 0.22656,0 0.54687,0.02344 -0.008,0.304688 -0.0391,0.554688 -0.71875,0.148437 -0.94531,0.21875 -0.21875,0.0625 -0.44532,0.179687 l -0.0469,0.15625 v 0.132813 l 0.008,0.203125 -0.008,0.101562 q -0.0156,0.164063 -0.0156,0.25 v 0.195313 q 0.008,0.351562 0.008,0.390625 v 0.992187 l 0.008,0.75 -0.0156,0.992188 q -0.008,0.34375 0.0234,1.40625 v 1.109375 l 0.0156,0.921875 q 0,0.257812 -0.0156,0.625 0.16406,0.04687 0.30469,0.07813 0.73437,0.15625 1.10937,0.320312 l 0.0234,0.546875 q -0.3125,0.0078 -0.36719,0.0078 -0.375,0 -0.85937,-0.04687 -0.64063,-0.07031 -2.0625,-0.07031 -0.64063,0 -1.65625,0.101563 -0.10938,0 -0.26563,-0.04687 0.008,-0.359375 0.0391,-0.507813 l 0.60156,-0.140625 0.63281,-0.101562 q 0.0937,-0.02344 0.24219,-0.07031 0.0859,-0.632812 0.0937,-2.101562 l 0.008,-0.664063 q -0.0469,-0.414062 -0.0469,-0.992187 -0.28907,-0.02344 -0.625,-0.03125 l -3.625,-0.03906 -0.0703,-0.0078 -0.0547,-0.0078 q -0.0547,0 -0.125,0.0078 -0.20313,0.0078 -0.34375,0.0078 h -0.21875 q -0.14844,0 -0.33594,0.05469 l -0.0312,0.585937 v 0.101563 q 0.0156,0.210937 0.0156,0.273437 v 2.421875 q 0,0.203125 0.0234,0.414063 l 0.0781,0.04687 1.14843,0.179687 q 0.0859,0.03125 0.13282,0.03906 0.10156,0.02344 0.17187,0.07031 0.0234,0.179688 0.0234,0.242188 0,0.101562 -0.0312,0.28125 -0.28125,0.0078 -0.47656,0.0078 -0.17188,0 -0.32032,-0.0078 -0.0703,0 -0.13281,-0.0078 l -1.10156,-0.04687 q -0.39062,-0.03906 -1.09375,-0.03906 l -0.16406,0.0078 q -0.32813,0.01563 -0.38281,0.02344 -0.48438,0.0625 -1.51563,0.0625 z" />
      <path d="m 141.35156,53.535156 0.0156,-0.53125 q 0.14843,-0.04687 0.52343,-0.117187 0.60157,-0.117188 0.72657,-0.210938 0.13281,-0.09375 0.32031,-0.453125 l 1.57812,-4.132812 1.85157,-4.859375 q 0.25781,0.0078 0.49218,0.0078 h 0.35157 l 0.0703,0.140625 1.35937,3.21875 q 0.46094,1.023438 0.82813,1.992188 0.36719,0.960937 0.63281,1.570312 0.15625,0.367188 0.42969,1.101563 0.14062,0.398437 0.42969,1 0.15625,0.328125 0.23437,0.382812 0.14063,0.117188 0.45313,0.15625 0.32031,0.03906 0.6875,0.179688 0.0391,0.257812 0.0391,0.382812 0,0.05469 -0.008,0.171875 -0.57813,0 -1.27344,-0.05469 -0.69531,-0.05469 -1.25,-0.05469 -0.61719,0 -0.89063,0.01563 l -1.32812,0.07031 -0.38281,0.01563 q 0,-0.273438 0.0234,-0.523438 l 0.86719,-0.1875 q 0.39063,-0.101562 0.45313,-0.15625 0.0781,-0.07813 0.0781,-0.179687 0,-0.101563 -0.0391,-0.210938 l -0.3125,-0.765625 -0.61719,-1.53125 -2.98437,-0.0078 q -0.16407,0.375 -0.67969,1.835937 -0.14844,0.414063 -0.14844,0.5625 0,0.203125 0.10938,0.289063 0.17968,0.148437 0.6875,0.210937 0.0703,0.01563 0.55468,0.08594 0.008,0.28125 0.008,0.390625 0,0.08594 -0.0156,0.179687 -0.48437,0 -2.3125,-0.132812 l -0.32031,0.05469 q -0.57813,0.09375 -1.10156,0.09375 z m 3.67188,-4.390625 q 1.82812,0.02344 2.15625,0.02344 l 0.19531,-0.0078 q -0.23438,-0.695312 -0.60938,-1.617187 -0.375,-0.929688 -0.60937,-1.414063 z" />
      <path d="m 156.14062,44.042969 -0.0312,-0.546875 h 0.66407 L 157,43.488281 q 0.46875,-0.02344 0.64844,-0.02344 0.0937,0 0.54687,0.01563 0.10156,0.0078 0.17188,0.0078 0.0703,0 0.49218,-0.01563 0.42188,-0.01563 0.47657,-0.01563 0.0859,0 0.24218,0.0078 1.20313,1.09375 1.96094,1.882812 0.75781,0.789063 5.53125,5.523438 v -0.195313 l -0.0312,-0.90625 q -0.0234,-0.796875 -0.0625,-1.257812 -0.0391,-0.46875 -0.0469,-1.109375 -0.008,-0.648438 -0.0547,-1.171875 -0.0937,-1.023438 -0.0937,-1.179688 -0.008,-0.507812 -0.10938,-0.617187 -0.16406,-0.171875 -0.75,-0.257813 -0.42968,-0.07031 -0.64062,-0.179687 l 0.008,-0.460938 0.20313,-0.02344 1.53906,-0.04687 1.71875,-0.04687 q 0.17187,-0.0078 0.32812,-0.0078 l 0.008,0.507813 q -0.17969,0.09375 -0.36719,0.140625 -0.5,0.117187 -0.57813,0.164062 -0.39843,0.226563 -0.42968,0.273438 -0.0703,0.09375 -0.0703,0.289062 0,0.04687 0.0156,0.328125 0.008,0.140625 0.008,0.65625 0.008,1.132813 0.0625,1.789063 0.0156,0.210937 0.0234,0.476562 l 0.0859,2.742188 q 0.008,0.289062 0.008,0.40625 v 0.960937 l 0.0234,0.40625 -0.0234,0.421875 q 0.0312,0.320313 0.0312,0.382813 v 0.414062 l -0.89844,0.03125 -0.92969,-0.960937 -1.89843,-1.882813 -1.32813,-1.328125 -0.97656,-1 q -0.95313,-0.9375 -1.73438,-1.648437 l -1.27343,-1.148438 0.0703,2.90625 q 0.008,0.265625 0.008,0.546875 l -0.008,0.554688 0.0469,1.023437 q 0.0234,0.640625 0.0859,1.390625 0.0156,0.203125 0.0391,0.289063 0.0234,0.07813 0.0937,0.234375 0.30469,0.109375 1.32813,0.164062 0.0703,0.01563 0.20312,0.05469 l 0.0312,0.632812 -0.30468,0.0078 q -0.25,0 -1.57813,-0.117188 -1.24219,0.01563 -1.65625,0.04687 -0.41406,0.03125 -0.45312,0.03125 -0.0937,0 -0.25782,-0.03125 -0.0156,-0.179687 -0.0156,-0.3125 0,-0.08594 0.008,-0.28125 0.21875,-0.03906 0.35938,-0.03906 0.0469,0 0.30468,0.01563 0.65625,0 0.77344,-0.09375 0.125,-0.101563 0.14063,-0.53125 0.0547,-1.242188 0.0547,-1.515625 v -0.429688 l 0.0156,-2.539062 -0.0234,-1.585938 q -0.008,-0.90625 -0.11719,-1.257812 -0.0469,-0.179688 -0.17968,-0.3125 -0.27344,-0.28125 -0.60938,-0.421875 -0.20312,-0.08594 -1.05469,-0.21875 z" />
      <path d="m 173.64062,44.042969 -0.0312,-0.546875 h 0.66407 l 0.22656,-0.0078 q 0.46875,-0.02344 0.64844,-0.02344 0.0937,0 0.54687,0.01563 0.10156,0.0078 0.17188,0.0078 0.0703,0 0.49218,-0.01563 0.42188,-0.01563 0.47657,-0.01563 0.0859,0 0.24218,0.0078 1.20313,1.09375 1.96094,1.882812 0.75781,0.789063 5.53125,5.523438 v -0.195313 l -0.0312,-0.90625 q -0.0234,-0.796875 -0.0625,-1.257812 -0.0391,-0.46875 -0.0469,-1.109375 -0.008,-0.648438 -0.0547,-1.171875 -0.0937,-1.023438 -0.0937,-1.179688 -0.008,-0.507812 -0.10938,-0.617187 -0.16406,-0.171875 -0.75,-0.257813 -0.42968,-0.07031 -0.64062,-0.179687 l 0.008,-0.460938 0.20313,-0.02344 1.53906,-0.04687 1.71875,-0.04687 q 0.17187,-0.0078 0.32812,-0.0078 l 0.008,0.507813 q -0.17969,0.09375 -0.36719,0.140625 -0.5,0.117187 -0.57813,0.164062 -0.39843,0.226563 -0.42968,0.273438 -0.0703,0.09375 -0.0703,0.289062 0,0.04687 0.0156,0.328125 0.008,0.140625 0.008,0.65625 0.008,1.132813 0.0625,1.789063 0.0156,0.210937 0.0234,0.476562 l 0.0859,2.742188 q 0.008,0.289062 0.008,0.40625 v 0.960937 l 0.0234,0.40625 -0.0234,0.421875 q 0.0312,0.320313 0.0312,0.382813 v 0.414062 l -0.89844,0.03125 -0.92969,-0.960937 -1.89843,-1.882813 -1.32813,-1.328125 -0.97656,-1 q -0.95313,-0.9375 -1.73438,-1.648437 l -1.27343,-1.148438 0.0703,2.90625 q 0.008,0.265625 0.008,0.546875 l -0.008,0.554688 0.0469,1.023437 q 0.0234,0.640625 0.0859,1.390625 0.0156,0.203125 0.0391,0.289063 0.0234,0.07813 0.0937,0.234375 0.30469,0.109375 1.32813,0.164062 0.0703,0.01563 0.20312,0.05469 l 0.0312,0.632812 -0.30468,0.0078 q -0.25,0 -1.57813,-0.117188 -1.24219,0.01563 -1.65625,0.04687 -0.41406,0.03125 -0.45312,0.03125 -0.0937,0 -0.25782,-0.03125 -0.0156,-0.179687 -0.0156,-0.3125 0,-0.08594 0.008,-0.28125 0.21875,-0.03906 0.35938,-0.03906 0.0469,0 0.30468,0.01563 0.65625,0 0.77344,-0.09375 0.125,-0.101563 0.14063,-0.53125 0.0547,-1.242188 0.0547,-1.515625 v -0.429688 l 0.0156,-2.539062 -0.0234,-1.585938 q -0.008,-0.90625 -0.11719,-1.257812 -0.0469,-0.179688 -0.17968,-0.3125 -0.27344,-0.28125 -0.60938,-0.421875 -0.20312,-0.08594 -1.05469,-0.21875 z" />
      <path d="m 191.375,43.425781 q 0.44531,0.02344 0.77344,0.07031 0.61718,0.08594 1.42968,0.08594 0.28125,0 1.44532,-0.04687 1.74218,-0.07031 3.14843,-0.07031 l 1.41407,-0.01563 q 0.47656,0 1.40625,0.117187 0.14062,0.15625 0.14062,0.421875 v 1.609375 l 0.0156,0.320313 q 0,0.04687 -0.008,0.140625 l -0.32031,0.01563 q -0.0625,0 -0.26562,-0.01563 -0.0703,-0.15625 -0.1875,-0.460938 l -0.3125,-0.554687 q -0.17969,-0.351563 -0.5,-0.71875 -0.19532,-0.05469 -0.5,-0.0625 -0.0781,-0.0078 -0.47657,-0.03906 -0.72656,-0.0625 -1.5625,-0.0625 -0.95312,0 -1.70312,0.03125 -0.0234,0.195313 -0.0234,1.539063 l 0.0156,1.3125 v 0.984375 q 0.19531,0.02344 0.33593,0.02344 1.39844,0 1.99219,-0.05469 0.59375,-0.05469 0.73438,-0.148438 0.14062,-0.101562 0.25,-0.34375 0.0703,-0.171875 0.27343,-1.148437 l 0.10157,-0.0078 0.45312,0.0078 q 0.0312,0.695312 0.0312,1.054687 0,0.820313 -0.0156,1.054688 -0.008,0.234375 -0.008,0.367187 0,0.210938 0.0234,0.679688 0.0234,0.460937 0.0234,0.6875 v 0.171875 h -0.55469 q -0.0312,-0.125 -0.11719,-0.515625 -0.15625,-0.726563 -0.28125,-0.90625 -0.0937,-0.140625 -0.3125,-0.210938 -0.15625,-0.05469 -1.15625,-0.05469 -1.17968,0 -1.77343,0.0625 -0.008,0.203125 -0.008,0.265625 0,0.929687 0.0312,1.546875 l -0.0156,1.6875 q 0,0.296875 0.21094,0.40625 0.32031,0.164062 1.96093,0.164062 1.08594,0 1.84375,-0.164062 0.52344,-0.117188 0.92188,-0.523438 0.53125,-0.523437 0.88281,-1.46875 0.24219,-0.02344 0.39844,-0.02344 0.0859,0 0.25781,0.0078 -0.0234,0.195313 -0.0391,0.328125 l -0.0469,0.234375 -0.28906,1.476563 -0.14062,0.890625 q -0.50782,0.02344 -0.80469,0.02344 -0.4375,0 -2.33594,-0.07813 -1.33594,-0.05469 -3.21875,-0.05469 -0.9375,0 -2.30469,0.07813 h -0.32812 l -0.94531,0.03125 v -0.539063 q 0.14843,-0.03906 0.59375,-0.08594 0.8125,-0.09375 1.125,-0.25 0.0859,-0.226563 0.0859,-0.570313 0,-0.132812 -0.008,-0.453125 l 0.008,-0.242187 -0.0234,-2.945313 0.008,-0.882812 -0.0391,-1.25 0.008,-0.882813 -0.0703,-0.96875 q 0,-0.03906 -0.0156,-0.15625 -0.0781,-0.08594 -0.23437,-0.109375 -0.0859,-0.01563 -0.23438,-0.04687 -0.44531,-0.09375 -0.85937,-0.109375 -0.14844,-0.0078 -0.34375,-0.03125 z" />
      <path d="m 206.75,52.894531 q 0.24219,-0.07031 0.67969,-0.132812 0.44531,-0.07031 0.52343,-0.07031 0.30469,-0.0078 0.40625,-0.101562 0.0469,-0.1875 0.0469,-0.3125 l -0.0156,-1 0.0469,-1.015625 v -0.648438 l 0.008,-0.765625 -0.0156,-0.8125 0.0312,-1.742187 0.008,-0.789063 v -0.109375 q -0.0547,-0.820312 -0.10938,-0.898437 -0.0469,-0.08594 -0.44531,-0.210938 -0.0391,-0.01563 -0.29687,-0.117187 -0.19532,-0.07813 -0.35157,-0.109375 -0.27343,-0.07031 -0.38281,-0.164063 -0.0156,-0.203125 -0.0156,-0.3125 0,-0.0625 0.008,-0.1875 0.0703,-0.03906 0.14844,-0.03906 0.1875,0 1.35937,0.0625 l 1.11719,-0.0078 0.82812,0.01563 q 0.53907,0 1.38282,-0.07031 0.25,-0.02344 0.28906,-0.02344 0.11719,0 0.16406,0.0625 0.0625,0.08594 0.0625,0.3125 0,0.179688 -0.0859,0.273438 -0.0469,0.05469 -0.34375,0.09375 l -0.96875,0.226562 q -0.0391,0.01563 -0.13281,0.0625 -0.0312,0.05469 -0.0469,0.09375 l -0.008,0.21875 -0.0234,0.492188 v 0.140625 l 0.008,0.08594 q 0,0.03906 -0.0234,0.429688 -0.008,0.101562 -0.008,0.203125 0,0.125 0.0156,0.421875 0.0234,0.46875 0.0234,0.820312 0,0.40625 -0.0234,0.929688 -0.008,0.195312 -0.008,0.507812 l -0.0312,3.703125 q 0,0.234375 0.0781,0.304688 l 0.74218,0.03125 0.46094,-0.0078 0.49219,0.01563 q 1.25781,0 1.97656,-0.289062 0.53906,-0.21875 0.70313,-0.4375 0.26562,-0.234375 0.42968,-0.507813 0.17188,-0.273437 0.38282,-0.90625 h 0.25 q 0.1875,0 0.42187,0.03125 v 0.21875 q 0,0.5625 -0.14062,1.96875 -0.0547,0.5625 -0.10938,0.6875 -0.17969,0.03125 -0.22656,0.03125 h -0.28906 l -0.40625,0.0078 q -0.0703,0 -0.92969,-0.0625 -0.15625,-0.0078 -1.49219,-0.05469 -1.33594,-0.04687 -2.61719,-0.04687 l -1.59375,0.04687 q -0.92187,0.02344 -1.72656,0.08594 h -0.11719 q -0.0469,0 -0.14843,-0.0078 -0.0156,-0.08594 -0.0156,-0.148437 0,-0.328125 0.0547,-0.476563 z" />
      <path d="m 231.76562,43.292969 q 0.0391,0 0.53125,-0.01563 l 0.25,0.0078 0.49219,0.0078 q 0.0312,0.25 0.0312,0.367187 0,0.03906 -0.008,0.242188 -0.008,0.109375 -0.0156,0.835937 l -0.0156,1.179688 0.008,0.742187 -0.0547,5.273438 v 0.445312 q 0,0.234375 0.10938,0.335938 0.10937,0.101562 0.58594,0.171875 0.1875,0.02344 0.75,0.125 0.0156,0.07813 0.0156,0.148437 0,0.08594 -0.0156,0.375 h -0.33594 q -0.34375,0 -1,-0.03125 -0.39844,-0.02344 -0.54688,-0.02344 -0.1875,0 -1.38281,0.03906 -0.13281,0.0078 -0.21875,0.0078 h -0.14062 l -0.22657,-0.01563 -0.21093,0.01563 -0.39063,-0.01563 q -0.0781,0 -0.32031,0.02344 -0.0156,-0.171875 -0.0156,-0.265625 0,-0.08594 0.0156,-0.257812 0.3125,-0.08594 0.72656,-0.171875 0.57031,-0.117188 0.69531,-0.226563 0.13282,-0.117187 0.13282,-0.304687 l -0.008,-0.53125 0.0312,-0.578125 -0.008,-1.1875 -0.008,-0.304688 q 0,-0.0625 0.0156,-0.46875 0.0156,-0.210937 0.0156,-0.375 0,-0.101562 -0.0234,-0.632812 l 0.0312,-0.445313 q -0.0312,-0.507812 -0.0312,-0.601562 0,-0.117188 0.008,-0.234375 l 0.0156,-0.195313 -0.0234,-0.53125 0.0234,-0.242187 q 0.008,-0.164063 0.008,-0.4375 0,-0.265625 -0.008,-0.648438 -0.55469,0.414063 -1.26563,0.828125 -0.0781,0.04687 -0.70312,0.320313 -0.25,-0.375 -0.32031,-0.5625 0.82812,-0.429688 1.125,-0.632813 0.49218,-0.34375 1.0625,-0.859375 0.24218,-0.226562 0.61718,-0.695312 z" />
      <path d="m 242.03125,48.417969 q -0.008,-0.171875 -0.008,-0.257813 0,-0.08594 0.008,-0.265625 0.0625,-0.01563 0.28906,-0.117187 0.53906,-0.242188 1.07813,-0.242188 1.07031,0 1.79687,0.796875 0.73438,0.796875 0.73438,2.171875 0,1.492188 -0.89063,2.375 -0.88281,0.882813 -2.44531,0.882813 -0.70313,0 -1.25,-0.289063 -0.54688,-0.289062 -0.96875,-0.8125 -0.42188,-0.53125 -0.64844,-1.101562 -0.35937,-0.9375 -0.35937,-2.023438 0,-0.929687 0.32031,-1.976562 0.32031,-1.046875 0.96875,-1.835938 0.65625,-0.796875 1.48437,-1.3125 0.82813,-0.523437 1.46094,-0.757812 1.21875,-0.445313 1.84375,-0.445313 0.11719,0 0.17969,0.07813 0.0703,0.07813 0.0703,0.242188 0,0.171875 -0.0391,0.273437 -0.16406,0.07031 -0.60156,0.171875 -0.99219,0.25 -1.73438,0.828125 -0.74219,0.578125 -1.10156,1.195313 -0.49219,0.851562 -0.67969,1.914062 -0.1875,1.054688 -0.1875,2.09375 0,1.171875 0.14844,1.921875 0.15625,0.742188 0.52344,1.0625 0.25,0.203125 0.71093,0.203125 0.26563,0 0.41407,-0.07813 0.33593,-0.171875 0.48437,-0.375 0.27344,-0.382812 0.35938,-0.898437 0.0937,-0.515625 0.0937,-1.078125 0,-1.414063 -0.39844,-1.945313 -0.39063,-0.53125 -0.97656,-0.53125 -0.25782,0 -0.67969,0.132813 z" />
   </g>
</svg>