<?xml version="1.0" encoding="UTF-8" standalone="no"?>
<svg
   height="380"
   width="360"
   viewBox="0 0 360 380"
   version="1.1"
   xml:space="preserve"
   xmlns="http://www.w3.org/2000/svg"
   xmlns:svg="http://www.w3.org/2000/svg">
   <rect id="panel" style="fill:#101010" x="0" y="0" width="360" height="380" />
   <g id="logo" style="fill:#d9d9d9">
      <path d="m 175.64711,371.63388 0.91022,-1.80007 1.10798,0.29661 -0.91635,1.79906 1.68693,0.45155 0.91635,-1.79906 1.10287,0.29559 -0.91124,1.8011 0.80014,0.21405 -0.29661,1.10798 -1.03153,-0.27624 -0.67477,1.33018 1.32814,0.35573 -0.29662,1.10696 -1.55952,-0.41689 -0.91022,1.80007 -1.10798,-0.29661 0.91125,-1.80007 -1.68693,-0.45258 -0.91125,1.8011 -1.10797,-0.29763 0.91125,-1.80008 -0.79505,-0.21303 0.29661,-1.10798 1.03153,0.27624 0.66967,-1.3312 -1.32304,-0.35471 0.29662,-1.10798 z m 2.26181,1.79294 -1.68693,-0.45155 -0.67579,1.33018 1.68795,0.45256 z" />
      <path d="m 186.21107,377.07487 -0.30681,1.14365 -2.39942,-0.64317 0.15799,-0.59018 q -0.83888,0.48519 -1.61354,0.27725 -0.92756,-0.24871 -1.33629,-1.16607 -0.40772,-0.91737 -0.1213,-1.98864 0.29152,-1.08759 1.11613,-1.66349 0.82664,-0.581 1.72872,-0.33942 0.86742,0.23342 1.25067,1.05598 l 0.42199,-1.57481 -0.77364,-0.20793 0.30578,-1.14262 2.35865,0.63195 -1.60437,5.98938 z m -2.0233,-1.98762 q 0.19061,-0.71248 -0.0357,-1.09778 -0.22119,-0.38326 -0.61158,-0.48824 -0.46582,-0.12435 -0.82053,0.17022 -0.34758,0.29254 -0.50557,0.88169 -0.14882,0.55858 -10e-4,1.01114 0.14984,0.44645 0.62687,0.57488 0.39446,0.10601 0.77466,-0.12231 0.38631,-0.23138 0.57284,-0.9296 z" />
   </g>
<g
   style="fill:#d9d9d9">
   <path d="m 3.4999975,9.3007814 q 0,-0.1318359 0.026368,-0.3120117 L 4.075695,8.8920899 Q 4.1767717,8.8701173 4.3174001,8.8217774 L 4.3745308,7.7231443 Q 4.3569518,7.1298824 4.3569518,6.8354487 L 4.3613419,6.72998 Q 4.3745261,6.5498041 4.3745261,5.8247063 L 4.365736,5.6972649 4.3745261,5.3281241 4.370136,4.9457998 V 4.7568349 q 0,-0.2548829 -0.039551,-0.5976564 -0.0044,-0.030762 -0.035158,-0.1054688 -0.035157,-0.013184 -0.079103,-0.017578 -0.039552,-0.00439 -0.083498,-0.013184 -0.171391,-0.030762 -0.364755,-0.043945 l -0.06592,-0.017578 Q 3.5834957,3.9482409 3.5219708,3.9262683 3.5087869,3.7988268 3.5087869,3.7636705 q 0,-0.052734 0.026368,-0.1450195 0.087893,-0.017578 0.2460997,-0.017578 0.1582069,0 0.2197318,-0.00439 0.5361458,0.057129 0.7954294,0.061523 0.1186551,0 0.2373103,0.00879 0.1230499,0.00439 0.2153373,0.00439 0.145023,0 0.7075365,-0.043945 0.092287,-0.021973 0.2021533,-0.021973 0.1626016,0 0.2724675,0.017578 0.00439,0.092285 0.00439,0.131836 0,0.070312 -0.017578,0.1713868 L 5.6445805,4.0493152 q -0.096682,0.043946 -0.096682,0.1274414 l 0.013184,0.1625978 0.00439,0.070312 -0.00439,0.1933594 -0.00879,0.1494142 v 0.035156 q 0.00439,0.048339 0.00439,0.083496 l -0.00439,0.5581057 q 0.00439,0.079102 0.00439,0.1186524 0,0.021973 -0.00879,0.140625 -0.00439,0.070312 -0.00439,0.1450196 0,0.065918 0.013184,0.3120117 0.1230499,0.021973 0.206548,0.026368 l 0.6504063,0.013184 h 0.3164139 l 0.7910346,0.00439 0.7690616,-0.021973 q 0.1494176,0 0.3164138,-0.030762 0.00879,-0.149414 0.013184,-0.7338868 l 0.00879,-0.19775 L 8.6021713,4.4580067 8.5714088,4.1503894 Q 8.5582248,4.1196277 8.5098839,4.0932605 8.3560715,4.0053699 7.8946346,3.8955066 7.8111367,3.8779288 7.7364278,3.8515611 q 0.00879,-0.1538086 0.035157,-0.2504883 0.096682,-0.00439 0.1186552,-0.00439 l 0.4262798,0.00439 q 0.4087012,0.052734 0.8305863,0.052734 0.096682,0 0.1538124,-0.00439 l 0.5713028,-0.017578 q 0.079103,-0.00439 0.1538113,-0.00879 0.158207,-0.035157 0.325204,-0.035157 0.127445,0 0.307625,0.013184 -0.0044,0.1713867 -0.02197,0.3120118 -0.404307,0.083496 -0.531752,0.1230469 -0.1230494,0.035157 -0.2504938,0.1010743 l -0.026368,0.087891 v 0.074707 l 0.00439,0.1142579 -0.00439,0.057129 q -0.00879,0.092285 -0.00879,0.140625 v 0.1098633 q 0.00439,0.197754 0.00439,0.2197267 v 0.5581055 l 0.00439,0.4218752 -0.00879,0.5581057 q -0.00439,0.1933594 0.013184,0.7910157 v 0.6240237 l 0.00879,0.5185548 q 0,0.1450196 -0.00879,0.3515625 0.092287,0.026368 0.1713901,0.043945 0.413096,0.087891 0.624038,0.1801759 l 0.01318,0.3076172 q -0.175785,0.00439 -0.206548,0.00439 -0.210942,0 -0.4834099,-0.026367 -0.3603602,-0.039551 -1.1601842,-0.039551 -0.3603602,0 -0.931663,0.057129 -0.061525,0 -0.1494177,-0.026368 0.00439,-0.2021485 0.021973,-0.2856446 l 0.338387,-0.079101 0.3559657,-0.057129 q 0.052736,-0.013184 0.1362337,-0.039551 0.048342,-0.3559572 0.052736,-1.1821293 l 0.00439,-0.3735352 Q 8.593382,7.0156246 8.593382,6.6904291 8.4307804,6.6772456 8.241811,6.6728511 l -2.0391116,-0.021973 -0.039551,-0.00439 -0.030762,-0.00439 q -0.030762,0 -0.070314,0.00439 -0.1142605,0.00439 -0.1933641,0.00439 H 5.7456572 q -0.083498,0 -0.1889695,0.030762 l -0.017578,0.3295898 v 0.057129 q 0.00879,0.1186524 0.00879,0.1538087 v 1.3623049 q 0,0.1142578 0.013184,0.2329102 l 0.043947,0.026367 0.6460116,0.1010742 q 0.048342,0.017578 0.074709,0.021973 0.057131,0.013184 0.096682,0.039551 0.013184,0.1010743 0.013184,0.1362305 0,0.057129 -0.017578,0.1582032 -0.1582069,0.00439 -0.2680728,0.00439 -0.096682,0 -0.1801802,-0.00439 -0.039551,0 -0.074709,-0.00439 L 5.275431,9.2700197 Q 5.0556992,9.2480471 4.6601818,9.2480471 l -0.092287,0.00439 Q 4.38332,9.2612269 4.3525575,9.2656209 4.08009,9.3007774 3.4999978,9.3007774 Z"/>
   <path d="m 16.402652,3.7197253 q 0.05713,0.1318359 0.232916,0.751465 0.0791,0.2812501 0.0835,0.5976564 h -0.399915 q -0.421885,-0.5976564 -0.870138,-0.8569338 -0.448253,-0.263672 -1.001977,-0.263672 -0.681169,0 -1.098659,0.5317385 -0.566909,0.7207033 -0.566909,2.0083013 0,0.7470705 0.09668,1.0634768 0.158207,0.5141604 0.399912,0.8393557 0.184575,0.2460938 0.483411,0.3911134 0.386727,0.197754 0.826191,0.197754 0.48341,0 0.931663,-0.2988283 0.452648,-0.3032227 0.865744,-0.900879 0.162601,-0.030762 0.426279,-0.035157 -0.01758,0.1669922 -0.05713,0.347168 -0.01318,0.070312 -0.101077,0.5581056 l -0.03955,0.131836 -0.06152,0.2065431 q -0.268073,0.206543 -0.755878,0.3120117 -0.48341,0.1010742 -1.190946,0.1010742 -0.540541,0 -1.02395,-0.1010742 Q 13.10228,9.1997071 12.759498,8.9799806 12.25851,8.6635742 11.972857,8.2944335 11.687206,7.9252928 11.546578,7.4902341 11.410345,7.0551754 11.410345,6.5146478 q 0,-1.3095705 0.861348,-2.1621099 0.865743,-0.8525392 2.206108,-0.8525392 0.544935,0 1.02395,0.057129 0.48341,0.052734 0.900901,0.1625973 z" />
   <path d="m 17.584811,6.0334542 h 1.384312 l 0.703141,-0.00879 q 0.145023,0 0.268073,0.017578 0.01318,0.2065431 0.02637,0.3076174 l 0.0044,0.074707 -0.01758,0.2285156 q -0.0044,0.052734 -0.0044,0.1318361 v 0.079102 l -2.381894,0.00439 q -0.0044,-0.1274415 -0.0044,-0.1933595 0,-0.1098633 0.0088,-0.2460938 0.0044,-0.070312 0.0044,-0.1010743 l -0.0044,-0.2197266 z" />
   <path d="m 23.930666,9.3271486 h -0.457043 q -0.162601,0 -0.254889,-0.00439 -0.145022,-0.00439 -0.175785,-0.00439 l -0.298835,0.013184 -0.0791,-0.00879 q -0.105472,-0.013184 -0.259284,-0.013184 -0.145023,0 -0.496594,0.013184 -0.166996,0.00439 -0.202154,0.00439 l -0.443858,-0.00879 -0.711931,0.00879 H 20.269933 V 9.0283204 q 0.624039,-0.7910158 0.936057,-1.1030276 0.316415,-0.3164064 0.896507,-1.0458987 0.404307,-0.5009767 0.553724,-0.8964846 0.153812,-0.395508 0.153812,-0.6855471 0,-0.3251954 -0.09668,-0.5844728 Q 22.621061,4.4536122 22.37936,4.3041981 22.142049,4.154784 21.860793,4.154784 q -0.285651,0 -0.514173,0.140625 -0.228521,0.140625 -0.333992,0.3559572 -0.162602,0.3120117 -0.197759,0.6503907 H 20.49406 q -0.01318,-0.1889648 -0.01318,-0.3164063 0,-0.4262696 0.329598,-0.8173831 0.509778,-0.6064455 1.437046,-0.6064455 0.773456,0 1.217314,0.4394533 0.443859,0.4350587 0.443859,1.0986331 0,0.263672 -0.0835,0.4965822 -0.118656,0.3164063 -0.290047,0.5493165 -0.166996,0.2329103 -0.927268,0.9931644 -0.54933,0.5493166 -1.375521,1.3007816 l 0.487804,0.00879 0.799824,-0.017578 0.465832,0.00879 q 0.369149,0 0.487804,-0.079102 0.123051,-0.079102 0.224127,-0.3735352 0.02197,-0.070312 0.0791,-0.2109375 l 0.290045,-0.017578 0.05713,0.017578 q 0.02197,0.035157 0.02197,0.065918 0,0.070312 -0.02197,0.1757813 -0.02197,0.1054689 -0.05274,0.3471681 -0.02637,0.2416993 -0.140628,0.9624026 z" />
</g>
<path aria-label="EXPERIMENTAL" style="fill:#3f89c1;fill-opacity:0.25" transform="rotate(-30)"
   d="m -134.87605,239.48917 q 1.33594,0.0703 2.32031,0.21093 1.85157,0.25782 4.28907,0.25782 0.84375,0 4.33593,-0.14063 5.22657,-0.21094 9.44532,-0.21094 l 4.24218,-0.0469 q 1.42969,0 4.21875,0.35156 0.42188,0.46875 0.42188,1.26563 v 4.82812 l 0.0469,0.96094 q 0,0.14062 -0.0234,0.42187 l -0.96094,0.0469 q -0.1875,0 -0.79688,-0.0469 -0.21093,-0.46875 -0.5625,-1.38281 l -0.9375,-1.66406 q -0.53906,-1.05469 -1.5,-2.15625 -0.58593,-0.16406 -1.5,-0.1875 -0.23437,-0.0234 -1.42968,-0.11719 -2.17969,-0.1875 -4.6875,-0.1875 -2.85938,0 -5.10938,0.0937 -0.0703,0.58594 -0.0703,4.61719 l 0.0469,3.9375 v 2.95312 q 0.58594,0.0703 1.00782,0.0703 4.19531,0 5.97656,-0.16407 1.78125,-0.16406 2.20312,-0.44531 0.42188,-0.30469 0.75,-1.03125 0.21094,-0.51562 0.82032,-3.44531 l 0.30468,-0.0234 1.35938,0.0234 q 0.0937,2.08594 0.0937,3.16406 0,2.46094 -0.0469,3.16406 -0.0234,0.70313 -0.0234,1.10157 0,0.63281 0.0703,2.03906 0.0703,1.38281 0.0703,2.0625 v 0.51562 h -1.66406 q -0.0937,-0.375 -0.35156,-1.54687 -0.46875,-2.17969 -0.84375,-2.71875 -0.28125,-0.42188 -0.9375,-0.63281 -0.46875,-0.16407 -3.46875,-0.16407 -3.53907,0 -5.32032,0.1875 -0.0234,0.60938 -0.0234,0.79688 0,2.78906 0.0937,4.64062 l -0.0469,5.0625 q 0,0.89063 0.63281,1.21875 0.96094,0.49219 5.88282,0.49219 3.25781,0 5.53125,-0.49219 1.57031,-0.35156 2.76562,-1.57031 1.59375,-1.57031 2.64844,-4.40625 0.72656,-0.0703 1.19531,-0.0703 0.25781,0 0.77344,0.0234 -0.0703,0.58593 -0.11719,0.98437 l -0.14062,0.70313 -0.86719,4.42968 -0.42188,2.67188 q -1.52343,0.0703 -2.41406,0.0703 -1.3125,0 -7.00781,-0.23437 -4.00781,-0.16407 -9.65625,-0.16407 -2.8125,0 -6.91406,0.23438 h -0.98438 l -2.83594,0.0937 v -1.61719 q 0.44532,-0.11719 1.78125,-0.25781 2.4375,-0.28125 3.375,-0.75 0.25782,-0.67969 0.25782,-1.71094 0,-0.39844 -0.0234,-1.35937 l 0.0234,-0.72657 -0.0703,-8.83593 0.0234,-2.64844 -0.11719,-3.75 0.0234,-2.64844 -0.21094,-2.90625 q 0,-0.11719 -0.0469,-0.46875 -0.23438,-0.25781 -0.70313,-0.32812 -0.25781,-0.0469 -0.70312,-0.14063 -1.33594,-0.28125 -2.57813,-0.32812 -0.44531,-0.0234 -1.03125,-0.0937 z m 33.32813,0 q 0.84375,-0.0234 1.35937,-0.0234 0.562501,0 0.914063,0.0234 l 1.265625,0.0937 0.585938,-0.0234 q 0.117187,0 0.84375,0.11719 1.3125,0.21093 3.773437,0.21093 3.046875,0 5.765625,-0.375 0.375,0.0234 0.820313,0.0703 -0.04687,0.77343 -0.04687,1.54687 -0.351563,0.16406 -0.492188,0.21094 l -2.320312,0.39844 q -0.28125,0.0703 -0.773438,0.25781 0.02344,0.42187 0.09375,0.60937 1.710938,2.92969 3.210938,4.875 l 2.273437,3.25782 0.257813,0.375 1.335937,-1.64063 2.90625,-4.24219 q 1.054688,-1.57031 1.335938,-2.34375 0.09375,-0.23437 0.09375,-0.44531 l -0.07031,-0.375 q -0.46875,-0.25781 -0.75,-0.32812 -0.164062,-0.0234 -0.890625,-0.0469 -1.21875,-0.0234 -2.179687,-0.1875 -0.07031,-0.46875 -0.07031,-0.70312 0,-0.11719 0.04687,-0.5625 0,-0.16407 0.02344,-0.53907 0.257812,-0.0234 0.46875,-0.11718 2.109375,0.14062 8.71875,0.14062 0.84375,0 1.5,-0.0703 0.65625,-0.0703 0.796875,-0.0703 0.234375,0 0.703125,0.0703 0.117187,0.46875 0.117187,0.84375 0,0.23437 -0.02344,0.75 l -3.609375,0.77344 q -0.445313,0.16406 -0.984375,0.65625 -0.539063,0.46875 -2.90625,3.51562 l -3.398438,4.40625 q -0.585937,0.79688 -0.984375,1.28906 -0.375,0.46875 -0.679687,0.84375 l 0.351562,0.49219 q 1.289063,1.85156 2.625,3.72656 l 4.664063,6.89063 q 1.851562,2.74219 2.742187,3.375 0.632813,0.44531 3.210938,0.9375 0.07031,0.46875 0.07031,0.60937 0,0.11719 -0.117187,0.86719 l 0.07031,0.21094 -1.664062,0.0469 q -0.539063,0 -2.109375,-0.11718 l -2.882813,-0.1875 -0.304687,-0.0469 q -0.492188,-0.0234 -0.679688,-0.0234 -1.476562,0 -3.492187,0.16407 -2.015625,0.16406 -2.953125,0.16406 -0.609375,0 -1.992188,-0.0469 v -0.60937 q 0,-0.42188 0.04687,-0.86719 1.804688,-0.46875 3.773438,-0.77344 0.257812,-0.16406 0.585937,-0.32812 l 0.02344,-0.25781 q 0,-0.21094 -0.07031,-0.42188 -0.140625,-0.44531 -0.65625,-1.28906 -1.03125,-1.64063 -2.789062,-3.96094 l -2.789063,-3.72656 q -0.539062,0.63281 -3.773437,5.20312 -1.03125,1.17188 -1.734375,2.53125 -0.46875,0.86719 -0.46875,1.10157 l 0.02344,0.1875 0.304688,0.42187 q 0.867187,0.39844 2.15625,0.82031 1.289062,0.39844 1.664062,0.53907 l 0.140625,1.07812 v 0.11719 l -0.04687,0.25781 q -0.679687,0.0937 -0.914062,0.0937 -0.375,0 -2.25,-0.1875 -0.632813,-0.0703 -2.273438,-0.0937 l -1.101562,-0.0234 -5.179691,0.23438 q -0.16406,0 -1.10156,-0.0234 l -0.0937,-1.05469 q 0,-0.21093 0.0703,-0.60937 0.39844,-0.0469 1.00782,-0.11719 1.828121,-0.16406 2.812496,-0.65625 0.398437,-0.21094 1.476562,-1.42969 1.664063,-1.82812 3,-3.58593 0.773438,-1.03125 1.21875,-1.54688 1.242188,-1.71094 3.726563,-4.89844 l -1.382813,-2.08593 q -1.5,-1.85157 -2.320312,-3.07032 l -1.382813,-2.01562 q -0.796875,-1.3125 -1.054687,-1.64063 -1.125,-1.45312 -2.671875,-3.89062 -0.585938,-0.89063 -1.5,-1.3125 -0.914063,-0.42188 -2.976561,-0.53906 v -0.35157 q 0,-0.25781 -0.0234,-0.375 -0.0937,-0.44531 -0.0937,-0.58593 z m 33.867183,1.57031 -0.02344,-1.78125 5.601562,0.35156 2.507813,-0.0234 h 0.914062 q 1.429688,0 4.476563,-0.16406 1.734375,-0.11719 2.179687,-0.11719 2.953125,0 4.453125,0.32813 2.296875,0.46875 3.632813,1.5 1.359375,1.03125 2.320312,2.95312 0.984375,1.89844 0.984375,3.53907 0,4.07812 -2.578125,6.63281 -2.554687,2.53125 -6.46875,2.53125 -1.359375,0 -2.601562,-0.32813 -1.21875,-0.32812 -2.296875,-0.98437 -0.117188,-0.67969 -0.117188,-1.875 0.5625,0.0469 1.007813,0.0703 0.46875,0.0234 0.820312,0.0234 1.992188,0 3.351563,-1.10156 1.804687,-1.42969 1.804687,-4.64063 0,-2.29687 -0.796875,-3.75 -0.773437,-1.47656 -1.851562,-1.99219 -1.5,-0.70312 -3.375,-0.70312 -1.757813,0 -2.507813,0.51562 -0.1875,0.30469 -0.28125,0.58594 l 0.164063,11.03906 -0.04687,0.9375 0.07031,0.98438 q 0.02344,0.32812 0.02344,0.96094 v 1.92187 l 0.02344,3.07031 -0.04687,3.65625 q 0,0.77344 0.140625,2.08594 l 4.664063,0.58594 q 0.09375,0.5625 0.09375,0.89062 0,0.35157 -0.117188,0.98438 -0.585937,0.0937 -0.890625,0.0937 -0.726562,0 -2.742187,-0.16406 -2.015625,-0.1875 -4.59375,-0.1875 -2.90625,0 -5.53125,0.375 -0.445313,0.0703 -1.40625,0.11718 -0.09375,-0.67968 -0.09375,-1.00781 0,-0.21094 0.04687,-0.65625 l 1.429687,-0.46875 q 1.476563,-0.44531 2.554688,-1.07812 0.210937,-0.67969 0.210937,-1.24219 0,-0.23438 -0.02344,-0.53906 -0.02344,-0.72657 -0.02344,-2.03907 l -0.07031,-6.58593 -0.257813,-7.42969 q -0.164062,-5.29688 -0.257812,-5.71875 -0.164063,-0.67969 -0.5625,-1.05469 -0.398438,-0.39844 -1.335938,-0.5625 -1.945312,-0.32812 -2.578125,-0.53906 z m 29.320313,-1.57031 q 1.335937,0.0703 2.320312,0.21093 1.851563,0.25782 4.289063,0.25782 0.84375,0 4.335937,-0.14063 5.226563,-0.21094 9.445313,-0.21094 l 4.242187,-0.0469 q 1.429688,0 4.2187505,0.35156 0.421875,0.46875 0.421875,1.26563 v 4.82812 l 0.046875,0.96094 q 0,0.14062 -0.023437,0.42187 l -0.960938,0.0469 q -0.1875,0 -0.796875,-0.0469 -0.210937,-0.46875 -0.5625,-1.38281 l -0.9375,-1.66406 q -0.539062,-1.05469 -1.5,-2.15625 -0.585937,-0.16406 -1.5,-0.1875 -0.234375,-0.0234 -1.429687,-0.11719 -2.179688,-0.1875 -4.6875,-0.1875 -2.859375,0 -5.109375,0.0937 -0.07031,0.58594 -0.07031,4.61719 l 0.04687,3.9375 v 2.95312 q 0.585938,0.0703 1.007813,0.0703 4.195312,0 5.976562,-0.16407 1.78125,-0.16406 2.203125,-0.44531 0.421875,-0.30469 0.75,-1.03125 0.210938,-0.51562 0.820313,-3.44531 l 0.304687,-0.0234 1.359375,0.0234 q 0.09375,2.08594 0.09375,3.16406 0,2.46094 -0.04687,3.16406 -0.02344,0.70313 -0.02344,1.10157 0,0.63281 0.07031,2.03906 0.07031,1.38281 0.07031,2.0625 v 0.51562 h -1.664063 q -0.09375,-0.375 -0.351562,-1.54687 -0.46875,-2.17969 -0.84375,-2.71875 -0.28125,-0.42188 -0.9375,-0.63281 -0.46875,-0.16407 -3.46875,-0.16407 -3.539063,0 -5.320313,0.1875 -0.02344,0.60938 -0.02344,0.79688 0,2.78906 0.09375,4.64062 l -0.04687,5.0625 q 0,0.89063 0.632812,1.21875 0.960938,0.49219 5.882813,0.49219 3.257812,0 5.53125,-0.49219 1.570312,-0.35156 2.765625,-1.57031 1.59375,-1.57031 2.6484375,-4.40625 0.7265625,-0.0703 1.1953125,-0.0703 0.2578125,0 0.7734375,0.0234 -0.070312,0.58593 -0.1171875,0.98437 l -0.140625,0.70313 -0.8671875,4.42968 -0.421875,2.67188 q -1.5234375,0.0703 -2.4140625,0.0703 -1.3125,0 -7.007813,-0.23437 -4.007812,-0.16407 -9.65625,-0.16407 -2.8125,0 -6.914062,0.23438 h -0.984375 l -2.835938,0.0937 v -1.61719 q 0.445313,-0.11719 1.78125,-0.25781 2.4375,-0.28125 3.375,-0.75 0.257813,-0.67969 0.257813,-1.71094 0,-0.39844 -0.02344,-1.35937 l 0.02344,-0.72657 -0.07031,-8.83593 0.02344,-2.64844 -0.117188,-3.75 0.02344,-2.64844 -0.210938,-2.90625 q 0,-0.11719 -0.04687,-0.46875 -0.234375,-0.25781 -0.703125,-0.32812 -0.257812,-0.0469 -0.703125,-0.14063 -1.335937,-0.28125 -2.578125,-0.32812 -0.445312,-0.0234 -1.03125,-0.0937 z m 35.015625,28.89843 q 0.609375,-0.32812 1.8046875,-0.46875 1.19531246,-0.16406 2.15624996,-0.51562 0.1171875,-0.46875 0.140625,-0.67969 0.046875,-0.32812 0.046875,-2.25 l -0.0234375,-5.22656 0.09375,-2.8125 -0.046875,-2.17969 0.046875,-1.26562 q 0.0703125,-2.55469 0.0703125,-4.78125 0,-4.875 -0.1171875,-6.23438 l -1.3828125,-0.28125 Q -2.454174,241.5751 -3.0869865,241.45792 l -0.046875,-1.40625 0.09375,-0.25782 q 1.171875,-0.1875 2.15624996,-0.1875 0.5390625,0 2.17968754,-0.0234 1.6875,0.14062 1.828125,0.14062 l 1.2421875,-0.0703 2.9296875,-0.14063 q 2.742187,-0.28125 5.789062,-0.28125 4.804688,0 7.640625,2.46094 2.835938,2.4375 2.835938,5.60156 0,2.36719 -1.546875,4.3125 -1.523438,1.92188 -4.710938,2.90625 0.28125,0.49219 0.75,1.14844 0.984375,1.40625 1.59375,2.39063 l 3.75,6.07031 q 1.40625,2.41406 1.828125,2.83594 0.445313,0.39843 1.804688,0.89062 1.054687,0.39844 1.617187,0.79688 0.140625,0.39843 0.140625,0.70312 0,0.21094 -0.02344,0.53906 h -0.632813 l -0.46875,0.0234 -1.21875,-0.16406 h -0.960937 q -0.75,-0.11719 -1.851563,-0.11719 l -2.34375,-0.0234 q -0.257812,0 -1.640625,0.16407 -0.632812,0.0703 -1.007812,0.11718 l -0.796875,-1.54687 q -0.984375,-1.75781 -1.382813,-2.625 -1.03125,-2.27344 -3.539062,-7.24219 -1.171875,-2.29687 -1.640625,-2.60156 -0.703125,-0.49219 -2.4140625,-0.49219 -0.46875,0 -1.59375,0.0469 -0.070312,0.67968 -0.070312,1.61718 l 0.09375,5.20313 -0.1171875,4.40625 q 0.65625,0.39844 1.7109375,0.60937 1.828125,0.375 3.140625,0.89063 0,1.14844 -0.09375,1.73437 -0.445313,-0.0234 -0.5625,-0.0234 l -0.960938,0.0469 q -5.039062,-0.44531 -5.976562,-0.44531 -0.609375,0 -0.8671875,0.0234 l -3.23437504,0.21093 q -1.47656246,0.16407 -2.69531246,0.16407 h -1.0078125 q -0.046875,-0.58594 -0.046875,-0.75 0,-0.25782 0.070312,-0.72657 z M 7.202076,253.22354 q 1.125,0.0469 1.640625,0.0469 3.984375,0 5.648437,-1.42969 1.664063,-1.42969 1.664063,-3.82031 0,-1.47657 -0.421875,-2.76563 -0.398438,-1.3125 -1.007813,-1.94531 -0.867187,-0.91406 -2.273437,-1.38281 -1.03125,-0.35157 -3.3046875,-0.35157 -1.078125,0 -1.8515625,0.11719 l -0.023437,0.44531 0.023437,3.16407 -0.046875,1.92187 0.023437,2.55469 q -0.046875,1.07812 -0.070312,2.78906 z m 22.898437,16.61719 v -1.6875 q 0.46875,-0.14063 1.546875,-0.39844 1.523438,-0.375 2.273438,-0.77344 0.421875,-0.72656 0.421875,-2.01562 l -0.02344,-2.76563 0.04687,-5.34375 -0.02344,-1.26562 q 0.164062,-4.64063 0.164062,-4.78125 l -0.04687,-3.11719 0.07031,-1.26562 -0.117188,-2.67188 -0.02344,-1.00781 q -0.02344,-0.23438 -0.164063,-0.75 -0.960937,-0.44531 -3.117187,-0.5625 -0.515625,-0.0234 -0.820313,-0.0703 l -0.07031,-2.0625 6.703125,0.28125 q 1.242187,0.0469 1.546875,0.0469 1.382812,0 4.429687,-0.1875 1.710938,-0.11719 2.15625,-0.14062 0.02344,0.44531 0.02344,0.75 0,0.39843 -0.04687,1.03125 -0.9375,0.32812 -2.15625,0.63281 -1.195313,0.28125 -1.96875,0.58594 -0.140625,0.60937 -0.140625,1.75781 0,1.00781 0.07031,1.64062 -0.07031,3.96094 -0.07031,6.09375 l 0.02344,6.1875 -0.07031,3.14063 0.04687,4.6875 -0.02344,0.89062 q 0,0.1875 0.09375,0.53907 1.429688,0.30468 2.601563,0.42187 0.210937,0.0234 1.429687,0.1875 0.09375,0.70313 0.09375,1.17188 0,0.25781 -0.02344,0.79687 -0.304688,0 -0.46875,0.0234 -0.75,0.0469 -0.867188,0.0469 -0.164062,0 -0.609375,-0.0703 -0.328125,-0.0469 -3.117187,-0.32812 l -4.148438,-0.0469 q -1.242187,0 -3.609375,0.23438 -1.546875,0.14062 -2.015625,0.16406 z m 18.046875,-0.0234 0.07031,-1.59375 q 2.929687,-0.375 3.726562,-1.19531 0.515625,-0.5625 0.796875,-2.92969 l 0.304688,-8.34375 0.351562,-8.48437 q 0.04687,-0.77344 0.04687,-0.9375 0,-3.30469 -0.398437,-3.82032 -0.375,-0.51562 -3,-1.00781 -0.65625,-0.14062 -1.03125,-0.23437 -0.04687,-0.58594 -0.04687,-0.98438 v -0.72656 q 0.867187,-0.0703 2.039062,-0.0703 l 6.867188,0.23437 q 0.234375,0.0234 0.65625,0.0469 l 1.078125,0.0469 q 0.398437,0.46875 0.796875,1.24219 0.867187,1.71094 2.296875,5.01562 l 0.257812,0.63282 3.65625,7.94531 q 0.117188,0.28125 0.375,0.82031 0.351563,0.84375 0.726563,1.61719 0.375,0.75 0.773437,1.66406 0.421875,0.91406 0.796875,1.61719 0.328125,-0.5625 0.632813,-1.24219 0.9375,-2.15625 1.828125,-3.96094 1.546875,-3.1875 4.195312,-9.75 0.421875,-1.05468 1.382813,-3.16406 0.984375,-2.13281 1.078125,-2.25 0.210937,-0.1875 0.84375,-0.1875 0.234375,0 0.726562,-0.0234 1.21875,-0.0703 2.929688,-0.11718 2.460937,-0.0234 3.9375,-0.14063 1.5,-0.14062 1.6875,-0.14062 0.234375,0 0.5625,0.0469 0.02344,0.32813 0.02344,0.51563 l -0.04687,0.70312 q 0,0.21094 -0.02344,0.63281 -2.203125,0.32813 -3.585938,0.98438 -0.960937,0.46875 -0.960937,1.17187 v 0.35157 l 0.398437,7.17187 q 0.07031,0.98438 0.375,9.77344 0.07031,1.96875 0.304688,4.99219 0.04687,0.375 0.04687,0.58593 0.02344,0.5625 0.234375,0.72657 0.234375,0.16406 4.21875,1.35937 0.02344,0.375 0.02344,0.5625 0,0.49219 -0.02344,0.98438 -0.632813,0 -3.1875,-0.25782 -2.554688,-0.28125 -4.78125,-0.28125 -3.398438,0 -6.609375,0.28125 -0.421875,0.0469 -0.820313,0.0703 l 0.04687,-1.61719 q 0.960938,-0.375 2.554688,-0.63281 1.125,-0.1875 1.429687,-0.63282 0.304688,-0.44531 0.304688,-2.48437 0,-0.77344 -0.02344,-1.35938 -0.117187,-2.46093 -0.140625,-6.84375 l -0.398437,-8.27343 q -0.07031,-1.75782 -0.164063,-2.4375 l -5.835937,13.40625 q -0.210938,0.46875 -0.632813,1.35937 -0.539062,1.14844 -0.726562,1.57031 -1.804688,4.33594 -2.507813,6.63282 -0.1875,0.58593 -0.5625,1.52343 l -1.804687,-0.0234 -1.265625,-3.58594 q -0.5625,-1.40625 -1.921875,-4.26563 -0.796875,-1.66406 -1.242188,-2.69531 -0.210937,-0.42187 -0.304687,-0.63281 l -0.28125,-0.58594 q -0.02344,-0.14062 -0.07031,-0.23437 l -3.492187,-7.52344 -2.132813,-4.57031 -0.1875,11.08593 -0.164062,7.19532 q 0,1.78125 0.65625,2.55468 0.679687,0.75 2.882812,1.28907 l 1.125,0.28125 v 1.71093 q -1.359375,-0.0234 -2.929687,-0.1875 -1.546875,-0.1875 -4.125,-0.1875 -0.539063,0 -4.617188,0.21094 z m 43.992188,-30.32812 q 1.335937,0.0703 2.320312,0.21093 1.851563,0.25782 4.289063,0.25782 0.84375,0 4.335939,-0.14063 5.22656,-0.21094 9.44531,-0.21094 l 4.24219,-0.0469 q 1.42969,0 4.21875,0.35156 0.42187,0.46875 0.42187,1.26563 v 4.82812 l 0.0469,0.96094 q 0,0.14062 -0.0234,0.42187 l -0.96094,0.0469 q -0.1875,0 -0.79687,-0.0469 -0.21094,-0.46875 -0.5625,-1.38281 l -0.9375,-1.66406 q -0.53906,-1.05469 -1.5,-2.15625 -0.58594,-0.16406 -1.5,-0.1875 -0.23438,-0.0234 -1.42969,-0.11719 -2.17969,-0.1875 -4.6875,-0.1875 -2.85937,0 -5.10937,0.0937 -0.0703,0.58594 -0.0703,4.61719 l 0.0469,3.9375 v 2.95312 q 0.58594,0.0703 1.00781,0.0703 4.19531,0 5.97656,-0.16407 1.78125,-0.16406 2.20313,-0.44531 0.42187,-0.30469 0.75,-1.03125 0.21094,-0.51562 0.82031,-3.44531 l 0.30469,-0.0234 1.35937,0.0234 q 0.0937,2.08594 0.0937,3.16406 0,2.46094 -0.0469,3.16406 -0.0234,0.70313 -0.0234,1.10157 0,0.63281 0.0703,2.03906 0.0703,1.38281 0.0703,2.0625 v 0.51562 h -1.66407 q -0.0937,-0.375 -0.35156,-1.54687 -0.46875,-2.17969 -0.84375,-2.71875 -0.28125,-0.42188 -0.9375,-0.63281 -0.46875,-0.16407 -3.46875,-0.16407 -3.53906,0 -5.32031,0.1875 -0.0234,0.60938 -0.0234,0.79688 0,2.78906 0.0937,4.64062 l -0.0469,5.0625 q 0,0.89063 0.63281,1.21875 0.96094,0.49219 5.88281,0.49219 3.25781,0 5.53125,-0.49219 1.57031,-0.35156 2.76563,-1.57031 1.59375,-1.57031 2.64843,-4.40625 0.72657,-0.0703 1.19532,-0.0703 0.25781,0 0.77343,0.0234 -0.0703,0.58593 -0.11718,0.98437 l -0.14063,0.70313 -0.86719,4.42968 -0.42187,2.67188 q -1.52344,0.0703 -2.41406,0.0703 -1.3125,0 -7.00782,-0.23437 -4.00781,-0.16407 -9.65625,-0.16407 -2.812497,0 -6.914059,0.23438 h -0.984375 l -2.835938,0.0937 v -1.61719 q 0.445313,-0.11719 1.78125,-0.25781 2.4375,-0.28125 3.375,-0.75 0.257813,-0.67969 0.257813,-1.71094 0,-0.39844 -0.02344,-1.35937 l 0.02344,-0.72657 -0.07031,-8.83593 0.02344,-2.64844 -0.117188,-3.75 0.02344,-2.64844 -0.210938,-2.90625 q 0,-0.11719 -0.04687,-0.46875 -0.234375,-0.25781 -0.703125,-0.32812 -0.257812,-0.0469 -0.703125,-0.14063 -1.335937,-0.28125 -2.578125,-0.32812 -0.445312,-0.0234 -1.03125,-0.0937 z m 33.304684,1.85156 -0.0937,-1.64063 h 1.99219 l 0.67969,-0.0234 q 1.40625,-0.0703 1.94531,-0.0703 0.28125,0 1.64063,0.0469 0.30468,0.0234 0.51562,0.0234 0.21094,0 1.47656,-0.0469 1.26563,-0.0469 1.42969,-0.0469 0.25781,0 0.72656,0.0234 3.60938,3.28125 5.88282,5.64844 2.27343,2.36719 16.59375,16.57031 v -0.58593 l -0.0937,-2.71875 q -0.0703,-2.39063 -0.1875,-3.77344 -0.11719,-1.40625 -0.14063,-3.32813 -0.0234,-1.94531 -0.16406,-3.51562 -0.28125,-3.07031 -0.28125,-3.53906 -0.0234,-1.52344 -0.32813,-1.85157 -0.49218,-0.51562 -2.25,-0.77343 -1.28906,-0.21094 -1.92187,-0.53907 l 0.0234,-1.38281 0.60937,-0.0703 4.61719,-0.14063 5.15625,-0.14062 q 0.51562,-0.0234 0.98437,-0.0234 l 0.0234,1.52344 q -0.53906,0.28125 -1.10156,0.42187 -1.5,0.35157 -1.73438,0.49219 -1.19531,0.67969 -1.28906,0.82031 -0.21094,0.28125 -0.21094,0.86719 0,0.14063 0.0469,0.98438 0.0234,0.42187 0.0234,1.96875 0.0234,3.39843 0.1875,5.36718 0.0469,0.63282 0.0703,1.42969 l 0.25781,8.22656 q 0.0234,0.86719 0.0234,1.21875 v 2.88282 l 0.0703,1.21875 -0.0703,1.26562 q 0.0937,0.96094 0.0937,1.14844 v 1.24219 l -2.69531,0.0937 -2.78907,-2.88282 -5.69531,-5.64843 -3.98437,-3.98438 -2.92969,-3 q -2.85938,-2.8125 -5.20313,-4.94531 l -3.82031,-3.44531 0.21094,8.71875 q 0.0234,0.79687 0.0234,1.64062 l -0.0234,1.66406 0.14062,3.07032 q 0.0703,1.92187 0.25782,4.17187 0.0469,0.60938 0.11718,0.86719 0.0703,0.23437 0.28125,0.70312 0.91407,0.32813 3.98438,0.49219 0.21094,0.0469 0.60937,0.16406 l 0.0937,1.89844 -0.91406,0.0234 q -0.75,0 -4.73437,-0.35156 -3.72657,0.0469 -4.96875,0.14062 -1.24219,0.0937 -1.35938,0.0937 -0.28125,0 -0.77344,-0.0937 -0.0469,-0.53906 -0.0469,-0.9375 0,-0.25781 0.0234,-0.84375 0.65625,-0.11719 1.07812,-0.11719 0.14063,0 0.91406,0.0469 1.96875,0 2.32032,-0.28125 0.375,-0.30469 0.42187,-1.59375 0.16406,-3.72656 0.16406,-4.54688 v -1.28906 l 0.0469,-7.61719 -0.0703,-4.75781 q -0.0234,-2.71875 -0.35157,-3.77344 -0.14062,-0.53906 -0.53906,-0.9375 -0.82031,-0.84375 -1.82812,-1.26562 -0.60938,-0.25781 -3.16407,-0.65625 z m 42.75,-3.16406 h 1.45313 q 0.16406,0.25781 0.23437,0.375 0.65625,1.125 1.00782,1.47656 0.30468,0.0937 3.21093,0.0937 1.80469,0 3.21094,-0.0234 l 0.46875,-0.0703 2.83594,-0.0234 5.29687,0.0469 h 7.24219 l 1.38281,-0.21094 q 0.30469,-0.21094 0.65625,-1.125 0.0937,-0.21094 0.25782,-0.58594 l 1.03125,-0.0234 q 0.23437,0 0.70312,0.0234 0.0234,1.61719 0.0234,4.875 l 0.0234,2.08594 -0.0234,1.19531 q 0,0.60938 -0.0937,1.05469 -0.96094,0.30469 -1.6875,0.375 -0.60938,-0.91406 -1.33594,-2.64844 -0.70312,-1.73437 -0.89062,-1.92187 -0.28125,-0.30469 -0.65625,-0.39844 -0.5625,-0.11719 -4.96875,-0.11719 -0.65625,0 -1.64063,0.0937 -0.14062,0.91406 -0.14062,1.5 l 0.0234,3.14063 v 6.89062 l 0.0937,7.42969 -0.0234,3.04687 q 0,1.61719 0.28125,2.4375 0.375,0.16407 1.38281,0.30469 0.1875,0.0234 1.73437,0.375 0.70313,0.16406 1.24219,0.375 0.11719,0.84375 0.11719,1.03125 0,0.21094 -0.0703,0.60938 -0.51563,0.0234 -0.84375,0.0234 -2.41407,0 -4.10157,-0.16406 -1.6875,-0.1875 -6.11718,-0.1875 -0.70313,0 -4.125,0.28125 -1.33594,0.0937 -1.73438,0.0937 -0.0234,-0.35156 -0.0469,-0.53906 l -0.0234,-0.53906 v -0.1875 q 0.51562,-0.67969 1.94531,-1.00782 2.4375,-0.58593 3.375,-1.05468 0.23438,-0.44532 0.28125,-1.17188 0.16406,-2.8125 0.16406,-8.95312 l -0.11718,-8.85938 q 0,-3.65625 -0.14063,-4.42969 -0.0469,-0.21093 -0.16406,-0.30468 -0.11719,-0.11719 -0.32813,-0.14063 -0.72656,-0.0937 -4.73437,-0.0937 -2.20313,0 -2.95313,0.42188 -1.00781,0.58593 -3.02343,3.1875 -0.58594,0.75 -0.86719,0.75 -1.07813,-0.5625 -1.38281,-0.91407 0.72656,-1.52343 2.01562,-6.09375 0.375,-1.33593 0.53906,-1.80468 z m 26.32032,31.64062 0.0469,-1.59375 q 0.44531,-0.14062 1.57031,-0.35156 1.80469,-0.35156 2.17969,-0.63281 0.39844,-0.28125 0.96094,-1.35938 l 4.73437,-12.39844 5.55469,-14.57812 q 0.77344,0.0234 1.47656,0.0234 h 1.05469 l 0.21094,0.42187 4.07812,9.65625 q 1.38282,3.07031 2.48438,5.97656 1.10156,2.88282 1.89844,4.71094 0.46875,1.10156 1.28906,3.30469 0.42187,1.19531 1.28906,3 0.46875,0.98437 0.70313,1.14844 0.42187,0.35156 1.35937,0.46875 0.96094,0.11718 2.0625,0.53906 0.11719,0.77344 0.11719,1.14844 0,0.16406 -0.0234,0.51562 -1.73437,0 -3.82031,-0.16406 -2.08594,-0.16406 -3.75,-0.16406 -1.85156,0 -2.67188,0.0469 l -3.98437,0.21094 -1.14844,0.0469 q 0,-0.82031 0.0703,-1.57031 l 2.60157,-0.5625 q 1.17187,-0.30469 1.35937,-0.46875 0.23438,-0.23437 0.23438,-0.53906 0,-0.30469 -0.11719,-0.63281 l -0.9375,-2.29688 -1.85156,-4.59375 -8.95313,-0.0234 q -0.49219,1.125 -2.03906,5.50782 -0.44531,1.24218 -0.44531,1.6875 0,0.60937 0.32812,0.86718 0.53906,0.44532 2.0625,0.63282 0.21094,0.0469 1.66406,0.25781 0.0234,0.84375 0.0234,1.17187 0,0.25782 -0.0469,0.53907 -1.45313,0 -6.9375,-0.39844 l -0.96094,0.16406 q -1.73438,0.28125 -3.30469,0.28125 z m 11.01562,-13.17187 q 5.48438,0.0703 6.46875,0.0703 l 0.58594,-0.0234 q -0.70313,-2.08594 -1.82813,-4.85156 -1.125,-2.78906 -1.82812,-4.24219 z m 22.17188,11.25 q 0.72656,-0.21094 2.03906,-0.39844 1.33594,-0.21094 1.57031,-0.21094 0.91406,-0.0234 1.21875,-0.30469 0.14063,-0.5625 0.14063,-0.9375 l -0.0469,-3 0.14063,-3.04687 v -1.94531 l 0.0234,-2.29688 -0.0469,-2.4375 0.0937,-5.22656 0.0234,-2.36719 v -0.32812 q -0.16407,-2.46094 -0.32813,-2.69532 -0.14062,-0.25781 -1.33594,-0.63281 -0.11718,-0.0469 -0.89062,-0.35156 -0.58594,-0.23438 -1.05469,-0.32813 -0.82031,-0.21093 -1.14844,-0.49218 -0.0469,-0.60938 -0.0469,-0.9375 0,-0.1875 0.0234,-0.5625 0.21093,-0.11719 0.44531,-0.11719 0.5625,0 4.07812,0.1875 l 3.35157,-0.0234 2.48437,0.0469 q 1.61719,0 4.14844,-0.21094 0.75,-0.0703 0.86719,-0.0703 0.35156,0 0.49218,0.1875 0.1875,0.25781 0.1875,0.9375 0,0.53906 -0.25781,0.82031 -0.14062,0.16406 -1.03125,0.28125 l -2.90625,0.67969 q -0.11719,0.0469 -0.39844,0.1875 -0.0937,0.16406 -0.14062,0.28125 l -0.0234,0.65625 -0.0703,1.47656 v 0.42187 l 0.0234,0.25782 q 0,0.11718 -0.0703,1.28906 -0.0234,0.30469 -0.0234,0.60937 0,0.375 0.0469,1.26563 0.0703,1.40625 0.0703,2.46094 0,1.21875 -0.0703,2.78906 -0.0234,0.58594 -0.0234,1.52344 l -0.0937,11.10937 q 0,0.70313 0.23438,0.91406 l 2.22656,0.0937 1.38281,-0.0234 1.47657,0.0469 q 3.77343,0 5.92968,-0.86719 1.61719,-0.65625 2.10938,-1.3125 0.79687,-0.70312 1.28906,-1.52343 0.51563,-0.82032 1.14844,-2.71875 h 0.75 q 0.5625,0 1.26562,0.0937 v 0.65625 q 0,1.6875 -0.42187,5.90625 -0.16406,1.6875 -0.32813,2.0625 -0.53906,0.0937 -0.67968,0.0937 h -0.86719 l -1.21875,0.0234 q -0.21094,0 -2.78906,-0.1875 -0.46875,-0.0234 -4.47657,-0.16406 -4.00781,-0.14062 -7.85156,-0.14062 l -4.78125,0.14062 q -2.76562,0.0703 -5.17969,0.25781 h -0.35156 q -0.14062,0 -0.44531,-0.0234 -0.0469,-0.25782 -0.0469,-0.44532 0,-0.98437 0.16407,-1.42968 z" />
</svg>
