<?xml version="1.0" encoding="UTF-8" standalone="no"?>
<svg height="380" width="360" viewBox="0 0 360 380" version="1.1" xml:space="preserve"
   xmlns="http://www.w3.org/2000/svg" xmlns:svg="http://www.w3.org/2000/svg">
   <rect id="panel" style="fill:#101010" x="0" y="0" width="360" height="380" />
   <g id="logo" style="fill:#d9d9d9">
      <path d="m 175.64711,371.63388 0.91022,-1.80007 1.10798,0.29661 -0.91635,1.79906 1.68693,0.45155 0.91635,-1.79906 1.10287,0.29559 -0.91124,1.8011 0.80014,0.21405 -0.29661,1.10798 -1.03153,-0.27624 -0.67477,1.33018 1.32814,0.35573 -0.29662,1.10696 -1.55952,-0.41689 -0.91022,1.80007 -1.10798,-0.29661 0.91125,-1.80007 -1.68693,-0.45258 -0.91125,1.8011 -1.10797,-0.29763 0.91125,-1.80008 -0.79505,-0.21303 0.29661,-1.10798 1.03153,0.27624 0.66967,-1.3312 -1.32304,-0.35471 0.29662,-1.10798 z m 2.26181,1.79294 -1.68693,-0.45155 -0.67579,1.33018 1.68795,0.45256 z" />
      <path d="m 186.21107,377.07487 -0.30681,1.14365 -2.39942,-0.64317 0.15799,-0.59018 q -0.83888,0.48519 -1.61354,0.27725 -0.92756,-0.24871 -1.33629,-1.16607 -0.40772,-0.91737 -0.1213,-1.98864 0.29152,-1.08759 1.11613,-1.66349 0.82664,-0.581 1.72872,-0.33942 0.86742,0.23342 1.25067,1.05598 l 0.42199,-1.57481 -0.77364,-0.20793 0.30578,-1.14262 2.35865,0.63195 -1.60437,5.98938 z m -2.0233,-1.98762 q 0.19061,-0.71248 -0.0357,-1.09778 -0.22119,-0.38326 -0.61158,-0.48824 -0.46582,-0.12435 -0.82053,0.17022 -0.34758,0.29254 -0.50557,0.88169 -0.14882,0.55858 -10e-4,1.01114 0.14984,0.44645 0.62687,0.57488 0.39446,0.10601 0.77466,-0.12231 0.38631,-0.23138 0.57284,-0.9296 z" />
   </g>
   <line x1="3.5" y1="13.429155" x2="24.461334" y2="13.429155"
      style="fill:none;stroke:#a0a0a0;stroke-width:0.5" />
<g style="fill:#d9d9d9" >
   <path d="m 3.4999975,9.3007814 q 0,-0.1318359 0.026368,-0.3120117 L 4.075695,8.8920899 Q 4.1767717,8.8701173 4.3174001,8.8217774 L 4.3745308,7.7231443 Q 4.3569518,7.1298824 4.3569518,6.8354487 L 4.3613419,6.72998 Q 4.3745261,6.5498041 4.3745261,5.8247063 L 4.365736,5.6972649 4.3745261,5.3281241 4.370136,4.9457998 V 4.7568349 q 0,-0.2548829 -0.039551,-0.5976564 -0.0044,-0.030762 -0.035158,-0.1054688 -0.035157,-0.013184 -0.079103,-0.017578 -0.039552,-0.00439 -0.083498,-0.013184 -0.171391,-0.030762 -0.364755,-0.043945 l -0.06592,-0.017578 Q 3.5834957,3.9482409 3.5219708,3.9262683 3.5087869,3.7988268 3.5087869,3.7636705 q 0,-0.052734 0.026368,-0.1450195 0.087893,-0.017578 0.2460997,-0.017578 0.1582069,0 0.2197318,-0.00439 0.5361458,0.057129 0.7954294,0.061523 0.1186551,0 0.2373103,0.00879 0.1230499,0.00439 0.2153373,0.00439 0.145023,0 0.7075365,-0.043945 0.092287,-0.021973 0.2021533,-0.021973 0.1626016,0 0.2724675,0.017578 0.00439,0.092285 0.00439,0.131836 0,0.070312 -0.017578,0.1713868 L 5.6445805,4.0493152 q -0.096682,0.043946 -0.096682,0.1274414 l 0.013184,0.1625978 0.00439,0.070312 -0.00439,0.1933594 -0.00879,0.1494142 v 0.035156 q 0.00439,0.048339 0.00439,0.083496 l -0.00439,0.5581057 q 0.00439,0.079102 0.00439,0.1186524 0,0.021973 -0.00879,0.140625 -0.00439,0.070312 -0.00439,0.1450196 0,0.065918 0.013184,0.3120117 0.1230499,0.021973 0.206548,0.026368 l 0.6504063,0.013184 h 0.3164139 l 0.7910346,0.00439 0.7690616,-0.021973 q 0.1494176,0 0.3164138,-0.030762 0.00879,-0.149414 0.013184,-0.7338868 l 0.00879,-0.19775 L 8.6021713,4.4580067 8.5714088,4.1503894 Q 8.5582248,4.1196277 8.5098839,4.0932605 8.3560715,4.0053699 7.8946346,3.8955066 7.8111367,3.8779288 7.7364278,3.8515611 q 0.00879,-0.1538086 0.035157,-0.2504883 0.096682,-0.00439 0.1186552,-0.00439 l 0.4262798,0.00439 q 0.4087012,0.052734 0.8305863,0.052734 0.096682,0 0.1538124,-0.00439 l 0.5713028,-0.017578 q 0.079103,-0.00439 0.1538113,-0.00879 0.158207,-0.035157 0.325204,-0.035157 0.127445,0 0.307625,0.013184 -0.0044,0.1713867 -0.02197,0.3120118 -0.404307,0.083496 -0.531752,0.1230469 -0.1230494,0.035157 -0.2504938,0.1010743 l -0.026368,0.087891 v 0.074707 l 0.00439,0.1142579 -0.00439,0.057129 q -0.00879,0.092285 -0.00879,0.140625 v 0.1098633 q 0.00439,0.197754 0.00439,0.2197267 v 0.5581055 l 0.00439,0.4218752 -0.00879,0.5581057 q -0.00439,0.1933594 0.013184,0.7910157 v 0.6240237 l 0.00879,0.5185548 q 0,0.1450196 -0.00879,0.3515625 0.092287,0.026368 0.1713901,0.043945 0.413096,0.087891 0.624038,0.1801759 l 0.01318,0.3076172 q -0.175785,0.00439 -0.206548,0.00439 -0.210942,0 -0.4834099,-0.026367 -0.3603602,-0.039551 -1.1601842,-0.039551 -0.3603602,0 -0.931663,0.057129 -0.061525,0 -0.1494177,-0.026368 0.00439,-0.2021485 0.021973,-0.2856446 l 0.338387,-0.079101 0.3559657,-0.057129 q 0.052736,-0.013184 0.1362337,-0.039551 0.048342,-0.3559572 0.052736,-1.1821293 l 0.00439,-0.3735352 Q 8.593382,7.0156246 8.593382,6.6904291 8.4307804,6.6772456 8.241811,6.6728511 l -2.0391116,-0.021973 -0.039551,-0.00439 -0.030762,-0.00439 q -0.030762,0 -0.070314,0.00439 -0.1142605,0.00439 -0.1933641,0.00439 H 5.7456572 q -0.083498,0 -0.1889695,0.030762 l -0.017578,0.3295898 v 0.057129 q 0.00879,0.1186524 0.00879,0.1538087 v 1.3623049 q 0,0.1142578 0.013184,0.2329102 l 0.043947,0.026367 0.6460116,0.1010742 q 0.048342,0.017578 0.074709,0.021973 0.057131,0.013184 0.096682,0.039551 0.013184,0.1010743 0.013184,0.1362305 0,0.057129 -0.017578,0.1582032 -0.1582069,0.00439 -0.2680728,0.00439 -0.096682,0 -0.1801802,-0.00439 -0.039551,0 -0.074709,-0.00439 L 5.275431,9.2700197 Q 5.0556992,9.2480471 4.6601818,9.2480471 l -0.092287,0.00439 Q 4.38332,9.2612269 4.3525575,9.2656209 4.08009,9.3007774 3.4999978,9.3007774 Z" />
   <path d="m 16.402652,3.7197253 q 0.05713,0.1318359 0.232916,0.751465 0.0791,0.2812501 0.0835,0.5976564 h -0.399915 q -0.421885,-0.5976564 -0.870138,-0.8569338 -0.448253,-0.263672 -1.001977,-0.263672 -0.681169,0 -1.098659,0.5317385 -0.566909,0.7207033 -0.566909,2.0083013 0,0.7470705 0.09668,1.0634768 0.158207,0.5141604 0.399912,0.8393557 0.184575,0.2460938 0.483411,0.3911134 0.386727,0.197754 0.826191,0.197754 0.48341,0 0.931663,-0.2988283 0.452648,-0.3032227 0.865744,-0.900879 0.162601,-0.030762 0.426279,-0.035157 -0.01758,0.1669922 -0.05713,0.347168 -0.01318,0.070312 -0.101077,0.5581056 l -0.03955,0.131836 -0.06152,0.2065431 q -0.268073,0.206543 -0.755878,0.3120117 -0.48341,0.1010742 -1.190946,0.1010742 -0.540541,0 -1.02395,-0.1010742 Q 13.10228,9.1997071 12.759498,8.9799806 12.25851,8.6635742 11.972857,8.2944335 11.687206,7.9252928 11.546578,7.4902341 11.410345,7.0551754 11.410345,6.5146478 q 0,-1.3095705 0.861348,-2.1621099 0.865743,-0.8525392 2.206108,-0.8525392 0.544935,0 1.02395,0.057129 0.48341,0.052734 0.900901,0.1625973 z"/>
   <path d="m 17.584811,6.0334542 h 1.384312 l 0.703141,-0.00879 q 0.145023,0 0.268073,0.017578 0.01318,0.2065431 0.02637,0.3076174 l 0.0044,0.074707 -0.01758,0.2285156 q -0.0044,0.052734 -0.0044,0.1318361 v 0.079102 l -2.381894,0.00439 q -0.0044,-0.1274415 -0.0044,-0.1933595 0,-0.1098633 0.0088,-0.2460938 0.0044,-0.070312 0.0044,-0.1010743 l -0.0044,-0.2197266 z" />
   <path d="m 23.930666,9.3271486 h -0.457043 q -0.162601,0 -0.254889,-0.00439 -0.145022,-0.00439 -0.175785,-0.00439 l -0.298835,0.013184 -0.0791,-0.00879 q -0.105472,-0.013184 -0.259284,-0.013184 -0.145023,0 -0.496594,0.013184 -0.166996,0.00439 -0.202154,0.00439 l -0.443858,-0.00879 -0.711931,0.00879 H 20.269933 V 9.0283204 q 0.624039,-0.7910158 0.936057,-1.1030276 0.316415,-0.3164064 0.896507,-1.0458987 0.404307,-0.5009767 0.553724,-0.8964846 0.153812,-0.395508 0.153812,-0.6855471 0,-0.3251954 -0.09668,-0.5844728 Q 22.621061,4.4536122 22.37936,4.3041981 22.142049,4.154784 21.860793,4.154784 q -0.285651,0 -0.514173,0.140625 -0.228521,0.140625 -0.333992,0.3559572 -0.162602,0.3120117 -0.197759,0.6503907 H 20.49406 q -0.01318,-0.1889648 -0.01318,-0.3164063 0,-0.4262696 0.329598,-0.8173831 0.509778,-0.6064455 1.437046,-0.6064455 0.773456,0 1.217314,0.4394533 0.443859,0.4350587 0.443859,1.0986331 0,0.263672 -0.0835,0.4965822 -0.118656,0.3164063 -0.290047,0.5493165 -0.166996,0.2329103 -0.927268,0.9931644 -0.54933,0.5493166 -1.375521,1.3007816 l 0.487804,0.00879 0.799824,-0.017578 0.465832,0.00879 q 0.369149,0 0.487804,-0.079102 0.123051,-0.079102 0.224127,-0.3735352 0.02197,-0.070312 0.0791,-0.2109375 l 0.290045,-0.017578 0.05713,0.017578 q 0.02197,0.035157 0.02197,0.065918 0,0.070312 -0.02197,0.1757813 -0.02197,0.1054689 -0.05274,0.3471681 -0.02637,0.2416993 -0.140628,0.9624026 z" />
</g>
</svg>