<?xml version="1.0" encoding="UTF-8" standalone="no"?>
<svg height="380" width="90" viewBox="0 0 90 380" version="1.1" xml:space="preserve"
   xmlns="http://www.w3.org/2000/svg"
   xmlns:svg="http://www.w3.org/2000/svg">
   <g id="HC-3">
      <rect id="panel" style="fill:#101010" x="0" y="0" width="90" height="380" />

      <g style="fill:none;stroke-width:.5;stroke:#d0d0d0">
         <line x1="2.5" y1="35" x2="87.5" y2="35" style="stroke:#a0a0a0"/>
         <rect x="7.5" y="40" width="15" height="15" />
         <!-- <rect x="15" y="47.5" width="1" height="1" /> -->
         <rect x="7.5" y="60" width="15" height="15" />
         <rect x="7.5" y="80" width="15" height="15" />
         <rect x="7.5" y="100" width="15" height="15" />
         <rect x="7.5" y="120" width="15" height="15" />
         <rect x="7.5" y="140" width="15" height="15" />
         <rect x="7.5" y="160" width="15" height="15" />
         <rect x="7.5" y="180" width="15" height="15" />
         <line x1="2.5" y1="200" x2="87.5" y2="200" style="stroke:#a0a0a0"/>
         <rect x="7.5" y="205" width="15" height="15" />
         <rect x="7.5" y="225" width="15" height="15" />
         <rect x="7.5" y="245" width="15" height="15" />
         <rect x="7.5" y="265" width="15" height="15" />
         <rect x="7.5" y="285" width="15" height="15" />
         <rect x="7.5" y="305" width="15" height="15" />
         <rect x="7.5" y="325" width="15" height="15" />
         <rect x="7.5" y="345" width="15" height="15" />
         <line x1="2.5" y1="365" x2="87.5" y2="365" style="stroke:#a0a0a0"/>
      </g>
      <g aria-label="HC-3" style="fill:#d0d0d0" transform="translate(-15)">
         <!-- 20pt Garamond -->
         <path
            d="m 23.134211,17.713247 q 0,-0.292968 0.05859,-0.693359 l 1.220703,-0.214844 q 0.22461,-0.04883 0.53711,-0.15625 l 0.126953,-2.441406 q -0.03906,-1.318359 -0.03906,-1.972656 l 0.0098,-0.234375 q 0.0293,-0.400391 0.0293,-2.0117191 l -0.01953,-0.2832031 0.01953,-0.8203125 -0.0098,-0.8496094 V 7.615591 q 0,-0.5664062 -0.08789,-1.328125 -0.0098,-0.068359 -0.07813,-0.234375 -0.07813,-0.029297 -0.175782,-0.039063 -0.08789,-0.00977 -0.185546,-0.029297 -0.38086,-0.068359 -0.810547,-0.097656 l -0.146485,-0.039063 q -0.263672,-0.029297 -0.40039,-0.078125 -0.0293,-0.2832031 -0.0293,-0.3613281 0,-0.1171875 0.05859,-0.3222656 0.195312,-0.039063 0.546875,-0.039063 0.351562,0 0.488281,-0.00977 1.191406,0.1269532 1.767578,0.1367188 0.263672,0 0.527344,0.019531 0.273437,0.00977 0.478515,0.00977 0.322266,0 1.572266,-0.097656 0.205078,-0.048828 0.449219,-0.048828 0.361328,0 0.605468,0.039063 0.0098,0.2050781 0.0098,0.2929687 0,0.15625 -0.03906,0.3808594 l -1.71875,0.2734375 q -0.214844,0.097656 -0.214844,0.2832031 l 0.0293,0.3613282 0.0098,0.15625 -0.0098,0.4296875 -0.01953,0.3320312 v 0.078125 q 0.0098,0.1074219 0.0098,0.1855469 l -0.0098,1.2402344 q 0.0098,0.1757812 0.0098,0.2636718 0,0.048828 -0.01953,0.3125 -0.0098,0.15625 -0.0098,0.3222655 0,0.146485 0.0293,0.69336 0.273438,0.04883 0.458984,0.05859 l 1.445313,0.0293 h 0.703125 l 1.757812,0.0098 1.708985,-0.04883 q 0.332031,0 0.703125,-0.06836 0.01953,-0.332031 0.0293,-1.6308591 l 0.01953,-0.4394531 -0.05859,-1.6601563 -0.06836,-0.6835937 q -0.0293,-0.068359 -0.136719,-0.1269531 -0.341797,-0.1953125 -1.367187,-0.4394532 -0.185547,-0.039063 -0.351563,-0.097656 0.01953,-0.3417969 0.07813,-0.5566406 0.214844,-0.00977 0.263672,-0.00977 l 0.947266,0.00977 q 0.908203,0.1171875 1.845703,0.1171875 0.214843,0 0.341797,-0.00977 l 1.269531,-0.039063 q 0.175781,-0.00977 0.341797,-0.019531 0.351562,-0.078125 0.722656,-0.078125 0.283203,0 0.683594,0.029297 -0.0098,0.3808593 -0.04883,0.6933593 -0.898438,0.1855469 -1.181641,0.2734375 -0.273438,0.078125 -0.556641,0.2246094 l -0.05859,0.1953125 V 6.599966 l 0.0098,0.2539063 -0.0098,0.1269531 q -0.01953,0.2050781 -0.01953,0.3125 V 7.537466 q 0.0098,0.4394532 0.0098,0.4882813 v 1.2402344 l 0.0098,0.9375003 -0.01953,1.240234 q -0.0098,0.429688 0.0293,1.757813 v 1.386718 l 0.01953,1.152344 q 0,0.322266 -0.01953,0.78125 0.205078,0.05859 0.38086,0.09766 0.917968,0.195313 1.386718,0.400391 l 0.0293,0.683594 q -0.390625,0.0098 -0.458984,0.0098 -0.46875,0 -1.074219,-0.05859 -0.800781,-0.08789 -2.578125,-0.08789 -0.800781,0 -2.070312,0.126953 -0.136719,0 -0.332032,-0.05859 0.0098,-0.449218 0.04883,-0.634765 l 0.751954,-0.175782 0.791015,-0.126953 q 0.117188,-0.0293 0.302735,-0.08789 0.107421,-0.791016 0.117187,-2.626953 l 0.0098,-0.830079 q -0.05859,-0.517578 -0.05859,-1.240234 -0.361328,-0.0293 -0.78125,-0.03906 l -4.53125,-0.04883 -0.08789,-0.0098 -0.06836,-0.0098 q -0.06836,0 -0.15625,0.0098 -0.253906,0.0098 -0.429688,0.0098 h -0.273437 q -0.185547,0 -0.419922,0.06836 l -0.03906,0.732422 v 0.126953 q 0.01953,0.263672 0.01953,0.341797 v 3.027343 q 0,0.253907 0.0293,0.517579 l 0.09766,0.05859 1.435547,0.22461 q 0.107422,0.03906 0.166015,0.04883 0.126954,0.0293 0.214844,0.08789 0.0293,0.22461 0.0293,0.302735 0,0.126953 -0.03906,0.351562 -0.351563,0.0098 -0.595704,0.0098 -0.214843,0 -0.40039,-0.0098 -0.08789,0 -0.166016,-0.0098 l -1.376953,-0.05859 q -0.488281,-0.04883 -1.367187,-0.04883 l -0.205079,0.0098 q -0.410156,0.01953 -0.478515,0.0293 -0.605469,0.07813 -1.894531,0.07813 z"
            id="3" />
         <path
            d="m 51.806086,5.3109035 q 0.126953,0.2929688 0.517578,1.6699219 0.175781,0.625 0.185547,1.328125 H 51.620539 Q 50.683039,6.9808254 49.686945,6.4046535 48.690851,5.818716 47.460382,5.818716 q -1.513671,0 -2.441406,1.1816407 -1.259765,1.6015625 -1.259765,4.4628903 0,1.660157 0.214843,2.363282 0.351563,1.142578 0.888672,1.865234 0.410156,0.546875 1.074219,0.869141 0.859375,0.439453 1.835937,0.439453 1.074219,0 2.070313,-0.664063 1.005859,-0.673828 1.923828,-2.001953 0.361328,-0.06836 0.947266,-0.07813 -0.03906,0.371094 -0.126953,0.771484 -0.0293,0.15625 -0.22461,1.240235 l -0.08789,0.292969 -0.136719,0.458984 q -0.595703,0.458984 -1.679688,0.693359 -1.074218,0.22461 -2.646484,0.22461 -1.201172,0 -2.275391,-0.22461 -1.064453,-0.224609 -1.826172,-0.71289 -1.113281,-0.703125 -1.748046,-1.523438 -0.634766,-0.820312 -0.947266,-1.787109 -0.302734,-0.966797 -0.302734,-2.167969 0,-2.9101562 1.914062,-4.8046875 1.923828,-1.8945312 4.902344,-1.8945312 1.210937,0 2.27539,0.1269531 1.074219,0.1171875 2.001954,0.3613281 z"
            id="dash" />
         <path
            d="m 54.091242,10.791372 h 3.076172 l 1.5625,-0.01953 q 0.322265,0 0.595703,0.03906 0.0293,0.458984 0.05859,0.683593 l 0.0098,0.166016 -0.03906,0.507812 q -0.0098,0.117188 -0.0098,0.292969 v 0.175781 l -5.292969,0.0098 q -0.0098,-0.283203 -0.0098,-0.429687 0,-0.244141 0.01953,-0.546875 0.0098,-0.15625 0.0098,-0.22461 l -0.0098,-0.488281 z"
            id="C" />
         <path
            d="M 63.028469,11.721989 Q 62.7355,11.350895 62.549953,11.136051 64.327297,9.8469887 64.923,9.0364418 q 0.390625,-0.5175781 0.390625,-1.1230469 0,-0.625 -0.449218,-1.0839843 -0.449219,-0.4589844 -1.025391,-0.4589844 -1.191406,0 -2.167969,1.4550781 L 61.055813,7.4934731 q 0.46875,-1.0253907 0.917969,-1.5332032 0.458984,-0.5175781 1.298828,-0.8789062 0.634765,-0.2734375 1.582031,-0.2734375 1.279297,0 1.972656,0.6445312 0.69336,0.6347657 0.69336,1.6015625 0,0.7617188 -0.478516,1.4648438 -0.478516,0.6933594 -1.699219,1.5234373 H 65.548 q 1.308594,0 2.128907,1.00586 0.830078,1.005859 0.830078,2.197265 0,1.00586 -0.46875,2.09961 -0.458985,1.09375 -1.699219,1.845703 -1.240234,0.742187 -3.046875,0.742187 -1.748047,0 -2.666016,-0.615234 -0.585937,-0.390625 -0.585937,-0.917969 0,-0.371094 0.283203,-0.644531 0.283203,-0.273438 0.722656,-0.273438 0.371094,0 0.683594,0.195313 0.3125,0.195312 0.849609,0.878906 0.273438,0.351563 0.527344,0.449219 0.449219,0.185547 0.654297,0.185547 0.517578,0 1.074219,-0.351563 0.566406,-0.351562 0.898437,-1.162109 0.332031,-0.820313 0.332031,-1.904297 0,-1.162109 -0.585937,-1.826172 -0.576172,-0.673828 -1.269531,-0.673828 -0.507813,0 -1.181641,0.449219 z"
            id="H" />
      </g>
   </g>
</svg>