<?xml version="1.0" encoding="UTF-8" standalone="no"?>
<svg height="380" width="90" viewBox="0 0 90 380" version="1.1" xml:space="preserve"
   xmlns="http://www.w3.org/2000/svg"
   xmlns:svg="http://www.w3.org/2000/svg">
   <g>
      <rect id="panel" style="fill:#101010" x="0" y="0" width="90" height="380" />
      <g style="fill:none;stroke-width:.5;stroke:#a0a0a0" id="g3">
         <line x1="2.5" y1="34" x2="87.5" y2="34" id="line1" />
         <line x1="2.5" y1="200" x2="87.5" y2="200" id="line2" />
         <line x1="2.5" y1="365" x2="87.5" y2="365" id="line3" />
      </g>
   </g>
   <g id="logo" style="fill:#d9d9d9">
      <path d="m 40.647106,371.63388 0.910229,-1.80007 1.107972,0.29661 -0.916345,1.79906 1.686932,0.45155 0.916345,-1.79906 1.102876,0.29559 -0.911249,1.8011 0.800146,0.21405 -0.296615,1.10798 -1.031525,-0.27624 -0.674773,1.33018 1.32814,0.35573 -0.296615,1.10696 -1.559519,-0.41689 -0.910229,1.80007 -1.107973,-0.29661 0.91125,-1.80007 -1.686932,-0.45258 -0.911248,1.8011 L 38,376.85471 l 0.911248,-1.80008 -0.795048,-0.21303 0.296614,-1.10798 1.031525,0.27624 0.669676,-1.3312 -1.323043,-0.35471 0.296614,-1.10798 z m 2.261813,1.79294 -1.686932,-0.45155 -0.675791,1.33018 1.68795,0.45256 z" />
      <path d="m 51.211066,377.07487 -0.306807,1.14365 -2.399417,-0.64317 0.157991,-0.59018 q -0.838879,0.48519 -1.613542,0.27725 -0.927558,-0.24871 -1.336295,-1.16607 -0.407717,-0.91737 -0.121296,-1.98864 0.291518,-1.08759 1.116126,-1.66349 0.826648,-0.581 1.728723,-0.33942 0.867419,0.23342 1.250673,1.05598 l 0.421988,-1.57481 -0.773644,-0.20793 0.305788,-1.14262 2.358646,0.63195 -1.604368,5.98938 z m -2.023297,-1.98762 q 0.190608,-0.71248 -0.03567,-1.09778 -0.221187,-0.38326 -0.611576,-0.48824 -0.465818,-0.12435 -0.820532,0.17022 -0.34758,0.29254 -0.50557,0.88169 -0.148817,0.55858 -0.001,1.01114 0.149837,0.44645 0.626866,0.57488 0.394467,0.10601 0.774663,-0.12231 0.386313,-0.23138 0.572844,-0.9296 z" />
   </g>
   <path aria-label="Favorites" style="fill:#d9d9d9" d="m 22.5,9.9960938 0.01172,-0.421875 q 0.128906,-0.029297 0.427734,-0.087891 0.298828,-0.058594 0.597656,-0.1347656 L 23.648437,9.28125 q 0.05859,-0.234375 0.05859,-0.4804687 V 8.765625 l -0.02344,-1.3535156 0.0059,-0.5683594 -0.02344,-0.8378906 0.01172,-0.9960938 -0.07031,-1.9628906 q -0.08789,-0.082031 -0.56836,-0.1640625 -0.117187,-0.023437 -0.339843,-0.09375 L 22.558594,2.7539063 V 2.34375 l 0.773437,0.029297 q 0.703125,0.070312 2.06836,0.070312 0.685546,0 1.429687,-0.035156 l 0.111328,-0.00586 0.28711,0.00586 0.117187,-0.00586 h 0.246094 l 1.048828,-0.035156 q 0.07031,0 0.181641,-0.011719 0.117187,-0.011719 0.216796,-0.017578 0.03516,0.1757813 0.04687,0.3515625 l 0.08789,1.1015625 q 0,0.1757813 -0.03516,0.2695313 -0.210938,0.029297 -0.310547,0.029297 -0.117188,0 -0.1875,-0.052734 Q 28.605469,4.0019531 28.505859,3.7734375 28.259766,3.1816406 28.083984,3.0761719 27.914062,2.9648438 27.123047,2.9648438 l -0.808594,0.023437 Q 25.798828,2.9941406 25.5,3.046875 q -0.06445,0.011719 -0.1875,0.058594 -0.07617,0.1347656 -0.07617,0.3457031 l 0.01758,0.6972656 -0.01758,0.796875 q 0,0.609375 0.04102,0.75 0.05273,0.035156 0.08789,0.041016 l 0.416016,0.00586 h 0.703125 q 0.234375,0.00586 0.720703,-0.052734 0.333984,-0.041016 0.410156,-0.09375 0.140625,-0.09375 0.199219,-0.234375 0.06445,-0.1464844 0.09375,-0.703125 0.0293,0 0.158203,-0.00586 0.08203,-0.00586 0.111328,-0.00586 0.06445,0 0.257813,0.017578 l -0.03516,0.9375 q -0.0059,0.2988281 -0.02344,0.515625 l 0.01172,0.1289062 q 0.0059,0.058594 0.0059,0.8671875 0,0.052734 -0.0059,0.1757813 -0.111328,0.023437 -0.175781,0.023437 -0.04687,0 -0.228516,-0.035156 -0.05273,-0.1113281 -0.117188,-0.3222656 -0.134765,-0.4628906 -0.292968,-0.5390625 -0.28125,-0.140625 -1.769532,-0.140625 -0.216796,0 -0.503906,0.041016 -0.04102,0.2460938 -0.04102,0.5683594 l 0.0293,1.7578125 q 0.0059,0.4863282 0.105469,0.5976563 0.06445,0.070312 0.439453,0.140625 l 0.117188,0.011719 q 0.263672,0.017578 0.46289,0.076172 l 0.158204,0.035156 q 0.02344,0.1523437 0.02344,0.234375 0,0.087891 -0.01758,0.2226562 l -0.111328,-0.00586 -0.181641,0.00586 -0.832031,-0.041016 q -0.140625,-0.00586 -1.3125,-0.00586 -0.322266,0 -0.615234,0.035156 -0.462891,0.052734 -0.503907,0.052734 -0.380859,0 -0.521484,-0.00586 z m 12,-1.1367188 0.134766,0.087891 q 0.05273,0.041016 0.06445,0.099609 l 0.0059,0.029297 q -0.140625,0.5214844 -0.369141,0.7207031 -0.228515,0.1933594 -0.568359,0.1933594 -0.345703,0 -0.597656,-0.1875 -0.246094,-0.1933594 -0.451172,-0.6738281 -0.251953,0.4453125 -0.708984,0.6738281 -0.457032,0.2226566 -1.119141,0.2226566 -0.609375,0 -0.896484,-0.2519535 -0.28711,-0.2578125 -0.28711,-0.6738281 0,-0.1933594 0.08203,-0.3925781 0.08789,-0.1992188 0.275391,-0.3925782 0.193359,-0.1992187 0.615234,-0.4335937 0.06445,-0.035156 0.445313,-0.1992188 l 1.458984,-0.5859375 q 0.01758,-0.2226562 0.01758,-0.4511719 0,-0.7910156 -0.193359,-1.078125 -0.117187,-0.1757812 -0.410156,-0.1757812 -0.292969,0 -0.539063,0.1113281 -0.246093,0.1113281 -0.357422,0.2871094 -0.08203,0.1289062 -0.140625,0.4863281 -0.04102,0.2578125 -0.07617,0.2988281 -0.08789,0.1113282 -0.322266,0.2050782 -0.228516,0.087891 -0.310547,0.1289062 -0.316406,0.1523438 -0.503906,0.1523438 -0.08203,-0.070312 -0.08203,-0.1992188 0,-0.3339844 0.140625,-0.5742187 0.210937,-0.3398438 0.632812,-0.65625 0.427734,-0.3222657 0.796875,-0.4511719 0.503906,-0.1640625 1.230469,-0.1640625 0.46875,0 0.802734,0.1757812 0.339844,0.1699219 0.46875,0.5097657 0.134766,0.3398437 0.134766,1.2246093 l -0.01758,0.9667969 0.01172,0.7089844 v 0.1816406 q 0,0.2460938 0.06445,0.3398438 0.07031,0.087891 0.175781,0.087891 0.06445,0 0.111328,-0.035156 L 34.394531,8.9003906 Z M 32.578125,7.5 Q 32.244141,7.6113281 31.822266,7.875 31.40625,8.1328125 31.242187,8.3964844 31.125,8.5898438 31.125,8.8710938 q 0,0.2519531 0.152344,0.4160156 0.152343,0.1640625 0.351562,0.1640625 0.328125,0 0.556641,-0.1875 0.310547,-0.2519531 0.363281,-0.3984375 0.05273,-0.1523438 0.05273,-0.8496094 0,-0.2578125 -0.02344,-0.515625 z m 2.0625,-2.3144531 0.134766,-0.00586 1.21875,0.029297 0.363281,0.00586 0.773437,-0.029297 h 0.134766 q 0.03516,0.1113281 0.03516,0.1699218 0,0.070312 -0.02344,0.2167969 -0.111328,0.017578 -0.257813,0.035156 -0.287109,0.041016 -0.357422,0.09375 -0.05273,0.035156 -0.05273,0.076172 0,0.099609 0.07617,0.2460938 0.03516,0.058594 0.164062,0.3808594 0.05273,0.140625 0.19336,0.421875 0.439453,0.9082031 0.626953,1.4121094 0.111328,0.2988281 0.18164,0.4394531 0.410157,-0.9433594 0.884766,-2.4023438 0.123047,-0.3808594 0.140625,-0.6152344 -0.345703,-0.052734 -0.644531,-0.052734 h -0.07031 l -0.09375,-0.011719 q -0.01172,-0.1054687 -0.01172,-0.1992187 0,-0.140625 0.04687,-0.2109375 l 0.205078,-0.017578 0.509765,0.00586 h 0.28711 q 0.263672,0.023437 0.550781,0.023437 L 40.125,5.1738281 q 0.05859,0 0.164062,0.00586 0.0059,0.1054687 0.0059,0.1699219 0,0.064453 -0.0059,0.1640625 -0.597656,0.140625 -0.826171,0.2636718 -0.04102,0.082031 -0.05273,0.1113282 l -0.02344,0.052734 q -0.234375,0.703125 -0.744141,1.8574219 L 38.009766,9.328125 q -0.123047,0.2929688 -0.181641,0.4042969 -0.09961,0.1992187 -0.169922,0.3457031 H 37.183594 Q 36.955078,9.6855469 36.708984,9.1230469 l -0.796875,-1.78125 q -0.292968,-0.7089844 -0.667968,-1.4941407 -0.04687,-0.099609 -0.07617,-0.1230468 -0.47461,-0.1289063 -0.544922,-0.1992188 -0.01172,-0.070312 -0.01172,-0.1582031 0,-0.1113281 0.0293,-0.1816406 z m 10.318359,0.5039062 q 0.375,0.3632813 0.556641,0.8378906 0.1875,0.46875 0.1875,0.8847657 0,0.7851562 -0.240234,1.265625 Q 45.099609,9.4042969 44.484375,9.75 q -0.615234,0.345703 -1.429688,0.345703 -0.914062,0 -1.552734,-0.4101561 Q 40.869141,9.2753906 40.59375,8.7539063 40.324219,8.2324219 40.324219,7.4589844 q 0,-0.3925782 0.128906,-0.7851563 0.128906,-0.3984375 0.351562,-0.6914062 0.228516,-0.2929688 0.498047,-0.4921875 0.392578,-0.28125 0.785157,-0.3984375 0.398437,-0.1230469 0.960937,-0.1230469 1.224609,0 1.910156,0.7207031 z m -3.205078,2.0273438 q 0.05273,0.7265625 0.07617,0.8378906 0.07617,0.3925781 0.240234,0.6738281 0.111329,0.1816407 0.369141,0.3222657 0.257813,0.140625 0.615234,0.140625 0.427735,0 0.720704,-0.2695313 0.292968,-0.2753906 0.421875,-0.8554687 0.08203,-0.3808594 0.08203,-1.2480469 0,-1.0664063 -0.351563,-1.5058594 -0.351562,-0.4453125 -0.925781,-0.4453125 -0.451172,0 -0.75,0.2519531 -0.292969,0.2519531 -0.410156,0.7441406 -0.07617,0.3164063 -0.08789,1.3535157 z m 4.611328,1.9570312 q 0.07617,-0.064453 0.199219,-0.09375 0.298828,-0.064453 0.568359,-0.234375 0.05273,-0.140625 0.05273,-0.9492187 0,-1.4824219 -0.06445,-2.0039063 -0.01172,-0.09375 -0.09375,-0.1640625 Q 46.880859,6.1523437 46.628906,6.09375 46.511719,6.0644531 46.488281,5.9648437 l -0.01758,-0.2167968 q 0.433594,-0.058594 0.785156,-0.2929688 0.351563,-0.2402344 0.527344,-0.4863281 0.09375,-0.1347656 0.164063,-0.2050781 l 0.410156,-0.017578 q 0.0293,0.1347657 0.0293,0.2226563 0,0.064453 -0.0059,0.1582031 -0.0059,0.2050781 -0.0059,0.3398438 0,0.064453 0.0059,0.4863281 0.240235,-0.4101563 0.351563,-0.5507813 0.05273,-0.064453 0.310547,-0.2871093 0.199218,-0.1464844 0.451172,-0.1464844 0.310546,0 0.539062,0.2109375 0.228516,0.2109375 0.228516,0.4863281 0,0.2753906 -0.175782,0.4980469 -0.169921,0.2167969 -0.457031,0.2167969 -0.251953,0 -0.527344,-0.2109375 Q 48.9375,6.0410156 48.837891,6.0410156 l -0.04102,0.00586 Q 48.673828,6.0878906 48.574219,6.2695312 48.410156,6.5625 48.410156,6.8789062 l 0.01172,0.1582032 q 0.02344,0.4335937 0.03516,2.0332031 0.01758,0.1464844 0.111328,0.2929688 0.105469,0.082031 0.210938,0.1171875 0.111328,0.035156 0.380859,0.058594 0.269531,0.023437 0.328125,0.076172 0.05859,0.046875 0.05859,0.1582031 0,0.064453 -0.03516,0.1699219 h -0.550782 l -1.11914,-0.058594 q -0.421875,0 -0.767578,0.035156 h -0.09961 q -0.04102,0 -0.609375,0.029297 -0.01758,-0.09375 -0.01758,-0.140625 0,-0.046875 0.01758,-0.1347657 z m 4.904297,-6.703125 q 0,-0.3164062 0.205078,-0.515625 Q 51.679687,2.25 52.001953,2.25 q 0.345703,0 0.574219,0.2167969 0.228515,0.2109375 0.228515,0.4804687 0,0.1992188 -0.09375,0.3984375 -0.08789,0.1992188 -0.287109,0.3222657 -0.193359,0.1171875 -0.398437,0.1171875 -0.28125,0 -0.521485,-0.2402344 Q 51.269531,3.3046875 51.269531,2.9707031 Z M 50.449219,9.9609375 50.4375,9.5800781 51.099609,9.4921875 Q 51.246094,9.4511719 51.298828,9.375 q 0.05859,-0.082031 0.05859,-0.3574219 V 8.953125 q 0,-0.070312 0.0059,-0.2519531 0.01172,-0.1875 0.01172,-0.328125 0,-0.1113281 -0.01758,-0.4277344 l 0.0059,-0.2929688 -0.0059,-0.2753906 0.01172,-0.9550781 q 0,-0.1816406 -0.03516,-0.375 -0.06445,-0.087891 -0.234375,-0.1523438 -0.169922,-0.064453 -0.591797,-0.09375 V 5.4726562 Q 51.111328,5.4375 51.568359,5.2207031 51.878906,5.0800781 52.242187,4.7226562 h 0.392579 q 0.02344,0.7265625 0.02344,1.8867188 L 52.617187,9 q 0,0.2460938 0.02344,0.4453125 0.181641,0.064453 0.591797,0.1289063 0.158203,0.023437 0.251953,0.058594 l -0.0059,0.3222656 q -0.158204,0.00586 -0.234375,0.00586 -0.08789,0 -0.269532,-0.011719 -0.597656,-0.029297 -1.599609,-0.029297 -0.287109,0 -0.556641,0.023437 -0.269531,0.017578 -0.36914,0.017578 z m 3.533203,-4.4414063 q 0.691406,-0.2929687 0.996094,-0.5742187 0.310546,-0.28125 0.662109,-0.9140625 h 0.328125 q 0.05273,0.1523437 0.05273,0.3222656 0,0.3046875 -0.0059,0.4746094 l -0.01758,0.3457031 q 0,0.029297 0.0059,0.1347656 l 0.134766,0.00586 q 0.0293,0 0.550781,-0.023437 0.04102,0 0.439453,-0.011719 0.03516,0.1582031 0.03516,0.28125 0,0.1347656 -0.04102,0.3164062 -0.19336,0.023437 -0.292969,0.023437 -0.04687,0 -0.1875,-0.011719 h -0.304687 l -0.105469,-0.00586 -0.28125,0.011719 -0.01172,2.2382813 q -0.0059,0.6503906 0.02344,0.8144531 0.03516,0.1582032 0.140625,0.3046875 0.134765,0.064453 0.298828,0.064453 0.158203,0 0.234375,-0.029297 0.07617,-0.029297 0.257812,-0.1699219 0.03516,-0.029297 0.111328,-0.082031 0.140625,0.1113281 0.228516,0.2226562 l 0.02344,0.070312 q -0.205078,0.3222656 -0.580078,0.5097656 -0.36914,0.1816404 -0.791015,0.1816404 -0.544922,0 -0.884766,-0.3457029 Q 54.662109,9.328125 54.662109,8.6015625 l 0.02344,-1.03125 V 5.9003906 l -0.181641,-0.00586 -0.421875,0.00586 -0.07617,-0.017578 q -0.03516,-0.052734 -0.03516,-0.099609 0,-0.035156 0.01172,-0.2636719 z m 3.908203,1.3359375 q 0.152344,-0.4980468 0.269531,-0.6621093 0.328125,-0.4804688 0.697266,-0.75 0.375,-0.2695313 0.673828,-0.3574219 0.386719,-0.1113281 0.626953,-0.1113281 0.550781,0 0.890625,0.087891 0.339844,0.082031 0.568359,0.2402344 Q 61.945312,5.53125 62.144531,5.765625 62.34375,6 62.466797,6.3164062 q 0.128906,0.3164063 0.140625,0.7675782 l -0.650391,-0.011719 q -0.269531,0 -1.183594,-0.052734 -0.339843,-0.023437 -0.46875,-0.023437 -0.04102,0 -0.632812,0.00586 h -0.503906 q -0.01172,0.082031 -0.01172,0.140625 0,0.3105469 0.07617,0.65625 0.07617,0.3398438 0.228515,0.6035157 0.152344,0.2578125 0.375,0.4453125 0.228516,0.1875 0.46875,0.2695312 l 0.339844,0.1113281 q 0.451172,0 0.603516,-0.029297 0.28125,-0.058594 0.492187,-0.1464844 0.216797,-0.09375 0.521485,-0.3105469 0.210937,0.1523438 0.351562,0.2753906 -0.515625,0.5683594 -1.072265,0.8261719 -0.550782,0.251953 -1.236329,0.251953 -0.46289,0 -0.755859,-0.08203 Q 59.15625,9.9082031 58.839844,9.6914063 58.523437,9.4746094 58.294922,9.1523438 58.066406,8.8300781 57.955078,8.4902344 57.808594,8.0449219 57.808594,7.7753906 q 0,-0.5097656 0.08203,-0.9199219 z M 61.294922,6.6035156 Q 61.289062,6.2753906 61.166016,5.9765625 61.042969,5.6777344 60.785156,5.5136719 60.527344,5.34375 60.263672,5.34375 q -0.392578,0 -0.708985,0.3457031 -0.316406,0.3457031 -0.357421,0.9375 l 1.335937,0.00586 q 0.128906,0 0.363281,-0.017578 0.169922,-0.017578 0.240235,-0.017578 0.05273,0 0.158203,0.00586 z m 2.24414,1.7167969 q 0.175782,-0.035156 0.257813,-0.035156 0.04102,0 0.123047,0.00586 l 0.05273,0.058594 q 0.316406,0.5566406 0.416016,0.6738281 0.205078,0.2402344 0.404297,0.3867188 0.134765,0.09375 0.421875,0.1933593 0.193359,0.070312 0.410156,0.070312 0.369141,0 0.632812,-0.234375 0.263672,-0.2402343 0.263672,-0.515625 0,-0.1875 -0.09961,-0.3164062 Q 66.322266,8.4726563 66.023437,8.34375 65.876953,8.2792969 65.285156,8.1328125 64.699219,7.9863281 64.576172,7.9394531 64.300781,7.8339844 64.083984,7.6464844 63.873047,7.4589844 63.761719,7.2246094 63.609375,6.890625 63.609375,6.6503906 q 0,-0.4453125 0.128906,-0.7265625 0.128906,-0.2871094 0.363281,-0.5039062 0.169922,-0.1640625 0.509766,-0.2988282 0.345703,-0.1347656 0.738281,-0.1347656 0.556641,0 0.978516,0.076172 0.421875,0.076172 0.714844,0.2285156 0.03516,0.1347656 0.09961,0.6210938 0.06445,0.4863281 0.06445,0.5742187 0,0.041016 -0.01758,0.087891 -0.152344,0.046875 -0.251953,0.046875 -0.05859,0 -0.169922,-0.011719 -0.05273,-0.082031 -0.140625,-0.2460938 -0.28125,-0.5214843 -0.580078,-0.7324218 -0.292969,-0.2167969 -0.679688,-0.2167969 -0.404296,0 -0.679687,0.234375 -0.199219,0.1699219 -0.199219,0.4628906 0,0.1933594 0.210938,0.3925781 0.205078,0.2050782 0.714843,0.3105469 0.767579,0.1699219 1.13086,0.3398438 0.527344,0.2460937 0.738281,0.5800781 Q 67.5,8.0683594 67.5,8.5078125 q 0,0.6796875 -0.515625,1.1367188 -0.509766,0.4511717 -1.494141,0.4511717 -0.128906,0 -0.673828,-0.05859 -0.246094,-0.0293 -0.580078,-0.1171871 Q 64.154297,9.8964844 63.808594,9.75 q -0.06445,-0.035156 -0.09375,-0.082031 -0.02344,-0.052734 -0.07617,-0.4921875 -0.09375,-0.7148438 -0.09961,-0.8554688 z" />
</svg>