<?xml version="1.0" encoding="UTF-8" standalone="no"?>
<svg height="380" width="90" viewBox="0 0 90 380" version="1.1" xml:space="preserve"
   xmlns="http://www.w3.org/2000/svg"
   xmlns:svg="http://www.w3.org/2000/svg">
   <g id="HC-3">
      <rect id="panel" style="fill:#101010" x="0" y="0" width="90" height="380" />
      <g style="fill:none;stroke-width:.5;stroke:#a0a0a0" >
         <line x1="2.5" y1="34" x2="87.5" y2="34" />
         <line x1="2.5" y1="200" x2="87.5" y2="200" />
         <line x1="2.5" y1="365" x2="87.5" y2="365" />
      </g>
   </g>
   <g aria-label="HC-3" style="fill:#d9d9d9">
      <path d="m 34.732178,9.3007813 q 0,-0.131836 0.02637,-0.3120118 l 0.549316,-0.09668 q 0.101075,-0.021973 0.2417,-0.070312 l 0.05713,-1.0986328 Q 35.589114,7.129883 35.589114,6.8354494 l 0.0044,-0.1054687 q 0.01318,-0.1801758 0.01318,-0.9052735 l -0.0088,-0.1274414 0.0088,-0.3691406 -0.0044,-0.3823242 V 4.7568359 q 0,-0.2548828 -0.03955,-0.5976562 -0.0044,-0.030762 -0.03516,-0.1054688 -0.03516,-0.013184 -0.0791,-0.017578 -0.03955,-0.00439 -0.0835,-0.013184 -0.171386,-0.030762 -0.364746,-0.043945 l -0.06592,-0.017578 q -0.118652,-0.013184 -0.180176,-0.035156 -0.01318,-0.1274414 -0.01318,-0.1625976 0,-0.052734 0.02637,-0.1450196 0.08789,-0.017578 0.246094,-0.017578 0.158203,0 0.219726,-0.00439 0.536133,0.057129 0.79541,0.061523 0.118653,0 0.237305,0.00879 0.123047,0.00439 0.215332,0.00439 0.14502,0 0.70752,-0.043945 0.09228,-0.021973 0.202148,-0.021973 0.162598,0 0.272461,0.017578 0.0044,0.092285 0.0044,0.1318359 0,0.070312 -0.01758,0.1713867 l -0.773437,0.1230469 q -0.09668,0.043945 -0.09668,0.1274414 l 0.01318,0.1625977 0.0044,0.070312 -0.0044,0.1933593 -0.0088,0.1494141 v 0.035156 q 0.0044,0.04834 0.0044,0.083496 l -0.0044,0.5581055 q 0.0044,0.079102 0.0044,0.1186524 0,0.021973 -0.0088,0.140625 -0.0044,0.070312 -0.0044,0.1450195 0,0.065918 0.01318,0.3120117 0.123047,0.021973 0.206543,0.026367 l 0.650391,0.013184 h 0.316406 l 0.791016,0.00439 0.769043,-0.021973 q 0.149414,0 0.316406,-0.030762 0.0088,-0.149414 0.01318,-0.7338867 l 0.0088,-0.1977539 -0.02637,-0.7470703 -0.03076,-0.3076172 q -0.01318,-0.030762 -0.06152,-0.057129 -0.153808,-0.087891 -0.615234,-0.1977539 -0.0835,-0.017578 -0.158203,-0.043945 0.0088,-0.1538086 0.03516,-0.2504883 0.09668,-0.00439 0.118652,-0.00439 l 0.42627,0.00439 q 0.408691,0.052734 0.830566,0.052734 0.09668,0 0.153809,-0.00439 l 0.571289,-0.017578 q 0.0791,-0.00439 0.153809,-0.00879 0.158203,-0.035156 0.325195,-0.035156 0.127441,0 0.307617,0.013184 -0.0044,0.1713867 -0.02197,0.3120117 Q 41.4646,3.996582 41.337158,4.0361328 41.214111,4.0712891 41.08667,4.137207 L 41.0603,4.225098 v 0.074707 l 0.0044,0.1142578 -0.0044,0.057129 q -0.0088,0.092285 -0.0088,0.140625 v 0.1098633 q 0.0044,0.1977539 0.0044,0.2197265 v 0.5581055 l 0.0044,0.421875 -0.0088,0.5581055 q -0.0044,0.1933594 0.01318,0.7910156 v 0.6240234 l 0.0088,0.5185547 q 0,0.1450196 -0.0088,0.3515625 0.09228,0.026367 0.171387,0.043945 0.413086,0.087891 0.624023,0.1801757 l 0.01318,0.3076172 q -0.175781,0.00439 -0.206543,0.00439 -0.210937,0 -0.483398,-0.026367 -0.360352,-0.039551 -1.160157,-0.039551 -0.360351,0 -0.93164,0.057129 -0.06152,0 -0.149414,-0.026367 0.0044,-0.2021484 0.02197,-0.2856445 L 39.30249,8.9008789 39.658447,8.84375 q 0.05273,-0.013184 0.136231,-0.039551 0.04834,-0.355957 0.05273,-1.1821289 l 0.0044,-0.3735351 q -0.02637,-0.23291 -0.02637,-0.5581053 -0.162597,-0.013184 -0.351562,-0.017578 l -2.039063,-0.021973 -0.03955,-0.00439 -0.03076,-0.00439 q -0.03076,0 -0.07031,0.00439 -0.114257,0.00439 -0.193359,0.00439 h -0.123047 q -0.0835,0 -0.188965,0.030762 l -0.01758,0.3295899 v 0.057129 q 0.0088,0.1186523 0.0088,0.1538086 v 1.3623047 q 0,0.1142578 0.01318,0.2329101 l 0.04395,0.026367 0.645996,0.1010742 q 0.04834,0.017578 0.07471,0.021973 0.05713,0.013184 0.09668,0.039551 0.01318,0.1010742 0.01318,0.1362304 0,0.057129 -0.01758,0.1582032 -0.158203,0.00439 -0.268066,0.00439 -0.09668,0 -0.180176,-0.00439 -0.03955,0 -0.07471,-0.00439 l -0.619629,-0.026367 q -0.219726,-0.021973 -0.615234,-0.021973 l -0.09228,0.00439 q -0.18457,0.00879 -0.215332,0.013184 -0.272461,0.035156 -0.852539,0.035156 z" />
      <path d="m 47.634521,3.7197266 q 0.05713,0.1318359 0.232911,0.7514648 0.0791,0.28125 0.0835,0.5976563 H 47.551025 Q 47.12915,4.4711914 46.680908,4.2119141 46.232666,3.9482422 45.678955,3.9482422 q -0.681152,0 -1.098633,0.5317383 -0.566894,0.7207031 -0.566894,2.0083007 0,0.7470704 0.09668,1.0634766 0.158204,0.5141602 0.399903,0.8393555 0.18457,0.2460937 0.483398,0.3911133 0.386719,0.1977539 0.826172,0.1977539 0.483399,0 0.931641,-0.2988282 0.452636,-0.3032226 0.865722,-0.9008789 0.162598,-0.030762 0.42627,-0.035156 -0.01758,0.1669922 -0.05713,0.347168 -0.01318,0.070312 -0.101074,0.5581054 l -0.03955,0.131836 -0.06152,0.2065429 q -0.268067,0.206543 -0.75586,0.3120118 -0.483398,0.1010742 -1.190918,0.1010742 -0.540527,0 -1.023926,-0.1010742 Q 44.334229,9.199707 43.991455,8.9799805 43.490479,8.6635742 43.204834,8.2944336 42.919189,7.925293 42.778564,7.4902344 q -0.13623,-0.4350586 -0.13623,-0.975586 0,-1.3095703 0.861328,-2.1621093 Q 44.369385,3.5 45.709717,3.5 q 0.544922,0 1.023926,0.057129 0.483398,0.052734 0.900878,0.1625976 z" />
      <path d="m 48.816669,6.1015656 h 1.384277 l 0.703125,-0.00879 q 0.14502,0 0.268067,0.017578 0.01318,0.2065429 0.02637,0.3076171 l 0.0044,0.074707 -0.01758,0.2285156 q -0.0044,0.052734 -0.0044,0.1318359 v 0.079102 l -2.381836,0.00439 q -0.0044,-0.1274414 -0.0044,-0.1933593 0,-0.1098633 0.0088,-0.2460938 0.0044,-0.070312 0.0044,-0.1010742 l -0.0044,-0.2197266 z" />
      <path d="m 52.80249,6.6728516 q -0.131836,-0.1669922 -0.215332,-0.2636719 0.799805,-0.5800781 1.067871,-0.9448242 0.175782,-0.2329102 0.175782,-0.5053711 0,-0.28125 -0.202149,-0.487793 -0.202148,-0.206543 -0.461426,-0.206543 -0.536132,0 -0.975586,0.6547852 L 51.914795,4.7700195 q 0.210937,-0.4614258 0.413086,-0.6899414 0.206543,-0.2329101 0.584473,-0.3955078 0.285644,-0.1230469 0.711914,-0.1230469 0.575683,0 0.887695,0.2900391 0.312012,0.2856445 0.312012,0.7207031 0,0.3427735 -0.215332,0.6591797 -0.215332,0.3120117 -0.764649,0.6855469 h 0.09228 q 0.588867,0 0.958008,0.4526367 0.373535,0.4526367 0.373535,0.9887695 0,0.4526368 -0.210937,0.9448243 -0.206543,0.4921875 -0.764649,0.8305664 -0.558105,0.3339843 -1.371093,0.3339843 -0.786622,0 -1.199707,-0.2768554 -0.263672,-0.1757813 -0.263672,-0.413086 0,-0.1669922 0.127441,-0.290039 0.127441,-0.1230469 0.325195,-0.1230469 0.166993,0 0.307618,0.087891 0.140625,0.087891 0.382324,0.3955078 0.123047,0.1582032 0.237304,0.2021485 0.202149,0.083496 0.294434,0.083496 0.23291,0 0.483399,-0.1582032 0.254882,-0.1582031 0.404296,-0.5229492 0.149414,-0.3691406 0.149414,-0.8569336 0,-0.5229492 -0.263671,-0.8217773 -0.259278,-0.3032227 -0.571289,-0.3032227 -0.228516,0 -0.531739,0.2021485 z" />
   </g>
   <g id="logo" style="fill:#d9d9d9">
      <path
         d="m 40.647106,371.63388 0.910229,-1.80007 1.107972,0.29661 -0.916345,1.79906 1.686932,0.45155 0.916345,-1.79906 1.102876,0.29559 -0.911249,1.8011 0.800146,0.21405 -0.296615,1.10798 -1.031525,-0.27624 -0.674773,1.33018 1.32814,0.35573 -0.296615,1.10696 -1.559519,-0.41689 -0.910229,1.80007 -1.107973,-0.29661 0.91125,-1.80007 -1.686932,-0.45258 -0.911248,1.8011 L 38,376.85471 l 0.911248,-1.80008 -0.795048,-0.21303 0.296614,-1.10798 1.031525,0.27624 0.669676,-1.3312 -1.323043,-0.35471 0.296614,-1.10798 z m 2.261813,1.79294 -1.686932,-0.45155 -0.675791,1.33018 1.68795,0.45256 z"
         id="path2235" />
      <path
         d="m 51.211066,377.07487 -0.306807,1.14365 -2.399417,-0.64317 0.157991,-0.59018 q -0.838879,0.48519 -1.613542,0.27725 -0.927558,-0.24871 -1.336295,-1.16607 -0.407717,-0.91737 -0.121296,-1.98864 0.291518,-1.08759 1.116126,-1.66349 0.826648,-0.581 1.728723,-0.33942 0.867419,0.23342 1.250673,1.05598 l 0.421988,-1.57481 -0.773644,-0.20793 0.305788,-1.14262 2.358646,0.63195 -1.604368,5.98938 z m -2.023297,-1.98762 q 0.190608,-0.71248 -0.03567,-1.09778 -0.221187,-0.38326 -0.611576,-0.48824 -0.465818,-0.12435 -0.820532,0.17022 -0.34758,0.29254 -0.50557,0.88169 -0.148817,0.55858 -0.001,1.01114 0.149837,0.44645 0.626866,0.57488 0.394467,0.10601 0.774663,-0.12231 0.386313,-0.23138 0.572844,-0.9296 z"
         id="path2237" />
   </g>
</svg>