<?xml version="1.0" encoding="UTF-8" standalone="no"?>
<svg height="380" width="90" viewBox="0 0 90 380" version="1.1" xml:space="preserve"
xmlns="http://www.w3.org/2000/svg" xmlns:svg="http://www.w3.org/2000/svg">
<rect id="panel" style="fill:#101010" x="0" y="0" width="90" height="380" />
<g id="HC-2" style="fill:#d9d9d9">
   <path d="m 39.091242,10.791372 h 3.076172 l 1.5625,-0.01953 q 0.322265,0 0.595703,0.03906 0.0293,0.458984 0.05859,0.683593 l 0.0098,0.166016 -0.03906,0.507812 q -0.0098,0.117188 -0.0098,0.292969 v 0.175781 l -5.292969,0.0098 q -0.0098,-0.283203 -0.0098,-0.429687 0,-0.244141 0.01953,-0.546875 0.0098,-0.15625 0.0098,-0.22461 l -0.0098,-0.488281 z" />
   <path d="m 8.1726689,17.669296 q 0,-0.292968 0.058594,-0.693359 l 1.2207031,-0.214844 q 0.2246094,-0.04883 0.5371094,-0.15625 l 0.1269528,-2.441406 q -0.03906,-1.318359 -0.03906,-1.972656 l 0.0098,-0.234375 q 0.0293,-0.400391 0.0293,-2.0117191 l -0.01953,-0.2832031 0.01953,-0.8203125 -0.0098,-0.8496094 V 7.57164 q 0,-0.5664062 -0.08789,-1.328125 Q 10.008606,6.1751556 9.9402471,6.00914 9.8621221,5.9798431 9.7644658,5.9700775 9.6765752,5.9603119 9.5789189,5.9407806 9.1980596,5.8724213 8.7683721,5.8431244 L 8.6218877,5.8040619 Q 8.3582158,5.774765 8.2214971,5.7259369 8.1922002,5.4427338 8.1922002,5.3646088 q 0,-0.1171875 0.058594,-0.3222657 0.1953125,-0.039063 0.546875,-0.039063 0.3515625,0 0.4882813,-0.00977 1.1914058,0.1269531 1.7675778,0.1367188 0.263672,0 0.527344,0.019531 0.273438,0.00977 0.478516,0.00977 0.322265,0 1.572265,-0.097656 0.205078,-0.048828 0.449219,-0.048828 0.361328,0 0.605469,0.039063 0.0098,0.2050781 0.0098,0.2929687 0,0.15625 -0.03906,0.3808594 l -1.71875,0.2734375 Q 12.72345,6.0970306 12.72345,6.2825775 l 0.0293,0.3613281 0.0098,0.15625 -0.0098,0.4296875 -0.01953,0.3320313 v 0.078125 q 0.0098,0.1074219 0.0098,0.1855469 l -0.0098,1.2402343 q 0.0098,0.1757813 0.0098,0.2636719 0,0.048828 -0.01953,0.3125 -0.0098,0.15625 -0.0098,0.3222656 0,0.1464849 0.0293,0.6933599 0.273438,0.04883 0.458985,0.05859 l 1.445312,0.0293 h 0.703125 l 1.757813,0.0098 1.708984,-0.04883 q 0.332031,0 0.703125,-0.06836 0.01953,-0.332031 0.0293,-1.6308591 L 19.569153,8.5677338 19.51056,6.9075775 19.4422,6.2239838 q -0.0293,-0.068359 -0.136719,-0.1269532 -0.341796,-0.1953125 -1.367187,-0.4394531 -0.185547,-0.039063 -0.351563,-0.097656 0.01953,-0.3417969 0.07813,-0.5566407 0.214844,-0.00977 0.263672,-0.00977 l 0.947266,0.00977 q 0.908203,0.1171875 1.845703,0.1171875 0.214844,0 0.341797,-0.00977 L 22.332825,5.07164 q 0.175781,-0.00977 0.341797,-0.019531 0.351563,-0.078125 0.722656,-0.078125 0.283203,0 0.683594,0.029297 -0.0098,0.3808594 -0.04883,0.6933594 -0.898438,0.1855469 -1.181641,0.2734375 -0.273437,0.078125 -0.55664,0.2246094 l -0.05859,0.1953125 V 6.556015 l 0.0098,0.2539063 -0.0098,0.1269531 q -0.01953,0.2050781 -0.01953,0.3125 V 7.493515 q 0.0098,0.4394531 0.0098,0.4882813 v 1.2402343 l 0.0098,0.9375004 -0.01953,1.240234 q -0.0098,0.429688 0.0293,1.757813 v 1.386718 l 0.01953,1.152344 q 0,0.322266 -0.01953,0.78125 0.205078,0.05859 0.380859,0.09766 0.917969,0.195313 1.386719,0.400391 l 0.0293,0.683594 q -0.390625,0.0098 -0.458985,0.0098 -0.46875,0 -1.074219,-0.05859 -0.800781,-0.08789 -2.578125,-0.08789 -0.800781,0 -2.070312,0.126953 -0.136719,0 -0.332031,-0.05859 0.0098,-0.449218 0.04883,-0.634765 l 0.751953,-0.175782 0.791016,-0.126953 q 0.117187,-0.0293 0.302734,-0.08789 0.107422,-0.791016 0.117187,-2.626953 l 0.0098,-0.830079 q -0.05859,-0.517578 -0.05859,-1.240234 -0.361328,-0.0293 -0.78125,-0.03906 l -4.53125,-0.04883 -0.08789,-0.0098 -0.06836,-0.0098 q -0.06836,0 -0.15625,0.0098 -0.253906,0.0098 -0.429687,0.0098 h -0.273438 q -0.185547,0 -0.419922,0.06836 l -0.03906,0.732422 v 0.126953 q 0.01953,0.263672 0.01953,0.341797 v 3.027343 q 0,0.253907 0.0293,0.517579 l 0.09766,0.05859 1.435547,0.22461 q 0.107422,0.03906 0.166016,0.04883 0.126953,0.0293 0.214844,0.08789 0.0293,0.22461 0.0293,0.302735 0,0.126953 -0.03906,0.351562 -0.351563,0.0098 -0.595703,0.0098 -0.214844,0 -0.400391,-0.0098 -0.08789,0 -0.166015,-0.0098 l -1.376954,-0.05859 q -0.488281,-0.04883 -1.367187,-0.04883 l -0.205078,0.0098 q -0.410156,0.01953 -0.478516,0.0293 -0.6054686,0.07813 -1.8945311,0.07813 z" />
   <path d="m 36.844544,5.2669525 q 0.126953,0.2929688 0.517578,1.6699219 0.175781,0.625 0.185547,1.328125 H 36.658997 Q 35.721497,6.9368744 34.725403,6.3607025 33.72931,5.774765 32.498841,5.774765 q -1.513672,0 -2.441406,1.1816406 -1.259766,1.6015625 -1.259766,4.4628904 0,1.660157 0.214844,2.363282 0.351562,1.142578 0.888672,1.865234 0.410156,0.546875 1.074218,0.869141 0.859375,0.439453 1.835938,0.439453 1.074219,0 2.070312,-0.664063 1.00586,-0.673828 1.923828,-2.001953 0.361329,-0.06836 0.947266,-0.07813 -0.03906,0.371094 -0.126953,0.771484 -0.0293,0.15625 -0.224609,1.240235 l -0.08789,0.292969 -0.136719,0.458984 q -0.595703,0.458984 -1.679687,0.693359 -1.074219,0.22461 -2.646485,0.22461 -1.201172,0 -2.27539,-0.22461 -1.064453,-0.224609 -1.826172,-0.71289 -1.113281,-0.703125 -1.748047,-1.523438 -0.634766,-0.820312 -0.947266,-1.787109 -0.302734,-0.966797 -0.302734,-2.167969 0,-2.9101562 1.914062,-4.8046875 1.923829,-1.8945312 4.902344,-1.8945312 1.210938,0 2.275391,0.1269531 1.074219,0.1171875 2.001953,0.3613281 z" />
   <path d="m 53.97345,13.04039 v 1.640625 q -0.527344,0.0293 -0.830078,0.0293 -0.283203,0 -0.722656,-0.0293 -0.0293,0.234375 -0.0293,0.283203 l 0.01953,0.585938 -0.0098,0.625 0.01953,0.429687 q 0,0.117188 -0.0293,0.585938 -0.01953,0.263672 -0.0293,0.791015 l -0.839844,-0.0098 H 51.0047 q -0.205078,0 -0.3125,-0.0098 l -0.166015,-0.01953 q -0.06836,0 -0.214844,0.03906 l 0.01953,-1.894531 -0.03906,-1.220703 q 0,-0.04883 0.01953,-0.185547 -0.46875,0.0098 -1.396485,0.01953 h -0.644531 q -0.830078,0 -1.845703,-0.0293 -0.322266,-0.0098 -0.419922,-0.0098 -0.146484,0 -0.449219,0.01953 l -0.01953,-0.126953 0.0293,-0.673828 -0.01953,-0.214844 0.0293,-0.400391 -0.01953,-0.07813 q 0.458985,-0.86914 0.585938,-1.054687 l 2.236328,-3.4375001 q 0.751953,-1.1132813 1.191406,-1.6894531 0.449219,-0.5859375 0.625,-0.8691407 0.273438,-0.4394531 0.478516,-0.6933593 0.302734,-0.3808594 0.390625,-0.5371094 0.576172,-0.029297 0.722656,-0.029297 0.185547,0 0.69336,0.029297 l 0.01953,0.1171875 -0.03906,0.7226562 0.01953,0.2539063 -0.0293,0.4003906 0.01953,0.4003906 -0.01953,0.9667969 -0.0098,0.4199219 0.0098,0.546875 -0.0098,0.5078125 0.0098,0.6933594 -0.0098,0.6640627 0.0098,0.771484 -0.0293,1.669922 q 0.341797,0 0.849609,0.01953 H 53.5047 q 0.15625,0 0.46875,-0.01953 z m -3.662109,-0.01953 q 0.05859,-0.488281 0.05859,-0.732422 0,-0.09766 -0.01953,-0.361328 -0.0098,-0.273438 -0.0098,-0.351563 l 0.0293,-0.761718 -0.01953,-0.654297 0.0293,-1.6894535 -0.0098,-0.7714844 q 0,-0.097656 0.01953,-0.4589843 -0.07813,0.1171875 -0.273438,0.3515625 -0.136718,0.2246093 -0.224609,0.3320312 -0.380859,0.46875 -0.849609,1.1621094 l -0.878907,1.4062501 q -0.126953,0.195312 -0.283203,0.458984 -0.263672,0.429688 -0.634765,0.986328 -0.361329,0.556641 -0.605469,1.083985 0.292969,-0.0293 0.40039,-0.0293 l 0.46875,0.0098 h 0.9375 l 1.308594,0.01953 z" />
</g>
<g id="guide" style="display:none">
   <line id="head" x1="45" y1="7.5" x2="82.5" y2="7.5" style="stroke:#405a80;stroke-width:.25" />
   <line id="logo-depth" x1="7.5" y1="20" x2="82.5" y2="20" style="stroke:#405a80;stroke-width:.25" />
   <line id="v-center" x1="45" y1="7.5" x2="45" y2="365" style="stroke:#405a80;stroke-width:.25" />
   <line id="left" x1="7.5" y1="7.5" x2="7.5" y2="365" style="stroke:#405a80;stroke-width:.25" />
   <line id="right" x1="82.5" y1="7.5" x2="82.5" y2="365" style="stroke:#405a80;stroke-width:.25" />
   <line id="foot" x1="7.5" y1="365" x2="82.5" y2="365" style="stroke:#405a80;stroke-width:.25" />
</g>
<line x1="2.5" y1="35" x2="87.5" y2="35" style="stroke-width:.5;stroke:#a0a0a0"/>
<g id="logo" style="fill:#d9d9d9" >
    <path d="m 40.647106,371.63388 0.910229,-1.80007 1.107972,0.29661 -0.916345,1.79906 1.686932,0.45155 0.916345,-1.79906 1.102876,0.29559 -0.911249,1.8011 0.800146,0.21405 -0.296615,1.10798 -1.031525,-0.27624 -0.674773,1.33018 1.32814,0.35573 -0.296615,1.10696 -1.559519,-0.41689 -0.910229,1.80007 -1.107973,-0.29661 0.91125,-1.80007 -1.686932,-0.45258 -0.911248,1.8011 L 38,376.85471 l 0.911248,-1.80008 -0.795048,-0.21303 0.296614,-1.10798 1.031525,0.27624 0.669676,-1.3312 -1.323043,-0.35471 0.296614,-1.10798 z m 2.261813,1.79294 -1.686932,-0.45155 -0.675791,1.33018 1.68795,0.45256 z" />
    <path d="m 51.211066,377.07487 -0.306807,1.14365 -2.399417,-0.64317 0.157991,-0.59018 q -0.838879,0.48519 -1.613542,0.27725 -0.927558,-0.24871 -1.336295,-1.16607 -0.407717,-0.91737 -0.121296,-1.98864 0.291518,-1.08759 1.116126,-1.66349 0.826648,-0.581 1.728723,-0.33942 0.867419,0.23342 1.250673,1.05598 l 0.421988,-1.57481 -0.773644,-0.20793 0.305788,-1.14262 2.358646,0.63195 -1.604368,5.98938 z m -2.023297,-1.98762 q 0.190608,-0.71248 -0.03567,-1.09778 -0.221187,-0.38326 -0.611576,-0.48824 -0.465818,-0.12435 -0.820532,0.17022 -0.34758,0.29254 -0.50557,0.88169 -0.148817,0.55858 -0.001,1.01114 0.149837,0.44645 0.626866,0.57488 0.394467,0.10601 0.774663,-0.12231 0.386313,-0.23138 0.572844,-0.9296 z" />
</g>
</svg>