<?xml version="1.0" encoding="UTF-8" standalone="no"?>
<svg width="18" height="18" viewBox="0 0 18 18" version="1.1" xml:space="preserve"
  xmlns:xlink="http://www.w3.org/1999/xlink" xmlns="http://www.w3.org/2000/svg" xmlns:svg="http://www.w3.org/2000/svg">
  <defs>
    <linearGradient id="edge-gradient">
      <stop style="stop-color:#e85464;stop-opacity:1;" offset="0" />
      <stop style="stop-color:#992239;stop-opacity:1;" offset="1" />
    </linearGradient>
    <linearGradient xlink:href="#edge-gradient" id="a" x1="9" y1="8.2634199" x2="15"
      y2="8.2634199" gradientUnits="userSpaceOnUse" />
    <linearGradient xlink:href="#edge-gradient" id="b" gradientUnits="userSpaceOnUse"
      x1="9" y1="8.2634199" x2="15" y2="8.2634199"
      gradientTransform="matrix(-1,0,0,1,18,0)" />
    <linearGradient id="c" x1="3.1434705" y1="3.1031609"
      x2="15" y2="8" gradientUnits="userSpaceOnUse" >
      <stop style="stop-color:#9f2a3f;stop-opacity:1;" offset="0" />
      <stop style="stop-color:#e85464;stop-opacity:1;" offset="1" />
    </linearGradient>
  </defs>
  <g>
    <path style="fill:#8a4e4e"
      d="M 14.026284,12.766698 A 5.0461869,2.051724 0 0 1 8.5528555,14.628303 5.0461869,2.051724 0 0 1 3.9736096,12.40309 5.0461869,2.051724 0 0 1 9.4459456,10.540954 5.0461869,2.051724 0 0 1 14.026497,12.765723" />
    <path style="fill:#e85464"
      d="M 8.7519531 3.1054688 A 5.8611646 2.585808 0 0 0 3.1621094 5.4589844 A 5.8611646 2.585808 0 0 0 3.1621094 5.8710938 L 3.1621094 10.613281 A 5.8611646 2.585808 0 0 0 3.1621094 11.023438 L 3.1621094 11.070312 L 3.1738281 11.070312 A 5.8611646 2.585808 0 0 0 8.4804688 13.417969 A 5.8611646 2.585808 0 0 0 14.837891 11.070312 A 5.8611646 2.585808 0 0 0 14.837891 10.611328 L 14.837891 5.9179688 L 14.837891 5.9160156 A 5.8611646 2.585808 0 0 0 14.837891 5.4589844 A 5.8611646 2.585808 0 0 0 9.5175781 3.1132812 A 5.8611646 2.585808 0 0 0 8.7519531 3.1054688 z " />
    <path style="fill:url(#a)"
      d="M 8.9902344 3.1074219 L 8.9902344 13.419922 A 5.8611646 2.585808 0 0 0 14.837891 11.070312 A 5.8611646 2.585808 0 0 0 14.837891 10.611328 L 14.837891 5.9179688 L 14.837891 5.9160156 A 5.8611646 2.585808 0 0 0 14.837891 5.4589844 A 5.8611646 2.585808 0 0 0 9.5175781 3.1132812 A 5.8611646 2.585808 0 0 0 8.9902344 3.1074219 z " />
    <path style="fill:url(#b)"
      d="M 8.9902344,3.1074216 V 13.419922 a 5.8611646,2.585808 0 0 1 -5.8476568,-2.34961 5.8611646,2.585808 0 0 1 0,-0.458984 v -4.6933595 -0.00195 a 5.8611646,2.585808 0 0 1 0,-0.4570312 5.8611646,2.585808 0 0 1 5.3203131,-2.3457032 5.8611646,2.585808 0 0 1 0.5273437,-0.00586 z" />
    <path style="fill:url(#c)"
      d="M 14.814828,5.6915179 A 5.8472104,2.3774111 0 0 1 8.4725573,7.8486315 5.8472104,2.3774111 0 0 1 3.1664093,5.2701914 5.8472104,2.3774111 0 0 1 9.507415,3.1124628 a 5.8472104,2.3774111 0 0 1 5.30766,2.5779255" />
  </g>
</svg>