<?xml version="1.0" encoding="UTF-8" standalone="no"?>
<svg
   width="18"
   height="18"
   viewBox="0 0 18 18"
   version="1.1"
   xmlns="http://www.w3.org/2000/svg"
   xmlns:svg="http://www.w3.org/2000/svg">
  <g>
    <path style="fill:#303030" d="M 0.36844629,8.7359535 0.36399153,11.698141 9.0266636,16.895113 16.900704,11.920039 17.022721,8.7568205 8.6996867,13.824238 Z" />
    <path style="fill:#6a6a6a" d="m 9.0266636,15.365934 v -3.45759 L 8.9962614e-7,6.7133843 4.7527699e-4,8.4507547 Z"/>
    <path style="fill:#9d9d9d" d="M 9.0266636,15.365934 18,9.713059 V 6.7297514 L 9.0266636,11.908344 Z" />
    <path style="fill:#b8b8b8" d="M 8.9966298,11.920039 18,6.7297514 8.9966298,1.5238835 8.9962614e-7,6.7133843 Z" />
    <g transform="translate(0.359375,0.265625)">
      <path style="fill:#d9d9d9" d="M 13.578664,4.6344627 5.3655246,9.3712476 5.8222192,9.6240392 14.004137,4.8827699 Z" />
      <path style="fill:#727272" d="M 14.004137,4.8827699 5.8222192,9.6240392 6.188585,9.8449294 14.259682,5.0263975 Z" />
    </g>
    <g transform="translate(1.4949354,0.9268068)">
      <path style="fill:#d9d9d9" d="M 13.578664,4.6344627 5.3655246,9.3712476 5.8222192,9.6240392 14.004137,4.8827699 Z" />
      <path style="fill:#727272" d="M 14.004137,4.8827699 5.8222192,9.6240392 6.188585,9.8449294 14.259682,5.0263975 Z" />
    </g>
    <g transform="translate(2.763039,1.6196789)">
      <path style="fill:#d9d9d9" d="M 13.578664,4.6344627 5.3655246,9.3712476 5.8222192,9.6240392 14.004137,4.8827699 Z" />
      <path style="fill:#727272" d="M 14.004137,4.8827699 5.8222192,9.6240392 6.188585,9.8449294 14.259682,5.0263975 Z" />
    </g>
  </g>
</svg>
