<?xml version="1.0" encoding="UTF-8" standalone="no"?>
<svg
   width="18"
   height="18"
   viewBox="0 0 18 18.000001"
   version="1.1"
   xmlns="http://www.w3.org/2000/svg"
   xmlns:svg="http://www.w3.org/2000/svg">
  <g>
    <g transform="matrix(0.7865,0,0,0.7865,-6.516,-13.92)">
      <path style="fill:#3a3a3a" d="m 13.053984,19.946586 c -1.137781,0.01859 -2.275519,0.499646 -3.1088546,1.423686 -0.1408595,0.156181 -0.2679353,0.319976 -0.3818888,0.489376 h -0.730188 v 2.34766 0.19172 h 0.0031 c 0.039544,1.074467 0.4893408,2.123579 1.3399694,2.890779 0.09128,0.08146 0.186416,0.158665 0.284737,0.231511 l -0.0124,0.01395 14.463716,13.044682 0.06253,-0.06925 V 29.214237 l -8.845455,-7.977807 -0.0124,0.01395 c -0.08258,-0.0903 -0.169515,-0.177005 -0.259933,-0.259415 -0.795206,-0.717131 -1.799006,-1.060784 -2.802929,-1.044381 z" />
      <path style="fill:#b1b1b1" d="m 9.9450563,19.117715 c -1.5686931,1.739322 -1.4652021,4.389596 0.2311537,5.919575 0.09128,0.08146 0.186218,0.15872 0.284539,0.231565 l -0.01246,0.01382 14.463957,13.044603 5.680775,-6.298888 -14.463957,-13.044603 -0.01246,0.01382 c -0.08258,-0.0903 -0.169203,-0.176785 -0.259621,-0.259195 -1.696443,-1.529883 -4.343294,-1.360059 -5.9119287,0.379313 z" />
      <path transform="matrix(0.6697,-0.7426,0.743,0.669,0,0)"  
         style="fill:#545454" d="m -11.800182,44.168175 h 8.4816958 l -1.6270188,1.508562 h -8.481696 z" />
      <g transform="rotate(42.406478,13.051974,22.007822)">
        <path style="fill:#545454" d="m 11.787972,18.113649 -1.064241,1.086085 a 3.6282365,3.6282365 0 0 0 -1.1603949,2.659713 3.6282365,3.6282365 0 0 0 3.6280809,3.628297 3.6282365,3.6282365 0 0 0 3.628297,-3.628081 3.6282365,3.6282365 0 0 0 -3.628081,-3.628297 3.6282365,3.6282365 0 0 0 -0.893278,0.113898 z" />
        <rect style="fill:#545454" x="13.19" y="18.28" width="12" height="7.212" />
      </g>
      <path style="fill:#404040" d="m 19.656843,32.753374 -0.972106,-3.615706 4.069104,-4.273487 1.766596,2.564088 -4.863594,5.325105"/>
      <ellipse style="fill:#d2d2d2" cx="30.173" cy="5.357" rx="1.722" ry="1.614"
         transform="matrix(0.71671589,0.69736528,-0.67650329,0.73643961,0,0)" />
      <path transform="rotate(43.941892,14.308225,20.899382)" style="fill:#969696" d="m 12.794905,18.743612 a 2.9504738,2.9504738 0 0 0 -0.930311,2.16863 2.9504738,2.9504738 0 0 0 2.968165,2.932602 l 8.343528,-0.05052 -0.03556,-5.900766 -8.343527,0.05052 a 2.9504738,2.9504738 0 0 0 -2.002293,0.799538 z" />
      <ellipse style="fill:#1f1f1f"
         cx="-7.248857" cy="34.724621" rx="1.4213459" ry="1.1193308"
         transform="rotate(-48.491205)" />
      <path style="fill:#f9f9f9"
         d="m 34.480025,5.9392575 -0.0462,1.435375 3.658232,0.1185752 A 2.6390221,1.794626 0 0 0 40.47503,8.5184915 2.6390221,1.794626 0 0 0 43.114134,6.7238183 2.6390221,1.794626 0 0 0 40.475171,4.9293125 2.6390221,1.794626 0 0 0 38.028394,6.0545962 Z"
         transform="matrix(0.73889004,0.67382602,-0.65233719,0.75792888,0,0)" />
    </g>
  </g>
</svg>
