<?xml version="1.0" encoding="UTF-8" standalone="no"?>
<svg
   width="18"
   height="18"
   viewBox="0 0 18 18"
   version="1.1"
   xmlns="http://www.w3.org/2000/svg"
   xmlns:svg="http://www.w3.org/2000/svg">
  <g>
    <g
       transform="matrix(0.88042722,0,0,0.88042722,-27.272931,-25.899376)"
       style="display:inline">
      <path style="fill:#525252"
         d="m 46.559732,47.632247 4.861816,-4.954121 v 0.898654 l -4.892363,5.035232 z" />
      <path style="fill:#414141"
         d="m 31.281494,36.74424 5.113159,-3.808488 15.026895,9.742374 -4.861816,4.954121 z" />
      <path style="fill:#878787"
         d="m 31.312114,38.14076 -0.03062,-1.39652 7.369228,4.383465 7.909003,6.504542 -0.03061,0.979765 z"/>
      <path style="fill:#7a7a7a"
         d="m 30.97693,34.272189 v 1.004135 l 15.552255,11.470239 0.03054,-0.937011 z" />
      <path style="fill:#7a7a7a"
         d="m 51.421548,40.509376 v 0.900205 l -4.892363,5.336982 0.03054,-0.937011 z" />
      <path style="fill:#c2c2c2"
         d="m 36.838397,30.666253 -5.861467,3.605936 15.582795,11.537363 4.861823,-5.300176 z" />
      <path style="fill:#8a8a8a"
         d="m 36.925494,31.432466 -4.82173,2.839723 5.98622,4.468434 4.569342,-3.477758 z m 8.065053,5.569915 -4.289079,3.675492 5.622869,4.194191 3.965021,-4.362688 z" />
      <path style="fill:#e5e5e5"
         d="m 39.993953,38.5618 2.369588,-1.756244 0.959243,0.621905 -2.404868,1.736458 z" />
    </g>
  </g>
</svg>
