<?xml version="1.0" encoding="UTF-8" standalone="no"?>
<svg width="18" height="18" viewBox="0 0 18 18" version="1.1" xml:space="preserve" xmlns="http://www.w3.org/2000/svg"
  xmlns:svg="http://www.w3.org/2000/svg">
  <g>
    <path style="fill:#d9d9d9;stroke:none"
      d="m 4.6359249,7.5421816 c -0.04342,-9.99e-4 -0.08836,10e-4 -0.134631,0.0063 -0.403292,0.04625 -0.662176,0.416006 -0.869565,0.742661 -0.20739,0.326652 -0.406057,0.515391 -0.631729,0.736797 l 0.425786,0.399401 c 0.197567,-0.237744 0.369639,-0.401923 0.565196,-0.709941 0.195558,-0.308017 0.337642,-0.497118 0.549951,-0.52147 0.277183,-0.03179 0.335355,0.02417 0.451031,0.186518 0.115676,0.162329 0.256962,0.484424 0.51924,0.861798 0.282999,0.407185 0.703862,0.436167 1.040621,0.422352 0.108536,-0.0044 0.209792,-0.0172 0.299259,-0.03174 l -0.01219,0.4374864 c -0.04526,0.175767 0.183624,0.377658 0.301732,0.377923 l 3.4846891,0.0078 c 0,0 0.217387,-0.02921 0.23142,-0.221673 l 0.02285,-0.3134704 2.487694,-0.03223 v -1.117142 l -2.487695,0.03223 0.02286,-0.29003 c 0.02284,-0.289818 -0.207982,-0.354487 -0.207982,-0.354487 l -3.4925021,0.01563 c -0.17608,7.87e-4 -0.315695,0.226968 -0.325169,0.4248 l -0.01429,0.376451 c -0.09064,0.01745 -0.203292,0.03407 -0.324971,0.03906 -0.283511,0.01163 -0.57905,-0.07296 -0.681725,-0.220696 -0.224811,-0.323465 -0.341305,-0.612436 -0.523167,-0.867655 -0.15913,-0.223315 -0.39278,-0.379586 -0.696724,-0.386711 z m 9.4341581,1.224582 -0.301045,0.0029 v 1.117162 l 0.301045,-0.0029 c 0.103202,-0.07091 0.109494,-0.113718 0.14463,-0.268061 0.06375,-0.0055 0.106005,-0.0015 0.175342,-0.0083 v 0.06982 c 0,0.11418 0.07097,0.20605 0.159271,0.20605 h 0.08856 c 0.03503,0 0.06732,-0.01447 0.09356,-0.03906 0.06416,-0.03961 0.203174,-0.359824 0.268554,-0.519033 -0.06726,-0.163796 -0.213233,-0.511551 -0.274618,-0.535143 -0.0097,-0.0037 -0.01897,-0.0041 -0.02857,-0.0064 -0.01824,-0.0094 -0.03806,-0.01465 -0.05892,-0.01465 h -0.08856 c -0.0883,3e-6 -0.159272,0.09187 -0.159272,0.206053 v 0.0059 c -0.0053,0.01725 -0.01059,0.03464 -0.01643,0.05078 l -0.156772,-0.0029 c -0.01148,-0.20616 -0.08262,-0.232762 -0.146774,-0.262294 z" />
  </g>
</svg>