<?xml version="1.0" encoding="UTF-8" standalone="no"?>
<svg
   width="18"
   height="18"
   viewBox="0 0 18 18"
   version="1.1"
   xmlns="http://www.w3.org/2000/svg"
   xmlns:svg="http://www.w3.org/2000/svg">
  <g>
    <g transform="matrix(0.695,0,0,0.695,-22,-35.6)">
      <path style="fill:#525252" d="m 49.980815,75.832074 7.366709,-6.387366 -0.0084,0.913706 -7.395303,6.658389 z" />
      <path style="fill:#353535" d="m 49.980815,75.832072 1.483929,-1.286653 -1.52095,-2.619253 -1.542536,1.432936 z" />
      <path style="fill:#646464" d="m 57.533468,68.131326 -0.06562,1.322638 -6.857641,6.267042 0.148083,-1.591982 z" />
      <path style="fill:#414141" d="m 31.506421,61.948515 6.182813,-3.887396 16.552121,10.880894 -5.840097,4.417089 z" />
      <path style="fill:#7a7a7a" d="m 33.246496,55.432497 -0.814504,0.851527 18.178215,19.436982 0.148083,-1.591982 z" />
      <path style="fill:#c2c2c2" d="m 41.336209,51.255272 -8.089713,4.177225 17.511794,18.696527 6.775178,-5.997698 z" />
      <path style="fill:#878787" d="m 31.543444,64.354998 -0.03702,-2.406483 16.894834,11.410587 1.579557,2.472972 -0.03702,1.184729 z" />
      <path style="fill:#8b8b8b" d="m 52.557707,64.19701 -6.182707,4.193615 4.329269,4.845168 5.880003,-5.104467 z" />
      <path style="fill:#8b8b8b" d="m 41.176587,52.252683 -6.792789,3.400826 10.257835,10.761892 6.116657,-4.259839 z" />
    </g>
  </g>
</svg>
