<?xml version="1.0" encoding="UTF-8" standalone="no"?>
<svg
   width="18"
   height="18"
   viewBox="0 0 18 18"
   version="1.1"
   id="svg4672"
   xmlns="http://www.w3.org/2000/svg"
   xmlns:svg="http://www.w3.org/2000/svg">
  <g>
    <path style="fill:#303030" d="M 0.36914062 8.7890625 L 0.36328125 11.697266 L 9.0273438 16.894531 L 16.900391 11.919922 L 16.958984 10.425781 L 9.0253906 15.421875 L 0.36914062 8.7890625 z " />
    <path style="fill:#6a6a6a" d="m 9,15.650253 v -3.45759 l -9.0266627,-5.1949595 4.7438e-4,1.7373704 z" />
    <path style="fill:#9d9d9d" d="M 9,15.650253 17.973336,9.9973782 V 7.0140706 L 9,12.192663 Z" />
    <path style="fill:#b8b8b8" d="M 8.9699662,12.204358 17.973336,7.0140706 8.9699662,1.8082027 -0.0266627,6.9977035 Z" />
    <g aria-label="?">
      <path style="fill:#d834b8" d="m 4.44271,5.910138 q 0,-0.865887 0.5559906,-1.7500032 Q 5.5546911,3.266904 6.6210993,2.6835696 7.6875075,2.1002352 9.1093851,2.1002352 q 1.3216169,0 2.3333379,0.4921884 1.01172,0.4830738 1.558596,1.321617 0.555991,0.8385432 0.555991,1.82292 0,0.7747409 -0.319011,1.3580753 -0.309897,0.5833344 -0.747397,1.0117206 -0.428387,0.4192716 -1.549482,1.4218776 -0.309897,0.2825526 -0.501303,0.5013029 -0.182292,0.209636 -0.273438,0.391928 -0.09115,0.173177 -0.145834,0.355469 -0.045573,0.173178 -0.1458336,0.619793 -0.1731773,0.947918 -1.0846373,0.947918 -0.4739592,0 -0.8020848,-0.309896 -0.319011,-0.309896 -0.319011,-0.920575 0,-0.765626 0.2369796,-1.3216165 Q 8.1432375,9.2278523 8.5351653,8.8085807 8.9270931,8.3801945 9.5924589,7.7968601 10.175793,7.2864425 10.431002,7.0312337 q 0.264323,-0.2643234 0.437501,-0.5833344 0.182292,-0.3190109 0.182292,-0.6927095 0,-0.729168 -0.546876,-1.230471 -0.5377616,-0.501303 -1.3945339,-0.501303 -1.002606,0 -1.4765652,0.5104176 -0.4739592,0.501303 -0.8020848,1.4856798 -0.3098964,1.0299497 -1.1757834,1.0299497 -0.5104175,0 -0.8658869,-0.3554694 Q 4.44271,6.3294095 4.44271,5.910138 Z m 4.4479247,9.989601 q -0.5559906,0 -0.9752622,-0.355469 -0.410157,-0.364584 -0.410157,-1.011721 0,-0.574219 0.4010424,-0.966147 0.4010424,-0.391928 0.9843768,-0.391928 0.5742198,0 0.9661475,0.391928 0.3919278,0.391928 0.3919278,0.966147 0,0.638022 -0.410157,1.002606 -0.4101569,0.364584 -0.9479183,0.364584 z" />
    </g>
  </g>
</svg>
