<?xml version="1.0" encoding="UTF-8" standalone="no"?>
<svg
   height="380"
   width="60"
   viewBox="0 0 60 380"
   version="1.1"
   xml:space="preserve"
   id="svg1367"
   sodipodi:docname="Pedal2.svg"
   inkscape:version="1.2.2 (732a01da63, 2022-12-09)"
   xmlns:inkscape="http://www.inkscape.org/namespaces/inkscape"
   xmlns:sodipodi="http://sodipodi.sourceforge.net/DTD/sodipodi-0.dtd"
   xmlns="http://www.w3.org/2000/svg"
   xmlns:svg="http://www.w3.org/2000/svg"><defs
   id="defs1371" /><sodipodi:namedview
   id="namedview1369"
   pagecolor="#ffffff"
   bordercolor="#666666"
   borderopacity="1.0"
   inkscape:showpageshadow="2"
   inkscape:pageopacity="0.0"
   inkscape:pagecheckerboard="0"
   inkscape:deskcolor="#d1d1d1"
   showgrid="false"
   showguides="true"
   inkscape:zoom="9.9368421"
   inkscape:cx="-0.60381356"
   inkscape:cy="75.376059"
   inkscape:window-width="3840"
   inkscape:window-height="2126"
   inkscape:window-x="-11"
   inkscape:window-y="-11"
   inkscape:window-maximized="1"
   inkscape:current-layer="svg1367" />
<rect
   id="panel"
   style="fill:#101010"
   x="0"
   y="0"
   width="60"
   height="380" />
<line
   style="stroke:#a0a0a0;stroke-width:0.5"
   x1="5"
   y1="13.25"
   x2="55"
   y2="13.25"
   id="line1336" />

<path
   style="stroke:#4073bf;stroke-width:0.75"
   d="M 9.875,90 V 290"
   id="path1352" />
<g
   style="stroke:#a0a0a0;stroke-width:0.5"
   id="g1360">
   <line
   x1="5"
   y1="365.25015"
   x2="55"
   y2="365.25015"
   id="line1354" />
   <line
   x1="5"
   y1="338.63876"
   x2="55"
   y2="338.63876"
   id="line1356" />
   <line
   x1="30"
   y1="338.63876"
   x2="30"
   y2="365.11975"
   id="line1358" />
</g>
<g
   id="logo"
   style="fill:#d9d9d9"
   transform="translate(-15)">
   <path
   d="m 40.647106,371.63388 0.910229,-1.80007 1.107972,0.29661 -0.916345,1.79906 1.686932,0.45155 0.916345,-1.79906 1.102876,0.29559 -0.911249,1.8011 0.800146,0.21405 -0.296615,1.10798 -1.031525,-0.27624 -0.674773,1.33018 1.32814,0.35573 -0.296615,1.10696 -1.559519,-0.41689 -0.910229,1.80007 -1.107973,-0.29661 0.91125,-1.80007 -1.686932,-0.45258 -0.911248,1.8011 L 38,376.85471 l 0.911248,-1.80008 -0.795048,-0.21303 0.296614,-1.10798 1.031525,0.27624 0.669676,-1.3312 -1.323043,-0.35471 0.296614,-1.10798 z m 2.261813,1.79294 -1.686932,-0.45155 -0.675791,1.33018 1.68795,0.45256 z"
   id="path1362" />
   <path
   d="m 51.211066,377.07487 -0.306807,1.14365 -2.399417,-0.64317 0.157991,-0.59018 q -0.838879,0.48519 -1.613542,0.27725 -0.927558,-0.24871 -1.336295,-1.16607 -0.407717,-0.91737 -0.121296,-1.98864 0.291518,-1.08759 1.116126,-1.66349 0.826648,-0.581 1.728723,-0.33942 0.867419,0.23342 1.250673,1.05598 l 0.421988,-1.57481 -0.773644,-0.20793 0.305788,-1.14262 2.358646,0.63195 -1.604368,5.98938 z m -2.023297,-1.98762 q 0.190608,-0.71248 -0.03567,-1.09778 -0.221187,-0.38326 -0.611576,-0.48824 -0.465818,-0.12435 -0.820532,0.17022 -0.34758,0.29254 -0.50557,0.88169 -0.148817,0.55858 -0.001,1.01114 0.149837,0.44645 0.626866,0.57488 0.394467,0.10601 0.774663,-0.12231 0.386313,-0.23138 0.572844,-0.9296 z"
   id="path1364" />
</g>
<path
   d="m 7.9504395,9.3271484 q 0,-0.1318359 0.026367,-0.3120117 L 8.526123,8.918457 Q 8.6271973,8.8964844 8.7678223,8.8481445 L 8.8249512,7.7495117 Q 8.807373,7.15625 8.807373,6.8618164 L 8.811763,6.7563477 Q 8.8249512,6.5761719 8.8249512,5.8510742 L 8.8161621,5.7236328 8.8249512,5.3544922 8.8205566,4.972168 V 4.7832031 q 0,-0.2548828 -0.039551,-0.5976562 Q 8.7766113,4.1547852 8.7458496,4.0800781 8.7106934,4.0668945 8.666748,4.0625 8.6271973,4.0581055 8.583252,4.0493164 8.4118652,4.0185547 8.2185059,4.0053711 L 8.1525879,3.987793 Q 8.0339355,3.9746094 7.9724121,3.9526367 7.9592285,3.8251953 7.9592285,3.7900391 q 0,-0.052734 0.026367,-0.1450196 0.087891,-0.017578 0.2460938,-0.017578 0.1582031,0 0.2197265,-0.00439 0.5361328,0.057129 0.7954102,0.061523 0.1186523,0 0.2373047,0.00879 0.1230468,0.00439 0.215332,0.00439 0.1450195,0 0.7075193,-0.043945 0.09229,-0.021973 0.202149,-0.021973 0.162598,0 0.272461,0.017578 0.0044,0.092285 0.0044,0.1318359 0,0.070312 -0.01758,0.1713867 L 10.094975,4.075684 q -0.09668,0.043945 -0.09668,0.1274414 l 0.013184,0.1625977 0.0044,0.070312 -0.0044,0.1933593 -0.0088,0.1494141 v 0.035156 q 0.0044,0.04834 0.0044,0.083496 l -0.0044,0.5581055 q 0.0044,0.079102 0.0044,0.1186523 0,0.021973 -0.00879,0.140625 -0.00439,0.070312 -0.00439,0.1450196 0,0.065918 0.013184,0.3120117 0.123047,0.021973 0.206543,0.026367 l 0.650391,0.013184 h 0.316406 l 0.791016,0.00439 0.769043,-0.021973 q 0.149414,0 0.316406,-0.030762 0.0088,-0.149414 0.01318,-0.7338867 l 0.0088,-0.1977539 -0.02637,-0.7470703 -0.03076,-0.3076172 q -0.01318,-0.030762 -0.06152,-0.057129 -0.153809,-0.087891 -0.615234,-0.1977539 -0.0835,-0.017578 -0.158203,-0.043945 0.0088,-0.1538086 0.03516,-0.2504883 0.09668,-0.00439 0.118652,-0.00439 l 0.42627,0.00439 q 0.408691,0.052734 0.830566,0.052734 0.09668,0 0.153809,-0.00439 l 0.571289,-0.017578 q 0.0791,-0.00439 0.153808,-0.00879 0.158203,-0.035156 0.325196,-0.035156 0.127441,0 0.307617,0.013184 -0.0044,0.1713867 -0.02197,0.3120117 -0.404297,0.083496 -0.531738,0.1230469 -0.123047,0.035156 -0.250488,0.1010742 l -0.02637,0.087891 v 0.074707 l 0.0044,0.1142578 -0.0044,0.057129 q -0.0088,0.092285 -0.0088,0.140625 v 0.1098633 q 0.0044,0.1977539 0.0044,0.2197265 v 0.5581055 l 0.0044,0.421875 -0.0088,0.5581055 q -0.0044,0.1933593 0.01318,0.7910156 v 0.6240234 l 0.0088,0.5185547 q 0,0.1450196 -0.0088,0.3515625 0.09229,0.026367 0.171387,0.043945 0.413086,0.087891 0.624023,0.1801758 l 0.01318,0.3076172 q -0.175782,0.00439 -0.206543,0.00439 -0.210938,0 -0.483399,-0.026367 -0.360351,-0.039551 -1.160156,-0.039551 -0.360351,0 -0.931641,0.057129 -0.06152,0 -0.149414,-0.026367 0.0044,-0.2021484 0.02197,-0.2856445 l 0.338379,-0.079102 0.355957,-0.057129 q 0.05273,-0.013184 0.13623,-0.039551 0.04834,-0.355957 0.05274,-1.1821289 l 0.0044,-0.3735352 q -0.02637,-0.2329101 -0.02637,-0.5581054 -0.162597,-0.013184 -0.351562,-0.017578 l -2.039063,-0.021973 -0.03955,-0.00439 -0.03076,-0.00439 q -0.03076,0 -0.07031,0.00439 -0.114258,0.00439 -0.193359,0.00439 h -0.123047 q -0.0835,0 -0.188965,0.030762 L 9.989502,7.0375977 v 0.057129 q 0.00879,0.1186523 0.00879,0.1538086 v 1.3623046 q 0,0.1142579 0.013184,0.2329102 l 0.04394,0.026367 0.645996,0.1010742 q 0.04834,0.017578 0.07471,0.021973 0.05713,0.013184 0.09668,0.039551 0.01318,0.1010743 0.01318,0.1362305 0,0.057129 -0.01758,0.1582031 -0.158203,0.00439 -0.268066,0.00439 -0.09668,0 -0.180176,-0.00439 -0.03955,0 -0.07471,-0.00439 L 9.7258301,9.2963867 Q 9.5061035,9.2744141 9.1105957,9.2744141 l -0.092285,0.00439 q -0.1845703,0.00879 -0.215332,0.013184 -0.2724609,0.035156 -0.852539,0.035156 z"
   style="font-weight:bold;font-size:9px;line-height:1.25;font-family:Garamond;-inkscape-font-specification:'Garamond Bold';text-align:center;text-anchor:middle;fill:#d9d9d9"
   id="path2068" /><path
   d="m 20.852783,3.7460938 q 0.05713,0.1318359 0.23291,0.7514648 0.0791,0.28125 0.0835,0.5976562 H 20.769287 Q 20.347412,4.4975586 19.89917,4.2382812 19.450928,3.9746094 18.897217,3.9746094 q -0.681153,0 -1.098633,0.5317383 -0.566895,0.7207031 -0.566895,2.0083007 0,0.7470703 0.09668,1.0634766 0.158203,0.5141602 0.399902,0.8393555 0.184571,0.2460937 0.483399,0.3911133 0.386719,0.1977539 0.826172,0.1977539 0.483398,0 0.93164,-0.2988282 0.452637,-0.3032226 0.865723,-0.9008789 0.162598,-0.030762 0.42627,-0.035156 -0.01758,0.1669922 -0.05713,0.3471679 -0.01318,0.070312 -0.101075,0.5581055 L 21.06372,8.808594 21.0022,9.0151369 q -0.268066,0.206543 -0.755859,0.3120117 -0.483399,0.1010743 -1.190918,0.1010743 -0.540527,0 -1.023926,-0.1010743 Q 17.55249,9.2260742 17.209717,9.0063477 16.70874,8.6899414 16.423096,8.3208008 16.137451,7.9516602 15.996826,7.5166016 q -0.13623,-0.4350586 -0.13623,-0.975586 0,-1.3095703 0.861328,-2.1621094 0.865722,-0.852539 2.206055,-0.852539 0.544921,0 1.023925,0.057129 0.483399,0.052734 0.900879,0.1625976 z"
   style="font-weight:bold;font-size:9px;line-height:1.25;font-family:Garamond;-inkscape-font-specification:'Garamond Bold';text-align:center;text-anchor:middle;fill:#d9d9d9"
   id="path2070" /><path
   d="m 21.98216,6.0795928 h 1.384277 l 0.703125,-0.00879 q 0.145019,0 0.268066,0.017578 0.01318,0.206543 0.02637,0.3076172 l 0.0044,0.074707 -0.01758,0.2285156 q -0.0044,0.052734 -0.0044,0.1318359 v 0.079102 l -2.381836,0.00439 q -0.0044,-0.1274414 -0.0044,-0.1933594 0,-0.1098632 0.0088,-0.2460937 0.0044,-0.070312 0.0044,-0.1010742 l -0.0044,-0.2197266 z"
   style="font-weight:bold;font-size:9px;line-height:1.25;font-family:Garamond;-inkscape-font-specification:'Garamond Bold';text-align:center;text-anchor:middle;fill:#d9d9d9"
   id="path2072" /><path
   d="m 24.763916,3.9482422 -0.0044,-0.3339844 1.050293,0.065918 0.470215,-0.00439 h 0.171387 q 0.268066,0 0.839355,-0.030762 0.325196,-0.021973 0.408692,-0.021973 0.553711,0 0.834961,0.061523 0.430664,0.087891 0.681152,0.28125 0.254883,0.1933594 0.435059,0.5537109 0.18457,0.3559571 0.18457,0.6635743 0,0.7646484 -0.483398,1.2436523 -0.479004,0.4746094 -1.212891,0.4746094 -0.254883,0 -0.487793,-0.061523 -0.228516,-0.061523 -0.430664,-0.1845703 -0.02197,-0.1274414 -0.02197,-0.3515625 0.105469,0.00879 0.188965,0.013184 0.08789,0.00439 0.153809,0.00439 0.373535,0 0.628418,-0.206543 0.338379,-0.2680664 0.338379,-0.8701172 0,-0.4306641 -0.149414,-0.703125 -0.14502,-0.2768555 -0.347168,-0.3735352 -0.28125,-0.1318359 -0.632813,-0.1318359 -0.32959,0 -0.470215,0.09668 -0.03516,0.057129 -0.05273,0.1098633 l 0.03076,2.0698242 -0.0088,0.1757812 0.01318,0.1845704 q 0.0044,0.061523 0.0044,0.1801757 V 7.213379 l 0.0044,0.5756836 -0.0088,0.6855469 q 0,0.1450195 0.02637,0.3911133 l 0.874512,0.1098632 q 0.01758,0.1054688 0.01758,0.1669922 0,0.065918 -0.02197,0.1845703 -0.109864,0.017578 -0.166993,0.017578 -0.13623,0 -0.51416,-0.030762 -0.37793,-0.035156 -0.861328,-0.035156 -0.544922,0 -1.037109,0.070312 -0.0835,0.013184 -0.263672,0.021973 -0.01758,-0.1274415 -0.01758,-0.1889649 0,-0.039551 0.0088,-0.1230469 l 0.268066,-0.087891 q 0.276856,-0.083496 0.479004,-0.2021484 0.03955,-0.1274414 0.03955,-0.2329102 0,-0.043945 -0.0044,-0.1010742 -0.0044,-0.1362305 -0.0044,-0.3823242 L 25.699951,6.8178711 25.651611,5.4248047 Q 25.62085,4.4316406 25.603271,4.3525391 25.57251,4.2250977 25.497803,4.1547852 25.423096,4.0800781 25.247314,4.0493164 24.882568,3.987793 24.763916,3.9482422 Z"
   style="font-weight:bold;font-size:9px;line-height:1.25;font-family:Garamond;-inkscape-font-specification:'Garamond Bold';text-align:center;text-anchor:middle;fill:#d9d9d9"
   id="path2074" /><path
   d="M 30.287842,7.015625 Q 30.4021,6.6420898 30.48999,6.519043 q 0.246094,-0.3603516 0.522949,-0.5625 0.28125,-0.2021485 0.505372,-0.2680664 0.290039,-0.083496 0.470214,-0.083496 0.413086,0 0.667969,0.065918 0.254883,0.061524 0.42627,0.1801758 0.246093,0.1713867 0.395507,0.347168 0.149415,0.1757812 0.2417,0.4130859 0.09668,0.2373047 0.105468,0.5756836 l -0.487793,-0.00879 q -0.202148,0 -0.887695,-0.039551 -0.254883,-0.017578 -0.351562,-0.017578 -0.03076,0 -0.47461,0.00439 H 31.24585 q -0.0088,0.061523 -0.0088,0.1054687 0,0.2329102 0.05713,0.4921875 0.05713,0.2548828 0.171387,0.4526368 0.114258,0.1933593 0.28125,0.3339843 0.171387,0.140625 0.351563,0.2021485 l 0.254882,0.083496 q 0.338379,0 0.452637,-0.021973 0.210938,-0.043945 0.369141,-0.1098633 0.162597,-0.070312 0.391113,-0.2329101 0.158203,0.1142578 0.263672,0.2065429 -0.386719,0.4262696 -0.804199,0.6196289 -0.413086,0.1889649 -0.927246,0.1889649 -0.347168,0 -0.566895,-0.061523 Q 31.237061,9.3051758 30.999756,9.1425781 30.762451,8.9799805 30.591064,8.7382813 30.419678,8.496582 30.336182,8.2416992 30.226318,7.9077148 30.226318,7.7055664 q 0,-0.3823242 0.06152,-0.6899414 z M 32.841064,6.8266602 Q 32.83667,6.5805664 32.744385,6.3564453 32.6521,6.1323242 32.45874,6.0092773 32.265381,5.8818359 32.067627,5.8818359 q -0.294434,0 -0.531738,0.2592774 -0.237305,0.2592773 -0.268067,0.703125 l 1.001953,0.00439 q 0.09668,0 0.272461,-0.013184 0.127442,-0.013184 0.180176,-0.013184 0.03955,0 0.118652,0.00439 z"
   style="font-weight:bold;font-size:9px;line-height:1.25;font-family:Garamond;-inkscape-font-specification:'Garamond Bold';text-align:center;text-anchor:middle;fill:#d9d9d9"
   id="path2076" /><path
   d="m 35.288818,5.9741211 q 0.215332,-0.1494141 0.413086,-0.215332 0.202149,-0.065918 0.566895,-0.1010743 h 0.246094 q 0.479003,0 0.918457,0.3295899 l 0.0088,-0.1054688 -0.0044,-0.2944336 0.01758,-0.4702148 q 0,-0.7426758 -0.114258,-0.9404297 -0.06592,-0.1186523 -0.23291,-0.1274414 -0.162597,-0.00879 -0.263672,-0.057129 V 3.78125 q 0.0835,-0.026367 0.215332,-0.026367 0.131836,-0.00439 0.514161,-0.092285 L 37.723397,3.631836 38.158455,3.5307618 Q 38.290283,3.5 38.321045,3.5 q 0.02197,0 0.07031,0.00879 0.02637,0.092285 0.02637,0.1362304 l -0.0044,0.065918 v 0.079102 q 0,0.1230468 0.01318,0.6547851 v 0.2373047 l 0.0044,0.1274414 -0.0044,0.2197266 0.01318,0.4570312 -0.0088,0.2680664 q -0.0088,0.1757813 -0.0088,0.553711 0,0.061523 0.0044,0.1098632 v 0.1625977 q -0.0044,0.070312 -0.0044,0.1054688 0,0.065918 0.01318,0.1889648 v 0.2416992 l -0.0044,0.092285 q -0.0088,0.1274414 -0.0088,0.3515625 0,0.2285156 0.0088,0.4130859 0.0044,0.074707 0.0044,0.1362305 v 0.3295898 q 0,0.1582032 0.0088,0.3779297 0.0791,0.04834 0.386719,0.070312 0.09668,0.00439 0.171386,0.021973 0.02197,0.065918 0.02197,0.09668 0,0.039551 -0.03076,0.1186523 -0.180176,0.043945 -0.377929,0.065918 -0.602051,0.074707 -0.856934,0.2109375 -0.123047,0.070312 -0.171387,0.070312 -0.04834,0 -0.109863,-0.00879 0.0044,-0.079102 0.0044,-0.1010742 0,-0.2988281 -0.01318,-0.3823242 -0.06592,0.035156 -0.162598,0.092285 -0.294433,0.1757813 -0.536133,0.2460938 -0.241699,0.065918 -0.553711,0.065918 -0.55371,0 -0.8833,-0.2109375 -0.487793,-0.3076171 -0.676758,-0.7382812 -0.18457,-0.4306641 -0.18457,-0.9448242 0,-0.8876953 0.817382,-1.5161133 z m 1.353516,2.9091797 q 0.09229,0.00879 0.158203,0.00879 0.14502,0 0.307617,-0.061523 0.166992,-0.061523 0.351563,-0.1801758 0.0044,-0.1450195 0.0044,-0.1801758 0,-1.3930664 -0.03955,-1.6787109 -0.05273,-0.3823242 -0.29004,-0.5888672 -0.237304,-0.206543 -0.575683,-0.206543 -0.193359,0 -0.369141,0.070312 -0.171386,0.070312 -0.28125,0.2021485 -0.162597,0.1933594 -0.246093,0.4394531 -0.114258,0.3427734 -0.114258,0.6416016 0,0.7163086 0.303222,1.0986328 0.303223,0.3779297 0.791016,0.4350586 z"
   style="font-weight:bold;font-size:9px;line-height:1.25;font-family:Garamond;-inkscape-font-specification:'Garamond Bold';text-align:center;text-anchor:middle;fill:#d9d9d9"
   id="path2078" /><path
   d="m 43.163818,8.5185547 0.101075,0.065918 q 0.03955,0.030762 0.04834,0.074707 l 0.0044,0.021973 q -0.105469,0.3911133 -0.276856,0.5405274 -0.171386,0.1450195 -0.426269,0.1450195 -0.259277,0 -0.448242,-0.140625 -0.184571,-0.1450195 -0.338379,-0.5053711 -0.188965,0.3339844 -0.531738,0.5053711 -0.342774,0.1669922 -0.839356,0.1669922 -0.457031,0 -0.672363,-0.1889648 -0.215332,-0.1933594 -0.215332,-0.5053711 0,-0.1450196 0.06152,-0.2944336 0.06592,-0.1494141 0.206543,-0.2944336 0.14502,-0.1494141 0.461426,-0.3251953 0.04834,-0.026367 0.333984,-0.1494141 L 41.72681,7.1958012 q 0.01318,-0.1669922 0.01318,-0.3383789 0,-0.5932617 -0.145019,-0.8085938 -0.08789,-0.1318359 -0.307617,-0.1318359 -0.219727,0 -0.404297,0.083496 -0.184571,0.083496 -0.268067,0.215332 -0.06152,0.09668 -0.105469,0.3647461 -0.03076,0.1933594 -0.05713,0.2241211 -0.06592,0.083496 -0.2417,0.1538086 -0.171386,0.065918 -0.23291,0.09668 -0.237304,0.1142578 -0.377929,0.1142578 -0.06152,-0.052734 -0.06152,-0.1494141 0,-0.2504883 0.105469,-0.430664 0.158203,-0.2548828 0.474609,-0.4921875 0.320801,-0.2416993 0.597656,-0.3383789 0.37793,-0.1230469 0.922852,-0.1230469 0.351563,0 0.602051,0.1318359 0.254883,0.1274414 0.351562,0.3823242 0.101075,0.2548829 0.101075,0.9184571 l -0.01318,0.7250976 0.0088,0.5317383 v 0.1362305 q 0,0.1845703 0.04834,0.2548828 0.05273,0.065918 0.131836,0.065918 0.04834,0 0.0835,-0.026367 l 0.131836,-0.206543 z M 41.722412,7.4990234 q -0.250488,0.083496 -0.566894,0.28125 -0.312012,0.1933594 -0.435059,0.3911133 -0.08789,0.1450196 -0.08789,0.3559571 0,0.1889648 0.114258,0.3120117 0.114258,0.1230468 0.263672,0.1230468 0.246094,0 0.417481,-0.140625 0.23291,-0.1889648 0.27246,-0.2988281 0.03955,-0.1142578 0.03955,-0.637207 0,-0.1933594 -0.01758,-0.3867188 z"
   style="font-weight:bold;font-size:9px;line-height:1.25;font-family:Garamond;-inkscape-font-specification:'Garamond Bold';text-align:center;text-anchor:middle;fill:#d9d9d9"
   id="path2080" /><path
   d="m 43.440674,9.1513672 q 0.09668,-0.065918 0.254883,-0.083496 0.303222,-0.035156 0.347168,-0.092285 0.08789,-0.1142578 0.08789,-0.4658203 V 7.2705078 l -0.0044,-0.2944336 V 6.0883789 L 44.113037,5.0732422 V 4.8974609 q 0,-0.3603515 -0.05713,-0.5317382 -0.153808,-0.092285 -0.32959,-0.092285 -0.105468,0 -0.197754,-0.021973 -0.01318,-0.1098632 -0.01318,-0.1625976 0,-0.035156 0.0088,-0.079102 0.347168,-0.039551 0.720703,-0.1757812 0.373535,-0.140625 0.571289,-0.2856446 l 0.123047,-0.00439 q 0.03955,0 0.114258,0.00439 0.02197,1.5205079 0.02197,2.0830079 0,0.1669921 -0.0044,0.2680664 v 0.026367 l 0.0044,0.083496 V 7.956054 l 0.0044,0.6416016 V 8.703125 q 0,0.1889648 0.06152,0.2680664 0.05273,0.057129 0.224122,0.070312 0.09228,0.00879 0.364746,0.043945 0.02197,0.092285 0.02197,0.1494141 0,0.043945 -0.0088,0.1230469 L 45.39624,9.340332 Q 45.106201,9.318359 44.666748,9.318359 L 44.50415,9.313969 q -0.250488,0 -0.725097,0.039551 h -0.320801 z"
   style="font-weight:bold;font-size:9px;line-height:1.25;font-family:Garamond;-inkscape-font-specification:'Garamond Bold';text-align:center;text-anchor:middle;fill:#d9d9d9"
   id="path2082" /><path
   d="m 51.834229,9.3535156 h -0.457032 q -0.162597,0 -0.254883,-0.00439 -0.145019,-0.00439 -0.175781,-0.00439 l -0.298828,0.013184 -0.0791,-0.00879 q -0.105469,-0.013184 -0.259278,-0.013184 -0.145019,0 -0.496582,0.013184 -0.166992,0.00439 -0.202148,0.00439 l -0.443848,-0.00879 -0.711914,0.00879 h -0.28125 V 9.0546875 q 0.624023,-0.7910156 0.936035,-1.1030273 0.316406,-0.3164063 0.896485,-1.0458985 0.404296,-0.5009765 0.55371,-0.8964844 0.153809,-0.3955078 0.153809,-0.6855468 0,-0.3251953 -0.09668,-0.5844727 -0.09228,-0.2592773 -0.333984,-0.4086914 -0.237305,-0.1494141 -0.518555,-0.1494141 -0.285644,0 -0.51416,0.140625 -0.228515,0.140625 -0.333984,0.3559571 -0.162598,0.3120117 -0.197754,0.6503906 h -0.320801 q -0.01318,-0.1889648 -0.01318,-0.3164063 0,-0.4262695 0.32959,-0.8173828 0.509766,-0.6064453 1.437012,-0.6064453 0.773438,0 1.217285,0.4394531 0.443848,0.4350586 0.443848,1.0986329 0,0.2636718 -0.0835,0.496582 -0.118653,0.3164062 -0.290039,0.5493164 -0.166992,0.2329102 -0.927246,0.9931641 -0.549317,0.5493164 -1.375489,1.3007812 l 0.487793,0.00879 0.799805,-0.017578 0.46582,0.00879 q 0.369141,0 0.487793,-0.079102 0.123047,-0.079102 0.224121,-0.3735352 0.02197,-0.070312 0.0791,-0.2109375 l 0.290039,-0.017578 0.05713,0.017578 q 0.02197,0.035156 0.02197,0.065918 0,0.070312 -0.02197,0.1757812 -0.02197,0.1054688 -0.05273,0.347168 -0.02637,0.2416992 -0.140625,0.9624023 z"
   style="font-weight:bold;font-size:9px;line-height:1.25;font-family:Garamond;-inkscape-font-specification:'Garamond Bold';text-align:center;text-anchor:middle;fill:#d9d9d9"
   id="path2084" /></svg>
