<?xml version="1.0" encoding="UTF-8" standalone="no"?>
<svg height="380" width="60" viewBox="0 0 60 380" version="1.1" xml:space="preserve" xmlns="http://www.w3.org/2000/svg"
   xmlns:svg="http://www.w3.org/2000/svg">
   <rect id="panel" style="fill:#101010" x="0" y="0" width="60" height="380" />
   <path
      style="fill:#e5e5e5"
      d="m 12.301758,2.8476569 -0.0059,-0.4453125 1.400391,0.087891 0.626953,-0.00586 h 0.228516 q 0.357422,0 1.11914,-0.041016 0.433594,-0.029297 0.544922,-0.029297 0.738282,0 1.113282,0.082031 0.574218,0.1171875 0.908203,0.375 0.339843,0.2578125 0.580078,0.7382812 0.246094,0.4746094 0.246094,0.8847657 0,1.0195312 -0.644532,1.6582031 -0.638672,0.6328125 -1.617187,0.6328125 -0.339844,0 -0.650391,-0.082031 -0.304687,-0.082031 -0.574219,-0.2460937 -0.0293,-0.1699219 -0.0293,-0.46875 0.140625,0.011719 0.251953,0.017578 0.117187,0.00586 0.205078,0.00586 0.498047,0 0.83789,-0.2753906 0.451172,-0.3574219 0.451172,-1.1601563 0,-0.5742187 -0.199218,-0.9375 -0.19336,-0.3691406 -0.462891,-0.4980469 -0.375,-0.1757812 -0.84375,-0.1757812 -0.439453,0 -0.626953,0.1289062 -0.04687,0.076172 -0.07031,0.1464844 l 0.04102,2.7597656 -0.01172,0.234375 0.01758,0.2460938 q 0.0059,0.082031 0.0059,0.2402344 v 0.4804687 l 0.0059,0.7675781 -0.01172,0.9140625 q 0,0.1933594 0.03516,0.5214844 l 1.166015,0.1464844 q 0.02344,0.140625 0.02344,0.2226562 0,0.08789 -0.0293,0.2460931 -0.146485,0.02344 -0.222656,0.02344 -0.181641,0 -0.685547,-0.04102 -0.503907,-0.04687 -1.148438,-0.04687 -0.726562,0 -1.382812,0.09375 -0.111328,0.01758 -0.351563,0.0293 -0.02344,-0.1699218 -0.02344,-0.2519528 0,-0.052734 0.01172,-0.1640624 L 12.88774,9.5449283 q 0.369141,-0.1113281 0.638672,-0.2695312 0.05274,-0.1699219 0.05274,-0.3105469 0,-0.058594 -0.0059,-0.1347656 -0.0059,-0.1816407 -0.0059,-0.5097657 L 13.549805,6.6738288 13.485352,4.8164069 Q 13.444336,3.4921881 13.420898,3.3867194 13.379883,3.2167975 13.280273,3.1230475 13.180664,3.0234381 12.946289,2.9824225 12.459961,2.9003913 12.301758,2.8476569 Z m 7.365234,4.0898437 q 0.152344,-0.4980468 0.269531,-0.6621093 0.328125,-0.4804688 0.697266,-0.75 0.375,-0.2695313 0.673828,-0.3574219 0.386719,-0.1113281 0.626953,-0.1113281 0.550782,0 0.890625,0.087891 0.339844,0.082031 0.56836,0.2402344 0.328125,0.2285156 0.527343,0.4628906 0.199219,0.234375 0.322266,0.5507812 0.128906,0.3164063 0.140625,0.7675782 l -0.650391,-0.011719 q -0.269531,0 -1.183593,-0.052734 -0.339844,-0.023437 -0.46875,-0.023437 -0.04102,0 -0.632813,0.00586 h -0.503906 q -0.01172,0.082031 -0.01172,0.140625 0,0.3105469 0.07617,0.65625 0.07617,0.3398438 0.228516,0.6035156 0.152343,0.2578125 0.375,0.4453125 0.228515,0.1875 0.46875,0.2695313 l 0.339843,0.1113281 q 0.451172,0 0.603516,-0.029297 0.28125,-0.058594 0.492188,-0.1464843 0.216796,-0.09375 0.521484,-0.3105469 0.210937,0.1523437 0.351562,0.2753906 -0.515625,0.5683594 -1.072265,0.8261714 -0.550781,0.251954 -1.236328,0.251954 -0.462891,0 -0.75586,-0.08203 Q 20.932617,9.9902354 20.616211,9.7734381 20.299805,9.5566413 20.071289,9.2343756 19.842773,8.91211 19.731445,8.5722663 19.584961,8.1269538 19.584961,7.8574225 q 0,-0.5097656 0.08203,-0.9199219 z M 23.071289,6.6855475 Q 23.06543,6.3574225 22.942383,6.0585944 22.819336,5.7597663 22.561523,5.5957038 22.303711,5.4257819 22.040039,5.4257819 q -0.392578,0 -0.708984,0.3457031 -0.316407,0.3457031 -0.357422,0.9375 l 1.335937,0.00586 q 0.128907,0 0.363282,-0.017578 0.169921,-0.017578 0.240234,-0.017578 0.05273,0 0.158203,0.00586 z M 26.334961,5.5488288 Q 26.62207,5.34961 26.885742,5.2617194 q 0.269531,-0.087891 0.75586,-0.1347656 h 0.328125 q 0.638671,0 1.224609,0.4394531 l 0.01172,-0.140625 -0.0059,-0.3925781 0.02344,-0.6269532 q 0,-0.9902343 -0.152344,-1.2539062 -0.08789,-0.1582031 -0.310547,-0.1699219 -0.216797,-0.011719 -0.351562,-0.076172 v -0.28125 q 0.111328,-0.035156 0.287109,-0.035156 0.175781,-0.00586 0.685547,-0.1230469 L 29.581018,2.4257816 30.161096,2.291016 Q 30.336877,2.25 30.377893,2.25 q 0.0293,0 0.09375,0.011719 0.03516,0.1230469 0.03516,0.1816406 l -0.0059,0.087891 v 0.1054688 q 0,0.1640625 0.01758,0.8730469 v 0.3164062 l 0.0059,0.1699219 -0.0059,0.2929687 0.01758,0.609375 -0.01172,0.3574219 q -0.01172,0.234375 -0.01172,0.7382813 0,0.082031 0.0059,0.1464843 v 0.2167969 q -0.0059,0.09375 -0.0059,0.140625 0,0.087891 0.01758,0.2519531 v 0.3222657 l -0.0059,0.1230468 q -0.01172,0.1699219 -0.01172,0.46875 0,0.3046875 0.01172,0.5507813 0.0059,0.099609 0.0059,0.1816406 v 0.4394531 q 0,0.2109375 0.01172,0.5039063 0.105469,0.064453 0.515625,0.09375 0.128906,0.00586 0.228516,0.029297 0.0293,0.087891 0.0293,0.1289062 0,0.052734 -0.04102,0.1582031 -0.240234,0.058594 -0.503906,0.087891 -0.802735,0.09961 -1.142578,0.2812503 -0.164063,0.09375 -0.228516,0.09375 -0.06445,0 -0.146484,-0.01172 0.0059,-0.105469 0.0059,-0.134766 0,-0.3984373 -0.01758,-0.5097654 -0.08789,0.046875 -0.216797,0.1230468 -0.392578,0.2343753 -0.714844,0.3281256 -0.322265,0.08789 -0.738281,0.08789 -0.738281,0 -1.177734,-0.2812499 -0.650391,-0.4101563 -0.902344,-0.984375 -0.246094,-0.5742188 -0.246094,-1.2597657 0,-1.1835937 1.089844,-2.0214843 z m 1.804687,3.8789062 q 0.123047,0.011719 0.210938,0.011719 0.193359,0 0.410156,-0.082031 0.222656,-0.082031 0.46875,-0.2402344 0.0059,-0.1933593 0.0059,-0.2402343 0,-1.8574219 -0.05273,-2.2382813 -0.07031,-0.5097656 -0.386719,-0.7851562 -0.316406,-0.2753907 -0.767578,-0.2753907 -0.257812,0 -0.492187,0.09375 -0.228516,0.09375 -0.375,0.2695313 -0.216797,0.2578125 -0.328125,0.5859375 -0.152344,0.4570312 -0.152344,0.8554687 0,0.9550782 0.404297,1.4648438 0.404297,0.5039062 1.054687,0.5800781 z m 8.695313,-0.4863281 0.134766,0.087891 q 0.05273,0.041016 0.06445,0.099609 l 0.0059,0.029297 q -0.140625,0.5214843 -0.369141,0.7207026 -0.228515,0.1933605 -0.568359,0.1933605 -0.345703,0 -0.597656,-0.1875005 -0.246094,-0.1933595 -0.451172,-0.6738283 -0.251953,0.4453125 -0.708984,0.6738283 -0.457032,0.2226565 -1.119141,0.2226565 -0.609375,0 -0.896484,-0.2519535 -0.28711,-0.2578125 -0.28711,-0.6738281 0,-0.1933594 0.08203,-0.3925782 0.08789,-0.1992187 0.275391,-0.3925781 0.193359,-0.1992187 0.615234,-0.4335937 0.06445,-0.035156 0.445313,-0.1992188 l 1.458984,-0.5859375 q 0.01758,-0.2226562 0.01758,-0.4511719 0,-0.7910156 -0.193359,-1.078125 -0.117187,-0.1757812 -0.410156,-0.1757812 -0.292969,0 -0.539063,0.1113281 -0.246093,0.1113281 -0.357422,0.2871094 -0.08203,0.1289062 -0.140625,0.4863281 -0.04102,0.2578125 -0.07617,0.2988281 -0.08789,0.1113282 -0.322266,0.2050782 -0.228516,0.087891 -0.310547,0.1289062 -0.316406,0.1523438 -0.503906,0.1523438 -0.08203,-0.070312 -0.08203,-0.1992188 0,-0.3339844 0.140625,-0.5742187 0.210937,-0.3398438 0.632812,-0.65625 0.427734,-0.3222657 0.796875,-0.4511719 0.503906,-0.1640625 1.230469,-0.1640625 0.46875,0 0.802734,0.1757812 0.339844,0.1699219 0.46875,0.5097657 0.134766,0.3398437 0.134766,1.2246093 l -0.01758,0.9667969 0.01172,0.7089844 v 0.1816406 q 0,0.2460938 0.06445,0.3398438 0.07031,0.087891 0.175781,0.087891 0.06445,0 0.111328,-0.035156 l 0.175781,-0.2753906 z m -1.921875,-1.359375 q -0.333984,0.1113281 -0.755859,0.375 -0.416016,0.2578125 -0.580079,0.5214844 -0.117187,0.1933593 -0.117187,0.4746093 0,0.2519532 0.152344,0.4160157 0.152343,0.1640625 0.351562,0.1640625 0.328125,0 0.556641,-0.1875 0.310547,-0.2519532 0.363281,-0.3984375 0.05273,-0.1523438 0.05273,-0.8496094 0,-0.2578125 -0.02344,-0.515625 z m 2.291016,2.203125 q 0.128906,-0.087891 0.339843,-0.1113281 0.404297,-0.046875 0.462891,-0.1230469 0.117187,-0.1523438 0.117187,-0.6210938 V 7.2773444 l -0.0059,-0.3925781 V 5.7011725 l -0.01758,-1.3535156 v -0.234375 q 0,-0.4804688 -0.07617,-0.7089844 -0.205078,-0.1230469 -0.439453,-0.1230469 -0.140625,0 -0.263672,-0.029297 -0.01758,-0.1464844 -0.01758,-0.2167969 0,-0.046875 0.01172,-0.1054688 0.46289,-0.052734 0.960937,-0.234375 0.498047,-0.1875 0.761719,-0.3808593 l 0.164062,-0.00586 q 0.05273,0 0.152344,0.00586 0.0293,2.0273437 0.0293,2.7773437 0,0.2226563 -0.0059,0.3574219 v 0.035156 l 0.0059,0.1113282 v 2.5957031 l 0.0059,0.8554687 v 0.140625 q 0,0.2519532 0.08203,0.3574219 0.07031,0.076172 0.298828,0.09375 0.123047,0.011719 0.486328,0.058594 0.0293,0.1230471 0.0293,0.1992191 0,0.05859 -0.01172,0.1640618 l -0.462891,-0.02344 q -0.386718,-0.0293 -0.972656,-0.0293 l -0.216797,-0.0059 q -0.333984,0 -0.966797,0.05274 h -0.427736 z m 8.490234,-7.4296875 q 0.0293,0 0.398437,-0.011719 l 0.1875,0.00586 0.369141,0.00586 q 0.02344,0.1875 0.02344,0.2753906 0,0.029297 -0.0059,0.1816406 -0.0059,0.082031 -0.01172,0.6269532 l -0.01172,0.8847656 0.0059,0.5566406 -0.04102,3.9550781 v 0.3339844 q 0,0.1757813 0.08203,0.2519531 0.08203,0.076172 0.439453,0.1289063 0.140625,0.017578 0.5625,0.09375 0.01172,0.058594 0.01172,0.1113281 0,0.064453 -0.01172,0.28125 H 47.44043 q -0.257813,0 -0.75,-0.02344 -0.298828,-0.01758 -0.410157,-0.01758 -0.140625,0 -1.037109,0.0293 -0.09961,0.0059 -0.164062,0.0059 h -0.105469 l -0.169922,-0.01172 -0.158203,0.01172 -0.292969,-0.01172 q -0.05859,0 -0.240234,0.01758 -0.01172,-0.1289066 -0.01172,-0.1992186 0,-0.064453 0.01172,-0.1933595 0.234375,-0.064453 0.544922,-0.1289063 0.427734,-0.087891 0.521484,-0.1699218 0.09961,-0.087891 0.09961,-0.2285157 l -0.0059,-0.3984375 0.02344,-0.4335937 -0.0059,-0.890625 -0.0059,-0.2285156 q 0,-0.046875 0.01172,-0.3515625 0.01172,-0.1582032 0.01172,-0.28125 0,-0.076172 -0.01758,-0.4746094 l 0.02344,-0.3339844 q -0.02344,-0.3808594 -0.02344,-0.4511719 0,-0.087891 0.0059,-0.1757812 l 0.01172,-0.1464844 -0.01758,-0.3984375 0.01758,-0.1816406 q 0.0059,-0.1230469 0.0059,-0.328125 0,-0.1992188 -0.0059,-0.4863281 -0.416015,0.3105468 -0.949219,0.6210937 -0.05859,0.035156 -0.527343,0.2402344 -0.1875,-0.28125 -0.240235,-0.421875 0.621094,-0.3222656 0.84375,-0.4746094 0.369141,-0.2578125 0.796875,-0.6445312 0.181641,-0.1699219 0.462891,-0.5214844 z"
      aria-label="Pedal 1" />
   <line style="stroke:#a0a0a0;stroke-width:0.5" x1="5" y1="13.25" x2="55" y2="13.25" id="line133" />
   <g style="stroke:#a0a0a0;stroke-width:0.5">
      <line x1="5" y1="365.25015" x2="55" y2="365.25015" id="line151" />
      <line x1="5" y1="338.63876" x2="55" y2="338.63876" id="line153" />
      <line x1="30" y1="338.63876" x2="30" y2="365.11975" id="line155" />
   </g>
   <g id="logo" style="fill:#d9d9d9" transform="translate(-15)">
      <path d="m 40.647106,371.63388 0.910229,-1.80007 1.107972,0.29661 -0.916345,1.79906 1.686932,0.45155 0.916345,-1.79906 1.102876,0.29559 -0.911249,1.8011 0.800146,0.21405 -0.296615,1.10798 -1.031525,-0.27624 -0.674773,1.33018 1.32814,0.35573 -0.296615,1.10696 -1.559519,-0.41689 -0.910229,1.80007 -1.107973,-0.29661 0.91125,-1.80007 -1.686932,-0.45258 -0.911248,1.8011 L 38,376.85471 l 0.911248,-1.80008 -0.795048,-0.21303 0.296614,-1.10798 1.031525,0.27624 0.669676,-1.3312 -1.323043,-0.35471 0.296614,-1.10798 z m 2.261813,1.79294 -1.686932,-0.45155 -0.675791,1.33018 1.68795,0.45256 z" />
      <path d="m 51.211066,377.07487 -0.306807,1.14365 -2.399417,-0.64317 0.157991,-0.59018 q -0.838879,0.48519 -1.613542,0.27725 -0.927558,-0.24871 -1.336295,-1.16607 -0.407717,-0.91737 -0.121296,-1.98864 0.291518,-1.08759 1.116126,-1.66349 0.826648,-0.581 1.728723,-0.33942 0.867419,0.23342 1.250673,1.05598 l 0.421988,-1.57481 -0.773644,-0.20793 0.305788,-1.14262 2.358646,0.63195 -1.604368,5.98938 z m -2.023297,-1.98762 q 0.190608,-0.71248 -0.03567,-1.09778 -0.221187,-0.38326 -0.611576,-0.48824 -0.465818,-0.12435 -0.820532,0.17022 -0.34758,0.29254 -0.50557,0.88169 -0.148817,0.55858 -0.001,1.01114 0.149837,0.44645 0.626866,0.57488 0.394467,0.10601 0.774663,-0.12231 0.386313,-0.23138 0.572844,-0.9296 z" />
   </g>
</svg>