<?xml version="1.0" encoding="UTF-8" standalone="no"?>
<svg height="380" width="60" viewBox="0 0 60 380"
   version="1.1"
   xml:space="preserve" xmlns="http://www.w3.org/2000/svg"
   xmlns:svg="http://www.w3.org/2000/svg">
   <rect id="panel" style="fill:#101010" x="0" y="0" width="60" height="380" />
   <line style="stroke:#a0a0a0;stroke-width:0.5" x1="5" y1="13.25" x2="55" y2="13.25" id="line133" />
   <g style="stroke:#a0a0a0;stroke-width:0.5">
      <line x1="5" y1="365.25015" x2="55" y2="365.25015" id="line151" />
      <line x1="5" y1="338.63876" x2="55" y2="338.63876" id="line153" />
      <line x1="30" y1="338.63876" x2="30" y2="365.11975" id="line155" />
   </g>
   <g id="logo" style="fill:#d9d9d9" transform="translate(-15)">
      <path d="m 40.647106,371.63388 0.910229,-1.80007 1.107972,0.29661 -0.916345,1.79906 1.686932,0.45155 0.916345,-1.79906 1.102876,0.29559 -0.911249,1.8011 0.800146,0.21405 -0.296615,1.10798 -1.031525,-0.27624 -0.674773,1.33018 1.32814,0.35573 -0.296615,1.10696 -1.559519,-0.41689 -0.910229,1.80007 -1.107973,-0.29661 0.91125,-1.80007 -1.686932,-0.45258 -0.911248,1.8011 L 38,376.85471 l 0.911248,-1.80008 -0.795048,-0.21303 0.296614,-1.10798 1.031525,0.27624 0.669676,-1.3312 -1.323043,-0.35471 0.296614,-1.10798 z m 2.261813,1.79294 -1.686932,-0.45155 -0.675791,1.33018 1.68795,0.45256 z" />
      <path d="m 51.211066,377.07487 -0.306807,1.14365 -2.399417,-0.64317 0.157991,-0.59018 q -0.838879,0.48519 -1.613542,0.27725 -0.927558,-0.24871 -1.336295,-1.16607 -0.407717,-0.91737 -0.121296,-1.98864 0.291518,-1.08759 1.116126,-1.66349 0.826648,-0.581 1.728723,-0.33942 0.867419,0.23342 1.250673,1.05598 l 0.421988,-1.57481 -0.773644,-0.20793 0.305788,-1.14262 2.358646,0.63195 -1.604368,5.98938 z m -2.023297,-1.98762 q 0.190608,-0.71248 -0.03567,-1.09778 -0.221187,-0.38326 -0.611576,-0.48824 -0.465818,-0.12435 -0.820532,0.17022 -0.34758,0.29254 -0.50557,0.88169 -0.148817,0.55858 -0.001,1.01114 0.149837,0.44645 0.626866,0.57488 0.394467,0.10601 0.774663,-0.12231 0.386313,-0.23138 0.572844,-0.9296 z" />
   </g>
   <g style="fill:#d9d9d9">
      <path d="m 8.3173828,9.3271484 q 0,-0.1318359 0.026367,-0.3120117 L 8.8930664,8.918457 Q 8.9941406,8.8964844 9.1347656,8.8481445 L 9.1918945,7.7495117 Q 9.1743164,7.15625 9.1743164,6.8618164 l 0.00439,-0.1054687 Q 9.1918945,6.5761719 9.1918945,5.8510742 L 9.1831055,5.7236328 9.1918945,5.3544922 9.1875,4.972168 V 4.7832031 Q 9.1875,4.5283203 9.147949,4.1855469 9.1435547,4.1547852 9.112793,4.0800781 9.0776367,4.0668945 9.0336914,4.0625 8.9941406,4.0581055 8.9501953,4.0493164 8.7788086,4.0185547 8.5854492,4.0053711 L 8.5195313,3.987793 Q 8.4008789,3.9746094 8.3393555,3.9526367 8.3261719,3.8251953 8.3261719,3.7900391 q 0,-0.052734 0.026367,-0.1450196 0.087891,-0.017578 0.2460937,-0.017578 0.1582031,0 0.2197266,-0.00439 0.5361328,0.057129 0.7954101,0.061523 0.1186524,0 0.2373047,0.00879 0.1230469,0.00439 0.215332,0.00439 0.14502,0 0.70752,-0.043945 0.09229,-0.021973 0.202148,-0.021973 0.162598,0 0.272461,0.017578 0.0044,0.092285 0.0044,0.1318359 0,0.070312 -0.01758,0.1713867 L 10.461917,4.075684 q -0.09668,0.043945 -0.09668,0.1274414 l 0.01318,0.1625977 0.0044,0.070312 -0.0044,0.1933593 -0.0088,0.1494141 v 0.035156 q 0.0044,0.04834 0.0044,0.083496 l -0.0044,0.5581055 q 0.0044,0.079102 0.0044,0.1186523 0,0.021973 -0.0088,0.140625 -0.0044,0.070312 -0.0044,0.1450196 0,0.065918 0.01318,0.3120117 0.123047,0.021973 0.206543,0.026367 l 0.650391,0.013184 h 0.316406 l 0.791016,0.00439 0.769043,-0.021973 q 0.149414,0 0.316406,-0.030762 0.0088,-0.149414 0.01318,-0.7338867 l 0.0088,-0.1977539 -0.02637,-0.7470703 -0.03076,-0.3076172 q -0.01318,-0.030762 -0.06152,-0.057129 -0.153808,-0.087891 -0.615234,-0.1977539 -0.0835,-0.017578 -0.158203,-0.043945 0.0088,-0.1538086 0.03516,-0.2504883 0.09668,-0.00439 0.118653,-0.00439 l 0.426269,0.00439 q 0.408691,0.052734 0.830566,0.052734 0.09668,0 0.153809,-0.00439 l 0.571289,-0.017578 q 0.0791,-0.00439 0.153809,-0.00879 0.158203,-0.035156 0.325195,-0.035156 0.127441,0 0.307617,0.013184 -0.0044,0.1713867 -0.02197,0.3120117 -0.404297,0.083496 -0.531739,0.1230469 -0.123047,0.035156 -0.250488,0.1010742 l -0.02637,0.087891 v 0.074707 l 0.0044,0.1142578 -0.0044,0.057129 q -0.0088,0.092285 -0.0088,0.140625 v 0.1098633 q 0.0044,0.1977539 0.0044,0.2197265 v 0.5581055 l 0.0044,0.421875 -0.0088,0.5581055 q -0.0044,0.1933593 0.01318,0.7910156 v 0.6240234 l 0.0088,0.5185547 q 0,0.1450196 -0.0088,0.3515625 0.09229,0.026367 0.171387,0.043945 0.413086,0.087891 0.624024,0.1801758 l 0.01318,0.3076172 q -0.175781,0.00439 -0.206543,0.00439 -0.210937,0 -0.483398,-0.026367 -0.360352,-0.039551 -1.160157,-0.039551 -0.360351,0 -0.93164,0.057129 -0.06152,0 -0.149414,-0.026367 0.0044,-0.2021484 0.02197,-0.2856445 l 0.338379,-0.079102 0.355957,-0.057129 q 0.05273,-0.013184 0.136231,-0.039551 0.04834,-0.355957 0.05273,-1.1821289 l 0.0044,-0.3735352 q -0.02637,-0.2329101 -0.02637,-0.5581054 -0.162598,-0.013184 -0.351563,-0.017578 l -2.039062,-0.021973 -0.03955,-0.00439 -0.03076,-0.00439 q -0.03076,0 -0.07031,0.00439 -0.114258,0.00439 -0.19336,0.00439 h -0.123047 q -0.0835,0 -0.188965,0.030762 l -0.01758,0.3295899 v 0.057129 q 0.0088,0.1186523 0.0088,0.1538086 V 8.610834 q 0,0.1142579 0.01318,0.2329102 l 0.04395,0.026367 0.645996,0.1010742 q 0.04834,0.017578 0.07471,0.021973 0.05713,0.013184 0.09668,0.039551 0.01318,0.1010743 0.01318,0.1362305 0,0.057129 -0.01758,0.1582031 -0.158204,0.00439 -0.268067,0.00439 -0.09668,0 -0.180176,-0.00439 -0.03955,0 -0.07471,-0.00439 L 10.092773,9.2963867 Q 9.8730469,9.2744141 9.4775391,9.2744141 l -0.092285,0.00439 q -0.1845703,0.00879 -0.215332,0.013184 -0.272461,0.035156 -0.8525391,0.035156 z" />
      <path d="m 21.219727,3.7460938 q 0.05713,0.1318359 0.23291,0.7514648 0.0791,0.28125 0.0835,0.5976562 H 21.13623 Q 20.714355,4.4975586 20.266113,4.2382812 19.817871,3.9746094 19.26416,3.9746094 q -0.681152,0 -1.098633,0.5317383 -0.566894,0.7207031 -0.566894,2.0083007 0,0.7470703 0.09668,1.0634766 0.158204,0.5141602 0.399903,0.8393555 0.18457,0.2460937 0.483398,0.3911133 0.386719,0.1977539 0.826172,0.1977539 0.483399,0 0.931641,-0.2988282 0.452636,-0.3032226 0.865722,-0.9008789 0.162598,-0.030762 0.42627,-0.035156 -0.01758,0.1669922 -0.05713,0.3471679 -0.01318,0.070312 -0.101074,0.5581055 l -0.03955,0.131836 -0.06152,0.2065429 q -0.268067,0.206543 -0.75586,0.3120117 -0.483398,0.1010743 -1.190918,0.1010743 -0.540527,0 -1.023926,-0.1010743 Q 17.919434,9.2260742 17.57666,9.0063477 17.075684,8.6899414 16.790039,8.3208008 16.504395,7.9516602 16.36377,7.5166016 16.227539,7.081543 16.227539,6.5410156 q 0,-1.3095703 0.861328,-2.1621094 0.865723,-0.852539 2.206055,-0.852539 0.544922,0 1.023926,0.057129 0.483398,0.052734 0.900879,0.1625976 z" />
      <path d="m 22.3491,6.0795929 h 1.384277 l 0.703125,-0.00879 q 0.14502,0 0.268067,0.017578 0.01318,0.206543 0.02637,0.3076172 l 0.0044,0.074707 -0.01758,0.2285156 q -0.0044,0.052734 -0.0044,0.1318359 v 0.079102 l -2.381836,0.00439 q -0.0044,-0.1274414 -0.0044,-0.1933594 0,-0.1098632 0.0088,-0.2460937 0.0044,-0.070312 0.0044,-0.1010742 l -0.0044,-0.2197266 z" />
      <path d="m 25.130859,3.9482422 -0.0044,-0.3339844 1.050293,0.065918 0.470215,-0.00439 h 0.171386 q 0.268067,0 0.839356,-0.030762 0.325195,-0.021973 0.408691,-0.021973 0.553711,0 0.834961,0.061523 0.430664,0.087891 0.681153,0.28125 0.254882,0.1933594 0.435058,0.5537109 0.18457,0.3559571 0.18457,0.6635743 0,0.7646484 -0.483398,1.2436523 -0.479004,0.4746094 -1.212891,0.4746094 -0.254882,0 -0.487793,-0.061523 -0.228515,-0.061523 -0.430664,-0.1845703 -0.02197,-0.1274414 -0.02197,-0.3515625 0.105468,0.00879 0.188965,0.013184 0.08789,0.00439 0.153808,0.00439 0.373535,0 0.628418,-0.206543 Q 28.875,5.8466797 28.875,5.2446289 q 0,-0.4306641 -0.149414,-0.703125 -0.14502,-0.2768555 -0.347168,-0.3735352 -0.28125,-0.1318359 -0.632813,-0.1318359 -0.329589,0 -0.470214,0.09668 -0.03516,0.057129 -0.05273,0.1098633 l 0.03076,2.0698242 -0.0088,0.1757812 0.01318,0.1845704 q 0.0044,0.061523 0.0044,0.1801757 v 0.3603516 l 0.0044,0.5756836 -0.0088,0.6855469 q 0,0.1450195 0.02637,0.3911133 l 0.874511,0.1098632 q 0.01758,0.1054688 0.01758,0.1669922 0,0.065918 -0.02197,0.1845703 -0.109863,0.017578 -0.166992,0.017578 -0.136231,0 -0.51416,-0.030762 -0.37793,-0.035156 -0.861329,-0.035156 -0.544921,0 -1.037109,0.070312 -0.0835,0.013184 -0.263672,0.021973 -0.01758,-0.1274415 -0.01758,-0.1889649 0,-0.039551 0.0088,-0.1230469 l 0.268066,-0.087891 q 0.276856,-0.083496 0.479004,-0.2021484 0.03955,-0.1274414 0.03955,-0.2329102 0,-0.043945 -0.0044,-0.1010742 -0.0044,-0.1362305 -0.0044,-0.3823242 L 26.066895,6.8178711 26.018555,5.4248047 Q 25.987793,4.4316406 25.970215,4.3525391 25.939453,4.2250977 25.864746,4.1547852 25.790039,4.0800781 25.614258,4.0493164 25.249512,3.987793 25.130859,3.9482422 Z" />
      <path d="m 30.654785,7.015625 q 0.114258,-0.3735352 0.202149,-0.496582 0.246093,-0.3603516 0.522949,-0.5625 0.28125,-0.2021485 0.505371,-0.2680664 0.290039,-0.083496 0.470215,-0.083496 0.413086,0 0.667968,0.065918 0.254883,0.061524 0.42627,0.1801758 0.246094,0.1713867 0.395508,0.347168 0.149414,0.1757812 0.241699,0.4130859 0.09668,0.2373047 0.105469,0.5756836 l -0.487793,-0.00879 q -0.202149,0 -0.887695,-0.039551 -0.254883,-0.017578 -0.351563,-0.017578 -0.03076,0 -0.474609,0.00439 h -0.37793 q -0.0088,0.061523 -0.0088,0.1054687 0,0.2329102 0.05713,0.4921875 0.05713,0.2548828 0.171387,0.4526368 0.114257,0.1933593 0.28125,0.3339843 0.171386,0.140625 0.351562,0.2021485 l 0.254883,0.083496 q 0.338379,0 0.452637,-0.021973 0.210937,-0.043945 0.36914,-0.1098633 0.162598,-0.070312 0.391113,-0.2329101 0.158204,0.1142578 0.263672,0.2065429 -0.386718,0.4262696 -0.804199,0.6196289 -0.413086,0.1889649 -0.927246,0.1889649 -0.347168,0 -0.566895,-0.061523 Q 31.604004,9.3051758 31.366699,9.1425781 31.129395,8.9799805 30.958008,8.7382813 30.786621,8.496582 30.703125,8.2416992 30.593262,7.9077148 30.593262,7.7055664 q 0,-0.3823242 0.06152,-0.6899414 z m 2.553223,-0.1889648 q -0.0044,-0.2460938 -0.09668,-0.4702149 -0.09228,-0.2241211 -0.285644,-0.347168 -0.19336,-0.1274414 -0.391114,-0.1274414 -0.294433,0 -0.531738,0.2592774 -0.237305,0.2592773 -0.268066,0.703125 l 1.001953,0.00439 q 0.09668,0 0.272461,-0.013184 0.127441,-0.013184 0.180175,-0.013184 0.03955,0 0.118653,0.00439 z" />
      <path d="m 35.655762,5.9741211 q 0.215332,-0.1494141 0.413086,-0.215332 0.202148,-0.065918 0.566894,-0.1010743 h 0.246094 q 0.479004,0 0.918457,0.3295899 l 0.0088,-0.1054688 -0.0044,-0.2944336 0.01758,-0.4702148 q 0,-0.7426758 -0.114258,-0.9404297 Q 37.64209,4.0581055 37.475098,4.0493164 37.3125,4.0405273 37.211426,3.9921875 V 3.78125 q 0.0835,-0.026367 0.215332,-0.026367 0.131836,-0.00439 0.51416,-0.092285 L 38.090332,3.631836 38.525391,3.5307618 Q 38.657227,3.5 38.687988,3.5 q 0.02197,0 0.07031,0.00879 0.02637,0.092285 0.02637,0.1362304 l -0.0044,0.065918 v 0.079102 q 0,0.1230468 0.01318,0.6547851 v 0.2373047 l 0.0044,0.1274414 -0.0044,0.2197266 0.01318,0.4570312 -0.0088,0.2680664 q -0.0088,0.1757813 -0.0088,0.553711 0,0.061523 0.0044,0.1098632 v 0.1625977 q -0.0044,0.070312 -0.0044,0.1054688 0,0.065918 0.01318,0.1889648 v 0.2416992 l -0.0044,0.092285 q -0.0088,0.1274414 -0.0088,0.3515625 0,0.2285156 0.0088,0.4130859 0.0044,0.074707 0.0044,0.1362305 v 0.3295898 q 0,0.1582032 0.0088,0.3779297 0.0791,0.04834 0.386719,0.070312 0.09668,0.00439 0.171387,0.021973 0.02197,0.065918 0.02197,0.09668 0,0.039551 -0.03076,0.1186523 -0.180176,0.043945 -0.37793,0.065918 -0.602051,0.074707 -0.856934,0.2109375 -0.123047,0.070312 -0.171386,0.070312 -0.04834,0 -0.109864,-0.00879 0.0044,-0.079102 0.0044,-0.1010742 0,-0.2988281 -0.01318,-0.3823242 -0.06592,0.035156 -0.162597,0.092285 -0.294434,0.1757813 -0.536133,0.2460938 -0.241699,0.065918 -0.553711,0.065918 -0.553711,0 -0.883301,-0.2109375 Q 35.211895,8.8657225 35.02293,8.4350584 34.83836,8.0043943 34.83836,7.4902342 q 0,-0.8876953 0.817383,-1.5161133 z m 1.353515,2.9091797 q 0.09229,0.00879 0.158203,0.00879 0.14502,0 0.307618,-0.061523 0.166992,-0.061523 0.351562,-0.1801758 0.0044,-0.1450195 0.0044,-0.1801758 0,-1.3930664 -0.03955,-1.6787109 -0.05273,-0.3823242 -0.290039,-0.5888672 -0.237305,-0.206543 -0.575684,-0.206543 -0.193359,0 -0.36914,0.070312 -0.171387,0.070312 -0.28125,0.2021485 -0.162598,0.1933594 -0.246094,0.4394531 -0.114258,0.3427734 -0.114258,0.6416016 0,0.7163086 0.303223,1.0986328 0.303222,0.3779297 0.791015,0.4350586 z" />
      <path d="m 43.530762,8.5185547 0.101074,0.065918 q 0.03955,0.030762 0.04834,0.074707 l 0.0044,0.021973 q -0.105468,0.3911133 -0.276855,0.5405274 -0.171387,0.1450195 -0.42627,0.1450195 -0.259277,0 -0.448242,-0.140625 -0.18457,-0.1450195 -0.338379,-0.5053711 -0.188965,0.3339844 -0.531738,0.5053711 -0.342774,0.1669922 -0.839356,0.1669922 -0.457031,0 -0.672363,-0.1889648 -0.215332,-0.1933594 -0.215332,-0.5053711 0,-0.1450196 0.06152,-0.2944336 0.06592,-0.1494141 0.206543,-0.2944336 0.145019,-0.1494141 0.461425,-0.3251953 0.04834,-0.026367 0.333985,-0.1494141 L 42.09375,7.1958008 q 0.01318,-0.1669922 0.01318,-0.3383789 0,-0.5932617 -0.14502,-0.8085938 -0.08789,-0.1318359 -0.307617,-0.1318359 -0.219727,0 -0.404297,0.083496 -0.18457,0.083496 -0.268066,0.215332 -0.06152,0.09668 -0.105469,0.3647461 -0.03076,0.1933594 -0.05713,0.2241211 -0.06592,0.083496 -0.241699,0.1538086 -0.171387,0.065918 -0.23291,0.09668 -0.237305,0.1142578 -0.37793,0.1142578 -0.06152,-0.052734 -0.06152,-0.1494141 0,-0.2504883 0.105469,-0.430664 0.158203,-0.2548828 0.47461,-0.4921875 0.3208,-0.2416993 0.597656,-0.3383789 0.377929,-0.1230469 0.922851,-0.1230469 0.351563,0 0.602051,0.1318359 0.254883,0.1274414 0.351563,0.3823242 0.101074,0.2548829 0.101074,0.9184571 l -0.01318,0.7250976 0.0088,0.5317383 V 8.461426 q 0,0.1845703 0.04834,0.2548828 0.05273,0.065918 0.131836,0.065918 0.04834,0 0.0835,-0.026367 L 43.45166,8.5493164 Z M 42.089355,7.4990234 q -0.250488,0.083496 -0.566894,0.28125 -0.312012,0.1933594 -0.435059,0.3911133 -0.08789,0.1450196 -0.08789,0.3559571 0,0.1889648 0.114258,0.3120117 0.114257,0.1230468 0.263671,0.1230468 0.246094,0 0.417481,-0.140625 0.23291,-0.1889648 0.272461,-0.2988281 0.03955,-0.1142578 0.03955,-0.637207 0,-0.1933594 -0.01758,-0.3867188 z" />
      <path d="m 43.807617,9.1513672 q 0.09668,-0.065918 0.254883,-0.083496 0.303223,-0.035156 0.347168,-0.092285 0.08789,-0.1142578 0.08789,-0.4658203 V 7.2705078 l -0.0044,-0.2944336 V 6.0883789 L 44.47998,5.0732422 V 4.8974609 q 0,-0.3603515 -0.05713,-0.5317382 -0.153809,-0.092285 -0.32959,-0.092285 -0.105469,0 -0.197754,-0.021973 -0.01318,-0.1098632 -0.01318,-0.1625976 0,-0.035156 0.0088,-0.079102 0.347168,-0.039551 0.720703,-0.1757812 0.373536,-0.140625 0.571289,-0.2856446 l 0.123047,-0.00439 q 0.03955,0 0.114258,0.00439 0.02197,1.5205079 0.02197,2.0830079 0,0.1669921 -0.0044,0.2680664 v 0.026367 l 0.0044,0.083496 V 7.956054 l 0.0044,0.6416016 V 8.703125 q 0,0.1889648 0.06152,0.2680664 0.05273,0.057129 0.224121,0.070312 0.09228,0.00879 0.364746,0.043945 0.02197,0.092285 0.02197,0.1494141 0,0.043945 -0.0088,0.1230469 L 45.763184,9.340332 Q 45.473145,9.318359 45.033691,9.318359 l -0.162597,-0.00439 q -0.250489,0 -0.725098,0.039551 h -0.320801 z" />
      <path d="m 50.175293,3.5791016 q 0.02197,0 0.298828,-0.00879 l 0.140625,0.00439 0.276856,0.00439 q 0.01758,0.140625 0.01758,0.2065429 0,0.021973 -0.0044,0.1362305 -0.0044,0.061523 -0.0088,0.4702148 l -0.0088,0.6635743 0.0044,0.4174804 -0.03076,2.9663086 v 0.2504883 q 0,0.1318359 0.06152,0.1889649 0.06152,0.057129 0.32959,0.09668 0.105469,0.013184 0.421875,0.070312 0.0088,0.043945 0.0088,0.083496 0,0.04834 -0.0088,0.2109375 h -0.188965 q -0.193359,0 -0.5625,-0.017578 -0.224121,-0.013184 -0.307617,-0.013184 -0.105469,0 -0.777832,0.021973 -0.07471,0.00439 -0.123047,0.00439 h -0.0791 l -0.127442,-0.00879 -0.118652,0.00879 -0.219727,-0.00879 q -0.04395,0 -0.180175,0.013184 -0.0088,-0.09668 -0.0088,-0.149414 0,-0.04834 0.0088,-0.1450196 0.175781,-0.04834 0.408691,-0.09668 0.320801,-0.065918 0.391113,-0.1274415 0.07471,-0.065918 0.07471,-0.1713867 l -0.0044,-0.2988281 0.01758,-0.3251953 -0.0044,-0.6679688 -0.0044,-0.1713867 q 0,-0.035156 0.0088,-0.2636719 0.0088,-0.1186523 0.0088,-0.2109375 0,-0.057129 -0.01318,-0.355957 l 0.01758,-0.2504883 q -0.01758,-0.2856445 -0.01758,-0.3383789 0,-0.065918 0.0044,-0.1318359 l 0.0088,-0.1098633 -0.01318,-0.2988281 0.01318,-0.1362305 q 0.0044,-0.092285 0.0044,-0.2460937 0,-0.1494141 -0.0044,-0.3647461 Q 49.573252,4.712875 49.17335,4.9457852 49.1294,4.9721522 48.777842,5.125961 48.637217,4.9150235 48.597666,4.8095547 49.063487,4.5678555 49.230479,4.4535977 49.507334,4.2602383 49.828135,3.9701992 49.964365,3.8427578 50.175303,3.579086 Z" />
   </g>
</svg>