<?xml version="1.0" encoding="UTF-8" standalone="no"?>
<svg height="380" width="60" viewBox="0 0 60 380" version="1.1" xml:space="preserve" xmlns="http://www.w3.org/2000/svg"
   xmlns:svg="http://www.w3.org/2000/svg">
   <rect id="panel" style="fill:#101010" x="0" y="0" width="60" height="380" />
   <path
      style="font-weight:bold;font-size:12px;line-height:1.25;font-family:Garamond;-inkscape-font-specification:'Garamond Bold';text-align:center;text-anchor:middle;fill:#e5e5e5"
      d="m 11.8125,2.8476563 -0.0059,-0.4453125 1.40039,0.087891 0.626953,-0.00586 H 14.0625 q 0.357422,0 1.119141,-0.041016 0.433593,-0.029297 0.544922,-0.029297 0.738281,0 1.113281,0.082031 0.574218,0.1171875 0.908203,0.375 0.339844,0.2578125 0.580078,0.7382812 0.246094,0.4746094 0.246094,0.8847656 0,1.0195313 -0.644532,1.6582031 -0.638671,0.6328125 -1.617187,0.6328125 -0.339844,0 -0.650391,-0.082031 -0.304687,-0.082031 -0.574218,-0.2460938 -0.0293,-0.1699218 -0.0293,-0.46875 0.140625,0.011719 0.251953,0.017578 0.117187,0.00586 0.205078,0.00586 0.498047,0 0.837891,-0.2753906 0.451171,-0.3574219 0.451171,-1.1601562 0,-0.5742188 -0.199218,-0.9375 -0.19336,-0.3691406 -0.462891,-0.4980469 -0.375,-0.1757812 -0.84375,-0.1757812 -0.439453,0 -0.626953,0.1289062 -0.04687,0.076172 -0.07031,0.1464844 L 14.642578,6 l -0.01172,0.234375 0.01758,0.2460937 q 0.0059,0.082031 0.0059,0.2402344 v 0.4804688 l 0.0059,0.7675781 -0.01172,0.9140625 q 0,0.1933594 0.03516,0.5214844 l 1.166015,0.1464844 q 0.02344,0.140625 0.02344,0.2226562 0,0.087891 -0.0293,0.2460935 -0.146484,0.02344 -0.222656,0.02344 -0.181641,0 -0.685547,-0.04102 -0.503906,-0.046875 -1.148438,-0.046875 -0.726562,0 -1.382812,0.09375 -0.111328,0.01758 -0.351563,0.0293 -0.02344,-0.1699219 -0.02344,-0.2519531 0,-0.052734 0.01172,-0.1640625 l 0.357422,-0.1171875 q 0.36914,-0.1113281 0.638671,-0.2695313 0.05274,-0.1699218 0.05274,-0.3105468 0,-0.058594 -0.0059,-0.1347657 -0.0059,-0.1816406 -0.0059,-0.5097656 L 13.060547,6.6738281 12.996094,4.8164062 Q 12.955078,3.4921875 12.931641,3.3867188 12.890625,3.2167969 12.791016,3.1230469 12.691406,3.0234375 12.457031,2.9824219 11.970703,2.9003906 11.8125,2.8476563 Z M 19.177734,6.9375 q 0.152344,-0.4980469 0.269532,-0.6621094 0.328125,-0.4804687 0.697265,-0.75 0.375,-0.2695312 0.673828,-0.3574219 0.386719,-0.1113281 0.626953,-0.1113281 0.550782,0 0.890625,0.087891 0.339844,0.082031 0.56836,0.2402344 0.328125,0.2285156 0.527344,0.4628906 0.199218,0.234375 0.322265,0.5507813 0.128906,0.3164062 0.140625,0.7675781 l -0.65039,-0.011719 q -0.269532,0 -1.183594,-0.052734 -0.339844,-0.023437 -0.46875,-0.023437 -0.04102,0 -0.632813,0.00586 h -0.503906 q -0.01172,0.082031 -0.01172,0.140625 0,0.3105468 0.07617,0.65625 0.07617,0.3398437 0.228516,0.6035156 0.152344,0.2578125 0.375,0.4453125 0.228515,0.1875 0.46875,0.2695313 l 0.339844,0.1113281 q 0.451171,0 0.603515,-0.029297 0.28125,-0.058594 0.492188,-0.1464844 0.216797,-0.09375 0.521484,-0.3105468 0.210938,0.1523437 0.351563,0.2753906 -0.515625,0.5683594 -1.072266,0.8261719 -0.550781,0.2519527 -1.236328,0.2519527 -0.462891,0 -0.75586,-0.08203 Q 20.443359,9.9902344 20.126953,9.7734375 19.810547,9.5566406 19.582031,9.234375 19.353516,8.9121094 19.242187,8.5722656 19.095703,8.1269531 19.095703,7.8574219 q 0,-0.5097657 0.08203,-0.9199219 z M 22.582031,6.6855469 Q 22.576172,6.3574219 22.453125,6.0585937 22.330078,5.7597656 22.072266,5.5957031 21.814453,5.4257812 21.550781,5.4257812 q -0.392578,0 -0.708984,0.3457032 -0.316406,0.3457031 -0.357422,0.9375 l 1.335937,0.00586 q 0.128907,0 0.363282,-0.017578 0.169922,-0.017578 0.240234,-0.017578 0.05273,0 0.158203,0.00586 z m 3.263672,-1.1367188 q 0.287109,-0.1992187 0.550781,-0.2871094 0.269532,-0.087891 0.75586,-0.1347656 h 0.328125 q 0.638672,0 1.224609,0.4394531 l 0.01172,-0.140625 -0.0059,-0.3925781 0.02344,-0.6269531 q 0,-0.9902344 -0.152344,-1.2539062 Q 28.494141,2.9941406 28.271484,2.9824219 28.054687,2.9707031 27.919922,2.90625 V 2.625 q 0.111328,-0.035156 0.287109,-0.035156 0.175781,-0.00586 0.685547,-0.1230469 l 0.199219,-0.041016 0.580078,-0.1347657 Q 29.847656,2.25 29.888672,2.25 q 0.0293,0 0.09375,0.011719 0.03516,0.1230468 0.03516,0.1816406 l -0.0059,0.087891 v 0.1054688 q 0,0.1640625 0.01758,0.8730468 v 0.3164063 l 0.0059,0.1699219 -0.0059,0.2929687 0.01758,0.609375 -0.01172,0.3574219 q -0.01172,0.234375 -0.01172,0.7382812 0,0.082031 0.0059,0.1464844 v 0.2167969 q -0.0059,0.09375 -0.0059,0.140625 0,0.087891 0.01758,0.2519531 v 0.3222656 l -0.0059,0.1230469 q -0.01172,0.1699219 -0.01172,0.46875 0,0.3046875 0.01172,0.5507813 0.0059,0.099609 0.0059,0.1816406 v 0.4394531 q 0,0.2109375 0.01172,0.5039063 0.105469,0.064453 0.515625,0.09375 0.128907,0.00586 0.228516,0.029297 0.0293,0.087891 0.0293,0.1289063 0,0.052734 -0.04102,0.1582031 -0.240234,0.058594 -0.503906,0.087891 -0.802734,0.099609 -1.142578,0.2812504 -0.164063,0.09375 -0.228516,0.09375 -0.06445,0 -0.146484,-0.01172 0.0059,-0.105469 0.0059,-0.134766 0,-0.3984372 -0.01758,-0.5097654 -0.08789,0.046875 -0.216797,0.1230469 -0.392578,0.234375 -0.714844,0.3281255 -0.322265,0.08789 -0.738281,0.08789 -0.738281,0 -1.177734,-0.2812499 -0.650391,-0.4101562 -0.902344,-0.984375 -0.246094,-0.5742187 -0.246094,-1.2597656 0,-1.1835938 1.089844,-2.0214844 z m 1.804688,3.8789063 q 0.123046,0.011719 0.210937,0.011719 0.193359,0 0.410156,-0.082031 0.222657,-0.082031 0.46875,-0.2402344 0.0059,-0.1933594 0.0059,-0.2402344 0,-1.8574219 -0.05273,-2.2382812 Q 28.623047,6.1289062 28.306641,5.8535156 27.990234,5.578125 27.539062,5.578125 q -0.257812,0 -0.492187,0.09375 -0.228516,0.09375 -0.375,0.2695312 -0.216797,0.2578125 -0.328125,0.5859375 -0.152344,0.4570313 -0.152344,0.8554688 0,0.9550781 0.404297,1.4648438 Q 27,9.3515625 27.650391,9.4277344 Z m 8.695312,-0.4863281 0.134766,0.087891 q 0.05273,0.041016 0.06445,0.099609 l 0.0059,0.029297 q -0.140625,0.5214844 -0.36914,0.7207032 -0.228516,0.1933597 -0.56836,0.1933597 -0.345703,0 -0.597656,-0.1875004 Q 34.769531,9.6914063 34.564453,9.2109375 34.3125,9.65625 33.855469,9.8847656 q -0.457032,0.2226564 -1.119141,0.2226564 -0.609375,0 -0.896484,-0.2519532 -0.28711,-0.2578125 -0.28711,-0.6738282 0,-0.1933593 0.08203,-0.3925781 0.08789,-0.1992187 0.27539,-0.3925781 0.19336,-0.1992188 0.615235,-0.4335938 0.06445,-0.035156 0.445312,-0.1992187 l 1.458984,-0.5859375 q 0.01758,-0.2226563 0.01758,-0.4511719 0,-0.7910156 -0.19336,-1.078125 -0.117187,-0.1757813 -0.410156,-0.1757813 -0.292969,0 -0.539063,0.1113282 Q 33.058594,5.6953125 32.947266,5.8710937 32.865234,6 32.806641,6.3574219 q -0.04102,0.2578125 -0.07617,0.2988281 -0.08789,0.1113281 -0.322266,0.2050781 -0.228516,0.087891 -0.310547,0.1289063 -0.316406,0.1523437 -0.503906,0.1523437 -0.08203,-0.070312 -0.08203,-0.1992187 0,-0.3339844 0.140625,-0.5742188 0.210937,-0.3398437 0.632812,-0.65625 0.427735,-0.3222656 0.796875,-0.4511719 0.503906,-0.1640625 1.230469,-0.1640625 0.46875,0 0.802734,0.1757813 0.339844,0.1699219 0.46875,0.5097656 0.134766,0.3398438 0.134766,1.2246094 l -0.01758,0.9667969 0.01172,0.7089844 v 0.1816406 q 0,0.2460937 0.06445,0.3398437 0.07031,0.087891 0.175781,0.087891 0.06445,0 0.111328,-0.035156 L 36.240234,8.9824219 Z M 34.423828,7.5820312 q -0.333984,0.1113282 -0.755859,0.375 -0.416016,0.2578126 -0.580078,0.5214844 -0.117188,0.1933594 -0.117188,0.4746094 0,0.2519531 0.152344,0.4160156 0.152344,0.1640625 0.351562,0.1640625 0.328125,0 0.556641,-0.1875 0.310547,-0.2519531 0.363281,-0.3984375 0.05273,-0.1523437 0.05273,-0.8496093 0,-0.2578126 -0.02344,-0.5156251 z m 2.291016,2.2031251 q 0.128906,-0.087891 0.339843,-0.1113282 0.404297,-0.046875 0.462891,-0.1230468 0.117188,-0.1523438 0.117188,-0.6210938 V 7.2773437 l -0.0059,-0.3925781 V 5.7011719 l -0.01758,-1.3535157 v -0.234375 q 0,-0.4804687 -0.07617,-0.7089843 Q 37.330078,3.28125 37.095703,3.28125 q -0.140625,0 -0.263672,-0.029297 -0.01758,-0.1464843 -0.01758,-0.2167968 0,-0.046875 0.01172,-0.1054688 0.46289,-0.052734 0.960937,-0.234375 0.498047,-0.1875 0.761719,-0.3808594 l 0.164063,-0.00586 q 0.05273,0 0.152343,0.00586 0.0293,2.0273438 0.0293,2.7773438 0,0.2226562 -0.0059,0.3574218 v 0.035156 l 0.0059,0.1113281 v 2.5957032 l 0.0059,0.8554687 V 9.1875 q 0,0.2519531 0.08203,0.3574219 0.07031,0.076172 0.298828,0.09375 0.123047,0.011719 0.486328,0.058594 0.0293,0.1230469 0.0293,0.1992188 0,0.058594 -0.01172,0.1640626 l -0.46289,-0.02344 q -0.386719,-0.0293 -0.972657,-0.0293 l -0.216797,-0.0059 q -0.333984,0 -0.966796,0.05274 H 36.738281 Z M 47.90625,10.054688 h -0.609375 q -0.216797,0 -0.339844,-0.0059 -0.193359,-0.0059 -0.234375,-0.0059 l -0.398437,0.01758 -0.105469,-0.01172 q -0.140625,-0.01758 -0.345703,-0.01758 -0.19336,0 -0.66211,0.01758 -0.222656,0.0059 -0.269531,0.0059 l -0.591797,-0.01172 -0.949218,0.01172 h -0.375 V 9.65625 q 0.832031,-1.0546875 1.248046,-1.4707031 0.421875,-0.421875 1.195313,-1.3945313 0.539062,-0.6679687 0.738281,-1.1953125 0.205078,-0.5273437 0.205078,-0.9140625 0,-0.4335937 -0.128906,-0.7792968 -0.123047,-0.3457032 -0.445312,-0.5449219 -0.316407,-0.1992188 -0.691407,-0.1992188 -0.380859,0 -0.685547,0.1875 -0.304687,0.1875 -0.445312,0.4746094 Q 43.798828,4.2363281 43.751953,4.6875 h -0.427734 q -0.01758,-0.2519531 -0.01758,-0.421875 0,-0.5683594 0.439453,-1.0898437 0.679687,-0.8085938 1.916015,-0.8085938 1.03125,0 1.623047,0.5859375 0.591797,0.5800781 0.591797,1.4648437 0,0.3515625 -0.111328,0.6621094 Q 47.607422,5.5019531 47.378906,5.8125 47.15625,6.1230469 46.142578,7.1367187 45.410156,7.8691406 44.308594,8.8710938 l 0.65039,0.011719 1.066407,-0.023437 0.621093,0.011719 q 0.492188,0 0.650391,-0.1054688 0.164062,-0.1054687 0.298828,-0.4980469 0.0293,-0.09375 0.105469,-0.28125 l 0.386719,-0.023437 0.07617,0.023437 q 0.0293,0.046875 0.0293,0.087891 0,0.09375 -0.0293,0.234375 -0.0293,0.140625 -0.07031,0.4628906 -0.03516,0.3222656 -0.1875,1.2832036 z"
      id="text11"
      aria-label="Pedal 2" />
   <line style="stroke:#a0a0a0;stroke-width:0.5" x1="5" y1="13.25" x2="55" y2="13.25" id="line133" />
   <g style="stroke:#a0a0a0;stroke-width:0.5">
      <line x1="5" y1="365.25015" x2="55" y2="365.25015" id="line151" />
      <line x1="5" y1="338.63876" x2="55" y2="338.63876" id="line153" />
      <line x1="30" y1="338.63876" x2="30" y2="365.11975" id="line155" />
   </g>
</svg>
