<?xml version="1.0" encoding="UTF-8" standalone="no"?>
<svg
   height="380"
   width="60"
   viewBox="0 0 60 380"
   version="1.1"
   xml:space="preserve"
   xmlns="http://www.w3.org/2000/svg"
   xmlns:svg="http://www.w3.org/2000/svg">
<rect id="panel" style="fill:#101010" x="0" y="0" width="60" height="380" />
<line style="stroke:#a0a0a0;stroke-width:0.5" x1="5" y1="35" x2="55" y2="35" />
<g aria-label="Pedal 1" style="fill:#d9d9d9" transform="translate(-3,0)">
   <path d="m 5.9526367,5.8964844 -0.00879,-0.6679688 2.1005859,0.131836 0.9404297,-0.00879 h 0.3427734 q 0.5361328,0 1.6787113,-0.061523 0.65039,-0.043945 0.817382,-0.043945 1.107422,0 1.669922,0.1230469 0.861328,0.1757813 1.362305,0.5625 0.509766,0.3867188 0.870117,1.1074219 0.369141,0.7119141 0.369141,1.3271484 0,1.5292969 -0.966797,2.4873051 -0.958008,0.949218 -2.425781,0.949218 -0.509766,0 -0.975586,-0.123046 -0.457031,-0.123047 -0.861328,-0.369141 -0.04395,-0.254883 -0.04395,-0.703125 0.210938,0.01758 0.37793,0.02637 0.175781,0.0088 0.307617,0.0088 0.747071,0 1.256836,-0.413086 0.676758,-0.5361326 0.676758,-1.7402342 0,-0.8613281 -0.298828,-1.40625 -0.290039,-0.5537109 -0.694336,-0.7470703 -0.5625,-0.2636719 -1.265625,-0.2636719 -0.65918,0 -0.94043,0.1933594 -0.07031,0.1142578 -0.105469,0.2197266 l 0.06152,4.1396484 -0.01758,0.351563 0.02637,0.36914 q 0.0088,0.123047 0.0088,0.360352 v 0.720703 l 0.0088,1.151367 -0.01758,1.371094 q 0,0.290039 0.05273,0.782226 l 1.749024,0.219727 q 0.03516,0.210937 0.03516,0.333984 0,0.131836 -0.04395,0.369141 -0.219727,0.03516 -0.333985,0.03516 -0.272461,0 -1.02832,-0.06152 -0.7558593,-0.07031 -1.7226562,-0.07031 -1.0898438,0 -2.0742188,0.140625 -0.1669922,0.02637 -0.5273437,0.04395 -0.035156,-0.254882 -0.035156,-0.377929 0,-0.0791 0.017578,-0.246094 L 6.831543,15.942383 q 0.5537109,-0.166992 0.9580078,-0.404297 0.079102,-0.254883 0.079102,-0.46582 0,-0.08789 -0.00879,-0.202149 -0.00879,-0.272461 -0.00879,-0.764648 L 7.824707,11.635742 7.7280273,8.8496094 Q 7.6665039,6.8632812 7.6313477,6.7050781 7.5698242,6.4501953 7.4204102,6.3095703 7.2709961,6.1601562 6.9194336,6.0986328 6.1899414,5.9755859 5.9526367,5.8964844 Z" />
   <path d="m 17.000488,12.03125 q 0.228516,-0.74707 0.404297,-0.993164 0.492188,-0.720703 1.045899,-1.1250001 0.5625,-0.4042968 1.010742,-0.5361328 0.580078,-0.1669922 0.940429,-0.1669922 0.826172,0 1.335938,0.131836 0.509766,0.1230469 0.852539,0.3603515 0.492188,0.3427736 0.791016,0.6943356 0.298828,0.351563 0.483398,0.826172 0.193359,0.47461 0.210938,1.151367 l -0.975586,-0.01758 q -0.404297,0 -1.775391,-0.0791 -0.509766,-0.03516 -0.703125,-0.03516 -0.06152,0 -0.949219,0.0088 h -0.755859 q -0.01758,0.123046 -0.01758,0.210937 0,0.46582 0.114258,0.984375 0.114257,0.509766 0.342773,0.905274 0.228516,0.386718 0.5625,0.667968 0.342773,0.28125 0.703125,0.404297 l 0.509766,0.166992 q 0.676757,0 0.905273,-0.04395 0.421875,-0.08789 0.738281,-0.219727 0.325196,-0.140625 0.782227,-0.46582 0.316406,0.228516 0.527344,0.413086 -0.773438,0.852539 -1.608399,1.239258 -0.826172,0.37793 -1.854492,0.37793 -0.694336,0 -1.133789,-0.123047 -0.588867,-0.158203 -1.063477,-0.483399 -0.474609,-0.325195 -0.817382,-0.808593 -0.342774,-0.483399 -0.509766,-0.993165 -0.219727,-0.667968 -0.219727,-1.072265 0,-0.764649 0.123047,-1.379883 z m 5.106446,-0.37793 q -0.0088,-0.492187 -0.19336,-0.940429 -0.18457,-0.448243 -0.571289,-0.694336 -0.386719,-0.2548831 -0.782226,-0.2548831 -0.588868,0 -1.063477,0.5185551 -0.474609,0.518554 -0.536133,1.40625 l 2.003906,0.0088 q 0.19336,0 0.544922,-0.02637 0.254883,-0.02637 0.360352,-0.02637 0.0791,0 0.237305,0.0088 z" />
   <path d="M 27.002441,9.9482422 Q 27.433105,9.6494141 27.828613,9.5175781 28.23291,9.3857422 28.962402,9.3154297 h 0.492188 q 0.958008,0 1.836914,0.6591797 l 0.01758,-0.2109375 -0.0088,-0.5888672 0.03516,-0.9404297 q 0,-1.4853516 -0.228515,-1.8808594 Q 30.975098,6.1162109 30.641113,6.0986328 30.315918,6.0810547 30.11377,5.984375 V 5.5625 q 0.166992,-0.052734 0.430664,-0.052734 0.263671,-0.00879 1.02832,-0.1845703 l 0.298828,-0.061523 0.870117,-0.2021485 Q 33.005371,5 33.066895,5 q 0.04395,0 0.140625,0.017578 0.05273,0.1845703 0.05273,0.272461 l -0.0088,0.1318359 v 0.1582031 q 0,0.2460938 0.02637,1.3095703 v 0.4746094 l 0.0088,0.2548828 -0.0088,0.4394532 0.02637,0.9140625 -0.01758,0.5361328 q -0.01758,0.3515625 -0.01758,1.1074219 0,0.123047 0.0088,0.219727 v 0.325195 q -0.0088,0.140625 -0.0088,0.210937 0,0.131836 0.02637,0.37793 v 0.483398 l -0.0088,0.184571 q -0.01758,0.254883 -0.01758,0.703125 0,0.457031 0.01758,0.826172 0.0088,0.149414 0.0088,0.272461 v 0.659179 q 0,0.316407 0.01758,0.75586 0.158203,0.09668 0.773438,0.140625 0.193359,0.0088 0.342773,0.04394 0.04395,0.131836 0.04395,0.193359 0,0.0791 -0.06152,0.237305 -0.360351,0.08789 -0.755859,0.131836 -1.204102,0.149414 -1.713867,0.421875 -0.246094,0.140625 -0.342774,0.140625 -0.09668,0 -0.219726,-0.01758 0.0088,-0.158203 0.0088,-0.202149 0,-0.597656 -0.02637,-0.764648 -0.131836,0.07031 -0.325195,0.18457 -0.588867,0.351563 -1.072266,0.492188 -0.483398,0.131836 -1.107421,0.131836 -1.107422,0 -1.766602,-0.421875 -0.975586,-0.615235 -1.353516,-1.476563 -0.36914,-0.861328 -0.36914,-1.889648 0,-1.775391 1.634765,-3.0322268 z m 2.707032,5.8183598 q 0.18457,0.01758 0.316406,0.01758 0.290039,0 0.615234,-0.123047 0.333985,-0.123047 0.703125,-0.360352 0.0088,-0.290039 0.0088,-0.360351 0,-2.786133 -0.0791,-3.357422 -0.105469,-0.764649 -0.580078,-1.177735 -0.47461,-0.4130855 -1.151368,-0.4130855 -0.386718,0 -0.738281,0.1406255 -0.342773,0.140625 -0.5625,0.404296 -0.325195,0.386719 -0.492187,0.878907 -0.228516,0.685547 -0.228516,1.283203 0,1.432617 0.606445,2.197265 0.606446,0.75586 1.582032,0.870118 z" />
   <path d="m 42.752441,15.037109 0.202149,0.131836 q 0.0791,0.06152 0.09668,0.149414 l 0.0088,0.04395 q -0.210938,0.782226 -0.553711,1.081054 -0.342774,0.290039 -0.852539,0.290039 -0.518555,0 -0.896485,-0.28125 -0.36914,-0.290039 -0.676758,-1.010742 -0.377929,0.667969 -1.063476,1.010742 -0.685547,0.333985 -1.678711,0.333985 -0.914063,0 -1.344727,-0.37793 -0.430664,-0.386719 -0.430664,-1.010742 0,-0.290039 0.123047,-0.588867 0.131836,-0.298828 0.413086,-0.588867 0.290039,-0.298829 0.922852,-0.650391 0.09668,-0.05273 0.667968,-0.298828 l 2.188477,-0.878906 q 0.02637,-0.333985 0.02637,-0.676758 0,-1.186524 -0.290039,-1.617188 -0.175781,-0.2636716 -0.615234,-0.2636716 -0.439453,0 -0.808594,0.1669926 -0.369141,0.166992 -0.536133,0.430664 -0.123047,0.193359 -0.210937,0.729492 -0.06152,0.386719 -0.114258,0.448242 -0.131836,0.166992 -0.483399,0.307617 -0.342773,0.131836 -0.46582,0.19336 -0.474609,0.228515 -0.755859,0.228515 -0.123047,-0.105469 -0.123047,-0.298828 0,-0.500976 0.210937,-0.861328 0.316407,-0.509766 0.949219,-0.984375 0.641602,-0.4833985 1.195313,-0.6767579 0.755859,-0.2460937 1.845703,-0.2460937 0.703125,0 1.204101,0.2636719 0.509766,0.2548828 0.703125,0.7646487 0.202149,0.509765 0.202149,1.836914 l -0.02637,1.450195 0.01758,1.063477 v 0.272461 q 0,0.36914 0.09668,0.509765 0.105469,0.131836 0.263672,0.131836 0.09668,0 0.166992,-0.05273 l 0.263672,-0.413086 z m -2.882812,-2.039062 q -0.500977,0.166992 -1.133789,0.5625 -0.624024,0.386719 -0.870117,0.782226 -0.175782,0.29004 -0.175782,0.711915 0,0.377929 0.228516,0.624023 0.228516,0.246094 0.527344,0.246094 0.492187,0 0.834961,-0.28125 0.46582,-0.37793 0.544922,-0.597657 0.0791,-0.228515 0.0791,-1.274414 0,-0.386718 -0.03516,-0.773437 z" />
   <path d="m 43.306152,16.302734 q 0.19336,-0.131836 0.509766,-0.166992 0.606445,-0.07031 0.694336,-0.18457 0.175781,-0.228516 0.175781,-0.931641 v -2.478515 l -0.0088,-0.588868 v -1.77539 L 44.650879,8.1464844 V 7.7949219 q 0,-0.7207032 -0.114258,-1.0634766 -0.307617,-0.1845703 -0.65918,-0.1845703 -0.210937,0 -0.395507,-0.043945 -0.02637,-0.2197266 -0.02637,-0.3251953 0,-0.070312 0.01758,-0.1582032 0.694335,-0.079102 1.441406,-0.3515625 0.74707,-0.28125 1.142578,-0.571289 l 0.246094,-0.00879 q 0.0791,0 0.228515,0.00879 0.04395,3.0410156 0.04395,4.1660156 0,0.3339844 -0.0088,0.5361328 v 0.052734 l 0.0088,0.1669925 v 3.893554 l 0.0088,1.283204 v 0.210937 q 0,0.37793 0.123047,0.536133 0.105468,0.114258 0.448242,0.140625 0.18457,0.01758 0.729492,0.08789 0.04394,0.184571 0.04394,0.298829 0,0.08789 -0.01758,0.246093 l -0.694336,-0.03516 q -0.580078,-0.04395 -1.458984,-0.04395 l -0.325196,-0.0088 q -0.500976,0 -1.450195,0.0791 h -0.641601 z" />
   <path transform="translate(-2.25)" d="m 56.041504,5.1582031 q 0.04394,0 0.597656,-0.017578 l 0.28125,0.00879 0.553711,0.00879 q 0.03516,0.28125 0.03516,0.413086 0,0.043945 -0.0088,0.2724609 -0.0088,0.1230469 -0.01758,0.9404297 l -0.01758,1.3271484 0.0088,0.834961 -0.06152,5.9326169 v 0.500977 q 0,0.263672 0.123047,0.37793 0.123046,0.114257 0.659179,0.193359 0.210938,0.02637 0.84375,0.140625 0.01758,0.08789 0.01758,0.166992 0,0.09668 -0.01758,0.421875 h -0.377929 q -0.386719,0 -1.125,-0.03516 -0.448243,-0.02637 -0.615235,-0.02637 -0.210937,0 -1.555664,0.04395 -0.149414,0.0088 -0.246094,0.0088 h -0.158203 l -0.254883,-0.01758 -0.237304,0.01758 -0.439453,-0.01758 q -0.08789,0 -0.360352,0.02637 -0.01758,-0.193359 -0.01758,-0.298828 0,-0.09668 0.01758,-0.290039 0.351563,-0.09668 0.817383,-0.193359 0.641601,-0.131836 0.782226,-0.254883 0.149414,-0.131836 0.149414,-0.342774 l -0.0088,-0.597656 0.03516,-0.650391 -0.0088,-1.335937 -0.0088,-0.342774 q 0,-0.07031 0.01758,-0.527343 0.01758,-0.237305 0.01758,-0.421875 0,-0.114258 -0.02637,-0.711914 l 0.03516,-0.500977 q -0.03516,-0.571289 -0.03516,-0.6767577 0,-0.131836 0.0088,-0.2636719 l 0.01758,-0.2197266 -0.02637,-0.5976562 0.02637,-0.272461 q 0.0088,-0.1845703 0.0088,-0.4921875 0,-0.2988281 -0.0088,-0.7294922 -0.624024,0.4658203 -1.423828,0.9316407 -0.08789,0.052734 -0.791016,0.3603515 -0.28125,-0.421875 -0.360352,-0.6328125 0.931641,-0.4833984 1.265625,-0.711914 0.553711,-0.3867188 1.195313,-0.9667969 0.272461,-0.2548828 0.694336,-0.7822266 z"/>
</g>
<path style="stroke:#4073bf;stroke-width:0.75" d="M 9.875,90 V 290"/>
<g style="stroke:#a0a0a0;stroke-width:0.5">
   <line x1="5" y1="365.25015" x2="55" y2="365.25015" />
   <line x1="5" y1="338.63876" x2="55" y2="338.63876" />
   <line x1="30" y1="338.63876" x2="30" y2="365.11975" />
</g>
<g id="logo" style="fill:#d9d9d9"
   transform="translate(-15)">
   <path d="m 40.647106,371.63388 0.910229,-1.80007 1.107972,0.29661 -0.916345,1.79906 1.686932,0.45155 0.916345,-1.79906 1.102876,0.29559 -0.911249,1.8011 0.800146,0.21405 -0.296615,1.10798 -1.031525,-0.27624 -0.674773,1.33018 1.32814,0.35573 -0.296615,1.10696 -1.559519,-0.41689 -0.910229,1.80007 -1.107973,-0.29661 0.91125,-1.80007 -1.686932,-0.45258 -0.911248,1.8011 L 38,376.85471 l 0.911248,-1.80008 -0.795048,-0.21303 0.296614,-1.10798 1.031525,0.27624 0.669676,-1.3312 -1.323043,-0.35471 0.296614,-1.10798 z m 2.261813,1.79294 -1.686932,-0.45155 -0.675791,1.33018 1.68795,0.45256 z" />
   <path d="m 51.211066,377.07487 -0.306807,1.14365 -2.399417,-0.64317 0.157991,-0.59018 q -0.838879,0.48519 -1.613542,0.27725 -0.927558,-0.24871 -1.336295,-1.16607 -0.407717,-0.91737 -0.121296,-1.98864 0.291518,-1.08759 1.116126,-1.66349 0.826648,-0.581 1.728723,-0.33942 0.867419,0.23342 1.250673,1.05598 l 0.421988,-1.57481 -0.773644,-0.20793 0.305788,-1.14262 2.358646,0.63195 -1.604368,5.98938 z m -2.023297,-1.98762 q 0.190608,-0.71248 -0.03567,-1.09778 -0.221187,-0.38326 -0.611576,-0.48824 -0.465818,-0.12435 -0.820532,0.17022 -0.34758,0.29254 -0.50557,0.88169 -0.148817,0.55858 -0.001,1.01114 0.149837,0.44645 0.626866,0.57488 0.394467,0.10601 0.774663,-0.12231 0.386313,-0.23138 0.572844,-0.9296 z" />
</g>
</svg>
