<?xml version="1.0" encoding="UTF-8" standalone="no"?>
<svg
   version="1.1"
   viewBox="0 0 6 8"
   width="6"
   height="8"
   xmlns="http://www.w3.org/2000/svg"
   xmlns:svg="http://www.w3.org/2000/svg">
  <path fill="#497aa2" transform="translate(10,0)" d="m -7.0666667,1.6 q -0.1666666,0 -0.3125,-0.0625 Q -7.525,1.475 -7.6333333,1.3666667 -7.7416667,1.2583333 -7.8041667,1.1125 q -0.0625,-0.14583333 -0.0625,-0.3125 0,-0.16666667 0.0625,-0.3125 0.0625,-0.14583333 0.1708334,-0.25416667 Q -7.525,0.125 -7.3791667,0.0625 -7.2333333,0 -7.0666667,0 -6.9,0 -6.7541667,0.0625 -6.6083333,0.125 -6.5,0.23333333 -6.3916667,0.34166667 -6.3291667,0.4875 q 0.0625,0.14583333 0.0625,0.3125 0,0.16666667 -0.0625,0.3125 Q -6.3916667,1.2583333 -6.5,1.3666667 -6.6083333,1.475 -6.7541667,1.5375 -6.9,1.6 -7.0666667,1.6 Z m 2.1333334,1.0666667 q 0.1125,0 0.2083333,0.041667 0.095833,0.041667 0.16875,0.1145834 0.072917,0.072917 0.1145833,0.16875 Q -4.4,3.0875 -4.4,3.2 q 0,0.1125 -0.041667,0.2083333 -0.041667,0.095833 -0.1145833,0.16875 Q -4.6291667,3.65 -4.725,3.6916667 q -0.095833,0.041667 -0.2083333,0.041667 h -1.1125 q -0.1041667,0 -0.2020834,-0.041667 Q -6.3458333,3.65 -6.4208333,3.5791667 L -6.6104167,3.3895833 -6.8,3.2 -7.1208333,4.4791667 -5.8875,5.7125 q 0.075,0.075 0.1145833,0.1729167 0.039583,0.097917 0.039583,0.2020833 v 1.3791667 q 0,0.1125 -0.041667,0.2083333 -0.041667,0.095833 -0.1145833,0.16875 -0.072917,0.072917 -0.16875,0.1145833 Q -6.1541667,8 -6.2666667,8 -6.3791667,8 -6.475,7.9583333 -6.5708333,7.9166667 -6.64375,7.84375 -6.7166667,7.7708333 -6.7583333,7.675 -6.8,7.5791667 -6.8,7.4666667 V 6.4 L -7.9125,5.2875 -8.2416667,6.7958333 q -0.041667,0.1958334 -0.079167,0.39375 Q -8.3583333,7.3875 -8.4125,7.5791667 -8.4666667,7.7666667 -8.6,7.8833333 -8.7333333,8 -8.9333333,8 -9.0416667,8 -9.1395833,7.9583333 -9.2375,7.9166667 -9.3104167,7.84375 -9.3833333,7.7708333 -9.425,7.675 -9.466667,7.579167 -9.466667,7.4666667 q 0,-0.054167 0.0125,-0.1125 0.070833,-0.3875 0.1625,-0.76875 0.091667,-0.38125 0.175,-0.7645834 0.175,-0.7875 0.34375,-1.56875 0.16875,-0.78125 0.3395834,-1.56875 l -0.5,0.25 V 4 q 0,0.1125 -0.041667,0.2083333 -0.041667,0.095833 -0.1145833,0.16875 -0.072917,0.072917 -0.16875,0.1145834 -0.095833,0.041667 -0.2083334,0.041667 -0.1125,0 -0.2083333,-0.041667 Q -9.7708333,4.45 -9.84375,4.3770833 -9.9166667,4.3041667 -9.9583333,4.2083333 -10,4.1125 -10,4 V 2.5958333 q 0,-0.1541666 0.079167,-0.2791666 0.079167,-0.125 0.2166666,-0.1958334 L -8.8916667,1.7125 Q -8.6666667,1.6 -8.4125,1.6 h 0.2791667 q 0.1875,0.2541667 0.46875,0.39375 0.28125,0.1395833 0.5979166,0.1395833 0.3416667,0 0.6375,-0.1625 l 0.6958334,0.6958334 z" />
</svg>
