<?xml version="1.0" encoding="UTF-8" standalone="no"?>
<svg width="105" height="380" viewBox="0 0 105 380" version="1.1"
  xmlns="http://www.w3.org/2000/svg"
  xmlns:svg="http://www.w3.org/2000/svg">
  <g>
    <rect id="panel" style="fill:#101010" width="105" height="380" x="0" y="0" />
    <g id="arrows" style="fill:#265273;stroke-linecap:round;">
      <path d="m 52.435547,295.87109 a 0.375,0.375 0 0 0 -0.242188,0.15235 0.375,0.375 0 0 0 0.0918,0.52343 l 31.498047,22.10547 a 0.375,0.375 0 0 0 0.521484,-0.0918 0.375,0.375 0 0 0 -0.08984,-0.52149 l -31.5,-22.10547 a 0.375,0.375 0 0 0 -0.279297,-0.0625 z" />
      <path d="m 85.326801,319.27768 -2.799173,-0.24647 1.615644,-2.30214 z" />
      <path d="m 84.175781,316.35547 -1.988281,2.83398 3.445312,0.30274 z m -0.06641,0.74805 0.910156,1.95898 -2.15039,-0.18945 z" />
      <path d="m 52.285156,295.93359 -31.5,22.09961 a 0.375,0.375 0 0 0 -0.0918,0.52149 0.375,0.375 0 0 0 0.521485,0.0918 l 31.5,-22.09961 a 0.375,0.375 0 0 0 0.0918,-0.52148 0.375,0.375 0 0 0 -0.521485,-0.0918 z" />
      <path d="m 19.671174,319.27225 1.183885,-2.54844 1.615323,2.30237 z" />
      <path d="m 20.822266,316.34961 -1.457032,3.13867 3.445313,-0.30469 z m 0.06641,0.74805 1.240234,1.77148 -2.15039,0.1875 z" />
      <path d="M 52.501953,295.86523 A 0.375,0.375 0 0 0 52.125,296.23828 l -0.138672,21.44336 a 0.375,0.375 0 0 0 0.373047,0.37695 0.375,0.375 0 0 0 0.376953,-0.37304 L 52.875,296.24219 a 0.375,0.375 0 0 0 -0.373047,-0.37696 z" />
      <path d="m 52.35039,319.3067 -1.390442,-2.44188 2.812441,0.0182 z" />
      <path d="m 50.636719,316.67578 1.710937,3.00586 1.75,-2.98437 z m 0.648437,0.37891 2.16211,0.0137 -1.09375,1.86328 z" />
      <path d="m 84.0625,331.9668 a 0.375,0.375 0 0 0 -0.279297,0.0625 l -31.498047,22.10547 a 0.375,0.375 0 0 0 -0.0918,0.52148 0.375,0.375 0 0 0 0.521485,0.0918 l 31.5,-22.10547 a 0.375,0.375 0 0 0 0.08984,-0.52149 0.375,0.375 0 0 0 -0.242187,-0.15429 z" />
      <path d="m 85.326801,331.40368 -1.183529,2.54861 -1.615644,-2.30214 z" />
      <path d="m 85.632812,331.1875 -3.445312,0.30469 1.988281,2.83398 z m -0.613281,0.43164 -0.910156,1.95898 -1.240234,-1.76953 z" />
      <path d="m 20.935547,331.97266 a 0.375,0.375 0 0 0 -0.242188,0.15234 0.375,0.375 0 0 0 0.0918,0.52344 l 31.5,22.09961 a 0.375,0.375 0 0 0 0.521485,-0.0918 0.375,0.375 0 0 0 -0.0918,-0.52148 l -31.5,-22.10157 a 0.375,0.375 0 0 0 -0.279297,-0.0605 z" />
      <path d="m 19.671174,331.40911 2.799208,0.24607 -1.615323,2.30237 z" />
      <path d="m 19.365234,331.19336 1.457032,3.13867 1.988281,-2.83594 z m 0.613282,0.43164 2.15039,0.1875 -1.240234,1.77148 z" />
      <path d="M 52.359375,332.62305 A 0.375,0.375 0 0 0 51.986328,333 L 52.125,354.44336 a 0.375,0.375 0 0 0 0.376953,0.37305 0.375,0.375 0 0 0 0.373047,-0.37696 l -0.138672,-21.44531 a 0.375,0.375 0 0 0 -0.376953,-0.37109 z" />
      <path d="m 52.35039,331.37466 1.421999,2.42364 -2.812441,0.0182 z" />
      <path d="m 52.347656,331 -1.710937,3.00586 3.460937,-0.0215 z m 0.0059,0.74805 1.09375,1.86523 -2.16211,0.0137 z" />
    </g>
    <g style="fill:#c0c0c0">
      <path aria-label="Surface" d="m 39.648002,293.33579 q -0.945,0 -1.548,-0.495 -0.603,-0.495 -0.738,-1.314 l 0.774,-0.189 q 0.099,0.63 0.513,0.963 0.423,0.324 1.026,0.324 0.351,0 0.63,-0.135 0.279,-0.135 0.441,-0.378 0.162,-0.252 0.162,-0.567 0,-0.333 -0.18,-0.549 -0.18,-0.216 -0.504,-0.378 -0.315,-0.162 -0.738,-0.324 -0.522,-0.198 -0.918,-0.432 -0.387,-0.234 -0.603,-0.558 -0.216,-0.333 -0.216,-0.81 0,-0.477 0.234,-0.846 0.234,-0.369 0.657,-0.576 0.423,-0.216 0.981,-0.216 0.594,0 1.053,0.27 0.459,0.27 0.738,0.801 l -0.63,0.387 q -0.207,-0.369 -0.504,-0.558 -0.297,-0.198 -0.684,-0.198 -0.306,0 -0.549,0.117 -0.234,0.117 -0.369,0.324 -0.135,0.207 -0.135,0.477 0,0.288 0.162,0.495 0.162,0.198 0.468,0.351 0.306,0.153 0.738,0.315 0.549,0.207 0.945,0.45 0.396,0.243 0.612,0.585 0.225,0.333 0.225,0.828 0,0.531 -0.261,0.945 -0.261,0.414 -0.72,0.657 -0.459,0.234 -1.062,0.234 z m 4.589993,-0.027 q -0.477,0 -0.828,-0.189 -0.351,-0.198 -0.54,-0.576 -0.18,-0.378 -0.18,-0.936 v -2.808 h 0.756 v 2.538 q 0,0.441 0.108,0.738 0.117,0.288 0.342,0.432 0.225,0.135 0.558,0.135 0.369,0 0.621,-0.171 0.261,-0.18 0.396,-0.54 0.135,-0.36 0.135,-0.927 v -2.205 h 0.756 v 4.437 h -0.756 v -0.945 h 0.189 q -0.189,0.495 -0.603,0.756 -0.414,0.261 -0.954,0.261 z m 3.429008,-0.072 v -4.437 h 0.765 v 1.188 l -0.198,0.045 q 0.063,-0.396 0.297,-0.684 0.243,-0.297 0.558,-0.459 0.324,-0.162 0.63,-0.162 0.207,0 0.396,0.045 0.189,0.045 0.387,0.153 l -0.378,0.684 q -0.108,-0.054 -0.261,-0.09 -0.144,-0.036 -0.279,-0.036 -0.216,0 -0.432,0.081 -0.207,0.081 -0.378,0.252 -0.171,0.171 -0.261,0.459 -0.036,0.126 -0.063,0.333 -0.018,0.198 -0.018,0.549 v 2.079 z m 4.022996,0 v -3.843 h -0.918 v -0.594 h 0.927 v -0.576 q 0,-0.504 0.162,-0.792 0.162,-0.297 0.441,-0.414 0.288,-0.126 0.639,-0.126 0.243,0 0.432,0.045 0.189,0.045 0.36,0.135 l -0.252,0.576 q -0.099,-0.054 -0.216,-0.081 -0.117,-0.036 -0.243,-0.036 -0.288,0 -0.432,0.18 -0.135,0.18 -0.135,0.513 v 0.576 h 1.035 v 0.594 h -1.035 v 3.843 z m 5.570992,0 -0.054,-0.891 v -1.89 q 0,-0.513 -0.288,-0.792 -0.279,-0.279 -0.837,-0.279 -0.36,0 -0.675,0.153 -0.315,0.144 -0.612,0.495 l -0.549,-0.468 q 0.369,-0.432 0.846,-0.63 0.477,-0.207 1.044,-0.207 0.873,0 1.35,0.45 0.477,0.45 0.477,1.278 v 2.781 z m -1.467,0.072 q -0.504,0 -0.882,-0.171 -0.369,-0.18 -0.576,-0.495 -0.198,-0.315 -0.198,-0.729 0,-0.369 0.144,-0.621 0.153,-0.261 0.387,-0.405 0.234,-0.153 0.531,-0.207 0.306,-0.063 0.639,-0.063 h 1.44 v 0.576 h -1.332 q -0.198,0 -0.414,0.036 -0.216,0.036 -0.378,0.153 -0.117,0.09 -0.189,0.225 -0.063,0.135 -0.063,0.315 0,0.351 0.261,0.558 0.261,0.207 0.702,0.207 0.369,0 0.666,-0.171 0.306,-0.171 0.486,-0.468 0.189,-0.306 0.189,-0.684 l 0.315,0.324 q -0.054,0.477 -0.288,0.846 -0.234,0.369 -0.603,0.576 -0.36,0.198 -0.837,0.198 z m 5.256008,0 q -0.495,0 -0.882,-0.18 -0.378,-0.18 -0.639,-0.495 -0.261,-0.324 -0.396,-0.738 -0.135,-0.414 -0.135,-0.882 0,-0.459 0.135,-0.873 0.135,-0.414 0.396,-0.729 0.261,-0.324 0.639,-0.504 0.387,-0.18 0.882,-0.18 0.63,0 1.098,0.306 0.477,0.306 0.702,0.936 l -0.675,0.261 q -0.126,-0.378 -0.405,-0.612 -0.279,-0.234 -0.72,-0.234 -0.441,0 -0.729,0.234 -0.288,0.234 -0.432,0.603 -0.135,0.369 -0.135,0.792 0,0.423 0.135,0.801 0.144,0.369 0.432,0.603 0.288,0.225 0.729,0.225 0.441,0 0.72,-0.225 0.279,-0.234 0.405,-0.621 l 0.675,0.261 q -0.225,0.63 -0.702,0.945 -0.468,0.306 -1.098,0.306 z m 4.688997,0 q -0.522,0 -0.918,-0.171 -0.387,-0.18 -0.648,-0.495 -0.252,-0.315 -0.387,-0.72 -0.126,-0.414 -0.126,-0.873 0,-0.459 0.126,-0.873 0.126,-0.423 0.369,-0.747 0.252,-0.324 0.63,-0.513 0.378,-0.189 0.882,-0.189 0.513,0 0.882,0.18 0.378,0.171 0.612,0.477 0.243,0.306 0.36,0.684 0.117,0.378 0.117,0.783 0,0.036 -0.009,0.171 0,0.126 -0.018,0.225 h -3.195 q 0.027,0.648 0.378,1.008 0.351,0.36 0.954,0.36 0.387,0 0.675,-0.126 0.288,-0.126 0.54,-0.405 l 0.531,0.468 q -0.243,0.261 -0.513,0.432 -0.27,0.162 -0.576,0.243 -0.297,0.081 -0.666,0.081 z m 1.143,-2.448 q 0.018,-0.072 0.018,-0.144 0.009,-0.072 0.009,-0.144 0,-0.216 -0.081,-0.432 -0.072,-0.216 -0.225,-0.387 -0.144,-0.18 -0.378,-0.279 -0.225,-0.108 -0.54,-0.108 -0.387,0 -0.666,0.18 -0.279,0.18 -0.432,0.477 -0.153,0.297 -0.18,0.657 h 2.727 z" />
      <path aria-label="MIDI" d="m 7.7925601,328.4772 v -6.273 h 1.17 l 1.9709999,4.959 h -0.144 l 1.971,-4.959 h 1.161 v 6.273 h -0.792 v -5.355 l 0.063,0.009 -1.944,4.815 h -0.774 l -1.9529999,-4.815 0.063,-0.009 v 5.355 z m 7.5510059,0 v -6.273 h 0.792 v 6.273 z m 2.214003,0 v -6.273 h 1.737 q 1.539,0 2.385,0.837 0.846,0.828 0.846,2.349 0,1.494 -0.837,2.295 -0.837,0.792 -2.403,0.792 z m 0.792,-0.729 h 0.864 q 0.801,0 1.359,-0.234 0.567,-0.243 0.855,-0.765 0.297,-0.531 0.297,-1.386 0,-0.855 -0.297,-1.386 -0.288,-0.54 -0.837,-0.792 -0.54,-0.252 -1.305,-0.252 h -0.936 z m 5.345993,0.729 v -6.273 h 0.792 v 6.273 z" />
      <path aria-label="DSP" d="m 44.809948,328.48169 v -6.273 h 1.737 q 1.539,0 2.385,0.837 0.846,0.828 0.846,2.349 0,1.494 -0.837,2.295 -0.837,0.792 -2.403,0.792 z m 0.792,-0.729 h 0.864 q 0.801,0 1.359,-0.234 0.567,-0.243 0.855,-0.765 0.297,-0.531 0.297,-1.386 0,-0.855 -0.297,-1.386 -0.288,-0.54 -0.837,-0.792 -0.54,-0.252 -1.305,-0.252 h -0.936 z m 7.218001,0.828 q -0.945,0 -1.548,-0.495 -0.603,-0.495 -0.738,-1.314 l 0.774,-0.189 q 0.099,0.63 0.513,0.963 0.423,0.324 1.026,0.324 0.351,0 0.63,-0.135 0.279,-0.135 0.441,-0.378 0.162,-0.252 0.162,-0.567 0,-0.333 -0.18,-0.549 -0.18,-0.216 -0.504,-0.378 -0.315,-0.162 -0.738,-0.324 -0.522,-0.198 -0.918,-0.432 -0.387,-0.234 -0.603,-0.558 -0.216,-0.333 -0.216,-0.81 0,-0.477 0.234,-0.846 0.234,-0.369 0.657,-0.576 0.423,-0.216 0.981,-0.216 0.594,0 1.053,0.27 0.459,0.27 0.738,0.801 l -0.63,0.387 q -0.207,-0.369 -0.504,-0.558 -0.297,-0.198 -0.684,-0.198 -0.306,0 -0.549,0.117 -0.234,0.117 -0.369,0.324 -0.135,0.207 -0.135,0.477 0,0.288 0.162,0.495 0.162,0.198 0.468,0.351 0.306,0.153 0.738,0.315 0.549,0.207 0.945,0.45 0.396,0.243 0.612,0.585 0.225,0.333 0.225,0.828 0,0.531 -0.261,0.945 -0.261,0.414 -0.72,0.657 -0.459,0.234 -1.062,0.234 z m 3.158992,-0.099 v -6.273 h 1.872 q 1.017,0 1.548,0.45 0.54,0.45 0.54,1.323 0,0.873 -0.54,1.341 -0.54,0.459 -1.548,0.459 h -1.089 v 2.7 z m 0.783,-3.402 h 1.008 q 0.648,0 1.008,-0.261 0.369,-0.27 0.369,-0.828 0,-0.549 -0.36,-0.81 -0.351,-0.261 -1.017,-0.261 h -1.008 z" />
      <path aria-label="CVC" d="m 83.005366,328.5852 q -0.864,0 -1.521,-0.405 -0.648,-0.405 -1.017,-1.134 -0.36,-0.738 -0.36,-1.71 0,-0.972 0.36,-1.701 0.369,-0.729 1.017,-1.134 0.657,-0.405 1.521,-0.405 0.945,0 1.638,0.468 0.693,0.468 0.999,1.296 l -0.738,0.279 q -0.234,-0.612 -0.72,-0.945 -0.486,-0.342 -1.179,-0.342 -0.639,0 -1.116,0.306 -0.477,0.306 -0.738,0.864 -0.252,0.549 -0.252,1.314 0,0.765 0.252,1.323 0.261,0.558 0.738,0.864 0.477,0.306 1.116,0.306 0.693,0 1.179,-0.342 0.486,-0.342 0.72,-0.945 l 0.738,0.27 q -0.306,0.819 -0.999,1.296 -0.693,0.477 -1.638,0.477 z m 5.535012,-0.108 -2.502,-6.273 h 0.873 l 2.052,5.31 h -0.225 l 2.025,-5.31 h 0.873 l -2.484,6.273 z m 6.290998,0.108 q -0.864,0 -1.521,-0.405 -0.648,-0.405 -1.017,-1.134 -0.36,-0.738 -0.36,-1.71 0,-0.972 0.36,-1.701 0.369,-0.729 1.017,-1.134 0.657,-0.405 1.521,-0.405 0.945,0 1.638,0.468 0.693,0.468 0.999,1.296 l -0.738,0.279 q -0.234,-0.612 -0.72,-0.945 -0.486,-0.342 -1.179,-0.342 -0.639,0 -1.116,0.306 -0.477,0.306 -0.738,0.864 -0.252,0.549 -0.252,1.314 0,0.765 0.252,1.323 0.261,0.558 0.738,0.864 0.477,0.306 1.116,0.306 0.693,0 1.179,-0.342 0.486,-0.342 0.72,-0.945 l 0.738,0.27 q -0.306,0.819 -0.999,1.296 -0.693,0.477 -1.638,0.477 z" />
      <path aria-label="MIDIin" d="m 39.445499,363.71417 v -6.273 h 1.17 l 1.971,4.959 h -0.144 l 1.971,-4.959 h 1.161 v 6.273 h -0.792 v -5.355 l 0.063,0.009 -1.944,4.815 h -0.774 l -1.953,-4.815 0.063,-0.009 v 5.355 z m 7.551006,0 v -6.273 h 0.792 v 6.273 z m 2.214003,0 v -6.273 h 1.737 q 1.539,0 2.385,0.837 0.846,0.828 0.846,2.349 0,1.494 -0.837,2.295 -0.837,0.792 -2.403,0.792 z m 0.792,-0.729 h 0.864 q 0.801,0 1.359,-0.234 0.567,-0.243 0.855,-0.765 0.297,-0.531 0.297,-1.386 0,-0.855 -0.297,-1.386 -0.288,-0.54 -0.837,-0.792 -0.54,-0.252 -1.305,-0.252 h -0.936 z m 5.345993,0.729 v -6.273 h 0.792 v 6.273 z m 4.482004,0 v -4.437 h 0.756 v 4.437 z m -0.072,-5.238 v -1.035 h 0.9 v 1.035 z m 2.114999,5.238 v -4.437 h 0.765 v 0.945 l -0.18,0.063 q 0.126,-0.342 0.342,-0.576 0.216,-0.243 0.522,-0.369 0.306,-0.135 0.675,-0.135 0.729,0 1.143,0.432 0.414,0.423 0.414,1.26 v 2.817 h -0.765 v -2.538 q 0,-0.675 -0.252,-0.99 -0.243,-0.324 -0.747,-0.324 -0.369,0 -0.63,0.171 -0.252,0.171 -0.387,0.54 -0.135,0.36 -0.135,0.927 v 2.214 z" />
    </g>

    <path style="fill:#c0c0c0" d="m 48.2295,370.766 0.893,-1.766 1.087,0.291 -0.899,1.765 1.655,0.443 0.899,-1.765 1.082,0.29 -0.894,1.767 0.785,0.21 -0.291,1.087 -1.012,-0.271 -0.662,1.305 1.303,0.349 -0.291,1.086 -1.53,-0.409 -0.893,1.766 -1.087,-0.291 0.894,-1.766 -1.655,-0.444 -0.894,1.767 -1.087,-0.292 0.894,-1.766 -0.78,-0.209 0.291,-1.087 1.012,0.271 0.657,-1.306 -1.298,-0.348 0.291,-1.087 z m 2.219,1.759 -1.655,-0.443 -0.663,1.305 1.656,0.444 z" />
    <path style="fill:#c0c0c0" d="m 58.5935,376.104 -0.301,1.122 -2.354,-0.631 0.155,-0.579 q -0.823,0.476 -1.583,0.272 -0.91,-0.244 -1.311,-1.144 -0.4,-0.9 -0.119,-1.951 0.286,-1.067 1.095,-1.632 0.811,-0.57 1.696,-0.333 0.851,0.229 1.227,1.036 l 0.414,-1.545 -0.759,-0.204 0.3,-1.121 2.314,0.62 -1.574,5.876 z m -1.985,-1.95 q 0.187,-0.699 -0.035,-1.077 -0.217,-0.376 -0.6,-0.479 -0.457,-0.122 -0.805,0.167 -0.341,0.287 -0.496,0.865 -0.146,0.548 -10e-4,0.992 0.147,0.438 0.615,0.564 0.387,0.104 0.76,-0.12 0.379,-0.227 0.562,-0.912 z" />
    <g style="fill:#2d5d86;fill-opacity:0.35" >
      <rect width="105" height="12" x="0" y="29" />
      <rect width="105" height="12" x="0" y="271" />
      <rect width="105" height="12" x="0" y="90.7" />
      <rect width="105" height="12" x="0" y="151.5" />
      <rect width="105" height="12" x="0" y="212.4" />
    </g>
    <g style="fill:#d9d9d9">
      <path aria-label="PolyMidi" d="m 29.402344,2.8476563 -0.0059,-0.4453125 1.400391,0.087891 0.626953,-0.00586 h 0.228516 q 0.357422,0 1.11914,-0.041016 0.433594,-0.029297 0.544922,-0.029297 0.738281,0 1.113281,0.082031 0.574219,0.1171875 0.908204,0.375 0.339843,0.2578125 0.580078,0.7382812 0.246093,0.4746094 0.246093,0.8847656 0,1.0195313 -0.644531,1.6582031 -0.638672,0.6328125 -1.617187,0.6328125 -0.339844,0 -0.650391,-0.082031 -0.304687,-0.082031 -0.574219,-0.2460938 -0.0293,-0.1699218 -0.0293,-0.46875 0.140625,0.011719 0.251954,0.017578 0.117187,0.00586 0.205078,0.00586 0.498047,0 0.83789,-0.2753906 0.451172,-0.3574219 0.451172,-1.1601562 0,-0.5742188 -0.199219,-0.9375 -0.193359,-0.3691406 -0.46289,-0.4980469 -0.375,-0.1757812 -0.84375,-0.1757812 -0.439453,0 -0.626953,0.1289062 -0.04687,0.076172 -0.07031,0.1464844 L 32.232422,6 l -0.01172,0.234375 0.01758,0.2460937 q 0.0059,0.082031 0.0059,0.2402344 V 7.2011719 L 32.25,7.96875 32.238281,8.8828125 q 0,0.1933594 0.03516,0.5214844 l 1.166016,0.1464844 q 0.02344,0.140625 0.02344,0.2226562 0,0.087891 -0.0293,0.2460935 -0.146485,0.02344 -0.222657,0.02344 -0.18164,0 -0.685546,-0.04102 -0.503907,-0.046875 -1.148438,-0.046875 -0.726562,0 -1.382812,0.09375 -0.111329,0.01758 -0.351563,0.0293 -0.02344,-0.1699219 -0.02344,-0.2519531 0,-0.052734 0.01172,-0.1640625 l 0.357422,-0.1171875 q 0.369141,-0.1113281 0.638672,-0.2695313 0.05273,-0.1699218 0.05273,-0.3105468 0,-0.058594 -0.0059,-0.1347657 -0.0059,-0.1816406 -0.0059,-0.5097656 L 30.650391,6.6738281 30.585937,4.8164062 Q 30.544922,3.4921875 30.521484,3.3867188 30.480469,3.2167969 30.380859,3.1230469 30.28125,3.0234375 30.046875,2.9824219 29.560547,2.9003906 29.402344,2.8476563 Z m 11.935547,2.9238281 q 0.375,0.3632812 0.55664,0.8378906 0.1875,0.46875 0.1875,0.8847656 0,0.7851563 -0.240234,1.265625 -0.363281,0.7265625 -0.978516,1.0722657 -0.615234,0.3457027 -1.429687,0.3457027 -0.914063,0 -1.552735,-0.4101559 -0.632812,-0.4101562 -0.908203,-0.9316406 -0.269531,-0.5214844 -0.269531,-1.2949219 0,-0.3925781 0.128906,-0.7851562 0.128906,-0.3984375 0.351563,-0.6914063 0.228515,-0.2929687 0.498047,-0.4921875 0.392578,-0.28125 0.785156,-0.3984375 0.398437,-0.1230469 0.960937,-0.1230469 1.22461,0 1.910157,0.7207032 z m -3.205079,2.0273437 q 0.05273,0.7265625 0.07617,0.8378907 0.07617,0.3925781 0.240235,0.6738281 0.111328,0.1816406 0.36914,0.3222656 0.257813,0.140625 0.615235,0.140625 0.427734,0 0.720703,-0.2695312 0.292969,-0.2753907 0.421875,-0.8554688 0.08203,-0.3808594 0.08203,-1.2480469 0,-1.0664062 -0.351562,-1.5058594 -0.351563,-0.4453125 -0.925782,-0.4453125 -0.451172,0 -0.75,0.2519532 -0.292968,0.2519531 -0.410156,0.7441406 -0.07617,0.3164062 -0.08789,1.3535156 z m 4.423829,1.9863282 q 0.128906,-0.087891 0.339843,-0.1113282 0.404297,-0.046875 0.462891,-0.1230468 0.117187,-0.1523438 0.117187,-0.6210938 V 7.2773437 l -0.0059,-0.3925781 V 5.7011719 l -0.01758,-1.3535157 v -0.234375 q 0,-0.4804687 -0.07617,-0.7089843 Q 43.171875,3.28125 42.9375,3.28125 q -0.140625,0 -0.263672,-0.029297 -0.01758,-0.1464843 -0.01758,-0.2167968 0,-0.046875 0.01172,-0.1054688 0.46289,-0.052734 0.960937,-0.234375 0.498047,-0.1875 0.761719,-0.3808594 l 0.164062,-0.00586 q 0.05273,0 0.152344,0.00586 0.0293,2.0273438 0.0293,2.7773438 0,0.2226562 -0.0059,0.3574218 v 0.035156 l 0.0059,0.1113281 v 2.5957032 l 0.0059,0.8554687 V 9.1875 q 0,0.2519531 0.08203,0.3574219 0.07031,0.076172 0.298828,0.09375 0.123047,0.011719 0.486328,0.058594 0.0293,0.1230469 0.0293,0.1992188 0,0.058594 -0.01172,0.1640626 l -0.462891,-0.02344 q -0.386718,-0.0293 -0.972656,-0.0293 l -0.216797,-0.0059 q -0.333984,0 -0.966797,0.05274 h -0.427734 z m 3.111328,-4.4648438 q 0.205078,-0.035156 0.339843,-0.035156 0.07031,0 0.158204,0.00586 0.533203,0.035156 0.867187,0.035156 h 0.304688 l 0.832031,-0.046875 q 0.04687,0.035156 0.08203,0.076172 -0.01758,0.2578125 -0.0293,0.328125 -0.08789,0.017578 -0.134765,0.023437 -0.134766,0.017578 -0.199219,0.035156 -0.06445,0.011719 -0.140625,0.023437 -0.08789,0.023437 -0.09961,0.082031 0.03516,0.140625 0.07031,0.234375 L 48,6.65625 q 0.333984,0.8203125 0.685547,1.5117188 l 0.328125,0.6738281 q 0.03516,-0.070312 0.451172,-1.1542969 0.498047,-1.2832031 0.539062,-1.4472656 0.02344,-0.087891 0.02344,-0.1523438 0,-0.058594 -0.03516,-0.1933594 -0.128906,-0.09375 -0.210937,-0.1171875 -0.08203,-0.029297 -0.380859,-0.064453 l -0.1875,-0.046875 -0.01758,-0.082031 q -0.0059,-0.058594 -0.0059,-0.087891 0,-0.046875 0.01758,-0.1523437 0.175781,-0.011719 0.251953,-0.011719 l 0.47461,0.029297 0.316406,0.011719 q 0.199219,0 0.691406,-0.058594 0.304688,-0.035156 0.457031,-0.041016 0.01172,0.1464844 0.01172,0.2226562 0,0.035156 -0.0059,0.1054688 -0.105469,0.052734 -0.234375,0.082031 -0.210938,0.052734 -0.369141,0.099609 -0.08789,0.070312 -0.117187,0.1171875 -0.09961,0.2226563 -0.404297,0.9726563 l -0.421875,1.1308594 -0.978516,2.3320317 -0.673828,1.546875 q -0.222656,0.445312 -0.521484,0.767578 -0.111328,0.123047 -0.257813,0.1875 -0.240234,0.09375 -0.544922,0.09375 -0.0293,0 -0.322265,-0.04102 -0.240235,-0.05859 -0.416016,-0.251953 -0.123047,-0.140625 -0.123047,-0.298828 0,-0.322266 0.275391,-0.597656 0.246094,-0.152344 0.363281,-0.152344 0.263672,0 0.615234,0.27539 Q 47.4375,12 47.537109,12 q 0.09961,0 0.158203,-0.111328 0.509766,-0.990234 0.65625,-1.40625 L 47.267578,8.0976563 Q 46.658203,6.6621094 46.335937,6.0878906 46.171875,5.7949219 46.101562,5.7421875 q -0.06445,-0.052734 -0.205078,-0.09375 -0.07617,-0.017578 -0.175781,-0.070312 -0.0293,-0.1347656 -0.05273,-0.2578125 z m 5.953125,4.7167965 0.01758,-0.3984371 q 0.732422,-0.09375 0.93164,-0.2988281 0.128907,-0.140625 0.199219,-0.7324219 l 0.07617,-2.0859375 0.08789,-2.1210938 q 0.01172,-0.1933594 0.01172,-0.234375 0,-0.8261718 -0.09961,-0.9550781 -0.09375,-0.1289062 -0.75,-0.2519531 -0.164062,-0.035156 -0.257812,-0.058594 -0.01172,-0.1464843 -0.01172,-0.2460937 V 2.4726563 q 0.216797,-0.017578 0.509765,-0.017578 l 1.716797,0.058594 q 0.05859,0.00586 0.164063,0.011719 l 0.269531,0.011719 q 0.09961,0.1171875 0.199219,0.3105469 0.216797,0.4277343 0.574219,1.2539062 l 0.06445,0.1582031 0.914062,1.9863281 q 0.0293,0.070312 0.09375,0.2050782 0.08789,0.2109375 0.181641,0.4042968 0.09375,0.1875 0.193359,0.4160157 Q 56.8125,7.5 56.90625,7.6757812 56.988281,7.5351562 57.064453,7.3652344 57.298828,6.8261719 57.521484,6.375 q 0.386719,-0.796875 1.048828,-2.4375 0.105469,-0.2636719 0.345704,-0.7910156 0.246093,-0.5332031 0.269531,-0.5625 0.05273,-0.046875 0.210937,-0.046875 0.05859,0 0.181641,-0.00586 0.304687,-0.017578 0.732422,-0.029297 0.615234,-0.00586 0.984375,-0.035156 0.375,-0.035156 0.421875,-0.035156 0.05859,0 0.140625,0.011719 0.0059,0.082031 0.0059,0.1289062 l -0.01172,0.1757813 q 0,0.052734 -0.0059,0.1582031 -0.550781,0.082031 -0.896484,0.2460938 -0.240235,0.1171875 -0.240235,0.2929687 v 0.087891 l 0.09961,1.7929688 q 0.01758,0.2460937 0.09375,2.4433593 0.01758,0.4921876 0.07617,1.2480469 0.01172,0.09375 0.01172,0.1464844 0.0059,0.140625 0.05859,0.1816406 0.05859,0.041016 1.054688,0.3398438 0.0059,0.09375 0.0059,0.140625 0,0.1230469 -0.0059,0.2460941 -0.158204,0 -0.796875,-0.06445 Q 60.667969,9.9375 60.111328,9.9375 q -0.849609,0 -1.652344,0.070313 -0.105468,0.01172 -0.205078,0.01758 l 0.01172,-0.4042972 q 0.240234,-0.09375 0.638672,-0.1582032 0.28125,-0.046875 0.357422,-0.1582031 0.07617,-0.1113281 0.07617,-0.6210937 0,-0.1933594 -0.0059,-0.3398438 -0.0293,-0.6152344 -0.03516,-1.7109375 L 59.197266,4.5644531 Q 59.179687,4.125 59.15625,3.9550781 l -1.458984,3.3515625 q -0.05273,0.1171875 -0.158204,0.3398438 -0.134765,0.2871093 -0.18164,0.3925781 -0.451172,1.0839844 -0.626953,1.6582031 -0.04687,0.1464844 -0.140625,0.3808594 l -0.451172,-0.0059 -0.316406,-0.8964847 Q 55.681641,8.8242188 55.341797,8.109375 55.142578,7.6933594 55.03125,7.4355469 54.978516,7.3300781 54.955078,7.2773437 l -0.07031,-0.1464843 q -0.0059,-0.035156 -0.01758,-0.058594 l -0.873046,-1.8808594 -0.533204,-1.1425781 -0.04687,2.7714844 -0.04102,1.7988281 q 0,0.4453125 0.164062,0.6386719 0.169922,0.1875 0.720703,0.3222656 l 0.28125,0.070312 v 0.4277344 q -0.339843,-0.0059 -0.732421,-0.04687 -0.386719,-0.046875 -1.03125,-0.046875 -0.134766,0 -1.154297,0.052734 z M 63.386719,3.0527344 q 0,-0.3164063 0.205078,-0.515625 0.205078,-0.2050781 0.527344,-0.2050781 0.345703,0 0.574218,0.2167968 0.228516,0.2109375 0.228516,0.4804688 0,0.1992187 -0.09375,0.3984375 -0.08789,0.1992187 -0.287109,0.3222656 -0.19336,0.1171875 -0.398438,0.1171875 -0.28125,0 -0.521484,-0.2402344 -0.234375,-0.2402343 -0.234375,-0.5742187 z m -0.820313,6.9902346 -0.01172,-0.3808596 0.66211,-0.087891 q 0.146484,-0.041016 0.199219,-0.1171875 0.05859,-0.082031 0.05859,-0.3574219 v -0.064453 q 0,-0.070312 0.0059,-0.2519532 0.01172,-0.1875 0.01172,-0.328125 0,-0.1113281 -0.01758,-0.4277343 l 0.0059,-0.2929688 -0.0059,-0.2753906 0.01172,-0.9550782 q 0,-0.1816406 -0.03516,-0.375 -0.06445,-0.087891 -0.234375,-0.1523437 -0.169922,-0.064453 -0.591797,-0.09375 v -0.328125 q 0.603516,-0.035156 1.060547,-0.2519531 0.310547,-0.140625 0.673828,-0.4980469 h 0.392578 q 0.02344,0.7265625 0.02344,1.8867187 l -0.04102,2.3906251 q 0,0.2460937 0.02344,0.4453125 0.181641,0.064453 0.591797,0.1289062 0.158203,0.023437 0.251953,0.058594 l -0.0059,0.3222652 q -0.158203,0.0059 -0.234375,0.0059 -0.08789,0 -0.269531,-0.01172 -0.597656,-0.0293 -1.59961,-0.0293 -0.287109,0 -0.55664,0.02344 -0.269531,0.01758 -0.369141,0.01758 z m 4.734375,-4.4941409 q 0.28711,-0.1992187 0.550781,-0.2871094 0.269532,-0.087891 0.75586,-0.1347656 h 0.328125 q 0.638672,0 1.224609,0.4394531 l 0.01172,-0.140625 -0.0059,-0.3925781 0.02344,-0.6269531 q 0,-0.9902344 -0.152344,-1.2539062 Q 69.949219,2.9941406 69.726562,2.9824219 69.509766,2.9707031 69.375,2.90625 V 2.625 q 0.111328,-0.035156 0.287109,-0.035156 0.175782,-0.00586 0.685547,-0.1230469 l 0.199219,-0.041016 0.580078,-0.1347657 Q 71.302734,2.25 71.34375,2.25 q 0.0293,0 0.09375,0.011719 0.03516,0.1230468 0.03516,0.1816406 l -0.0059,0.087891 v 0.1054688 q 0,0.1640625 0.01758,0.8730468 v 0.3164063 l 0.0059,0.1699219 -0.0059,0.2929687 0.01758,0.609375 -0.01172,0.3574219 q -0.01172,0.234375 -0.01172,0.7382812 0,0.082031 0.0059,0.1464844 v 0.2167969 q -0.0059,0.09375 -0.0059,0.140625 0,0.087891 0.01758,0.2519531 v 0.3222656 l -0.0059,0.1230469 q -0.01172,0.1699219 -0.01172,0.46875 0,0.3046875 0.01172,0.5507813 0.0059,0.099609 0.0059,0.1816406 v 0.4394531 q 0,0.2109375 0.01172,0.5039063 0.105469,0.064453 0.515625,0.09375 0.128907,0.00586 0.228516,0.029297 0.0293,0.087891 0.0293,0.1289063 0,0.052734 -0.04102,0.1582031 Q 72,9.8085938 71.736328,9.8378906 70.933594,9.9375 70.59375,10.119141 q -0.164063,0.09375 -0.228516,0.09375 -0.06445,0 -0.146484,-0.01172 0.0059,-0.105469 0.0059,-0.134766 0,-0.3984372 -0.01758,-0.5097654 -0.08789,0.046875 -0.216797,0.1230469 -0.392578,0.234375 -0.714843,0.3281255 -0.322266,0.08789 -0.738282,0.08789 -0.738281,0 -1.177734,-0.2812499 -0.650391,-0.4101562 -0.902344,-0.984375 -0.246094,-0.5742187 -0.246094,-1.2597656 0,-1.1835938 1.089844,-2.0214844 z m 1.804688,3.8789063 q 0.123047,0.011719 0.210937,0.011719 0.19336,0 0.410156,-0.082031 0.222657,-0.082031 0.46875,-0.2402344 0.0059,-0.1933594 0.0059,-0.2402344 0,-1.8574219 -0.05273,-2.2382812 Q 70.078125,6.1289062 69.761719,5.8535156 69.445312,5.578125 68.994141,5.578125 q -0.257813,0 -0.492188,0.09375 -0.228516,0.09375 -0.375,0.2695312 -0.216797,0.2578125 -0.328125,0.5859375 -0.152344,0.4570313 -0.152344,0.8554688 0,0.9550781 0.404297,1.4648438 0.404297,0.5039062 1.054688,0.5800781 z m 4.283203,-6.375 q 0,-0.3164063 0.205078,-0.515625 0.205078,-0.2050781 0.527344,-0.2050781 0.345703,0 0.574218,0.2167968 0.228516,0.2109375 0.228516,0.4804688 0,0.1992187 -0.09375,0.3984375 -0.08789,0.1992187 -0.287109,0.3222656 -0.19336,0.1171875 -0.398438,0.1171875 -0.28125,0 -0.521484,-0.2402344 -0.234375,-0.2402343 -0.234375,-0.5742187 z m -0.820313,6.9902346 -0.01172,-0.3808596 0.662109,-0.087891 q 0.146484,-0.041016 0.199219,-0.1171875 0.05859,-0.082031 0.05859,-0.3574219 v -0.064453 q 0,-0.070312 0.0059,-0.2519532 0.01172,-0.1875 0.01172,-0.328125 0,-0.1113281 -0.01758,-0.4277343 l 0.0059,-0.2929688 -0.0059,-0.2753906 0.01172,-0.9550782 q 0,-0.1816406 -0.03516,-0.375 -0.06445,-0.087891 -0.234375,-0.1523437 -0.169922,-0.064453 -0.591797,-0.09375 v -0.328125 q 0.603516,-0.035156 1.060547,-0.2519531 0.310547,-0.140625 0.673828,-0.4980469 h 0.392578 q 0.02344,0.7265625 0.02344,1.8867187 l -0.04102,2.3906251 q 0,0.2460937 0.02344,0.4453125 0.18164,0.064453 0.591796,0.1289062 0.158204,0.023437 0.251954,0.058594 l -0.0059,0.3222652 q -0.158203,0.0059 -0.234375,0.0059 -0.08789,0 -0.269531,-0.01172 -0.597656,-0.0293 -1.599609,-0.0293 -0.28711,0 -0.556641,0.02344 -0.269531,0.01758 -0.369141,0.01758 z" />
      <path aria-label="Routing" d="m 37.586094,279.39899 v -6.273 h 2.007 q 0.747,0 1.215,0.225 0.468,0.216 0.684,0.621 0.225,0.405 0.225,0.954 0,0.837 -0.486,1.305 -0.477,0.459 -1.368,0.531 -0.18,0 -0.387,0 -0.207,0 -0.369,0 h -0.477 v 2.637 z m 3.438,0 -1.593,-2.754 1.071,-0.126 1.728,2.88 z m -2.394,-3.555 h 0.855 q 0.342,0 0.603,-0.081 0.27,-0.081 0.423,-0.279 0.162,-0.198 0.162,-0.549 0,-0.351 -0.162,-0.54 -0.153,-0.189 -0.423,-0.261 -0.27,-0.081 -0.603,-0.081 h -0.855 z m 6.166811,3.636 q -0.63,0 -1.134,-0.297 -0.504,-0.297 -0.792,-0.819 -0.279,-0.522 -0.279,-1.188 0,-0.666 0.279,-1.188 0.288,-0.522 0.783,-0.81 0.504,-0.297 1.143,-0.297 0.648,0 1.134,0.297 0.495,0.288 0.783,0.81 0.288,0.522 0.288,1.188 0,0.666 -0.288,1.188 -0.279,0.522 -0.783,0.819 -0.495,0.297 -1.134,0.297 z m 0.009,-0.882 q 0.369,0 0.639,-0.171 0.27,-0.171 0.414,-0.495 0.144,-0.324 0.144,-0.756 0,-0.441 -0.144,-0.756 -0.144,-0.324 -0.414,-0.495 -0.27,-0.171 -0.639,-0.171 -0.387,0 -0.657,0.18 -0.27,0.171 -0.414,0.486 -0.144,0.315 -0.144,0.756 0,0.432 0.144,0.756 0.144,0.324 0.414,0.495 0.27,0.171 0.657,0.171 z m 4.697995,0.882 q -0.522,0 -0.882,-0.207 -0.351,-0.207 -0.531,-0.594 -0.18,-0.387 -0.18,-0.936 v -2.781 h 0.999 v 2.511 q 0,0.351 0.081,0.612 0.09,0.252 0.279,0.387 0.198,0.135 0.531,0.135 0.387,0 0.603,-0.198 0.225,-0.207 0.315,-0.594 0.099,-0.396 0.099,-0.945 v -1.908 h 0.999 v 4.437 h -0.999 v -0.954 l 0.171,0.063 q -0.207,0.504 -0.603,0.738 -0.387,0.234 -0.882,0.234 z m 5.103,0 q -0.333,0 -0.63,-0.126 -0.288,-0.135 -0.459,-0.423 -0.171,-0.297 -0.171,-0.774 v -4.275 l 1.008,-0.558 v 4.554 q 0,0.378 0.108,0.585 0.117,0.198 0.414,0.198 0.09,0 0.207,-0.018 0.126,-0.027 0.261,-0.063 v 0.774 q -0.18,0.063 -0.369,0.09 -0.18,0.036 -0.369,0.036 z m -2.106,-3.744 v -0.774 h 2.844 v 0.774 z m 3.726006,3.663 v -4.437 h 0.999 v 4.437 z m -0.045,-5.166 v -1.107 h 1.089 v 1.107 z m 2.205002,5.166 v -4.437 h 0.999 v 0.981 l -0.18,0.045 q 0.117,-0.387 0.342,-0.63 0.225,-0.243 0.522,-0.36 0.306,-0.117 0.639,-0.117 0.747,0 1.161,0.432 0.423,0.423 0.423,1.215 v 2.871 h -0.999 v -2.502 q 0,-0.594 -0.216,-0.873 -0.216,-0.279 -0.666,-0.279 -0.333,0 -0.567,0.162 -0.225,0.153 -0.342,0.486 -0.117,0.333 -0.117,0.846 v 2.16 z m 6.876001,1.926 q -0.981,0 -1.548,-0.36 -0.567,-0.351 -0.567,-0.963 0,-0.054 0,-0.126 0.009,-0.072 0.027,-0.144 l 1.206,-0.783 0.27,0.261 -0.585,0.729 q -0.009,0.027 -0.009,0.045 0,0.027 0,0.054 0,0.279 0.333,0.423 0.342,0.153 0.873,0.153 0.45,0 0.72,-0.126 0.27,-0.117 0.27,-0.36 0,-0.135 -0.081,-0.225 -0.081,-0.081 -0.243,-0.135 -0.162,-0.054 -0.405,-0.099 -0.234,-0.036 -0.558,-0.072 -0.405,-0.063 -0.801,-0.18 -0.387,-0.117 -0.648,-0.351 -0.252,-0.234 -0.252,-0.621 0,-0.342 0.234,-0.621 0.234,-0.288 0.621,-0.468 l 0.513,0.396 q -0.252,0.054 -0.378,0.189 -0.126,0.126 -0.126,0.306 0,0.153 0.117,0.252 0.117,0.09 0.333,0.144 0.225,0.045 0.531,0.09 0.459,0.054 0.846,0.126 0.387,0.072 0.675,0.207 0.288,0.126 0.441,0.351 0.162,0.225 0.162,0.585 0,0.639 -0.522,0.981 -0.513,0.342 -1.449,0.342 z m -0.099,-3.213 q -0.54,0 -0.954,-0.207 -0.414,-0.207 -0.648,-0.567 -0.225,-0.369 -0.225,-0.828 0,-0.495 0.243,-0.855 0.243,-0.369 0.648,-0.567 0.414,-0.207 0.9,-0.207 0.486,0 0.891,0.207 0.405,0.198 0.648,0.576 0.252,0.369 0.252,0.882 0,0.468 -0.225,0.828 -0.216,0.351 -0.612,0.549 -0.396,0.189 -0.918,0.189 z m -0.018,-0.801 q 0.387,0 0.585,-0.234 0.198,-0.243 0.198,-0.576 0,-0.36 -0.216,-0.576 -0.216,-0.225 -0.567,-0.225 -0.369,0 -0.594,0.225 -0.216,0.216 -0.216,0.567 0,0.342 0.207,0.585 0.207,0.234 0.603,0.234 z m 1.485,-1.449 -0.729,-0.468 0.999,-0.81 0.513,0.621 z" />
      <path aria-label="Polyphony" d="m 31.770299,37.999718 v -6.273 h 2.007 q 1.044,0 1.584,0.45 0.54,0.45 0.54,1.35 0,0.9 -0.549,1.377 -0.54,0.468 -1.575,0.468 h -0.972 v 2.628 z m 1.035,-3.555 h 0.864 q 0.558,0 0.873,-0.207 0.315,-0.207 0.315,-0.693 0,-0.477 -0.306,-0.684 -0.297,-0.207 -0.882,-0.207 h -0.864 z m 5.691589,3.636 q -0.63,0 -1.134,-0.297 -0.504,-0.297 -0.792,-0.819 -0.279,-0.522 -0.279,-1.188 0,-0.666 0.279,-1.188 0.288,-0.522 0.783,-0.81 0.504,-0.297 1.143,-0.297 0.648,0 1.134,0.297 0.495,0.288 0.783,0.81 0.288,0.522 0.288,1.188 0,0.666 -0.288,1.188 -0.279,0.522 -0.783,0.819 -0.495,0.297 -1.134,0.297 z m 0.009,-0.882 q 0.369,0 0.639,-0.171 0.27,-0.171 0.414,-0.495 0.144,-0.324 0.144,-0.756 0,-0.441 -0.144,-0.756 -0.144,-0.324 -0.414,-0.495 -0.27,-0.171 -0.639,-0.171 -0.387,0 -0.657,0.18 -0.27,0.171 -0.414,0.486 -0.144,0.315 -0.144,0.756 0,0.432 0.144,0.756 0.144,0.324 0.414,0.495 0.27,0.171 0.657,0.171 z m 4.139995,0.882 q -0.432,0 -0.72,-0.261 -0.288,-0.27 -0.288,-0.855 v -5.238 h 0.999 v 5.04 q 0,0.207 0.09,0.306 0.099,0.09 0.252,0.09 0.081,0 0.162,-0.018 0.09,-0.018 0.18,-0.045 v 0.846 q -0.171,0.072 -0.351,0.099 -0.18,0.036 -0.324,0.036 z m 1.863006,1.746 0.882,-2.124 -1.692,-4.14 h 1.098 l 1.125,3.141 1.143,-3.141 h 1.08 l -2.556,6.264 z m 4.383006,0.009 v -6.273 h 0.99 v 1.233 l -0.252,0.009 q 0.117,-0.486 0.342,-0.774 0.234,-0.288 0.549,-0.414 0.324,-0.135 0.684,-0.135 0.594,0 1.026,0.306 0.432,0.297 0.666,0.819 0.243,0.522 0.243,1.179 0,0.711 -0.261,1.233 -0.261,0.513 -0.702,0.792 -0.432,0.27 -0.972,0.27 -0.378,0 -0.702,-0.144 -0.315,-0.144 -0.54,-0.432 -0.216,-0.288 -0.306,-0.702 l 0.225,-0.045 v 3.078 z m 2.07,-2.664 q 0.351,0 0.612,-0.171 0.27,-0.171 0.414,-0.486 0.144,-0.315 0.144,-0.729 0,-0.414 -0.144,-0.729 -0.144,-0.315 -0.414,-0.486 -0.261,-0.171 -0.612,-0.171 -0.351,0 -0.621,0.171 -0.261,0.171 -0.405,0.486 -0.144,0.315 -0.144,0.729 0,0.414 0.144,0.729 0.144,0.306 0.405,0.486 0.27,0.171 0.621,0.171 z m 3.141005,0.828 v -6.273 h 0.999 v 2.817 l -0.18,0.045 q 0.117,-0.387 0.342,-0.63 0.234,-0.243 0.531,-0.36 0.297,-0.117 0.63,-0.117 0.747,0 1.161,0.432 0.423,0.423 0.423,1.215 v 2.871 h -0.999 v -2.502 q 0,-0.594 -0.216,-0.873 -0.216,-0.279 -0.666,-0.279 -0.504,0 -0.765,0.36 -0.261,0.36 -0.261,1.134 v 2.16 z m 7.029,0.081 q -0.63,0 -1.134,-0.297 -0.504,-0.297 -0.792,-0.819 -0.279,-0.522 -0.279,-1.188 0,-0.666 0.279,-1.188 0.288,-0.522 0.783,-0.81 0.504,-0.297 1.143,-0.297 0.648,0 1.134,0.297 0.495,0.288 0.783,0.81 0.288,0.522 0.288,1.188 0,0.666 -0.288,1.188 -0.279,0.522 -0.783,0.819 -0.495,0.297 -1.134,0.297 z m 0.009,-0.882 q 0.369,0 0.639,-0.171 0.27,-0.171 0.414,-0.495 0.144,-0.324 0.144,-0.756 0,-0.441 -0.144,-0.756 -0.144,-0.324 -0.414,-0.495 -0.27,-0.171 -0.639,-0.171 -0.387,0 -0.657,0.18 -0.27,0.171 -0.414,0.486 -0.144,0.315 -0.144,0.756 0,0.432 0.144,0.756 0.144,0.324 0.414,0.495 0.27,0.171 0.657,0.171 z m 3.158994,0.801 v -4.437 h 0.999 v 0.981 l -0.18,0.045 q 0.117,-0.387 0.342,-0.63 0.225,-0.243 0.522,-0.36 0.306,-0.117 0.639,-0.117 0.747,0 1.161,0.432 0.423,0.423 0.423,1.215 v 2.871 h -0.999 v -2.502 q 0,-0.594 -0.216,-0.873 -0.216,-0.279 -0.666,-0.279 -0.333,0 -0.567,0.162 -0.225,0.153 -0.342,0.486 -0.117,0.333 -0.117,0.846 v 2.16 z m 5.293803,1.827 0.882,-2.124 -1.692,-4.14 h 1.098 l 1.125,3.141 1.143,-3.141 h 1.08 l -2.556,6.264 z" />
      <path aria-label="Priority" d="m 14.003127,160.47525 v -6.273 h 2.007 q 1.044,0 1.584,0.45 0.54,0.45 0.54,1.35 0,0.9 -0.549,1.377 -0.54,0.468 -1.575,0.468 h -0.972 v 2.628 z m 1.035,-3.555 h 0.864 q 0.558,0 0.873,-0.207 0.315,-0.207 0.315,-0.693 0,-0.477 -0.306,-0.684 -0.297,-0.207 -0.882,-0.207 h -0.864 z m 3.942,3.555 v -4.437 h 1.008 v 1.197 l -0.189,0.027 q 0.045,-0.387 0.261,-0.675 0.216,-0.297 0.522,-0.459 0.315,-0.171 0.621,-0.171 0.216,0 0.414,0.054 0.198,0.054 0.414,0.18 l -0.486,0.9 q -0.099,-0.063 -0.261,-0.099 -0.153,-0.045 -0.297,-0.045 -0.189,0 -0.378,0.072 -0.18,0.072 -0.324,0.225 -0.144,0.144 -0.216,0.378 -0.045,0.126 -0.072,0.333 -0.018,0.198 -0.018,0.558 v 1.962 z m 3.771001,0 v -4.437 h 0.999 v 4.437 z m -0.045,-5.166 v -1.107 h 1.089 v 1.107 z m 4.203003,5.247 q -0.63,0 -1.134,-0.297 -0.504,-0.297 -0.792,-0.819 -0.279,-0.522 -0.279,-1.188 0,-0.666 0.279,-1.188 0.288,-0.522 0.783,-0.81 0.504,-0.297 1.143,-0.297 0.648,0 1.134,0.297 0.495,0.288 0.783,0.81 0.288,0.522 0.288,1.188 0,0.666 -0.288,1.188 -0.279,0.522 -0.783,0.819 -0.495,0.297 -1.134,0.297 z m 0.009,-0.882 q 0.369,0 0.639,-0.171 0.27,-0.171 0.414,-0.495 0.144,-0.324 0.144,-0.756 0,-0.441 -0.144,-0.756 -0.144,-0.324 -0.414,-0.495 -0.27,-0.171 -0.639,-0.171 -0.387,0 -0.657,0.18 -0.27,0.171 -0.414,0.486 -0.144,0.315 -0.144,0.756 0,0.432 0.144,0.756 0.144,0.324 0.414,0.495 0.27,0.171 0.657,0.171 z m 3.158995,0.801 v -4.437 h 1.008 v 1.197 l -0.189,0.027 q 0.045,-0.387 0.261,-0.675 0.216,-0.297 0.522,-0.459 0.315,-0.171 0.621,-0.171 0.216,0 0.414,0.054 0.198,0.054 0.414,0.18 l -0.486,0.9 q -0.099,-0.063 -0.261,-0.099 -0.153,-0.045 -0.297,-0.045 -0.189,0 -0.378,0.072 -0.18,0.072 -0.324,0.225 -0.144,0.144 -0.216,0.378 -0.045,0.126 -0.072,0.333 -0.018,0.198 -0.018,0.558 v 1.962 z m 3.771,0 v -4.437 h 0.999 v 4.437 z m -0.045,-5.166 v -1.107 h 1.089 v 1.107 z m 3.816003,5.247 q -0.333,0 -0.63,-0.126 -0.288,-0.135 -0.459,-0.423 -0.171,-0.297 -0.171,-0.774 v -4.275 l 1.008,-0.558 v 4.554 q 0,0.378 0.108,0.585 0.117,0.198 0.414,0.198 0.09,0 0.207,-0.018 0.126,-0.027 0.261,-0.063 v 0.774 q -0.18,0.063 -0.369,0.09 -0.18,0.036 -0.369,0.036 z m -2.106,-3.744 v -0.774 h 2.844 v 0.774 z m 4.122006,5.49 0.882,-2.124 -1.692,-4.14 h 1.098 l 1.125,3.141 1.143,-3.141 h 1.08 l -2.556,6.264 z" />
      <path aria-label="X" d="m 73.49336,99.863998 2.106,-3.132 -2.088,-3.141 h 1.242 l 1.575,2.412 1.566,-2.412 h 1.242 l -2.097,3.141 2.115,3.132 h -1.242 l -1.593,-2.385 -1.584,2.385 z" />
      <path aria-label="MPE" d="m 17.892678,99.863998 v -6.273 h 1.53 l 1.755,4.689 h -0.189 l 1.764,-4.689 h 1.521 v 6.273 h -1.044 v -5.058 l 0.09,0.018 -1.728,4.491 h -1.017 l -1.737,-4.491 0.099,-0.018 v 5.058 z m 7.658999,0 v -6.273 h 2.007 q 1.044,0 1.584,0.45 0.54,0.45 0.54,1.35 0,0.9 -0.549,1.377 -0.54,0.468 -1.575,0.468 h -0.972 v 2.628 z m 1.035,-3.555 h 0.864 q 0.558,0 0.873,-0.207 0.315,-0.207 0.315,-0.693 0,-0.477 -0.306,-0.684 -0.297,-0.207 -0.882,-0.207 h -0.864 z m 3.996,3.555 v -6.273 h 4.167 v 0.927 h -3.123 v 1.665 h 2.88 v 0.936 h -2.88 v 1.818 h 3.123 v 0.927 z" />
      <path aria-label="Y" d="m 75.525746,160.42491 v -2.439 l -2.214,-3.834 h 1.188 l 1.521,2.79 1.548,-2.79 h 1.179 l -2.178,3.834 v 2.439 z" />
      <path aria-label="Z" d="m 74.493975,221.96475 v -0.864 l 3.420087,-4.482 h -3.204087 v -0.927 h 4.518 v 0.864 l -3.435006,4.48331 3.543006,-0.001 v 0.927 z" />
      <path aria-label="Velocity" d="m 13.338925,221.10496 -2.52,-6.273 h 1.152 l 1.917,5.004 h -0.315 l 1.89,-5.004 h 1.152 l -2.502,6.273 z m 5.281198,0.081 q -0.558,0 -0.972,-0.18 -0.405,-0.18 -0.666,-0.504 -0.261,-0.324 -0.387,-0.729 -0.126,-0.414 -0.126,-0.855 0,-0.441 0.117,-0.855 0.126,-0.423 0.378,-0.756 0.252,-0.333 0.648,-0.522 0.396,-0.198 0.936,-0.198 0.513,0 0.891,0.18 0.387,0.171 0.639,0.486 0.252,0.306 0.369,0.702 0.126,0.396 0.126,0.846 0,0.063 -0.009,0.18 0,0.117 -0.018,0.234 h -3.078 q 0.036,0.531 0.36,0.81 0.324,0.279 0.828,0.279 0.369,0 0.675,-0.117 0.306,-0.117 0.558,-0.369 l 0.549,0.666 q -0.279,0.252 -0.558,0.405 -0.279,0.153 -0.585,0.225 -0.297,0.072 -0.675,0.072 z m 0.972,-2.475 q 0.018,-0.072 0.018,-0.144 0.009,-0.072 0.009,-0.144 0,-0.198 -0.072,-0.378 -0.063,-0.18 -0.198,-0.315 -0.135,-0.144 -0.333,-0.225 -0.198,-0.09 -0.45,-0.09 -0.351,0 -0.594,0.153 -0.234,0.153 -0.369,0.396 -0.126,0.234 -0.153,0.513 h 2.466 z m 2.934004,2.475 q -0.432,0 -0.72,-0.261 -0.288,-0.27 -0.288,-0.855 v -5.238 h 0.999 v 5.04 q 0,0.207 0.09,0.306 0.099,0.09 0.252,0.09 0.081,0 0.162,-0.018 0.09,-0.018 0.18,-0.045 v 0.846 q -0.171,0.072 -0.351,0.099 -0.18,0.036 -0.324,0.036 z m 3.474006,0 q -0.63,0 -1.134,-0.297 -0.504,-0.297 -0.792,-0.819 -0.279,-0.522 -0.279,-1.188 0,-0.666 0.279,-1.188 0.288,-0.522 0.783,-0.81 0.504,-0.297 1.143,-0.297 0.648,0 1.134,0.297 0.495,0.288 0.783,0.81 0.288,0.522 0.288,1.188 0,0.666 -0.288,1.188 -0.279,0.522 -0.783,0.819 -0.495,0.297 -1.134,0.297 z m 0.009,-0.882 q 0.369,0 0.639,-0.171 0.27,-0.171 0.414,-0.495 0.144,-0.324 0.144,-0.756 0,-0.441 -0.144,-0.756 -0.144,-0.324 -0.414,-0.495 -0.27,-0.171 -0.639,-0.171 -0.387,0 -0.657,0.18 -0.27,0.171 -0.414,0.486 -0.144,0.315 -0.144,0.756 0,0.432 0.144,0.756 0.144,0.324 0.414,0.495 0.27,0.171 0.657,0.171 z m 5.075995,0.882 q -0.522,0 -0.927,-0.18 -0.396,-0.189 -0.666,-0.513 -0.261,-0.333 -0.396,-0.747 -0.135,-0.414 -0.135,-0.864 0,-0.45 0.135,-0.864 0.135,-0.414 0.396,-0.738 0.27,-0.324 0.666,-0.504 0.405,-0.189 0.927,-0.189 0.657,0 1.143,0.315 0.495,0.315 0.729,0.972 l -0.882,0.342 q -0.108,-0.342 -0.351,-0.549 -0.243,-0.216 -0.639,-0.216 -0.396,0 -0.648,0.207 -0.243,0.207 -0.36,0.531 -0.117,0.324 -0.117,0.693 0,0.369 0.117,0.702 0.117,0.324 0.36,0.531 0.252,0.198 0.648,0.198 0.396,0 0.639,-0.207 0.243,-0.207 0.351,-0.549 l 0.882,0.342 q -0.234,0.648 -0.729,0.972 -0.486,0.315 -1.143,0.315 z m 2.763002,-0.081 v -4.437 h 0.999 v 4.437 z m -0.045,-5.166 v -1.107 h 1.089 v 1.107 z m 3.816,5.247 q -0.333,0 -0.63,-0.126 -0.288,-0.135 -0.459,-0.423 -0.171,-0.297 -0.171,-0.774 v -4.275 l 1.008,-0.558 v 4.554 q 0,0.378 0.108,0.585 0.117,0.198 0.414,0.198 0.09,0 0.207,-0.018 0.126,-0.027 0.261,-0.063 v 0.774 q -0.18,0.063 -0.369,0.09 -0.18,0.036 -0.369,0.036 z m -2.106,-3.744 v -0.774 h 2.844 v 0.774 z m 4.12201,5.49 0.882,-2.124 -1.692,-4.14 h 1.098 l 1.125,3.141 1.143,-3.141 h 1.08 l -2.556,6.264 z" />
    </g>
    <g style="fill:#c0c0c0">
      <path aria-label="Expand" d="m 64.686851,55.738483 v -6.273 h 4.131 v 0.711 h -3.339 v 2.007 h 3.033 v 0.711 h -3.033 v 2.133 h 3.339 v 0.711 z m 4.796992,0 1.593,-2.232 -1.593,-2.205 h 0.936 l 1.161,1.683 1.179,-1.683 h 0.918 l -1.602,2.205 1.602,2.232 h -0.936 l -1.161,-1.701 -1.179,1.701 z m 5.085004,1.836 v -6.273 h 0.756 v 1.323 l -0.243,-0.171 q 0.117,-0.387 0.342,-0.657 0.234,-0.279 0.567,-0.423 0.333,-0.144 0.756,-0.144 0.603,0 1.053,0.306 0.459,0.297 0.711,0.819 0.252,0.513 0.252,1.17 0,0.693 -0.27,1.215 -0.27,0.513 -0.729,0.792 -0.459,0.279 -1.017,0.279 -0.423,0 -0.756,-0.153 -0.333,-0.153 -0.558,-0.423 -0.225,-0.27 -0.324,-0.612 l 0.216,-0.207 v 3.159 z m 2.052,-2.457 q 0.405,0 0.711,-0.198 0.315,-0.207 0.486,-0.567 0.18,-0.36 0.18,-0.828 0,-0.468 -0.18,-0.828 -0.171,-0.36 -0.486,-0.558 -0.306,-0.207 -0.711,-0.207 -0.405,0 -0.711,0.207 -0.306,0.198 -0.477,0.558 -0.171,0.36 -0.171,0.828 0,0.468 0.171,0.828 0.171,0.36 0.477,0.567 0.306,0.198 0.711,0.198 z m 6.146999,0.621 -0.054,-0.891 v -1.89 q 0,-0.513 -0.288,-0.792 -0.279,-0.279 -0.837,-0.279 -0.36,0 -0.675,0.153 -0.315,0.144 -0.612,0.495 l -0.549,-0.468 q 0.369,-0.432 0.846,-0.63 0.477,-0.207 1.044,-0.207 0.873,0 1.35,0.45 0.477,0.45 0.477,1.278 v 2.781 z m -1.467,0.072 q -0.504,0 -0.882,-0.171 -0.369,-0.18 -0.576,-0.495 -0.198,-0.315 -0.198,-0.729 0,-0.369 0.144,-0.621 0.153,-0.261 0.387,-0.405 0.234,-0.153 0.531,-0.207 0.306,-0.063 0.639,-0.063 h 1.44 v 0.576 h -1.332 q -0.198,0 -0.414,0.036 -0.216,0.036 -0.378,0.153 -0.117,0.09 -0.189,0.225 -0.063,0.135 -0.063,0.315 0,0.351 0.261,0.558 0.261,0.207 0.702,0.207 0.369,0 0.666,-0.171 0.306,-0.171 0.486,-0.468 0.189,-0.306 0.189,-0.684 l 0.315,0.324 q -0.054,0.477 -0.288,0.846 -0.234,0.369 -0.603,0.576 -0.36,0.198 -0.837,0.198 z m 3.411008,-0.072 v -4.437 h 0.765 v 0.945 l -0.18,0.063 q 0.126,-0.342 0.342,-0.576 0.216,-0.243 0.522,-0.369 0.306,-0.135 0.675,-0.135 0.729,0 1.143,0.432 0.414,0.423 0.414,1.26 v 2.817 h -0.765 v -2.538 q 0,-0.675 -0.252,-0.99 -0.243,-0.324 -0.747,-0.324 -0.369,0 -0.63,0.171 -0.252,0.171 -0.387,0.54 -0.135,0.36 -0.135,0.927 v 2.214 z m 6.732008,0.072 q -0.603,0 -1.062,-0.297 -0.45,-0.306 -0.702,-0.828 -0.252,-0.522 -0.252,-1.17 0,-0.702 0.27,-1.215 0.27,-0.513 0.729,-0.792 0.459,-0.279 1.017,-0.279 0.423,0 0.756,0.171 0.333,0.162 0.558,0.45 0.234,0.279 0.324,0.63 l -0.216,0.144 v -3.159 h 0.756 v 6.273 h -0.756 v -1.323 l 0.252,0.081 q -0.117,0.387 -0.351,0.684 -0.234,0.297 -0.567,0.468 -0.333,0.162 -0.756,0.162 z m 0.126,-0.702 q 0.405,0 0.711,-0.198 0.306,-0.207 0.477,-0.567 0.171,-0.36 0.171,-0.828 0,-0.468 -0.171,-0.828 -0.171,-0.36 -0.477,-0.558 -0.306,-0.207 -0.711,-0.207 -0.405,0 -0.72,0.207 -0.306,0.198 -0.486,0.558 -0.171,0.36 -0.171,0.828 0,0.468 0.171,0.828 0.18,0.36 0.486,0.567 0.315,0.198 0.72,0.198 z" />
      <path aria-label="Compute" d="m 67.140497,69.779997 q -0.864,0 -1.521,-0.405 -0.648,-0.405 -1.017,-1.134 -0.36,-0.738 -0.36,-1.71 0,-0.972 0.36,-1.701 0.369,-0.729 1.017,-1.134 0.657,-0.405 1.521,-0.405 0.945,0 1.638,0.468 0.693,0.468 0.999,1.296 l -0.738,0.279 q -0.234,-0.612 -0.72,-0.945 -0.486,-0.342 -1.179,-0.342 -0.639,0 -1.116,0.306 -0.477,0.306 -0.738,0.864 -0.252,0.549 -0.252,1.314 0,0.765 0.252,1.323 0.261,0.558 0.738,0.864 0.477,0.306 1.116,0.306 0.693,0 1.179,-0.342 0.486,-0.342 0.72,-0.945 l 0.738,0.27 q -0.306,0.819 -0.999,1.296 -0.693,0.477 -1.638,0.477 z m 5.589004,-0.036 q -0.621,0 -1.116,-0.288 -0.486,-0.297 -0.765,-0.819 -0.279,-0.522 -0.279,-1.188 0,-0.666 0.27,-1.179 0.279,-0.522 0.765,-0.81 0.495,-0.297 1.125,-0.297 0.63,0 1.107,0.297 0.486,0.288 0.765,0.81 0.279,0.513 0.279,1.179 0,0.666 -0.279,1.188 -0.279,0.513 -0.765,0.81 -0.486,0.297 -1.107,0.297 z m 0,-0.675 q 0.423,0 0.729,-0.198 0.315,-0.207 0.486,-0.567 0.171,-0.369 0.171,-0.855 0,-0.495 -0.171,-0.855 -0.171,-0.369 -0.486,-0.567 -0.306,-0.198 -0.729,-0.198 -0.432,0 -0.747,0.207 -0.315,0.198 -0.486,0.558 -0.171,0.36 -0.171,0.855 0,0.486 0.171,0.855 0.171,0.36 0.486,0.567 0.315,0.198 0.747,0.198 z m 3.239997,0.603 v -4.437 h 0.765 v 1.143 h -0.153 q 0.081,-0.315 0.216,-0.54 0.144,-0.234 0.333,-0.378 0.189,-0.153 0.405,-0.225 0.225,-0.072 0.468,-0.072 0.405,0 0.711,0.153 0.306,0.153 0.504,0.468 0.198,0.306 0.27,0.783 l -0.432,0.027 q 0.135,-0.459 0.342,-0.774 0.207,-0.324 0.513,-0.486 0.315,-0.171 0.747,-0.171 0.549,0 0.882,0.252 0.333,0.243 0.486,0.657 0.153,0.405 0.153,0.9 v 2.7 h -0.756 v -2.52 q 0,-0.414 -0.099,-0.711 -0.09,-0.297 -0.297,-0.459 -0.198,-0.162 -0.54,-0.162 -0.324,0 -0.558,0.162 -0.225,0.162 -0.351,0.495 -0.117,0.324 -0.117,0.81 v 2.385 h -0.765 v -2.583 q 0,-0.639 -0.234,-0.954 -0.234,-0.315 -0.684,-0.315 -0.324,0 -0.558,0.171 -0.234,0.162 -0.36,0.486 -0.126,0.324 -0.126,0.81 v 2.385 z m 7.451992,1.836 v -6.273 h 0.756 v 1.323 l -0.243,-0.171 q 0.117,-0.387 0.342,-0.657 0.234,-0.279 0.567,-0.423 0.333,-0.144 0.756,-0.144 0.603,0 1.053,0.306 0.459,0.297 0.711,0.819 0.252,0.513 0.252,1.17 0,0.693 -0.27,1.215 -0.27,0.513 -0.729,0.792 -0.459,0.279 -1.017,0.279 -0.423,0 -0.756,-0.153 -0.333,-0.153 -0.558,-0.423 -0.225,-0.27 -0.324,-0.612 l 0.216,-0.207 v 3.159 z m 2.052,-2.457 q 0.405,0 0.711,-0.198 0.315,-0.207 0.486,-0.567 0.18,-0.36 0.18,-0.828 0,-0.468 -0.18,-0.828 -0.171,-0.36 -0.486,-0.558 -0.306,-0.207 -0.711,-0.207 -0.405,0 -0.711,0.207 -0.306,0.198 -0.477,0.558 -0.171,0.36 -0.171,0.828 0,0.468 0.171,0.828 0.171,0.36 0.477,0.567 0.306,0.198 0.711,0.198 z m 4.724999,0.693 q -0.477,0 -0.828,-0.189 -0.351,-0.198 -0.54,-0.576 -0.18,-0.378 -0.18,-0.936 v -2.808 h 0.756 v 2.538 q 0,0.441 0.108,0.738 0.117,0.288 0.342,0.432 0.225,0.135 0.558,0.135 0.369,0 0.621,-0.171 0.261,-0.18 0.396,-0.54 0.135,-0.36 0.135,-0.927 v -2.205 h 0.756 v 4.437 h -0.756 v -0.945 h 0.189 q -0.189,0.495 -0.603,0.756 -0.414,0.261 -0.954,0.261 z m 4.905008,0 q -0.315,0 -0.576,-0.117 -0.252,-0.126 -0.396,-0.396 -0.144,-0.27 -0.144,-0.693 v -4.491 l 0.774,-0.432 v 4.725 q 0,0.369 0.117,0.576 0.117,0.198 0.423,0.198 0.09,0 0.216,-0.018 0.126,-0.027 0.27,-0.063 v 0.594 q -0.171,0.063 -0.351,0.09 -0.171,0.027 -0.333,0.027 z m -2.034,-3.915 v -0.594 h 2.718 v 0.594 z m 5.454006,3.915 q -0.522,0 -0.918,-0.171 -0.387,-0.18 -0.648,-0.495 -0.252,-0.315 -0.387,-0.72 -0.126,-0.414 -0.126,-0.873 0,-0.459 0.126,-0.873 0.126,-0.423 0.369,-0.747 0.252,-0.324 0.63,-0.513 0.378,-0.189 0.882,-0.189 0.513,0 0.882,0.18 0.378,0.171 0.612,0.477 0.242997,0.306 0.359997,0.684 0.117,0.378 0.117,0.783 0,0.036 -0.009,0.171 0,0.126 -0.018,0.225 h -3.194997 q 0.027,0.648 0.378,1.008 0.351,0.36 0.954,0.36 0.387,0 0.675,-0.126 0.288,-0.126 0.54,-0.405 l 0.530997,0.468 q -0.243,0.261 -0.512997,0.432 -0.27,0.162 -0.576,0.243 -0.297,0.081 -0.666,0.081 z m 1.143,-2.448 q 0.018,-0.072 0.018,-0.144 0.009,-0.072 0.009,-0.144 0,-0.216 -0.081,-0.432 -0.072,-0.216 -0.225,-0.387 -0.144,-0.18 -0.378,-0.279 -0.225,-0.108 -0.54,-0.108 -0.387,0 -0.666,0.18 -0.279,0.18 -0.432,0.477 -0.153,0.297 -0.18,0.657 h 2.727 z" />
    </g>
    <path style="stroke:#101010;stroke-width:1.5" d="m 52.5,90 0,170" />
  </g>
</svg>