<?xml version="1.0" encoding="UTF-8" standalone="no"?>
<svg height="380" width="45" viewBox="0 0 45 380" version="1.1" xml:space="preserve" id="svg8"
   xmlns="http://www.w3.org/2000/svg"
   xmlns:svg="http://www.w3.org/2000/svg">
   <rect id="panel" style="fill:#101010;stroke-width:0.866025" x="0" y="0" width="45" height="380" />
   <path aria-label="Round" style="fill:#d9d9d9"
      d="m 5.610388,10.209149 q 0.152343,-0.08203 0.451171,-0.117187 0.298829,-0.04102 0.539063,-0.1289064 0.0293,-0.1171875 0.03516,-0.1699219 0.01172,-0.082031 0.01172,-0.5625 L 6.641602,7.9239931 6.665042,7.2208681 6.653322,6.6759462 6.665042,6.35954 q 0.01758,-0.6386719 0.01758,-1.1953125 0,-1.21875 -0.0293,-1.5585938 L 6.307619,3.5353217 Q 5.83301,3.5060247 5.674807,3.4767277 l -0.01172,-0.3515625 0.02344,-0.064453 q 0.292969,-0.046875 0.539063,-0.046875 0.134766,0 0.544922,-0.00586 0.421875,0.035156 0.457031,0.035156 L 7.53809,3.0255552 8.270512,2.9903992 q 0.685547,-0.070312 1.447265,-0.070312 1.201172,0 1.910157,0.6152343 0.708984,0.609375 0.708984,1.4003907 0,0.5917968 -0.386719,1.078125 -0.380859,0.4804687 -1.177734,0.7265625 0.07031,0.1230468 0.1875,0.2871093 0.246094,0.3515625 0.398437,0.5976563 l 0.9375,1.5175781 q 0.351563,0.6035156 0.457032,0.7089844 0.111328,0.099609 0.451172,0.2226562 0.263671,0.09961 0.404296,0.199218 0.03516,0.09961 0.03516,0.175782 0,0.05273 -0.0059,0.134765 h -0.158203 l -0.117187,0.0059 -0.304688,-0.04102 H 12.81735 q -0.1875,-0.0293 -0.462891,-0.0293 l -0.585937,-0.0059 q -0.06445,0 -0.410157,0.04101 -0.158203,0.01758 -0.251953,0.0293 L 10.907263,10.197431 Q 10.661169,9.7579775 10.561559,9.5411806 10.303747,8.9728212 9.676794,7.7306337 9.383825,7.156415 9.266638,7.0802431 9.090856,6.9571962 8.663122,6.9571962 q -0.117188,0 -0.398438,0.011719 -0.01758,0.1699219 -0.01758,0.4042969 l 0.02344,1.3007812 -0.0293,1.1015625 q 0.164062,0.099609 0.427734,0.1523438 0.457032,0.09375 0.785157,0.2226564 0,0.287109 -0.02344,0.433593 -0.111328,-0.0059 -0.140625,-0.0059 l -0.240234,0.01172 Q 7.79007,10.478641 7.555695,10.478641 q -0.152344,0 -0.216797,0.0059 l -0.808594,0.05273 q -0.36914,0.04102 -0.673828,0.04102 H 5.604523 q -0.01172,-0.146484 -0.01172,-0.1875 0,-0.06445 0.01758,-0.181641 z M 8.247106,6.4181337 q 0.28125,0.011719 0.410157,0.011719 0.996093,0 1.412109,-0.3574219 0.416016,-0.3574219 0.416016,-0.9550781 0,-0.3691406 -0.105469,-0.6914063 Q 10.280309,4.0978214 10.127966,3.9396183 9.911169,3.7111027 9.559606,3.5939152 9.301794,3.5060242 8.733434,3.5060242 q -0.269531,0 -0.46289,0.029297 l -0.0059,0.1113282 0.0059,0.7910156 -0.01172,0.4804687 0.0059,0.6386719 Q 8.252966,5.8263369 8.247106,6.2540712 Z M 18.448278,6.3009462 q 0.375,0.3632813 0.556641,0.8378907 0.1875,0.46875 0.1875,0.8847656 0,0.7851562 -0.240235,1.265625 -0.363281,0.7265625 -0.978515,1.0722655 -0.615235,0.345703 -1.429688,0.345703 -0.914062,0 -1.552734,-0.410156 Q 14.358434,9.8868837 14.083044,9.3653994 13.813513,8.843915 13.813513,8.0704775 q 0,-0.3925781 0.128906,-0.7851563 0.128906,-0.3984375 0.351562,-0.6914062 0.228516,-0.2929688 0.498047,-0.4921875 0.392578,-0.28125 0.785156,-0.3984375 0.398438,-0.1230469 0.960938,-0.1230469 1.224609,0 1.910156,0.7207031 z M 15.2432,8.32829 q 0.05273,0.7265625 0.07617,0.8378906 0.07617,0.3925781 0.240234,0.6738281 0.111328,0.1816403 0.369141,0.3222653 0.257812,0.140625 0.615234,0.140625 0.427735,0 0.720703,-0.269531 0.292969,-0.2753905 0.421875,-0.8554686 0.08203,-0.3808594 0.08203,-1.2480469 0,-1.0664063 -0.351563,-1.5058594 -0.351562,-0.4453125 -0.925781,-0.4453125 -0.451172,0 -0.75,0.2519531 -0.292969,0.2519532 -0.410156,0.7441407 -0.07617,0.3164062 -0.08789,1.3535156 z m 4.658203,-2.5019531 q 0.06445,-0.023437 0.105469,-0.035156 h 1.746094 l 0.128906,0.011719 0.0059,0.3925781 -0.01172,0.5742187 0.0059,0.2988282 -0.0059,0.8847656 v 0.6035156 q 0,0.5917969 0.06445,0.9316406 0.08789,0.2578125 0.28125,0.3925782 0.199218,0.1289071 0.480468,0.1289071 0.263672,0 0.427735,-0.052735 0.164062,-0.052734 0.375,-0.1992187 0.216797,-0.1464844 0.27539,-0.2109375 0.169922,-0.1875 0.234375,-0.3457031 l 0.04102,-1.4589844 q 0.01172,-0.2285156 0.01172,-0.375 0,-0.1523438 -0.01172,-0.3808594 -0.0059,-0.234375 -0.0059,-0.2636719 L 24.05574,6.5060252 24.04402,6.3771189 Q 23.903356,6.2892275 23.651403,6.26579 L 23.258825,6.236493 q -0.03516,-0.017578 -0.06445,-0.041016 -0.02344,-0.1171875 -0.02344,-0.1757813 0,-0.070312 0.01758,-0.1992187 0.193359,-0.029297 0.333984,-0.029297 l 0.902344,0.011719 q 0.363281,0 0.890625,-0.011719 l 0.01172,0.4394531 -0.01758,0.5625 0.01172,0.703125 -0.0059,1.0078125 -0.01172,0.4511719 0.0059,0.3046875 q -0.02344,0.3046875 -0.02344,0.3457031 0,0.1464844 0.05273,0.2167969 0.05273,0.070312 0.09961,0.070312 l 0.539062,-0.017578 0.07031,0.011719 q 0.01758,0.205078 0.01758,0.234375 0,0.04101 -0.01758,0.128906 -0.310547,0.01172 -0.445313,0.04102 -0.626953,0.140625 -1.371094,0.416015 l -0.234375,-0.01172 -0.0059,-0.9550773 q -0.07031,0.058594 -0.205078,0.1816406 -0.515625,0.4570307 -0.884766,0.6210937 -0.36914,0.158203 -0.773437,0.158203 -0.480469,0 -0.832032,-0.199219 Q 20.944323,10.302901 20.78026,10.009933 20.657214,9.7814173 20.616198,9.3536829 20.604478,9.2423548 20.604478,8.2052454 l 0.0059,-0.1875 q 0.0293,-0.5742187 0.0293,-0.8496094 0,-0.46875 -0.01758,-0.6269531 -0.0059,-0.076172 -0.05859,-0.1757812 -0.08203,-0.035156 -0.19336,-0.052734 -0.375,-0.064453 -0.46875,-0.1230469 -0.0293,-0.017578 -0.0293,-0.076172 0,-0.035156 0.0059,-0.09375 0.01172,-0.058594 0.02344,-0.1933593 z M 26.4932,10.273602 q 0.152344,-0.07031 0.28125,-0.09375 0.322266,-0.05273 0.375,-0.08789 0.08789,-0.05274 0.117188,-0.1289064 0.03516,-0.1171875 0.03516,-0.515625 V 8.937665 l 0.0059,-0.4160156 -0.01758,-0.6152344 V 7.5372744 q 0,-0.3691407 -0.05859,-0.6035157 Q 27.208044,6.8458681 27.084997,6.7579775 26.920934,6.64079 26.528356,6.5294619 l -0.0059,-0.28125 q 0.07617,-0.023437 0.134766,-0.029297 0.06445,-0.011719 0.474609,-0.1171875 0.322266,-0.1171875 0.416016,-0.1640625 0.0293,-0.017578 0.09375,-0.052734 0.07031,-0.058594 0.158203,-0.1171875 0.175781,-0.1230469 0.421875,-0.4277344 l 0.310547,-0.023437 -0.01172,0.6621094 q -0.0059,0.099609 -0.0059,0.1582031 0,0.046875 0.0059,0.2695313 0.486328,-0.421875 0.884765,-0.5859375 0.521485,-0.2167969 0.990235,-0.2167969 0.550781,0 0.966797,0.2753906 0.416015,0.2695313 0.544922,0.6269532 0.128906,0.3574218 0.128906,1.4414062 l -0.02344,1.9101563 q 0,0.1347656 0.04687,0.2226563 0.05859,0.04687 0.322266,0.08789 l 0.287109,0.05273 q 0.05273,0.07617 0.05273,0.1875 0,0.07031 -0.0059,0.193359 l -1.148437,-0.08203 -0.339844,0.01172 H 30.95795 l -0.773438,0.05859 h -0.199218 q -0.0059,-0.07617 -0.0059,-0.117188 0,-0.105469 0.01172,-0.228515 0.08203,-0.01758 0.410156,-0.05859 0.08789,-0.01172 0.19336,-0.04102 0.117187,-0.04687 0.134765,-0.09375 0.04687,-0.099609 0.04687,-0.3808593 0,-0.4921875 -0.01172,-0.7558594 l 0.0059,-0.6796875 Q 30.776345,6.9982057 30.618101,6.6935182 30.395445,6.254065 29.950132,6.254065 q -0.328125,0 -0.679687,0.1699219 -0.351563,0.1640625 -0.726563,0.5039063 l -0.01172,0.099609 0.01172,0.3691407 -0.0059,0.3925781 0.02344,0.9375 -0.01172,0.1464844 q 0,0.9550781 0.07617,1.078125 0.07617,0.1230476 0.580078,0.2695316 0.01758,0.09961 0.01758,0.146483 0,0.07031 -0.04102,0.216797 -0.18164,0.0059 -0.304687,0.0059 -0.123047,0 -0.386719,-0.03516 l -0.626953,-0.01172 q -0.46875,0 -1.353516,0.04101 -0.02344,-0.05859 -0.02344,-0.123046 0,-0.04687 0.0059,-0.1875 z M 34.426794,6.07829 Q 34.713903,5.8790712 34.977575,5.7911806 35.247106,5.70329 35.733434,5.656415 h 0.328125 q 0.638672,0 1.22461,0.4394531 l 0.01172,-0.140625 -0.0059,-0.3925781 0.02344,-0.6269531 q 0,-0.9902344 -0.152344,-1.2539063 -0.08789,-0.1582031 -0.310547,-0.1699219 -0.216797,-0.011719 -0.351562,-0.076172 v -0.28125 q 0.111328,-0.035156 0.287109,-0.035156 0.175781,-0.00586 0.685547,-0.1230469 l 0.199219,-0.041016 0.580078,-0.1347656 q 0.175781,-0.041016 0.216797,-0.041016 0.0293,0 0.09375,0.011719 0.03516,0.1230469 0.03516,0.1816406 l -0.0059,0.087891 v 0.1054687 q 0,0.1640625 0.01758,0.8730469 v 0.3164062 l 0.0059,0.1699219 -0.0059,0.2929688 0.01758,0.609375 -0.01172,0.3574218 q -0.01172,0.234375 -0.01172,0.7382813 0,0.082031 0.0059,0.1464844 v 0.2167968 q -0.0059,0.09375 -0.0059,0.140625 0,0.087891 0.01758,0.2519532 v 0.3222656 l -0.0059,0.1230469 q -0.01172,0.1699218 -0.01172,0.46875 0,0.3046875 0.01172,0.5507812 0.0059,0.099609 0.0059,0.1816406 v 0.4394532 q 0,0.2109375 0.01172,0.5039062 0.105469,0.064453 0.515625,0.09375 0.128906,0.00586 0.228516,0.029297 0.0293,0.087889 0.0293,0.1289065 0,0.05273 -0.04102,0.158203 -0.240234,0.05859 -0.503906,0.08789 -0.802735,0.09961 -1.142578,0.28125 -0.164063,0.09375 -0.228516,0.09375 -0.06445,0 -0.146484,-0.01172 0.0059,-0.105469 0.0059,-0.134766 0,-0.398437 -0.01758,-0.509766 -0.08789,0.04687 -0.216797,0.123047 -0.392578,0.234375 -0.714844,0.328125 -0.322265,0.08789 -0.738281,0.08789 -0.738281,0 -1.177734,-0.28125 Q 33.834997,9.9337587 33.583044,9.35954 33.33695,8.7853212 33.33695,8.0997744 q 0,-1.1835938 1.089844,-2.0214844 z m 1.804687,3.8789062 q 0.123047,0.011719 0.210938,0.011719 0.193359,0 0.410156,-0.082031 0.222656,-0.082031 0.46875,-0.2402343 0.0059,-0.1933594 0.0059,-0.2402344 0,-1.8574219 -0.05273,-2.2382813 Q 37.204185,6.6583686 36.887776,6.382978 36.57137,6.1075874 36.120198,6.1075874 q -0.257812,0 -0.492187,0.09375 -0.228516,0.09375 -0.375,0.2695312 -0.216797,0.2578125 -0.328125,0.5859375 -0.152344,0.4570313 -0.152344,0.8554688 0,0.9550781 0.404297,1.4648437 0.404297,0.5039063 1.054687,0.5800781 z" />
   <g aria-label="#d (pachde logo)" style="fill:#c0c0c0" transform="translate(15.2065,365.28679)">
      <path d="M 3.023,5.309 3.916,3.543 5.003,3.834 4.104,5.599 5.759,6.042 6.658,4.277 7.74,4.567 6.846,6.334 7.631,6.544 7.34,7.631 6.328,7.36 5.666,8.665 6.969,9.014 6.678,10.1 5.148,9.691 4.255,11.457 3.168,11.166 4.062,9.4 2.407,8.956 1.513,10.723 0.426,10.431 1.32,8.665 0.54,8.456 0.831,7.369 1.843,7.64 2.5,6.334 1.202,5.986 1.493,4.899 Z M 5.242,7.068 3.587,6.625 2.924,7.93 4.58,8.374 Z" />
      <path d="m 13.387,10.647 -0.301,1.122 -2.354,-0.631 0.155,-0.579 Q 10.064,11.035 9.304,10.831 8.394,10.587 7.993,9.687 7.593,8.787 7.874,7.736 8.16,6.669 8.969,6.104 9.78,5.534 10.665,5.771 11.516,6 11.892,6.807 l 0.414,-1.545 -0.759,-0.204 0.3,-1.121 2.314,0.62 -1.574,5.876 z M 11.402,8.697 Q 11.589,7.998 11.367,7.62 11.15,7.244 10.767,7.141 10.31,7.019 9.962,7.308 9.621,7.595 9.466,8.173 9.32,8.721 9.465,9.165 q 0.147,0.438 0.615,0.564 0.387,0.104 0.76,-0.12 0.379,-0.227 0.562,-0.912 z" />
   </g>
   <path style="fill:none;stroke:#808080;stroke-width:0.440958" d="M 5,13.314436 H 40" />
   <rect style="fill:#2d5d86;fill-opacity:0.35" width="45" height="12" x="0" y="34" />
   <path aria-label="Type" style="fill:#d9d9d9"
      d="m 14.925595,42.273 v -5.346 h -1.998 V 36 h 5.04 v 0.927 h -1.989 v 5.346 z m 3.655799,1.827 0.882,-2.124 -1.692,-4.14 h 1.098 l 1.125,3.141 1.143,-3.141 h 1.08 l -2.556,6.264 z m 4.383006,0.009 v -6.273 h 0.99 v 1.233 l -0.252,0.009 q 0.117,-0.486 0.342,-0.774 0.234,-0.288 0.549,-0.414 0.324,-0.135 0.684,-0.135 0.594,0 1.026,0.306 0.432,0.297 0.666,0.819 0.243,0.522 0.243,1.179 0,0.711 -0.261,1.233 -0.261,0.513 -0.702,0.792 -0.432,0.27 -0.972,0.27 -0.378,0 -0.702,-0.144 -0.315,-0.144 -0.54,-0.432 -0.216,-0.288 -0.306,-0.702 l 0.225,-0.045 v 3.078 z m 2.07,-2.664 q 0.351,0 0.612,-0.171 0.27,-0.171 0.414,-0.486 0.144,-0.315 0.144,-0.729 0,-0.414 -0.144,-0.729 -0.144,-0.315 -0.414,-0.486 -0.261,-0.171 -0.612,-0.171 -0.351,0 -0.621,0.171 -0.261,0.171 -0.405,0.486 -0.144,0.315 -0.144,0.729 0,0.414 0.144,0.729 0.144,0.306 0.405,0.486 0.27,0.171 0.621,0.171 z m 5.085005,0.909 q -0.558,0 -0.972,-0.18 -0.405,-0.18 -0.666,-0.504 -0.261,-0.324 -0.387,-0.729 -0.126,-0.414 -0.126,-0.855 0,-0.441 0.117,-0.855 0.126,-0.423 0.378,-0.756 0.252,-0.333 0.648,-0.522 0.396,-0.198 0.936,-0.198 0.513,0 0.891,0.18 0.387,0.171 0.639,0.486 0.252,0.306 0.369,0.702 0.126,0.396 0.126,0.846 0,0.063 -0.009,0.18 0,0.117 -0.018,0.234 h -3.078 q 0.036,0.531 0.36,0.81 0.324,0.279 0.828,0.279 0.369,0 0.675,-0.117 0.306,-0.117 0.558,-0.369 l 0.549,0.666 q -0.279,0.252 -0.558,0.405 -0.279,0.153 -0.585,0.225 -0.297,0.072 -0.675,0.072 z m 0.972,-2.475 q 0.018,-0.072 0.018,-0.144 0.009,-0.072 0.009,-0.144 0,-0.198 -0.072,-0.378 -0.063,-0.18 -0.198,-0.315 -0.135,-0.144 -0.333,-0.225 -0.198,-0.09 -0.45,-0.09 -0.351,0 -0.594,0.153 -0.234,0.153 -0.369,0.396 -0.126,0.234 -0.153,0.513 h 2.466 z" />
   <rect style="fill:#2d5d86;fill-opacity:0.35" width="45" height="12" x="0" y="100" />
   <path aria-label="Tuning" style="fill:#d9d9d9"
      d="m 11.258092,108.5356 v -5.346 H 9.2600915 v -0.927 h 5.0400005 v 0.927 h -1.989 v 5.346 z m 4.780814,0.081 q -0.522,0 -0.882,-0.207 -0.351,-0.207 -0.531,-0.594 -0.18,-0.387 -0.18,-0.936 v -2.781 h 0.999 v 2.511 q 0,0.351 0.081,0.612 0.09,0.252 0.279,0.387 0.197999,0.135 0.530999,0.135 0.387,0 0.603,-0.198 0.225001,-0.207 0.315001,-0.594 0.099,-0.396 0.099,-0.945 v -1.908 h 0.998999 v 4.437 h -0.998999 v -0.954 l 0.171,0.063 q -0.207001,0.504 -0.603001,0.738 -0.387,0.234 -0.881999,0.234 z m 3.492,-0.081 v -4.437 h 0.999 v 0.981 l -0.18,0.045 q 0.117,-0.387 0.341999,-0.63 0.225001,-0.243 0.522,-0.36 0.306,-0.117 0.639,-0.117 0.747,0 1.161,0.432 0.423,0.423 0.423,1.215 v 2.871 h -0.999 v -2.502 q 0,-0.594 -0.216,-0.873 -0.216,-0.279 -0.666,-0.279 -0.333,0 -0.567,0.162 -0.225,0.153 -0.342,0.486 -0.117,0.333 -0.117,0.846 v 2.16 z m 5.022,0 v -4.437 h 0.999 v 4.437 z m -0.045,-5.166 v -1.107 h 1.089 v 1.107 z m 2.205003,5.166 v -4.437 h 0.999 v 0.981 l -0.18,0.045 q 0.117,-0.387 0.342,-0.63 0.225,-0.243 0.522,-0.36 0.306,-0.117 0.639,-0.117 0.747,0 1.161001,0.432 0.423,0.423 0.423,1.215 v 2.871 h -0.999001 v -2.502 q 0,-0.594 -0.216,-0.873 -0.216,-0.279 -0.665999,-0.279 -0.333,0 -0.567,0.162 -0.225,0.153 -0.342,0.486 -0.117,0.333 -0.117,0.846 v 2.16 z m 6.876,1.926 q -0.981,0 -1.548,-0.36 -0.567,-0.351 -0.567,-0.963 0,-0.054 0,-0.126 0.009,-0.072 0.027,-0.144 l 1.206,-0.783 0.27,0.261 -0.585,0.729 q -0.009,0.027 -0.009,0.045 0,0.027 0,0.054 0,0.279 0.333,0.423 0.342,0.153 0.873,0.153 0.45,0 0.72,-0.126 0.27,-0.117 0.27,-0.36 0,-0.135 -0.081,-0.225 -0.081,-0.081 -0.243,-0.135 -0.162,-0.054 -0.405,-0.099 -0.234,-0.036 -0.558,-0.072 -0.405,-0.063 -0.801,-0.18 -0.387,-0.117 -0.648,-0.351 -0.252,-0.234 -0.252,-0.621 0,-0.342 0.234,-0.621 0.234,-0.288 0.621,-0.468 l 0.513,0.396 q -0.252,0.054 -0.378,0.189 -0.126,0.126 -0.126,0.306 0,0.153 0.117,0.252 0.117,0.09 0.333,0.144 0.225,0.045 0.531,0.09 0.459,0.054 0.846,0.126 0.387,0.072 0.675,0.207 0.288,0.126 0.441,0.351 0.162,0.225 0.162,0.585 0,0.639 -0.522,0.981 -0.513,0.342 -1.449,0.342 z m -0.099,-3.213 q -0.54,0 -0.954,-0.207 -0.414,-0.207 -0.648,-0.567 -0.225,-0.369 -0.225,-0.828 0,-0.495 0.243,-0.855 0.243,-0.369 0.648,-0.567 0.414,-0.207 0.9,-0.207 0.486,0 0.891,0.207 0.405,0.198 0.648,0.576 0.252,0.369 0.252,0.882 0,0.468 -0.225,0.828 -0.216,0.351 -0.612,0.549 -0.396,0.189 -0.918,0.189 z m -0.018,-0.801 q 0.387,0 0.585,-0.234 0.198,-0.243 0.198,-0.576 0,-0.36 -0.216,-0.576 -0.216,-0.225 -0.567,-0.225 -0.369,0 -0.594,0.225 -0.216,0.216 -0.216,0.567 0,0.342 0.207,0.585 0.207,0.234 0.603,0.234 z m 1.485,-1.449 -0.729,-0.468 0.999,-0.81 0.513,0.621 z" />
   <rect style="fill:#2d5d86;fill-opacity:0.35" width="45" height="12" x="0" y="165" />
   <path aria-label="Initial" style="fill:#d9d9d9"
      d="m 11.803495,173.95645 v -6.273 h 1.044 v 6.273 z m 2.267994,0 v -4.437 h 0.999 v 0.981 l -0.18,0.045 q 0.117,-0.387 0.341999,-0.63 0.225001,-0.243 0.522,-0.36 0.306,-0.117 0.639,-0.117 0.747,0 1.161,0.432 0.423,0.423 0.423,1.215 v 2.871 h -0.999 v -2.502 q 0,-0.594 -0.216,-0.873 -0.216,-0.279 -0.666,-0.279 -0.333,0 -0.567,0.162 -0.225,0.153 -0.342,0.486 -0.117,0.333 -0.117,0.846 v 2.16 z m 5.021999,0 v -4.437 h 0.999 v 4.437 z m -0.045,-5.166 v -1.107 h 1.089 v 1.107 z m 3.816003,5.247 q -0.333,0 -0.63,-0.126 -0.288,-0.135 -0.459,-0.423 -0.171,-0.297 -0.171,-0.774 v -4.275 l 1.008,-0.558 v 4.554 q 0,0.378 0.108,0.585 0.117,0.198 0.414,0.198 0.09,0 0.207,-0.018 0.126001,-0.027 0.261,-0.063 v 0.774 q -0.18,0.063 -0.369,0.09 -0.18,0.036 -0.369,0.036 z m -2.106,-3.744 v -0.774 h 2.844 v 0.774 z m 3.726006,3.663 v -4.437 h 0.999 v 4.437 z m -0.045,-5.166 v -1.107 h 1.089 v 1.107 z m 5.067003,5.166 -0.072,-0.747 v -2.052 q 0,-0.432 -0.261,-0.648 -0.261,-0.225 -0.729,-0.225 -0.36,0 -0.711,0.144 -0.342,0.135 -0.63,0.423 l -0.558,-0.657 q 0.432,-0.405 0.918,-0.576 0.486,-0.18 1.062,-0.18 0.9,0 1.395,0.459 0.504,0.45 0.504,1.26 v 2.799 z m -1.377,0.081 q -0.495,0 -0.882,-0.18 -0.378,-0.18 -0.594,-0.504 -0.207,-0.324 -0.207,-0.756 0,-0.369 0.153,-0.639 0.162,-0.27 0.414,-0.423 0.216,-0.135 0.504,-0.189 0.288,-0.063 0.603,-0.063 h 1.395 v 0.747 h -1.251 q -0.162,0 -0.324,0.036 -0.162,0.027 -0.287999,0.108 -0.09,0.072 -0.153,0.18 -0.054,0.108 -0.054,0.252 0,0.288 0.216,0.459 0.225,0.162 0.594,0.162 0.324,0 0.585,-0.144 0.27,-0.144 0.432,-0.396 0.162,-0.252 0.162,-0.567 l 0.306,0.495 q -0.108,0.468 -0.342,0.792 -0.234,0.315 -0.558,0.477 -0.324,0.153 -0.711001,0.153 z m 4.392005,0 q -0.432,0 -0.72,-0.261 -0.288,-0.27 -0.288,-0.855 v -5.238 h 0.999 v 5.04 q 0,0.207 0.09,0.306 0.099,0.09 0.252001,0.09 0.081,0 0.161999,-0.018 0.09,-0.018 0.18,-0.045 v 0.846 q -0.170999,0.072 -0.350999,0.099 -0.18,0.036 -0.324001,0.036 z" />
   <rect style="fill:#2d5d86;fill-opacity:0.35" width="45" height="12" x="0" y="230" />
   <path aria-label="Rate" style="fill:#d9d9d9"
      d="m 13.832998,238.81955 v -6.273 h 2.007 q 0.747,0 1.215,0.225 0.468,0.216 0.684,0.621 0.225,0.405 0.225,0.954 0,0.837 -0.486,1.305 -0.477,0.459 -1.368,0.531 -0.18,0 -0.387,0 -0.207,0 -0.369,0 h -0.477 v 2.637 z m 3.437999,0 -1.592999,-2.754 1.071,-0.126 1.728,2.88 z m -2.393999,-3.555 h 0.855 q 0.341999,0 0.603,-0.081 0.27,-0.081 0.423,-0.279 0.161999,-0.198 0.161999,-0.549 0,-0.351 -0.161999,-0.54 -0.153,-0.189 -0.423,-0.261 -0.27,-0.081 -0.603,-0.081 h -0.855 z m 7.208995,3.555 -0.072,-0.747 v -2.052 q 0,-0.432 -0.261,-0.648 -0.261,-0.225 -0.729,-0.225 -0.36,0 -0.711,0.144 -0.342,0.135 -0.63,0.423 l -0.558,-0.657 q 0.432,-0.405 0.918,-0.576 0.486,-0.18 1.062,-0.18 0.9,0 1.395,0.459 0.504,0.45 0.504,1.26 v 2.799 z m -1.376999,0.081 q -0.495001,0 -0.882001,-0.18 -0.378,-0.18 -0.594,-0.504 -0.207,-0.324 -0.207,-0.756 0,-0.369 0.153,-0.639 0.162,-0.27 0.414,-0.423 0.216,-0.135 0.504,-0.189 0.288,-0.063 0.603001,-0.063 h 1.394999 v 0.747 h -1.251 q -0.162,0 -0.324,0.036 -0.162,0.027 -0.288,0.108 -0.09,0.072 -0.153,0.18 -0.054,0.108 -0.054,0.252 0,0.288 0.216001,0.459 0.225,0.162 0.594,0.162 0.324,0 0.585,-0.144 0.27,-0.144 0.432,-0.396 0.162,-0.252 0.162,-0.567 l 0.306,0.495 q -0.108,0.468 -0.342,0.792 -0.234,0.315 -0.558,0.477 -0.324,0.153 -0.711,0.153 z m 5.022006,0 q -0.333,0 -0.630001,-0.126 -0.287999,-0.135 -0.459,-0.423 -0.171,-0.297 -0.171,-0.774 v -4.275 l 1.008,-0.558 v 4.554 q 0,0.378 0.108,0.585 0.117,0.198 0.414,0.198 0.09,0 0.207,-0.018 0.126,-0.027 0.261001,-0.063 v 0.774 q -0.18,0.063 -0.369,0.09 -0.18,0.036 -0.369,0.036 z m -2.106,-3.744 v -0.774 h 2.844 v 0.774 z m 5.589002,3.744 q -0.558,0 -0.972,-0.18 -0.405,-0.18 -0.665999,-0.504 -0.261001,-0.324 -0.387001,-0.729 -0.125999,-0.414 -0.125999,-0.855 0,-0.441 0.116999,-0.855 0.126,-0.423 0.378,-0.756 0.252001,-0.333 0.648001,-0.522 0.396,-0.198 0.936,-0.198 0.513,0 0.891,0.18 0.387,0.171 0.639,0.486 0.252,0.306 0.369,0.702 0.126,0.396 0.126,0.846 0,0.063 -0.009,0.18 0,0.117 -0.018,0.234 h -3.078001 q 0.036,0.531 0.36,0.81 0.324,0.279 0.828,0.279 0.369,0 0.675,-0.117 0.306,-0.117 0.558,-0.369 l 0.549,0.666 q -0.279,0.252 -0.558,0.405 -0.279,0.153 -0.585,0.225 -0.297,0.072 -0.675,0.072 z m 0.972,-2.475 q 0.018,-0.072 0.018,-0.144 0.009,-0.072 0.009,-0.144 0,-0.198 -0.072,-0.378 -0.063,-0.18 -0.198,-0.315 -0.135,-0.144 -0.333,-0.225 -0.198,-0.09 -0.45,-0.09 -0.351,0 -0.594,0.153 -0.234,0.153 -0.369,0.396 -0.126,0.234 -0.153,0.513 h 2.466 z" />
</svg>