<?xml version="1.0" encoding="UTF-8" standalone="no"?>
<svg
   height="380"
   width="45"
   viewBox="0 0 45 380"
   version="1.1"
   xml:space="preserve"
   id="svg1256"
   sodipodi:docname="Tilt.svg"
   inkscape:version="1.3.1 (91b66b0783, 2023-11-16)"
   xmlns:inkscape="http://www.inkscape.org/namespaces/inkscape"
   xmlns:sodipodi="http://sodipodi.sourceforge.net/DTD/sodipodi-0.dtd"
   xmlns="http://www.w3.org/2000/svg"
   xmlns:svg="http://www.w3.org/2000/svg"><defs
   id="defs1260"><linearGradient
   id="a"
   x1="0"
   y1="0"
   x2="0"
   y2="8"
   gradientUnits="userSpaceOnUse"
   gradientTransform="translate(204.10191,191.71399)"><stop
     offset="0"
     style="stop-color:#bfbfbf"
     id="stop1669" /><stop
     offset="1"
     style="stop-color:#404040"
     id="stop1671" /></linearGradient><linearGradient
   id="b"
   x1="0"
   y1="0"
   x2="0"
   y2="15"
   gradientUnits="userSpaceOnUse"
   gradientTransform="translate(204.10191,191.71399)"><stop
     offset="0"
     style="stop-color:#333333"
     id="stop1674" /><stop
     offset="1"
     style="stop-color:#595959"
     id="stop1676" /></linearGradient><linearGradient
   id="SVGID_1_-0"
   gradientUnits="userSpaceOnUse"
   x1="11.33881"
   y1="-0.0090399999"
   x2="11.33881"
   y2="22.666759">
		<stop
   offset="0"
   style="stop-color:#B0ACAE"
   id="stop3020-8" />
		<stop
   offset="1"
   style="stop-color:#000000"
   id="stop3022-2" />
	</linearGradient><linearGradient
   id="linearGradient3567"
   gradientUnits="userSpaceOnUse"
   x1="4.5368199"
   y1="-4120.5469"
   x2="22.556919"
   y2="-4120.5469"
   gradientTransform="rotate(90,-2053.495,-2055.713)">
		<stop
   offset="0"
   style="stop-color:#232223"
   id="stop3031-1" />
		<stop
   offset="1"
   style="stop-color:#1F1E1F"
   id="stop3033-7" />
	</linearGradient><linearGradient
   id="SVGID_1_-0-4"
   gradientUnits="userSpaceOnUse"
   x1="11.33881"
   y1="-0.0090399999"
   x2="11.33881"
   y2="22.666759">
		<stop
   offset="0"
   style="stop-color:#B0ACAE"
   id="stop3020-8-5" />
		<stop
   offset="1"
   style="stop-color:#000000"
   id="stop3022-2-7" />
	</linearGradient><linearGradient
   id="SVGID_1_-0-6"
   gradientUnits="userSpaceOnUse"
   x1="11.33881"
   y1="-0.0090399999"
   x2="11.33881"
   y2="22.666759">
		<stop
   offset="0"
   style="stop-color:#B0ACAE"
   id="stop3020-8-8" />
		<stop
   offset="1"
   style="stop-color:#000000"
   id="stop3022-2-2" />
	</linearGradient><linearGradient
   id="SVGID_1_-0-8"
   gradientUnits="userSpaceOnUse"
   x1="11.33881"
   y1="-0.0090399999"
   x2="11.33881"
   y2="22.666759">
		<stop
   offset="0"
   style="stop-color:#B0ACAE"
   id="stop3020-8-2" />
		<stop
   offset="1"
   style="stop-color:#000000"
   id="stop3022-2-74" />
	</linearGradient><linearGradient
   id="a-0"
   x1="12"
   y1="0.5"
   x2="12"
   y2="20"
   gradientUnits="userSpaceOnUse"
   gradientTransform="translate(10.5,112.76525)"><stop
     offset="0"
     style="stop-color:#828181"
     id="stop1" /><stop
     offset="1"
     style="stop-color:#575757"
     id="stop2" /></linearGradient><linearGradient
   id="b-3"
   x1="12"
   y1="20"
   x2="12"
   y2="6"
   gradientUnits="userSpaceOnUse"
   gradientTransform="translate(10.5,112.76525)"><stop
     offset="0"
     style="stop-color:#606060;"
     id="stop3" /><stop
     offset="1"
     style="stop-color:#303030;"
     id="stop4" /></linearGradient><linearGradient
   id="a-6"
   x1="12"
   y1="0.5"
   x2="12"
   y2="20"
   gradientUnits="userSpaceOnUse"><stop
     offset="0"
     style="stop-color:#828181"
     id="stop1-4" /><stop
     offset="1"
     style="stop-color:#575757"
     id="stop2-2" /></linearGradient><linearGradient
   id="b-2"
   x1="12"
   y1="20"
   x2="12"
   y2="6"
   gradientUnits="userSpaceOnUse"><stop
     offset="0"
     style="stop-color:#606060;"
     id="stop3-5" /><stop
     offset="1"
     style="stop-color:#303030;"
     id="stop4-7" /></linearGradient><linearGradient
   id="a-8"
   x1="12"
   y1="0.5"
   x2="12"
   y2="20"
   gradientUnits="userSpaceOnUse"><stop
     offset="0"
     style="stop-color:#828181"
     id="stop1-2" /><stop
     offset="1"
     style="stop-color:#575757"
     id="stop2-5" /></linearGradient><linearGradient
   id="b-4"
   x1="12"
   y1="20"
   x2="12"
   y2="6"
   gradientUnits="userSpaceOnUse"><stop
     offset="0"
     style="stop-color:#606060;"
     id="stop3-6" /><stop
     offset="1"
     style="stop-color:#303030;"
     id="stop4-76" /></linearGradient><linearGradient
   id="a-1"
   x1="12"
   y1="0.5"
   x2="12"
   y2="20"
   gradientUnits="userSpaceOnUse"><stop
     offset="0"
     style="stop-color:#828181"
     id="stop1-7" /><stop
     offset="1"
     style="stop-color:#575757"
     id="stop2-8" /></linearGradient><linearGradient
   id="b-47"
   x1="12"
   y1="20"
   x2="12"
   y2="6"
   gradientUnits="userSpaceOnUse"><stop
     offset="0"
     style="stop-color:#606060;"
     id="stop3-9" /><stop
     offset="1"
     style="stop-color:#303030;"
     id="stop4-3" /></linearGradient><linearGradient
   id="a-3"
   gradientUnits="userSpaceOnUse"
   x1="0"
   y1="1"
   x2="0"
   y2="11">
	<stop
   offset="0"
   style="stop-color:#808080"
   id="stop1964" />
	<stop
   offset="1"
   style="stop-color:#0b0b0b"
   id="stop1966" />
</linearGradient><linearGradient
   id="b-0"
   gradientUnits="userSpaceOnUse"
   x1="0"
   y1="2"
   x2="0"
   y2="10">
	<stop
   offset="0"
   style="stop-color:#808080"
   id="stop1969" />
	<stop
   offset="1"
   style="stop-color:#0b0b0b"
   id="stop1971" />
</linearGradient><linearGradient
   id="a-4"
   gradientUnits="userSpaceOnUse"
   x1="0"
   y1="1"
   x2="0"
   y2="11">
	<stop
   offset="0"
   style="stop-color:#808080"
   id="stop1964-5" />
	<stop
   offset="1"
   style="stop-color:#0b0b0b"
   id="stop1966-5" />
</linearGradient><linearGradient
   id="b-9"
   gradientUnits="userSpaceOnUse"
   x1="0"
   y1="2"
   x2="0"
   y2="10">
	<stop
   offset="0"
   style="stop-color:#808080"
   id="stop1969-1" />
	<stop
   offset="1"
   style="stop-color:#0b0b0b"
   id="stop1971-2" />
</linearGradient><linearGradient
   id="a-80"
   gradientUnits="userSpaceOnUse"
   x1="0"
   y1="1"
   x2="0"
   y2="11">
	<stop
   offset="0"
   style="stop-color:#808080"
   id="stop1964-9" />
	<stop
   offset="1"
   style="stop-color:#0b0b0b"
   id="stop1966-6" />
</linearGradient><linearGradient
   id="b-8"
   gradientUnits="userSpaceOnUse"
   x1="0"
   y1="2"
   x2="0"
   y2="10">
	<stop
   offset="0"
   style="stop-color:#808080"
   id="stop1969-6" />
	<stop
   offset="1"
   style="stop-color:#0b0b0b"
   id="stop1971-4" />
</linearGradient><linearGradient
   id="a-15"
   gradientUnits="userSpaceOnUse"
   x1="0"
   y1="1"
   x2="0"
   y2="11">
	<stop
   offset="0"
   style="stop-color:#808080"
   id="stop1964-3" />
	<stop
   offset="1"
   style="stop-color:#0b0b0b"
   id="stop1966-1" />
</linearGradient><linearGradient
   id="b-80"
   gradientUnits="userSpaceOnUse"
   x1="0"
   y1="2"
   x2="0"
   y2="10">
	<stop
   offset="0"
   style="stop-color:#808080"
   id="stop1969-5" />
	<stop
   offset="1"
   style="stop-color:#0b0b0b"
   id="stop1971-3" />
</linearGradient><linearGradient
   id="a-0-7"
   x1="12"
   y1="0.5"
   x2="12"
   y2="20"
   gradientUnits="userSpaceOnUse"><stop
     offset="0"
     style="stop-color:#828181"
     id="stop1-1" /><stop
     offset="1"
     style="stop-color:#575757"
     id="stop2-56" /></linearGradient><linearGradient
   id="b-3-9"
   x1="12"
   y1="20"
   x2="12"
   y2="6"
   gradientUnits="userSpaceOnUse"><stop
     offset="0"
     style="stop-color:#606060;"
     id="stop3-3" /><stop
     offset="1"
     style="stop-color:#303030;"
     id="stop4-9" /></linearGradient><linearGradient
   id="a-3-5"
   gradientUnits="userSpaceOnUse"
   x1="0"
   y1="1"
   x2="0"
   y2="11">
	<stop
   offset="0"
   style="stop-color:#808080"
   id="stop1964-7" />
	<stop
   offset="1"
   style="stop-color:#0b0b0b"
   id="stop1966-62" />
</linearGradient><linearGradient
   id="b-0-6"
   gradientUnits="userSpaceOnUse"
   x1="0"
   y1="2"
   x2="0"
   y2="10">
	<stop
   offset="0"
   style="stop-color:#808080"
   id="stop1969-2" />
	<stop
   offset="1"
   style="stop-color:#0b0b0b"
   id="stop1971-5" />
</linearGradient><linearGradient
   id="a-0-4"
   x1="12"
   y1="0.5"
   x2="12"
   y2="20"
   gradientUnits="userSpaceOnUse"><stop
     offset="0"
     style="stop-color:#828181"
     id="stop1-20" /><stop
     offset="1"
     style="stop-color:#575757"
     id="stop2-4" /></linearGradient><linearGradient
   id="b-3-6"
   x1="12"
   y1="20"
   x2="12"
   y2="6"
   gradientUnits="userSpaceOnUse"><stop
     offset="0"
     style="stop-color:#606060;"
     id="stop3-8" /><stop
     offset="1"
     style="stop-color:#303030;"
     id="stop4-2" /></linearGradient><linearGradient
   id="a-3-4"
   gradientUnits="userSpaceOnUse"
   x1="0"
   y1="1"
   x2="0"
   y2="11">
	<stop
   offset="0"
   style="stop-color:#808080"
   id="stop1964-8" />
	<stop
   offset="1"
   style="stop-color:#0b0b0b"
   id="stop1966-8" />
</linearGradient><linearGradient
   id="b-0-8"
   gradientUnits="userSpaceOnUse"
   x1="0"
   y1="2"
   x2="0"
   y2="10">
	<stop
   offset="0"
   style="stop-color:#808080"
   id="stop1969-24" />
	<stop
   offset="1"
   style="stop-color:#0b0b0b"
   id="stop1971-9" />
</linearGradient><linearGradient
   id="a-0-3"
   x1="12"
   y1="0.5"
   x2="12"
   y2="20"
   gradientUnits="userSpaceOnUse"><stop
     offset="0"
     style="stop-color:#828181"
     id="stop1-9" /><stop
     offset="1"
     style="stop-color:#575757"
     id="stop2-21" /></linearGradient><linearGradient
   id="b-3-95"
   x1="12"
   y1="20"
   x2="12"
   y2="6"
   gradientUnits="userSpaceOnUse"><stop
     offset="0"
     style="stop-color:#606060;"
     id="stop3-67" /><stop
     offset="1"
     style="stop-color:#303030;"
     id="stop4-0" /></linearGradient><linearGradient
   id="a-3-1"
   gradientUnits="userSpaceOnUse"
   x1="0"
   y1="1"
   x2="0"
   y2="11">
	<stop
   offset="0"
   style="stop-color:#808080"
   id="stop1964-6" />
	<stop
   offset="1"
   style="stop-color:#0b0b0b"
   id="stop1966-3" />
</linearGradient><linearGradient
   id="b-0-3"
   gradientUnits="userSpaceOnUse"
   x1="0"
   y1="2"
   x2="0"
   y2="10">
	<stop
   offset="0"
   style="stop-color:#808080"
   id="stop1969-3" />
	<stop
   offset="1"
   style="stop-color:#0b0b0b"
   id="stop1971-7" />
</linearGradient>
    
    
  
    
    
  </defs><sodipodi:namedview
   id="namedview1258"
   pagecolor="#ffffff"
   bordercolor="#666666"
   borderopacity="1.0"
   inkscape:showpageshadow="2"
   inkscape:pageopacity="0.0"
   inkscape:pagecheckerboard="0"
   inkscape:deskcolor="#d1d1d1"
   showgrid="false"
   inkscape:zoom="13.047981"
   inkscape:cx="46.175727"
   inkscape:cy="68.784589"
   inkscape:window-width="3840"
   inkscape:window-height="2054"
   inkscape:window-x="3829"
   inkscape:window-y="-11"
   inkscape:window-maximized="1"
   inkscape:current-layer="svg1256"
   showguides="false"><sodipodi:guide
     position="208.02769,182.22826"
     orientation="1,0"
     id="guide1939"
     inkscape:locked="false" /><sodipodi:guide
     position="215.46392,182.05926"
     orientation="1,0"
     id="guide1941"
     inkscape:locked="false" /><sodipodi:guide
     position="211.60191,184.28601"
     orientation="0,-1"
     id="guide1943"
     inkscape:locked="false" /><sodipodi:guide
     position="211.38111,182.28163"
     orientation="0,-1"
     id="guide1945"
     inkscape:locked="false" /><sodipodi:guide
     position="211.28169,180.28601"
     orientation="0,-1"
     id="guide1947"
     inkscape:locked="false" /><sodipodi:guide
     position="210.81183,177.38048"
     orientation="1,0"
     id="guide1949"
     inkscape:locked="false" /><sodipodi:guide
     position="212.51078,179.04385"
     orientation="1,0"
     id="guide1951"
     inkscape:locked="false" /><sodipodi:guide
     position="205.27913,177.05136"
     orientation="0,-1"
     id="guide1953"
     inkscape:locked="false" /><sodipodi:guide
     position="211.19431,177.65623"
     orientation="1,0"
     id="guide1955"
     inkscape:locked="false" /><sodipodi:guide
     position="211.9326,177.96755"
     orientation="1,0"
     id="guide1957"
     inkscape:locked="false" /></sodipodi:namedview>
   <g
   id="g143"
   transform="matrix(0.6,0,0,1,0.22992063,-0.6897619)">
      <rect
   id="panel"
   style="fill:#101010;stroke-width:0.456435"
   x="0"
   y="0"
   width="75"
   height="380" />
      
   </g><rect
   style="fill:#2d5d86;fill-opacity:0.35"
   width="45"
   height="12"
   x="0"
   y="58"
   id="rect3" /><rect
   style="fill:#2d5d86;fill-opacity:0.35"
   width="45"
   height="12"
   x="0"
   y="138"
   id="rect4" /><rect
   style="fill:#2d5d86;fill-opacity:0.35"
   width="45"
   height="12"
   x="0"
   y="218"
   id="rect5" />
   <!-- <rect style="fill:#0f0f0f;fill-opacity:1;stroke-width:0.75;stroke-opacity:0.501961" width="230" height="17" x="65" y="24" />
   <rect style="fill:#0f0f0f;fill-opacity:1;stroke-width:0.75;stroke-opacity:0.501961" width="230" height="17" x="65" y="44" /> -->
   
   
<g
   aria-label="#d (pachde logo)"
   style="fill:#c0c0c0"
   id="g2"
   transform="translate(15.2065,365.28679)"><path
     d="M 3.023,5.309 3.916,3.543 5.003,3.834 4.104,5.599 5.759,6.042 6.658,4.277 7.74,4.567 6.846,6.334 7.631,6.544 7.34,7.631 6.328,7.36 5.666,8.665 6.969,9.014 6.678,10.1 5.148,9.691 4.255,11.457 3.168,11.166 4.062,9.4 2.407,8.956 1.513,10.723 0.426,10.431 1.32,8.665 0.54,8.456 0.831,7.369 1.843,7.64 2.5,6.334 1.202,5.986 1.493,4.899 Z M 5.242,7.068 3.587,6.625 2.924,7.93 4.58,8.374 Z"
     id="path1-2" /><path
     d="m 13.387,10.647 -0.301,1.122 -2.354,-0.631 0.155,-0.579 Q 10.064,11.035 9.304,10.831 8.394,10.587 7.993,9.687 7.593,8.787 7.874,7.736 8.16,6.669 8.969,6.104 9.78,5.534 10.665,5.771 11.516,6 11.892,6.807 l 0.414,-1.545 -0.759,-0.204 0.3,-1.121 2.314,0.62 -1.574,5.876 z M 11.402,8.697 Q 11.589,7.998 11.367,7.62 11.15,7.244 10.767,7.141 10.31,7.019 9.962,7.308 9.621,7.595 9.466,8.173 9.32,8.721 9.465,9.165 q 0.147,0.438 0.615,0.564 0.387,0.104 0.76,-0.12 0.379,-0.227 0.562,-0.912 z"
     id="path2" /></g><path
   style="fill:none;stroke:#808080;stroke-width:0.513473;stroke-linecap:butt;stroke-linejoin:miter;stroke-dasharray:none;stroke-opacity:1"
   d="m 7.5,365.36308 h 30"
   id="path3-6" /><path
   style="font-weight:600;font-size:9px;line-height:1.25;font-family:'Hanken Grotesk';-inkscape-font-specification:'Hanken Grotesk Semi-Bold';text-align:center;text-anchor:middle;fill:#d9d9d9"
   d="m 18.076499,67.100502 v -5.346 h -1.998 v -0.927 h 5.04 v 0.927 h -1.989 v 5.346 z m 3.734992,0 v -4.437 h 0.999 v 4.437 z m -0.045,-5.166 v -1.107 h 1.089 v 1.107 z m 3.186003,5.247 q -0.432,0 -0.72,-0.261 -0.288,-0.27 -0.288,-0.855 v -5.238 h 0.999 v 5.04 q 0,0.207 0.09,0.306 0.099,0.09 0.252,0.09 0.081,0 0.162,-0.018 0.09,-0.018 0.18,-0.045 v 0.846 q -0.171,0.072 -0.351,0.099 -0.18,0.036 -0.324,0.036 z m 3.033001,0 q -0.333,0 -0.63,-0.126 -0.288,-0.135 -0.459,-0.423 -0.171,-0.297 -0.171,-0.774 v -4.275 l 1.008,-0.558 v 4.554 q 0,0.378 0.108,0.585 0.117,0.198 0.414,0.198 0.09,0 0.207,-0.018 0.126,-0.027 0.261,-0.063 v 0.774 q -0.18,0.063 -0.369,0.09 -0.18,0.036 -0.369,0.036 z m -2.106,-3.744 v -0.774 h 2.844 v 0.774 z"
   id="text2"
   aria-label="Tilt" /><path
   style="font-weight:600;font-size:9px;line-height:1.25;font-family:'Hanken Grotesk';-inkscape-font-specification:'Hanken Grotesk Semi-Bold';text-align:center;text-anchor:middle;fill:#d9d9d9"
   d="m 1.5408068,146.21851 v -6.273 h 4.167 v 0.927 h -3.123 v 1.665 h 2.709 v 0.936 h -2.709 v 2.745 z m 4.6745843,0 v -4.437 h 1.008 v 1.197 l -0.189,0.027 q 0.045,-0.387 0.261,-0.675 0.216,-0.297 0.522,-0.459 0.315,-0.171 0.621,-0.171 0.216,0 0.414,0.054 0.198,0.054 0.414,0.18 l -0.486,0.9 q -0.099,-0.063 -0.261,-0.099 -0.153,-0.045 -0.297,-0.045 -0.189,0 -0.378,0.072 -0.18,0.072 -0.324,0.225 -0.144,0.144 -0.216,0.378 -0.045,0.126 -0.072,0.333 -0.018,0.198 -0.018,0.558 v 1.962 z m 5.4827989,0.081 q -0.558,0 -0.972,-0.18 -0.405,-0.18 -0.666,-0.504 -0.2609996,-0.324 -0.3869996,-0.729 -0.126,-0.414 -0.126,-0.855 0,-0.441 0.117,-0.855 0.126,-0.423 0.3779996,-0.756 0.252,-0.333 0.648,-0.522 0.396,-0.198 0.936,-0.198 0.513,0 0.891,0.18 0.387,0.171 0.639,0.486 0.252,0.306 0.369,0.702 0.126,0.396 0.126,0.846 0,0.063 -0.009,0.18 0,0.117 -0.018,0.234 h -3.078 q 0.036,0.531 0.36,0.81 0.324,0.279 0.828,0.279 0.369,0 0.675,-0.117 0.306,-0.117 0.558,-0.369 l 0.549,0.666 q -0.279,0.252 -0.558,0.405 -0.279,0.153 -0.585,0.225 -0.297,0.072 -0.675,0.072 z m 0.972,-2.475 q 0.018,-0.072 0.018,-0.144 0.009,-0.072 0.009,-0.144 0,-0.198 -0.072,-0.378 -0.063,-0.18 -0.198,-0.315 -0.135,-0.144 -0.333,-0.225 -0.198,-0.09 -0.45,-0.09 -0.351,0 -0.594,0.153 -0.234,0.153 -0.369,0.396 -0.126,0.234 -0.153,0.513 h 2.466 z m 4.995004,4.23 v -3.078 l 0.234,0.045 q -0.09,0.414 -0.315,0.702 -0.216,0.288 -0.54,0.432 -0.315,0.144 -0.693,0.144 -0.54,0 -0.981,-0.27 -0.441,-0.279 -0.702,-0.792 -0.252,-0.522 -0.252,-1.233 0,-0.657 0.234,-1.179 0.234,-0.522 0.666,-0.819 0.441,-0.306 1.035,-0.306 0.36,0 0.675,0.135 0.315,0.126 0.549,0.414 0.234,0.288 0.351,0.774 l -0.261,-0.009 v -1.233 h 0.999 v 6.273 z m -1.071,-2.664 q 0.351,0 0.612,-0.171 0.261,-0.18 0.405,-0.486 0.144,-0.315 0.144,-0.729 0,-0.414 -0.144,-0.729 -0.144,-0.315 -0.405,-0.486 -0.261,-0.171 -0.612,-0.171 -0.351,0 -0.621,0.171 -0.261,0.171 -0.414,0.486 -0.144,0.315 -0.144,0.729 0,0.414 0.144,0.729 0.153,0.315 0.414,0.486 0.27,0.171 0.621,0.171 z m 4.779004,0.909 q -0.522,0 -0.882,-0.207 -0.351,-0.207 -0.531,-0.594 -0.18,-0.387 -0.18,-0.936 v -2.781 h 0.999 v 2.511 q 0,0.351 0.081,0.612 0.09,0.252 0.279,0.387 0.198,0.135 0.531,0.135 0.387,0 0.603,-0.198 0.225,-0.207 0.315,-0.594 0.099,-0.396 0.099,-0.945 v -1.908 h 0.999 v 4.437 h -0.999 v -0.954 l 0.171,0.063 q -0.207,0.504 -0.603,0.738 -0.387,0.234 -0.882,0.234 z m 5.436,0 q -0.558,0 -0.972,-0.18 -0.405,-0.18 -0.666,-0.504 -0.261,-0.324 -0.387,-0.729 -0.126,-0.414 -0.126,-0.855 0,-0.441 0.117,-0.855 0.126,-0.423 0.378,-0.756 0.252,-0.333 0.648,-0.522 0.396,-0.198 0.936,-0.198 0.513,0 0.891,0.18 0.387,0.171 0.639,0.486 0.252,0.306 0.369,0.702 0.126,0.396 0.126,0.846 0,0.063 -0.009,0.18 0,0.117 -0.018,0.234 h -3.078 q 0.036,0.531 0.36,0.81 0.324,0.279 0.828,0.279 0.369,0 0.675,-0.117 0.306,-0.117 0.558,-0.369 l 0.549,0.666 q -0.279,0.252 -0.558,0.405 -0.279,0.153 -0.585,0.225 -0.297,0.072 -0.675,0.072 z m 0.972,-2.475 q 0.018,-0.072 0.018,-0.144 0.009,-0.072 0.009,-0.144 0,-0.198 -0.072,-0.378 -0.063,-0.18 -0.198,-0.315 -0.135,-0.144 -0.333,-0.225 -0.198,-0.09 -0.45,-0.09 -0.351,0 -0.594,0.153 -0.234,0.153 -0.369,0.396 -0.126,0.234 -0.153,0.513 h 2.466 z m 1.953003,2.394 v -4.437 h 0.999 v 0.981 l -0.18,0.045 q 0.117,-0.387 0.342,-0.63 0.225,-0.243 0.522,-0.36 0.306,-0.117 0.639,-0.117 0.747,0 1.161,0.432 0.423,0.423 0.423,1.215 v 2.871 h -0.999 v -2.502 q 0,-0.594 -0.216,-0.873 -0.216,-0.279 -0.666,-0.279 -0.333,0 -0.567,0.162 -0.225,0.153 -0.342,0.486 -0.117,0.333 -0.117,0.846 v 2.16 z m 6.948002,0.081 q -0.522,0 -0.927,-0.18 -0.396,-0.189 -0.666,-0.513 -0.261,-0.333 -0.396,-0.747 -0.135,-0.414 -0.135,-0.864 0,-0.45 0.135,-0.864 0.135,-0.414 0.396,-0.738 0.27,-0.324 0.666,-0.504 0.405,-0.189 0.927,-0.189 0.657,0 1.143,0.315 0.495,0.315 0.729,0.972 l -0.882,0.342 q -0.108,-0.342 -0.351,-0.549 -0.243,-0.216 -0.639,-0.216 -0.396,0 -0.648,0.207 -0.243,0.207 -0.36,0.531 -0.117,0.324 -0.117,0.693 0,0.369 0.117,0.702 0.117,0.324 0.36,0.531 0.252,0.198 0.648,0.198 0.396,0 0.639,-0.207 0.243,-0.207 0.351,-0.549 l 0.882,0.342 q -0.234,0.648 -0.729,0.972 -0.486,0.315 -1.143,0.315 z m 3.14099,1.746 0.882,-2.124 -1.692,-4.14 h 1.098 l 1.125,3.141 1.143,-3.141 h 1.08 l -2.556,6.264 z"
   id="text3"
   aria-label="Frequency" /><path
   style="font-weight:600;font-size:9px;line-height:1.25;font-family:'Hanken Grotesk';-inkscape-font-specification:'Hanken Grotesk Semi-Bold';text-align:center;text-anchor:middle;fill:#d9d9d9"
   d="m 15.610498,227.13651 v -6.273 h 1.53 l 1.755,4.689 h -0.189 l 1.764,-4.689 h 1.521 v 6.273 h -1.044 v -5.058 l 0.09,0.018 -1.728,4.491 h -1.017 l -1.737,-4.491 0.099,-0.018 v 5.058 z m 7.595999,0 v -4.437 h 0.999 v 4.437 z m -0.045,-5.166 v -1.107 h 1.089 v 1.107 z m 1.818003,5.166 1.539,-2.232 -1.539,-2.205 h 1.197 l 1.008,1.539 1.026,-1.539 h 1.179 l -1.548,2.205 1.548,2.232 h -1.197 l -1.008,-1.566 -1.026,1.566 z"
   id="text4"
   aria-label="Mix" /><path
   style="font-weight:bold;font-size:12px;line-height:1.25;font-family:Garamond;-inkscape-font-specification:'Garamond Bold';text-align:center;text-anchor:middle;fill:#f2f2f2"
   d="m 5.1298828,2.5175781 h 0.3632813 q 0.041016,0.064453 0.058594,0.09375 0.1640625,0.28125 0.2519531,0.3691407 0.076172,0.023437 0.8027344,0.023437 0.4511719,0 0.8027344,-0.00586 l 0.1171875,-0.017578 0.7089844,-0.00586 1.3242187,0.011719 h 1.8105467 l 0.345703,-0.052734 q 0.07617,-0.052734 0.164063,-0.28125 0.02344,-0.052734 0.06445,-0.1464844 L 12.202148,2.5 q 0.05859,0 0.175782,0.00586 0.0059,0.4042969 0.0059,1.21875 l 0.0059,0.5214843 -0.0059,0.2988282 q 0,0.1523437 -0.02344,0.2636718 -0.240235,0.076172 -0.421875,0.09375 -0.152344,-0.2285156 -0.333985,-0.6621093 -0.175781,-0.4335938 -0.222656,-0.4804688 -0.07031,-0.076172 -0.164063,-0.099609 -0.140625,-0.029297 -1.2421871,-0.029297 -0.1640625,0 -0.4101562,0.023437 -0.035156,0.2285156 -0.035156,0.375 l 0.00586,0.7851562 v 1.7226563 l 0.023437,1.8574219 -0.00586,0.7617187 q 0,0.4042969 0.070312,0.609375 0.09375,0.041016 0.3457032,0.076172 0.046875,0.00586 0.4335934,0.09375 0.175782,0.041016 0.310547,0.09375 0.0293,0.210937 0.0293,0.257812 0,0.05274 -0.01758,0.152344 -0.128906,0.0059 -0.210938,0.0059 -0.6035152,0 -1.0253902,-0.04102 -0.421875,-0.04687 -1.5292969,-0.04687 -0.1757812,0 -1.03125,0.07031 -0.3339843,0.02344 -0.4335937,0.02344 -0.00586,-0.08789 -0.011719,-0.134766 l -0.00586,-0.134765 v -0.04687 Q 6.6064453,9.9648438 6.9638672,9.8828125 7.5732422,9.7363281 7.8076172,9.6191406 7.8662109,9.5078125 7.8779297,9.3261719 7.9189453,8.6230469 7.9189453,7.0878906 L 7.8896484,4.8730469 q 0,-0.9140625 -0.035156,-1.1074219 -0.011719,-0.052734 -0.041016,-0.076172 -0.029297,-0.029297 -0.082031,-0.035156 -0.1816406,-0.023437 -1.1835937,-0.023437 -0.5507813,0 -0.7382813,0.1054687 -0.2519531,0.1464844 -0.7558594,0.796875 -0.1464843,0.1875 -0.2167968,0.1875 Q 4.5673828,4.5800781 4.4912109,4.4921875 4.6728516,4.1113281 4.9951172,2.96875 5.0888672,2.6347656 5.1298828,2.5175781 Z m 8.6308592,0.9257813 q 0,-0.3164063 0.205078,-0.515625 0.205078,-0.2050781 0.527344,-0.2050781 0.345703,0 0.574219,0.2167968 0.228515,0.2109375 0.228515,0.4804688 0,0.1992187 -0.09375,0.3984375 -0.08789,0.1992187 -0.287109,0.3222656 -0.193359,0.1171875 -0.398437,0.1171875 -0.28125,0 -0.521485,-0.2402344 -0.234375,-0.2402343 -0.234375,-0.5742187 z m -0.820312,6.9902346 -0.01172,-0.38086 0.662109,-0.08789 q 0.146485,-0.041016 0.199219,-0.1171875 0.05859,-0.082031 0.05859,-0.3574219 v -0.064453 q 0,-0.070312 0.0059,-0.2519532 0.01172,-0.1875 0.01172,-0.328125 0,-0.1113281 -0.01758,-0.4277343 l 0.0059,-0.2929688 -0.0059,-0.2753906 0.01172,-0.9550782 q 0,-0.1816406 -0.03516,-0.375 -0.06445,-0.087891 -0.234375,-0.1523437 -0.169922,-0.064453 -0.591797,-0.09375 v -0.328125 q 0.603516,-0.035156 1.060547,-0.2519531 0.310547,-0.140625 0.673828,-0.4980469 h 0.392579 q 0.02344,0.7265625 0.02344,1.8867187 l -0.04102,2.3906251 q 0,0.2460937 0.02344,0.4453125 0.181641,0.064453 0.591797,0.1289062 0.158203,0.02344 0.251953,0.05859 l -0.0059,0.322265 q -0.158204,0.0059 -0.234375,0.0059 -0.08789,0 -0.269532,-0.01172 -0.597656,-0.0293 -1.599609,-0.0293 -0.287109,0 -0.556641,0.02344 -0.269531,0.01758 -0.36914,0.01758 z m 3.228515,-0.257813 q 0.128907,-0.08789 0.339844,-0.111328 0.404297,-0.04687 0.462891,-0.1230467 0.117187,-0.1523438 0.117187,-0.6210938 V 7.6679687 l -0.0059,-0.3925781 V 6.0917969 L 17.06543,4.7382812 v -0.234375 q 0,-0.4804687 -0.07617,-0.7089843 Q 16.78418,3.671875 16.549805,3.671875 q -0.140625,0 -0.263672,-0.029297 -0.01758,-0.1464843 -0.01758,-0.2167968 0,-0.046875 0.01172,-0.1054688 0.462891,-0.052734 0.960938,-0.234375 0.498047,-0.1875 0.761719,-0.3808594 l 0.164062,-0.00586 q 0.05273,0 0.152344,0.00586 0.0293,2.0273438 0.0293,2.7773438 0,0.2226562 -0.0059,0.3574218 V 5.875 l 0.0059,0.1113281 v 2.5957032 l 0.0059,0.8554687 v 0.140625 q 0,0.2519531 0.08203,0.3574219 0.07031,0.076172 0.298829,0.09375 0.123046,0.01172 0.486328,0.05859 0.0293,0.123047 0.0293,0.199218 0,0.05859 -0.01172,0.164063 l -0.462891,-0.02344 q -0.386719,-0.0293 -0.972656,-0.0293 l -0.216797,-0.0059 q -0.333984,0 -0.966797,0.05274 H 16.192383 Z M 19.59668,5.9921875 q 0.691406,-0.2929688 0.996093,-0.5742188 0.310547,-0.28125 0.66211,-0.9140625 h 0.328125 q 0.05273,0.1523438 0.05273,0.3222657 0,0.3046875 -0.0059,0.4746093 l -0.01758,0.3457032 q 0,0.029297 0.0059,0.1347656 l 0.134766,0.00586 q 0.0293,0 0.550781,-0.023437 0.04102,0 0.439453,-0.011719 0.03516,0.1582031 0.03516,0.28125 0,0.1347656 -0.04102,0.3164063 -0.19336,0.023437 -0.292969,0.023437 -0.04687,0 -0.1875,-0.011719 h -0.304688 l -0.105468,-0.00586 -0.28125,0.011719 -0.01172,2.2382813 q -0.0059,0.6503906 0.02344,0.8144531 0.03516,0.1582031 0.140625,0.3046875 0.134766,0.064453 0.298829,0.064453 0.158203,0 0.234375,-0.029297 0.07617,-0.029297 0.257812,-0.1699218 0.03516,-0.029297 0.111328,-0.082031 0.140625,0.1113281 0.228516,0.2226563 l 0.02344,0.070312 q -0.205078,0.3222657 -0.580078,0.5097657 -0.36914,0.181641 -0.791015,0.181641 -0.544922,0 -0.884766,-0.345704 -0.339844,-0.3457027 -0.339844,-1.0722652 l 0.02344,-1.03125 V 6.3730469 l -0.181641,-0.00586 -0.421875,0.00586 -0.07617,-0.017578 q -0.03516,-0.052734 -0.03516,-0.099609 0,-0.035156 0.01172,-0.2636719 z m 3.644531,-3.1464844 q 0.333984,0.017578 0.580078,0.052734 0.462891,0.064453 1.072266,0.064453 0.210937,0 1.083984,-0.035156 Q 27.28418,2.875 28.338867,2.875 l 1.060547,-0.011719 q 0.357422,0 1.054688,0.087891 0.105468,0.1171875 0.105468,0.3164062 v 1.2070313 l 0.01172,0.2402343 q 0,0.035156 -0.0059,0.1054688 l -0.240235,0.011719 q -0.04687,0 -0.199218,-0.011719 Q 30.073242,4.703125 29.985352,4.4746094 L 29.750977,4.0585937 q -0.134766,-0.2636718 -0.375,-0.5390624 -0.146485,-0.041016 -0.375,-0.046875 -0.05859,-0.00586 -0.357422,-0.029297 -0.544922,-0.046875 -1.171875,-0.046875 -0.714844,0 -1.277344,0.023437 -0.01758,0.1464844 -0.01758,1.1542968 l 0.01172,0.984375 V 6.296875 q 0.146484,0.017578 0.251953,0.017578 1.048828,0 1.49414,-0.041016 0.445313,-0.041016 0.550782,-0.1113281 0.105468,-0.076172 0.1875,-0.2578125 0.05273,-0.1289063 0.205078,-0.8613282 l 0.07617,-0.00586 0.339843,0.00586 q 0.02344,0.5214844 0.02344,0.7910157 0,0.6152343 -0.01172,0.7910156 -0.0059,0.1757812 -0.0059,0.2753906 0,0.1582031 0.01758,0.5097656 0.01758,0.3457032 0.01758,0.515625 v 0.1289063 h -0.416016 q -0.02344,-0.09375 -0.08789,-0.3867188 -0.117188,-0.5449218 -0.210938,-0.6796875 -0.07031,-0.1054687 -0.234375,-0.1582031 -0.117187,-0.041016 -0.867187,-0.041016 -0.884766,0 -1.330078,0.046875 -0.0059,0.1523437 -0.0059,0.1992187 0,0.6972657 0.02344,1.1601563 l -0.01172,1.265625 q 0,0.2226563 0.158203,0.3046875 0.240234,0.1230469 1.470703,0.1230469 0.814453,0 1.382813,-0.1230469 0.392578,-0.087891 0.691406,-0.3925781 0.398437,-0.3925781 0.662109,-1.1015625 0.181641,-0.017578 0.298828,-0.017578 0.06445,0 0.19336,0.00586 -0.01758,0.1464844 -0.0293,0.2460938 l -0.03516,0.1757812 -0.216797,1.1074219 -0.105469,0.6679685 q -0.380859,0.01758 -0.603516,0.01758 -0.328125,0 -1.751953,-0.05859 -1.001953,-0.04102 -2.414062,-0.04102 -0.703125,0 -1.728516,0.05859 h -0.246094 l -0.708984,0.02344 v -0.404297 q 0.111328,-0.0293 0.445313,-0.064453 0.609375,-0.070312 0.84375,-0.1875 0.06445,-0.1699219 0.06445,-0.4277344 0,-0.099609 -0.0059,-0.3398438 l 0.0059,-0.1816406 -0.01758,-2.2089844 0.0059,-0.6621094 -0.0293,-0.9375 0.0059,-0.6621093 -0.05273,-0.7265625 q 0,-0.029297 -0.01172,-0.1171875 -0.05859,-0.064453 -0.175781,-0.082031 -0.06445,-0.011719 -0.175781,-0.035156 -0.333985,-0.070312 -0.644531,-0.082031 -0.111329,-0.00586 -0.257813,-0.023437 z m 14.513672,7.4999999 q 0.27539,0.175781 0.410156,0.28711 0.84375,0.679687 1.505859,1.013671 0.275391,0.140625 0.826172,0.240235 0.01172,0.234375 0.01172,0.36914 0,0.117188 -0.01172,0.240235 -0.146484,0.02344 -0.316406,0.02344 -0.826172,0 -1.40625,-0.123047 -0.410156,-0.08789 -1.113281,-0.398437 Q 36.963867,11.6875 35.80957,10.966797 35.258789,10.621094 34.836914,10.439453 33.928711,10.052734 33.331055,9.5371094 32.733398,9.0214844 32.381836,8.2949219 32.030273,7.5625 32.030273,6.6953125 q 0,-1.0898438 0.521485,-2.0449219 0.521484,-0.9609375 1.68164,-1.5585937 Q 35.018555,2.6875 36.225586,2.6875 q 0.955078,0 1.599609,0.234375 0.644532,0.2285156 1.119141,0.6152344 0.474609,0.3867187 0.796875,0.8613281 0.322266,0.46875 0.503906,1.03125 0.1875,0.5625 0.1875,1.1894531 0,0.7207031 -0.240234,1.359375 -0.240235,0.6386719 -0.621094,1.1074219 -0.375,0.4628906 -0.890625,0.8203125 -0.310547,0.205078 -0.925781,0.439453 z M 36.28418,10.041016 q 0.427734,0 0.972656,-0.2695316 0.550781,-0.2753906 0.925781,-1.0195313 0.38086,-0.75 0.38086,-2.0683594 0,-0.9960937 -0.210938,-1.6289062 Q 38.147461,4.421875 37.889648,4.0820312 37.631836,3.7421875 37.233398,3.5195313 36.711914,3.2324219 36.161133,3.2324219 q -0.503906,0 -0.820313,0.1582031 -0.509765,0.2636719 -0.785156,0.6386719 -0.386719,0.5332031 -0.509766,1.2304687 -0.117187,0.6914063 -0.117187,1.3125 0,0.6914063 0.134766,1.40625 0.140625,0.7148438 0.410156,1.1425782 0.27539,0.4277343 0.732422,0.6738281 0.46289,0.2460941 1.078125,0.2460941 z"
   id="text1"
   aria-label="TiltEQ" /></svg>
