<?xml version="1.0" encoding="UTF-8" standalone="no"?>
<svg width="20" height="9" viewBox="0 0 20 9" version="1.1"
xmlns:sodipodi="http://sodipodi.sourceforge.net/DTD/sodipodi-0.dtd"
xmlns:xlink="http://www.w3.org/1999/xlink"
xmlns="http://www.w3.org/2000/svg"
xmlns:svg="http://www.w3.org/2000/svg">
<defs>
   <linearGradient id="pill-highlight" x1="10" y1="0.5" x2="10" y2="6.25" gradientUnits="userSpaceOnUse">
   <stop offset="0" style="stop-color:#f9f5e6;stop-opacity:0.75;"/>
   <stop offset="1" style="stop-color:#2a1d00;stop-opacity:0.28;"/>
   </linearGradient>
   <linearGradient id="s" x1="0" y1="-2.6105919" x2="0" y2="8.6" gradientUnits="userSpaceOnUse">
   <stop offset="0" style="stop-color:#484119;stop-opacity:1;" />
   <stop offset="1" style="stop-color:#16150f;stop-opacity:0;" />
   </linearGradient>
</defs>
<path style="fill:url(#s)" d="m 1.2760243,1.8086508 c 0.4997884,-0.9913631 17.2997677,-0.94398222 17.5703087,0 0.270541,0.9439822 0.306146,5.1528699 0,6.2441772 -0.306146,1.0913074 -17.1692664,1.0800179 -17.5703087,0 -0.40104229,-1.0800178 -0.4997884,-5.2528142 0,-6.2441772 z" />
<path style="fill:#837212" d="m 1.100266,0.58123 c 0.512011,-0.79383 17.722843,-0.75589 18,0 0.277157,0.75589 0.313633,4.12614 0,5 -0.313633,0.87386 -17.58915,0.86482 -18,0 -0.41085,-0.86482 -0.512011,-4.20617 0,-5 z" />
<path style="fill:#524812" d="m 0.86914062,4.6371285 c 0.0582523,0.4058774 0.13480548,0.7447968 0.23046878,0.945866 0.4108496,0.8635415 17.6863676,0.8725681 17.9999996,0 0.07223,-0.2009563 0.125682,-0.5389202 0.16211,-0.9419655 C 16.64573,5.0755807 3.4785322,5.0719828 0.86914062,4.6371285 Z" />
<path style="fill:url(#pill-highlight)" d="m 1.100266,0.58123 c 0.512011,-0.79383 17.722843,-0.75589 18,0 0.277157,0.75589 0.313633,4.12614 0,5 -0.313633,0.87386 -17.58915,0.86482 -18,0 -0.41085,-0.86482 -0.512011,-4.20617 0,-5 z"/>
</svg>
