<?xml version="1.0" encoding="UTF-8" standalone="no"?>
<svg
   height="380"
   width="45"
   viewBox="0 0 45 380"
   version="1.1"
   xml:space="preserve"
   id="svg1256"
   sodipodi:docname="Comp.svg"
   inkscape:version="1.3.1 (91b66b0783, 2023-11-16)"
   xmlns:inkscape="http://www.inkscape.org/namespaces/inkscape"
   xmlns:sodipodi="http://sodipodi.sourceforge.net/DTD/sodipodi-0.dtd"
   xmlns="http://www.w3.org/2000/svg"
   xmlns:svg="http://www.w3.org/2000/svg"><defs
   id="defs1260"><linearGradient
     id="a"
     x1="0"
     y1="0"
     x2="0"
     y2="8"
     gradientUnits="userSpaceOnUse"
     gradientTransform="translate(204.10191,191.71399)"><stop
       offset="0"
       style="stop-color:#bfbfbf"
       id="stop1669" /><stop
       offset="1"
       style="stop-color:#404040"
       id="stop1671" /></linearGradient><linearGradient
     id="b"
     x1="0"
     y1="0"
     x2="0"
     y2="15"
     gradientUnits="userSpaceOnUse"
     gradientTransform="translate(204.10191,191.71399)"><stop
       offset="0"
       style="stop-color:#333333"
       id="stop1674" /><stop
       offset="1"
       style="stop-color:#595959"
       id="stop1676" /></linearGradient><linearGradient
     id="SVGID_1_-0"
     gradientUnits="userSpaceOnUse"
     x1="11.33881"
     y1="-0.0090399999"
     x2="11.33881"
     y2="22.666759">
		<stop
   offset="0"
   style="stop-color:#B0ACAE"
   id="stop3020-8" />
		<stop
   offset="1"
   style="stop-color:#000000"
   id="stop3022-2" />
	</linearGradient><linearGradient
     id="linearGradient3567"
     gradientUnits="userSpaceOnUse"
     x1="4.5368199"
     y1="-4120.5469"
     x2="22.556919"
     y2="-4120.5469"
     gradientTransform="rotate(90,-2053.495,-2055.713)">
		<stop
   offset="0"
   style="stop-color:#232223"
   id="stop3031-1" />
		<stop
   offset="1"
   style="stop-color:#1F1E1F"
   id="stop3033-7" />
	</linearGradient><linearGradient
     id="SVGID_1_-0-4"
     gradientUnits="userSpaceOnUse"
     x1="11.33881"
     y1="-0.0090399999"
     x2="11.33881"
     y2="22.666759">
		<stop
   offset="0"
   style="stop-color:#B0ACAE"
   id="stop3020-8-5" />
		<stop
   offset="1"
   style="stop-color:#000000"
   id="stop3022-2-7" />
	</linearGradient><linearGradient
     id="SVGID_1_-0-6"
     gradientUnits="userSpaceOnUse"
     x1="11.33881"
     y1="-0.0090399999"
     x2="11.33881"
     y2="22.666759">
		<stop
   offset="0"
   style="stop-color:#B0ACAE"
   id="stop3020-8-8" />
		<stop
   offset="1"
   style="stop-color:#000000"
   id="stop3022-2-2" />
	</linearGradient><linearGradient
     id="SVGID_1_-0-8"
     gradientUnits="userSpaceOnUse"
     x1="11.33881"
     y1="-0.0090399999"
     x2="11.33881"
     y2="22.666759">
		<stop
   offset="0"
   style="stop-color:#B0ACAE"
   id="stop3020-8-2" />
		<stop
   offset="1"
   style="stop-color:#000000"
   id="stop3022-2-74" />
	</linearGradient><linearGradient
     id="a-0"
     x1="12"
     y1="0.5"
     x2="12"
     y2="20"
     gradientUnits="userSpaceOnUse"><stop
       offset="0"
       style="stop-color:#828181"
       id="stop1" /><stop
       offset="1"
       style="stop-color:#575757"
       id="stop2" /></linearGradient><linearGradient
     id="b-3"
     x1="12"
     y1="20"
     x2="12"
     y2="6"
     gradientUnits="userSpaceOnUse"><stop
       offset="0"
       style="stop-color:#606060;"
       id="stop3" /><stop
       offset="1"
       style="stop-color:#303030;"
       id="stop4" /></linearGradient><linearGradient
     id="a-6"
     x1="12"
     y1="0.5"
     x2="12"
     y2="20"
     gradientUnits="userSpaceOnUse"><stop
       offset="0"
       style="stop-color:#828181"
       id="stop1-4" /><stop
       offset="1"
       style="stop-color:#575757"
       id="stop2-2" /></linearGradient><linearGradient
     id="b-2"
     x1="12"
     y1="20"
     x2="12"
     y2="6"
     gradientUnits="userSpaceOnUse"><stop
       offset="0"
       style="stop-color:#606060;"
       id="stop3-5" /><stop
       offset="1"
       style="stop-color:#303030;"
       id="stop4-7" /></linearGradient><linearGradient
     id="a-8"
     x1="12"
     y1="0.5"
     x2="12"
     y2="20"
     gradientUnits="userSpaceOnUse"><stop
       offset="0"
       style="stop-color:#828181"
       id="stop1-2" /><stop
       offset="1"
       style="stop-color:#575757"
       id="stop2-5" /></linearGradient><linearGradient
     id="b-4"
     x1="12"
     y1="20"
     x2="12"
     y2="6"
     gradientUnits="userSpaceOnUse"><stop
       offset="0"
       style="stop-color:#606060;"
       id="stop3-6" /><stop
       offset="1"
       style="stop-color:#303030;"
       id="stop4-76" /></linearGradient><linearGradient
     id="a-1"
     x1="12"
     y1="0.5"
     x2="12"
     y2="20"
     gradientUnits="userSpaceOnUse"><stop
       offset="0"
       style="stop-color:#828181"
       id="stop1-7" /><stop
       offset="1"
       style="stop-color:#575757"
       id="stop2-8" /></linearGradient><linearGradient
     id="b-47"
     x1="12"
     y1="20"
     x2="12"
     y2="6"
     gradientUnits="userSpaceOnUse"><stop
       offset="0"
       style="stop-color:#606060;"
       id="stop3-9" /><stop
       offset="1"
       style="stop-color:#303030;"
       id="stop4-3" /></linearGradient><linearGradient
     id="a-3"
     gradientUnits="userSpaceOnUse"
     x1="0"
     y1="1"
     x2="0"
     y2="11">
	<stop
   offset="0"
   style="stop-color:#808080"
   id="stop1964" />
	<stop
   offset="1"
   style="stop-color:#0b0b0b"
   id="stop1966" />
</linearGradient><linearGradient
     id="b-0"
     gradientUnits="userSpaceOnUse"
     x1="0"
     y1="2"
     x2="0"
     y2="10"
     gradientTransform="translate(2,-4)">
	<stop
   offset="0"
   style="stop-color:#808080"
   id="stop1969" />
	<stop
   offset="1"
   style="stop-color:#0b0b0b"
   id="stop1971" />
</linearGradient><linearGradient
     id="a-4"
     gradientUnits="userSpaceOnUse"
     x1="0"
     y1="1"
     x2="0"
     y2="11">
	<stop
   offset="0"
   style="stop-color:#808080"
   id="stop1964-5" />
	<stop
   offset="1"
   style="stop-color:#0b0b0b"
   id="stop1966-5" />
</linearGradient><linearGradient
     id="b-9"
     gradientUnits="userSpaceOnUse"
     x1="0"
     y1="2"
     x2="0"
     y2="10">
	<stop
   offset="0"
   style="stop-color:#808080"
   id="stop1969-1" />
	<stop
   offset="1"
   style="stop-color:#0b0b0b"
   id="stop1971-2" />
</linearGradient><linearGradient
     id="a-80"
     gradientUnits="userSpaceOnUse"
     x1="0"
     y1="1"
     x2="0"
     y2="11">
	<stop
   offset="0"
   style="stop-color:#808080"
   id="stop1964-9" />
	<stop
   offset="1"
   style="stop-color:#0b0b0b"
   id="stop1966-6" />
</linearGradient><linearGradient
     id="b-8"
     gradientUnits="userSpaceOnUse"
     x1="0"
     y1="2"
     x2="0"
     y2="10">
	<stop
   offset="0"
   style="stop-color:#808080"
   id="stop1969-6" />
	<stop
   offset="1"
   style="stop-color:#0b0b0b"
   id="stop1971-4" />
</linearGradient><linearGradient
     id="a-15"
     gradientUnits="userSpaceOnUse"
     x1="0"
     y1="1"
     x2="0"
     y2="11">
	<stop
   offset="0"
   style="stop-color:#808080"
   id="stop1964-3" />
	<stop
   offset="1"
   style="stop-color:#0b0b0b"
   id="stop1966-1" />
</linearGradient><linearGradient
     id="b-80"
     gradientUnits="userSpaceOnUse"
     x1="0"
     y1="2"
     x2="0"
     y2="10">
	<stop
   offset="0"
   style="stop-color:#808080"
   id="stop1969-5" />
	<stop
   offset="1"
   style="stop-color:#0b0b0b"
   id="stop1971-3" />
</linearGradient><linearGradient
     id="a-0-7"
     x1="12"
     y1="0.5"
     x2="12"
     y2="20"
     gradientUnits="userSpaceOnUse"><stop
       offset="0"
       style="stop-color:#828181"
       id="stop1-1" /><stop
       offset="1"
       style="stop-color:#575757"
       id="stop2-56" /></linearGradient><linearGradient
     id="b-3-9"
     x1="12"
     y1="20"
     x2="12"
     y2="6"
     gradientUnits="userSpaceOnUse"><stop
       offset="0"
       style="stop-color:#606060;"
       id="stop3-3" /><stop
       offset="1"
       style="stop-color:#303030;"
       id="stop4-9" /></linearGradient><linearGradient
     id="a-3-5"
     gradientUnits="userSpaceOnUse"
     x1="0"
     y1="1"
     x2="0"
     y2="11">
	<stop
   offset="0"
   style="stop-color:#808080"
   id="stop1964-7" />
	<stop
   offset="1"
   style="stop-color:#0b0b0b"
   id="stop1966-62" />
</linearGradient><linearGradient
     id="b-0-6"
     gradientUnits="userSpaceOnUse"
     x1="0"
     y1="2"
     x2="0"
     y2="10">
	<stop
   offset="0"
   style="stop-color:#808080"
   id="stop1969-2" />
	<stop
   offset="1"
   style="stop-color:#0b0b0b"
   id="stop1971-5" />
</linearGradient><linearGradient
     id="a-0-4"
     x1="12"
     y1="0.5"
     x2="12"
     y2="20"
     gradientUnits="userSpaceOnUse"><stop
       offset="0"
       style="stop-color:#828181"
       id="stop1-20" /><stop
       offset="1"
       style="stop-color:#575757"
       id="stop2-4" /></linearGradient><linearGradient
     id="b-3-6"
     x1="12"
     y1="20"
     x2="12"
     y2="6"
     gradientUnits="userSpaceOnUse"><stop
       offset="0"
       style="stop-color:#606060;"
       id="stop3-8" /><stop
       offset="1"
       style="stop-color:#303030;"
       id="stop4-2" /></linearGradient><linearGradient
     id="a-3-4"
     gradientUnits="userSpaceOnUse"
     x1="0"
     y1="1"
     x2="0"
     y2="11">
	<stop
   offset="0"
   style="stop-color:#808080"
   id="stop1964-8" />
	<stop
   offset="1"
   style="stop-color:#0b0b0b"
   id="stop1966-8" />
</linearGradient><linearGradient
     id="b-0-8"
     gradientUnits="userSpaceOnUse"
     x1="0"
     y1="2"
     x2="0"
     y2="10">
	<stop
   offset="0"
   style="stop-color:#808080"
   id="stop1969-24" />
	<stop
   offset="1"
   style="stop-color:#0b0b0b"
   id="stop1971-9" />
</linearGradient><linearGradient
     id="a-0-3"
     x1="12"
     y1="0.5"
     x2="12"
     y2="20"
     gradientUnits="userSpaceOnUse"><stop
       offset="0"
       style="stop-color:#828181"
       id="stop1-9" /><stop
       offset="1"
       style="stop-color:#575757"
       id="stop2-21" /></linearGradient><linearGradient
     id="b-3-95"
     x1="12"
     y1="20"
     x2="12"
     y2="6"
     gradientUnits="userSpaceOnUse"><stop
       offset="0"
       style="stop-color:#606060;"
       id="stop3-67" /><stop
       offset="1"
       style="stop-color:#303030;"
       id="stop4-0" /></linearGradient><linearGradient
     id="a-3-1"
     gradientUnits="userSpaceOnUse"
     x1="0"
     y1="1"
     x2="0"
     y2="11">
	<stop
   offset="0"
   style="stop-color:#808080"
   id="stop1964-6" />
	<stop
   offset="1"
   style="stop-color:#0b0b0b"
   id="stop1966-3" />
</linearGradient><linearGradient
     id="b-0-3"
     gradientUnits="userSpaceOnUse"
     x1="0"
     y1="2"
     x2="0"
     y2="10">
	<stop
   offset="0"
   style="stop-color:#808080"
   id="stop1969-3" />
	<stop
   offset="1"
   style="stop-color:#0b0b0b"
   id="stop1971-7" />
</linearGradient><linearGradient
     id="a-0-6"
     x1="12"
     y1="0.5"
     x2="12"
     y2="20"
     gradientUnits="userSpaceOnUse"><stop
       offset="0"
       style="stop-color:#828181"
       id="stop1-3" /><stop
       offset="1"
       style="stop-color:#575757"
       id="stop2-7" /></linearGradient><linearGradient
     id="b-3-2"
     x1="12"
     y1="20"
     x2="12"
     y2="6"
     gradientUnits="userSpaceOnUse"><stop
       offset="0"
       style="stop-color:#606060;"
       id="stop3-94" /><stop
       offset="1"
       style="stop-color:#303030;"
       id="stop4-34" /></linearGradient><linearGradient
     id="a-3-19"
     gradientUnits="userSpaceOnUse"
     x1="0"
     y1="1"
     x2="0"
     y2="11">
	<stop
   offset="0"
   style="stop-color:#808080"
   id="stop1964-2" />
	<stop
   offset="1"
   style="stop-color:#0b0b0b"
   id="stop1966-83" />
</linearGradient><linearGradient
     id="b-0-61"
     gradientUnits="userSpaceOnUse"
     x1="0"
     y1="2"
     x2="0"
     y2="10"
     gradientTransform="translate(2,-2)">
	<stop
   offset="0"
   style="stop-color:#808080"
   id="stop1969-8" />
	<stop
   offset="1"
   style="stop-color:#0b0b0b"
   id="stop1971-1" />
</linearGradient><linearGradient
     id="a-0-0"
     x1="12"
     y1="0.5"
     x2="12"
     y2="20"
     gradientUnits="userSpaceOnUse"><stop
       offset="0"
       style="stop-color:#828181"
       id="stop1-96" /><stop
       offset="1"
       style="stop-color:#575757"
       id="stop2-77" /></linearGradient><linearGradient
     id="b-3-91"
     x1="12"
     y1="20"
     x2="12"
     y2="6"
     gradientUnits="userSpaceOnUse"><stop
       offset="0"
       style="stop-color:#606060;"
       id="stop3-0" /><stop
       offset="1"
       style="stop-color:#303030;"
       id="stop4-5" /></linearGradient><linearGradient
     id="a-3-6"
     gradientUnits="userSpaceOnUse"
     x1="0"
     y1="1"
     x2="0"
     y2="11">
	<stop
   offset="0"
   style="stop-color:#808080"
   id="stop1964-1" />
	<stop
   offset="1"
   style="stop-color:#0b0b0b"
   id="stop1966-0" />
</linearGradient><linearGradient
     id="b-0-31"
     gradientUnits="userSpaceOnUse"
     x1="0"
     y1="2"
     x2="0"
     y2="10"
     gradientTransform="translate(2,-2)">
	<stop
   offset="0"
   style="stop-color:#808080"
   id="stop1969-4" />
	<stop
   offset="1"
   style="stop-color:#0b0b0b"
   id="stop1971-70" />
</linearGradient><linearGradient
     id="a-0-9"
     x1="12"
     y1="0.5"
     x2="12"
     y2="20"
     gradientUnits="userSpaceOnUse"><stop
       offset="0"
       style="stop-color:#828181"
       id="stop1-49" /><stop
       offset="1"
       style="stop-color:#575757"
       id="stop2-41" /></linearGradient><linearGradient
     id="b-3-7"
     x1="12"
     y1="20"
     x2="12"
     y2="6"
     gradientUnits="userSpaceOnUse"><stop
       offset="0"
       style="stop-color:#606060;"
       id="stop3-91" /><stop
       offset="1"
       style="stop-color:#303030;"
       id="stop4-25" /></linearGradient><linearGradient
     id="a-3-2"
     gradientUnits="userSpaceOnUse"
     x1="0"
     y1="1"
     x2="0"
     y2="11">
	<stop
   offset="0"
   style="stop-color:#808080"
   id="stop1964-87" />
	<stop
   offset="1"
   style="stop-color:#0b0b0b"
   id="stop1966-10" />
</linearGradient><linearGradient
     id="b-0-2"
     gradientUnits="userSpaceOnUse"
     x1="0"
     y1="2"
     x2="0"
     y2="10"
     gradientTransform="translate(2,-2)">
	<stop
   offset="0"
   style="stop-color:#808080"
   id="stop1969-84" />
	<stop
   offset="1"
   style="stop-color:#0b0b0b"
   id="stop1971-94" />
</linearGradient></defs><sodipodi:namedview
   id="namedview1258"
   pagecolor="#ffffff"
   bordercolor="#666666"
   borderopacity="1.0"
   inkscape:showpageshadow="2"
   inkscape:pageopacity="0.0"
   inkscape:pagecheckerboard="0"
   inkscape:deskcolor="#d1d1d1"
   showgrid="false"
   inkscape:zoom="18.452632"
   inkscape:cx="30.158299"
   inkscape:cy="16.339133"
   inkscape:window-width="3840"
   inkscape:window-height="2126"
   inkscape:window-x="-11"
   inkscape:window-y="-11"
   inkscape:window-maximized="1"
   inkscape:current-layer="svg1256"
   showguides="false"><sodipodi:guide
     position="208.02769,182.22826"
     orientation="1,0"
     id="guide1939"
     inkscape:locked="false" /><sodipodi:guide
     position="215.46392,182.05926"
     orientation="1,0"
     id="guide1941"
     inkscape:locked="false" /><sodipodi:guide
     position="211.60191,184.28601"
     orientation="0,-1"
     id="guide1943"
     inkscape:locked="false" /><sodipodi:guide
     position="211.38111,182.28163"
     orientation="0,-1"
     id="guide1945"
     inkscape:locked="false" /><sodipodi:guide
     position="211.28169,180.28601"
     orientation="0,-1"
     id="guide1947"
     inkscape:locked="false" /><sodipodi:guide
     position="210.81183,177.38048"
     orientation="1,0"
     id="guide1949"
     inkscape:locked="false" /><sodipodi:guide
     position="212.51078,179.04385"
     orientation="1,0"
     id="guide1951"
     inkscape:locked="false" /><sodipodi:guide
     position="205.27913,177.05136"
     orientation="0,-1"
     id="guide1953"
     inkscape:locked="false" /><sodipodi:guide
     position="211.19431,177.65623"
     orientation="1,0"
     id="guide1955"
     inkscape:locked="false" /><sodipodi:guide
     position="211.9326,177.96755"
     orientation="1,0"
     id="guide1957"
     inkscape:locked="false" /></sodipodi:namedview>
   <g
   id="g143"
   transform="scale(0.6,1)">
      <rect
   id="panel"
   style="fill:#101010;stroke-width:0.456435"
   x="0"
   y="0"
   width="75"
   height="380" />
      
   </g><rect
   style="fill:#2d5d86;fill-opacity:0.35;stroke-width:0.866025"
   width="45"
   height="12"
   x="0"
   y="37.892818"
   id="rect4" /><rect
   style="fill:#2d5d86;fill-opacity:0.35;stroke-width:0.866025"
   width="45"
   height="12"
   x="0"
   y="117.92704"
   id="rect4-3" /><rect
   style="fill:#2d5d86;fill-opacity:0.35;stroke-width:0.866025"
   width="45"
   height="12"
   x="0"
   y="198.00368"
   id="rect4-2" /><rect
   style="fill:#2d5d86;fill-opacity:0.35;stroke-width:0.866025"
   width="45"
   height="12"
   x="0"
   y="277.97034"
   id="rect4-6" />
   <!-- <rect style="fill:#0f0f0f;fill-opacity:1;stroke-width:0.75;stroke-opacity:0.501961" width="230" height="17" x="65" y="24" />
   <rect style="fill:#0f0f0f;fill-opacity:1;stroke-width:0.75;stroke-opacity:0.501961" width="230" height="17" x="65" y="44" /> -->
   
   
<g
   aria-label="#d (pachde logo)"
   style="fill:#c0c0c0"
   id="g2"
   transform="translate(15.2065,365.28679)"><path
     d="M 3.023,5.309 3.916,3.543 5.003,3.834 4.104,5.599 5.759,6.042 6.658,4.277 7.74,4.567 6.846,6.334 7.631,6.544 7.34,7.631 6.328,7.36 5.666,8.665 6.969,9.014 6.678,10.1 5.148,9.691 4.255,11.457 3.168,11.166 4.062,9.4 2.407,8.956 1.513,10.723 0.426,10.431 1.32,8.665 0.54,8.456 0.831,7.369 1.843,7.64 2.5,6.334 1.202,5.986 1.493,4.899 Z M 5.242,7.068 3.587,6.625 2.924,7.93 4.58,8.374 Z"
     id="path1-2" /><path
     d="m 13.387,10.647 -0.301,1.122 -2.354,-0.631 0.155,-0.579 Q 10.064,11.035 9.304,10.831 8.394,10.587 7.993,9.687 7.593,8.787 7.874,7.736 8.16,6.669 8.969,6.104 9.78,5.534 10.665,5.771 11.516,6 11.892,6.807 l 0.414,-1.545 -0.759,-0.204 0.3,-1.121 2.314,0.62 -1.574,5.876 z M 11.402,8.697 Q 11.589,7.998 11.367,7.62 11.15,7.244 10.767,7.141 10.31,7.019 9.962,7.308 9.621,7.595 9.466,8.173 9.32,8.721 9.465,9.165 q 0.147,0.438 0.615,0.564 0.387,0.104 0.76,-0.12 0.379,-0.227 0.562,-0.912 z"
     id="path2" /></g><path
   d="m 14.085938,2.5429688 q 0.07617,0.1757812 0.310546,1.0019531 0.105469,0.375 0.111329,0.796875 h -0.533204 q -0.5625,-0.796875 -1.160156,-1.1425781 -0.597656,-0.3515625 -1.335937,-0.3515625 -0.908203,0 -1.464844,0.7089844 -0.7558595,0.9609375 -0.7558595,2.6777343 0,0.9960938 0.1289063,1.4179688 0.2109375,0.6855469 0.5332031,1.1191406 0.2460941,0.328125 0.6445311,0.5214844 0.515625,0.2636719 1.101563,0.2636719 0.644531,0 1.242187,-0.3984375 0.603516,-0.4042969 1.154297,-1.2011719 0.216797,-0.041016 0.568359,-0.046875 -0.02344,0.2226562 -0.07617,0.4628906 -0.01758,0.09375 -0.134766,0.7441406 l -0.05273,0.1757813 -0.08203,0.2753906 q -0.357422,0.2753904 -1.007812,0.4160154 -0.644531,0.1347662 -1.587891,0.1347662 -0.720703,0 -1.365234,-0.1347662 Q 9.6855469,9.8496098 9.2285156,9.5566407 8.5605469,9.1347657 8.1796875,8.6425782 7.7988281,8.1503907 7.6113281,7.5703125 7.4296875,6.9902344 7.4296875,6.2695313 q 0,-1.7460938 1.1484375,-2.8828125 Q 9.7324219,2.25 11.519531,2.25 q 0.726563,0 1.365235,0.076172 0.644531,0.070312 1.201172,0.2167968 z m 5.999999,3.1933594 q 0.375,0.3632812 0.556641,0.8378906 0.1875,0.46875 0.1875,0.8847656 0,0.7851563 -0.240234,1.265625 -0.363282,0.7265625 -0.978516,1.0722656 -0.615234,0.345703 -1.429687,0.345703 -0.914063,0 -1.552735,-0.4101561 -0.632812,-0.4101562 -0.908203,-0.9316406 -0.269531,-0.5214844 -0.269531,-1.2949219 0,-0.3925781 0.128906,-0.7851562 0.128906,-0.3984375 0.351563,-0.6914063 0.228515,-0.2929687 0.498046,-0.4921875 0.392579,-0.28125 0.785157,-0.3984375 0.398437,-0.1230469 0.960937,-0.1230469 1.22461,0 1.910156,0.7207032 z m -3.205078,2.0273437 q 0.05273,0.7265625 0.07617,0.8378906 0.07617,0.3925782 0.240235,0.6738282 0.111328,0.1816406 0.36914,0.3222656 0.257813,0.140625 0.615235,0.140625 0.427734,0 0.720703,-0.2695313 0.292968,-0.2753906 0.421875,-0.8554687 0.08203,-0.3808594 0.08203,-1.2480469 0,-1.0664062 -0.351563,-1.5058594 -0.351562,-0.4453125 -0.925781,-0.4453125 -0.451172,0 -0.75,0.2519532 -0.292969,0.2519531 -0.410156,0.7441406 -0.07617,0.3164062 -0.08789,1.3535156 z m 4.658203,1.8574219 q 0.04687,-0.023437 0.128907,-0.029297 0.345703,-0.023437 0.550781,-0.1230469 0.04102,-0.017578 0.04687,-0.076172 0.01172,-0.058594 0.03516,-1.0664063 V 7.9863282 l 0.0059,-0.6035157 -0.0059,-0.6269531 v -0.140625 q 0,-0.2753906 -0.128906,-0.4042969 -0.123047,-0.1347656 -0.65625,-0.2871093 V 5.6835938 q 0.111328,-0.029297 0.263672,-0.064453 0.539062,-0.1113282 0.890625,-0.3164063 0.269531,-0.1582031 0.533203,-0.4746094 h 0.322266 v 0.09375 l 0.01758,0.46875 -0.0059,0.2167969 0.01172,0.1054688 q 0.556641,-0.4394532 0.925781,-0.5800782 0.375,-0.140625 0.855469,-0.140625 0.462891,0 0.890625,0.1992188 0.433594,0.1992187 0.720703,0.6679687 0.416016,-0.4042968 0.697266,-0.5683593 0.193359,-0.1113282 0.527344,-0.1933594 0.339843,-0.087891 0.638671,-0.087891 0.814454,0 1.289063,0.4921875 0.474609,0.4980468 0.474609,1.3476562 v 0.9316406 q 0,0.2871094 -0.01758,0.9902344 V 9.222656 q 0,0.1171875 0.07031,0.2285156 0.228515,0.099609 0.392578,0.1289063 0.117187,0.017578 0.222656,0.082031 0.01172,0.1054688 0.0293,0.1757814 l -0.0059,0.117187 q -0.164063,0.0293 -0.234375,0.0293 -0.04687,0 -0.28711,-0.02344 -0.234375,-0.0293 -0.597656,-0.0293 -0.884766,0 -1.40625,0.05859 -0.04102,-0.146485 -0.04102,-0.2343754 l 0.0059,-0.082031 q 0.07617,-0.041016 0.503906,-0.2050782 0.07617,-0.076172 0.08789,-0.1347656 0.0293,-0.1464844 0.0293,-0.6269531 L 29.29097,7.0546802 Q 29.285156,6.6386719 29.226562,6.3691407 29.167969,6.09375 29.050781,5.9414063 28.939453,5.7832032 28.746094,5.6835938 q -0.19336,-0.099609 -0.404297,-0.099609 -0.328125,0 -0.667969,0.1875 -0.339844,0.1816406 -0.603516,0.5566406 l -0.0059,0.1699219 0.01172,0.75 -0.01172,0.6152344 v 0.5859371 l -0.0059,0.5214844 q 0,0.3867187 0.07617,0.4570312 0.117187,0.1113281 0.574218,0.1582031 l 0.181641,0.064453 q 0.04687,0.1347656 0.04687,0.2109371 0,0.04102 -0.02344,0.1406254 l -0.169921,-0.0059 h -0.234375 l -0.123047,-0.0059 q -0.416016,-0.04102 -0.861328,-0.04687 l -0.626954,-0.01172 q -0.228515,0 -0.791015,0.05273 l -0.105469,-0.01758 -0.0059,-0.345703 q 0.175781,-0.052734 0.632812,-0.087891 0.0293,-0.00586 0.07617,-0.023437 0.06445,-0.076172 0.07617,-0.1289063 0.0293,-0.1171875 0.0293,-0.4746094 l -0.0059,-1.1894531 0.01172,-0.3164062 q 0,-0.9140625 -0.06445,-1.1308594 -0.08203,-0.28125 -0.345703,-0.4570313 -0.257813,-0.1816406 -0.621094,-0.1816406 -0.474609,0 -0.826172,0.2285156 -0.351562,0.2226563 -0.404297,0.3984375 -0.0059,0.070312 -0.0059,0.1054688 l 0.0059,0.058594 v 0.058594 q 0,0.052734 -0.0293,0.1640625 l 0.01758,1.6816406 0.0059,0.8789063 q 0,0.046875 0.01172,0.1523437 l 0.0293,0.087891 q 0.164062,0.052734 0.28125,0.076172 0.216797,0.046875 0.328125,0.1054688 0.01758,0.099609 0.01758,0.140625 0,0.076172 -0.04687,0.2167966 -0.09375,0.0059 -0.134766,0.0059 -0.06445,0 -0.585937,-0.05274 l -0.638672,-0.0059 q -0.457031,0 -1.107422,0.06445 l -0.169922,-0.0059 q -0.01172,-0.09375 -0.02344,-0.2167973 0,-0.052734 0.0293,-0.1523437 z m 9.832032,3.3632812 v -0.263672 q 0.105468,-0.06445 0.152343,-0.08789 l 0.451172,-0.164063 q 0.28125,-0.111328 0.316407,-0.175781 0.09375,-0.175781 0.08203,-0.621094 L 32.332031,9.3398438 32.273437,6.4394532 Q 32.255859,6.1230469 32.138672,5.9882813 32.021484,5.8535157 31.517578,5.7070313 l -0.0059,-0.3046875 q 0.574218,-0.1113281 0.966797,-0.2753906 0.287109,-0.1171875 0.779296,-0.4453125 l 0.298829,-0.00586 0.0059,0.1640625 -0.0059,0.6328125 q 0,0.035156 0.0059,0.1757812 0.509766,-0.3105468 0.837891,-0.4101562 0.480468,-0.140625 1.060546,-0.140625 0.597657,0 1.060547,0.3046875 0.03516,0.023437 0.09961,0.064453 0.292968,0.2109375 0.427734,0.4042969 0.292969,0.4160156 0.421875,0.8203125 0.09961,0.3046875 0.09961,0.7617187 0,0.609375 -0.158203,1.03125 -0.158203,0.421875 -0.544922,0.8496094 -0.386718,0.4277344 -0.832031,0.6093754 -0.439453,0.1816399 -0.925781,0.1816399 -0.480469,0 -0.685547,-0.05859 -0.392578,-0.1113279 -0.779297,-0.3281244 -0.01758,0.093749 -0.01758,0.1289065 l 0.01758,0.1582029 q 0.0059,0.06445 0.0059,0.158203 0,0.04102 -0.01172,0.462891 l 0.01758,1.066406 q 0,0.03516 -0.0059,0.234375 v 0.06445 q 0,0.216797 0.0293,0.316406 0.02344,0.05859 0.09961,0.128906 0.05859,0.02344 0.111328,0.05274 0.181641,0.03516 0.316406,0.07031 0.140625,0.03516 0.292969,0.05859 0.05273,0.06445 0.05273,0.169922 0,0.06445 -0.0059,0.1875 h -0.105469 q -0.339844,0 -0.474609,-0.01172 l -0.884766,-0.07617 h -0.216797 l -0.205078,-0.0059 -0.205078,0.01758 -0.316406,0.01758 q -0.175781,0.0059 -0.386719,0.0293 -0.210937,0.02344 -0.304687,0.02344 z m 2.220703,-4.1894531 q 0.02344,0.070312 0.0293,0.1054688 0.06445,0.2695312 0.164062,0.3808593 0.181641,0.2109375 0.416016,0.28125 0.351562,0.099609 0.615234,0.099609 0.304688,0 0.591797,-0.1289062 0.292969,-0.1289063 0.46875,-0.3457032 0.02344,-0.029297 0.07031,-0.082031 0.04102,-0.09375 0.06445,-0.140625 0.234375,-0.4570313 0.234375,-0.9726563 0,-0.9492187 -0.5625,-1.5996093 -0.392578,-0.4628907 -1.113282,-0.4628907 -0.427734,0 -0.972656,0.2226563 -0.01758,0.2285156 -0.01758,1.2832031 l 0.01758,1.1308594 q 0,0.041016 -0.0059,0.2285156 z"
   id="text1"
   style="font-weight:bold;font-size:12px;line-height:1.25;font-family:Garamond;-inkscape-font-specification:'Garamond Bold';text-align:center;text-anchor:middle;fill:#e5e5e5"
   aria-label="Comp" /><path
   style="fill:none;stroke:#808080;stroke-width:0.554614;stroke-linecap:butt;stroke-linejoin:miter;stroke-dasharray:none;stroke-opacity:1"
   d="M 5,14.256736 H 40"
   id="path3" /><path
   style="font-weight:600;font-size:9px;line-height:1.25;font-family:'Hanken Grotesk';-inkscape-font-specification:'Hanken Grotesk Semi-Bold';text-align:center;text-anchor:middle;fill:#d9d9d9"
   d="m 4.4405995,46.553295 v -5.346 h -1.998 v -0.927 h 5.04 v 0.927 h -1.989 v 5.346 z m 3.7439918,0 v -6.273 h 0.999 v 2.817 l -0.18,0.045 q 0.117,-0.387 0.342,-0.63 0.234,-0.243 0.531,-0.36 0.2969997,-0.117 0.6299997,-0.117 0.747,0 1.161,0.432 0.423,0.423 0.423,1.215 v 2.871 h -0.999 v -2.502 q 0,-0.594 -0.216,-0.873 -0.216,-0.279 -0.666,-0.279 -0.5039997,0 -0.7649997,0.36 -0.261,0.36 -0.261,1.134 v 2.16 z m 5.0309997,0 v -4.437 h 1.008 v 1.197 l -0.189,0.027 q 0.045,-0.387 0.261,-0.675 0.216,-0.297 0.522,-0.459 0.315,-0.171 0.621,-0.171 0.216,0 0.414,0.054 0.198,0.054 0.414,0.18 l -0.486,0.9 q -0.099,-0.063 -0.261,-0.099 -0.153,-0.045 -0.297,-0.045 -0.189,0 -0.378,0.072 -0.18,0.072 -0.324,0.225 -0.144,0.144 -0.216,0.378 -0.045,0.126 -0.072,0.333 -0.018,0.198 -0.018,0.558 v 1.962 z m 5.4828,0.081 q -0.558,0 -0.972,-0.18 -0.405,-0.18 -0.666,-0.504 -0.261,-0.324 -0.387,-0.729 -0.126,-0.414 -0.126,-0.855 0,-0.441 0.117,-0.855 0.126,-0.423 0.378,-0.756 0.252,-0.333 0.648,-0.522 0.396,-0.198 0.936,-0.198 0.513,0 0.891,0.18 0.387,0.171 0.639,0.486 0.252,0.306 0.369,0.702 0.126,0.396 0.126,0.846 0,0.063 -0.009,0.18 0,0.117 -0.018,0.234 h -3.078 q 0.036,0.531 0.36,0.81 0.324,0.279 0.828,0.279 0.369,0 0.675,-0.117 0.306,-0.117 0.558,-0.369 l 0.549,0.666 q -0.279,0.252 -0.558,0.405 -0.279,0.153 -0.585,0.225 -0.297,0.072 -0.675,0.072 z m 0.972,-2.475 q 0.018,-0.072 0.018,-0.144 0.009,-0.072 0.009,-0.144 0,-0.198 -0.072,-0.378 -0.063,-0.18 -0.198,-0.315 -0.135,-0.144 -0.333,-0.225 -0.198,-0.09 -0.45,-0.09 -0.351,0 -0.594,0.153 -0.234,0.153 -0.369,0.396 -0.126,0.234 -0.153,0.513 h 2.466 z m 3.465003,2.475 q -0.477,0 -0.846,-0.135 -0.369,-0.144 -0.621,-0.36 -0.252,-0.216 -0.414,-0.432 l 0.684,-0.594 q 0.171,0.279 0.468,0.495 0.306,0.216 0.738,0.216 0.36,0 0.567,-0.153 0.216,-0.153 0.216,-0.378 0,-0.198 -0.135,-0.306 -0.135,-0.117 -0.351,-0.198 -0.216,-0.081 -0.477,-0.144 -0.252,-0.063 -0.513,-0.153 -0.261,-0.099 -0.486,-0.243 -0.216,-0.144 -0.351,-0.369 -0.135,-0.225 -0.135,-0.558 0,-0.585 0.45,-0.936 0.45,-0.351 1.179,-0.351 0.522,0 0.954,0.207 0.432,0.207 0.675,0.621 l -0.621,0.477 q -0.18,-0.27 -0.45,-0.405 -0.27,-0.135 -0.585,-0.135 -0.288,0 -0.486,0.117 -0.189,0.117 -0.189,0.306 0,0.144 0.09,0.234 0.09,0.09 0.279,0.162 0.189,0.072 0.477,0.144 0.27,0.063 0.558,0.153 0.288,0.09 0.531,0.243 0.252,0.144 0.405,0.396 0.162,0.243 0.162,0.63 0,0.432 -0.225,0.765 -0.216,0.324 -0.621,0.504 -0.396,0.18 -0.927,0.18 z m 2.727006,-0.081 v -6.273 h 0.999 v 2.817 l -0.18,0.045 q 0.117,-0.387 0.342,-0.63 0.234,-0.243 0.531,-0.36 0.297,-0.117 0.63,-0.117 0.747,0 1.161,0.432 0.423,0.423 0.423,1.215 v 2.871 h -0.999 v -2.502 q 0,-0.594 -0.216,-0.873 -0.216,-0.279 -0.666,-0.279 -0.504,0 -0.765,0.36 -0.261,0.36 -0.261,1.134 v 2.16 z m 7.029,0.081 q -0.63,0 -1.134,-0.297 -0.504,-0.297 -0.792,-0.819 -0.279,-0.522 -0.279,-1.188 0,-0.666 0.279,-1.188 0.288,-0.522 0.783,-0.81 0.504,-0.297 1.143,-0.297 0.648,0 1.134,0.297 0.495,0.288 0.783,0.81 0.288,0.522 0.288,1.188 0,0.666 -0.288,1.188 -0.279,0.522 -0.783,0.819 -0.495,0.297 -1.134,0.297 z m 0.009,-0.882 q 0.369,0 0.639,-0.171 0.27,-0.171 0.414,-0.495 0.144,-0.324 0.144,-0.756 0,-0.441 -0.144,-0.756 -0.144,-0.324 -0.414,-0.495 -0.27,-0.171 -0.639,-0.171 -0.387,0 -0.657,0.18 -0.27,0.171 -0.414,0.486 -0.144,0.315 -0.144,0.756 0,0.432 0.144,0.756 0.144,0.324 0.414,0.495 0.27,0.171 0.657,0.171 z m 4.139993,0.882 q -0.432,0 -0.72,-0.261 -0.288,-0.27 -0.288,-0.855 v -5.238 h 0.999 v 5.04 q 0,0.207 0.09,0.306 0.099,0.09 0.252,0.09 0.081,0 0.162,-0.018 0.09,-0.018 0.18,-0.045 v 0.846 q -0.171,0.072 -0.351,0.099 -0.18,0.036 -0.324,0.036 z m 3.204008,0 q -0.594,0 -1.035,-0.297 -0.432,-0.306 -0.666,-0.828 -0.234,-0.522 -0.234,-1.179 0,-0.72 0.252,-1.233 0.261,-0.513 0.702,-0.783 0.441,-0.279 0.981,-0.279 0.378,0 0.693,0.153 0.324,0.153 0.54,0.45 0.225,0.288 0.315,0.711 l -0.234,0.009 v -3.078 h 0.999 v 6.273 h -0.999 v -1.233 l 0.27,-0.063 q -0.117,0.486 -0.36,0.792 -0.234,0.297 -0.549,0.441 -0.315,0.144 -0.675,0.144 z m 0.243,-0.918 q 0.351,0 0.612,-0.171 0.261,-0.171 0.405,-0.486 0.144,-0.315 0.144,-0.729 0,-0.414 -0.144,-0.72 -0.144,-0.315 -0.405,-0.486 -0.261,-0.18 -0.612,-0.18 -0.351,0 -0.621,0.171 -0.261,0.171 -0.414,0.486 -0.144,0.315 -0.144,0.729 0,0.414 0.144,0.729 0.153,0.315 0.414,0.486 0.27,0.171 0.621,0.171 z"
   id="text2"
   aria-label="Threshold" /><path
   style="font-weight:600;font-size:9px;line-height:1.25;font-family:'Hanken Grotesk';-inkscape-font-specification:'Hanken Grotesk Semi-Bold';text-align:center;text-anchor:middle;fill:#d9d9d9"
   d="m 10.66644,126.54163 2.484,-6.273 h 0.792 l 2.475,6.273 h -1.134 l -1.737,-4.752 -1.737,4.752 z m 1.548,-1.314 0.324,-0.927 h 2.007 l 0.342,0.927 z m 6.064188,1.395 q -0.333,0 -0.63,-0.126 -0.288,-0.135 -0.459,-0.423 -0.171,-0.297 -0.171,-0.774 v -4.275 l 1.008,-0.558 v 4.554 q 0,0.378 0.108,0.585 0.117,0.198 0.414,0.198 0.09,0 0.207,-0.018 0.126,-0.027 0.261,-0.063 v 0.774 q -0.18,0.063 -0.369,0.09 -0.18,0.036 -0.369,0.036 z m -2.106,-3.744 v -0.774 h 2.844 v 0.774 z m 5.346006,3.744 q -0.333,0 -0.63,-0.126 -0.288,-0.135 -0.459,-0.423 -0.171,-0.297 -0.171,-0.774 v -4.275 l 1.008,-0.558 v 4.554 q 0,0.378 0.108,0.585 0.117,0.198 0.414,0.198 0.09,0 0.207,-0.018 0.126,-0.027 0.261,-0.063 v 0.774 q -0.18,0.063 -0.369,0.09 -0.18,0.036 -0.369,0.036 z m -2.106,-3.744 v -0.774 h 2.844 v 0.774 z m 6.597005,3.663 -0.072,-0.747 v -2.052 q 0,-0.432 -0.261,-0.648 -0.261,-0.225 -0.729,-0.225 -0.36,0 -0.711,0.144 -0.342,0.135 -0.63,0.423 l -0.558,-0.657 q 0.432,-0.405 0.918,-0.576 0.486,-0.18 1.062,-0.18 0.9,0 1.395,0.459 0.504,0.45 0.504,1.26 v 2.799 z m -1.377,0.081 q -0.495,0 -0.882,-0.18 -0.378,-0.18 -0.594,-0.504 -0.207,-0.324 -0.207,-0.756 0,-0.369 0.153,-0.639 0.162,-0.27 0.414,-0.423 0.216,-0.135 0.504,-0.189 0.288,-0.063 0.603,-0.063 h 1.395 v 0.747 h -1.251 q -0.162,0 -0.324,0.036 -0.162,0.027 -0.288,0.108 -0.09,0.072 -0.153,0.18 -0.054,0.108 -0.054,0.252 0,0.288 0.216,0.459 0.225,0.162 0.594,0.162 0.324,0 0.585,-0.144 0.27,-0.144 0.432,-0.396 0.162,-0.252 0.162,-0.567 l 0.306,0.495 q -0.108,0.468 -0.342,0.792 -0.234,0.315 -0.558,0.477 -0.324,0.153 -0.711,0.153 z m 5.328006,0 q -0.522,0 -0.927,-0.18 -0.396,-0.189 -0.666,-0.513 -0.261,-0.333 -0.396,-0.747 -0.135,-0.414 -0.135,-0.864 0,-0.45 0.135,-0.864 0.135,-0.414 0.396,-0.738 0.27,-0.324 0.666,-0.504 0.405,-0.189 0.927,-0.189 0.657,0 1.143,0.315 0.495,0.315 0.729,0.972 l -0.882,0.342 q -0.108,-0.342 -0.351,-0.549 -0.243,-0.216 -0.639,-0.216 -0.396,0 -0.648,0.207 -0.243,0.207 -0.36,0.531 -0.117,0.324 -0.117,0.693 0,0.369 0.117,0.702 0.117,0.324 0.36,0.531 0.252,0.198 0.648,0.198 0.396,0 0.639,-0.207 0.243,-0.207 0.351,-0.549 l 0.882,0.342 q -0.234,0.648 -0.729,0.972 -0.486,0.315 -1.143,0.315 z m 5.777999,-0.081 -1.341,-2.115 -0.756,0.837 v -1.269 l 1.809,-1.89 h 1.278 l -1.602,1.656 1.8,2.781 z m -3.006,0 v -6.273 h 0.999 v 6.273 z"
   id="text2-5"
   aria-label="Attack" /><path
   style="font-weight:600;font-size:9px;line-height:1.25;font-family:'Hanken Grotesk';-inkscape-font-specification:'Hanken Grotesk Semi-Bold';text-align:center;text-anchor:middle;fill:#d9d9d9"
   d="m 14.022536,206.52997 v -6.273 h 2.007 q 0.747,0 1.215,0.225 0.468,0.216 0.684,0.621 0.225,0.405 0.225,0.954 0,0.837 -0.486,1.305 -0.477,0.459 -1.368,0.531 -0.18,0 -0.387,0 -0.207,0 -0.369,0 h -0.477 v 2.637 z m 3.438,0 -1.593,-2.754 1.071,-0.126 1.728,2.88 z m -2.394,-3.555 h 0.855 q 0.342,0 0.603,-0.081 0.27,-0.081 0.423,-0.279 0.162,-0.198 0.162,-0.549 0,-0.351 -0.162,-0.54 -0.153,-0.189 -0.423,-0.261 -0.27,-0.081 -0.603,-0.081 h -0.855 z m 7.208996,3.555 -0.072,-0.747 v -2.052 q 0,-0.432 -0.261,-0.648 -0.261,-0.225 -0.729,-0.225 -0.36,0 -0.711,0.144 -0.342,0.135 -0.63,0.423 l -0.558,-0.657 q 0.432,-0.405 0.918,-0.576 0.486,-0.18 1.062,-0.18 0.9,0 1.395,0.459 0.504,0.45 0.504,1.26 v 2.799 z m -1.377,0.081 q -0.495,0 -0.882,-0.18 -0.378,-0.18 -0.594,-0.504 -0.207,-0.324 -0.207,-0.756 0,-0.369 0.153,-0.639 0.162,-0.27 0.414,-0.423 0.216,-0.135 0.504,-0.189 0.288,-0.063 0.603,-0.063 h 1.395 v 0.747 h -1.251 q -0.162,0 -0.324,0.036 -0.162,0.027 -0.288,0.108 -0.09,0.072 -0.153,0.18 -0.054,0.108 -0.054,0.252 0,0.288 0.216,0.459 0.225,0.162 0.594,0.162 0.324,0 0.585,-0.144 0.27,-0.144 0.432,-0.396 0.162,-0.252 0.162,-0.567 l 0.306,0.495 q -0.108,0.468 -0.342,0.792 -0.234,0.315 -0.558,0.477 -0.324,0.153 -0.711,0.153 z m 5.022006,0 q -0.333,0 -0.63,-0.126 -0.288,-0.135 -0.459,-0.423 -0.171,-0.297 -0.171,-0.774 v -4.275 l 1.008,-0.558 v 4.554 q 0,0.378 0.108,0.585 0.117,0.198 0.414,0.198 0.09,0 0.207,-0.018 0.126,-0.027 0.261,-0.063 v 0.774 q -0.18,0.063 -0.369,0.09 -0.18,0.036 -0.369,0.036 z m -2.106,-3.744 v -0.774 h 2.844 v 0.774 z m 3.726005,3.663 v -4.437 h 0.999 v 4.437 z m -0.045,-5.166 v -1.107 h 1.089 v 1.107 z m 4.203003,5.247 q -0.63,0 -1.134,-0.297 -0.504,-0.297 -0.792,-0.819 -0.279,-0.522 -0.279,-1.188 0,-0.666 0.279,-1.188 0.288,-0.522 0.783,-0.81 0.504,-0.297 1.143,-0.297 0.648,0 1.134,0.297 0.495,0.288 0.783,0.81 0.288,0.522 0.288,1.188 0,0.666 -0.288,1.188 -0.279,0.522 -0.783,0.819 -0.495,0.297 -1.134,0.297 z m 0.009,-0.882 q 0.369,0 0.639,-0.171 0.27,-0.171 0.414,-0.495 0.144,-0.324 0.144,-0.756 0,-0.441 -0.144,-0.756 -0.144,-0.324 -0.414,-0.495 -0.27,-0.171 -0.639,-0.171 -0.387,0 -0.657,0.18 -0.27,0.171 -0.414,0.486 -0.144,0.315 -0.144,0.756 0,0.432 0.144,0.756 0.144,0.324 0.414,0.495 0.27,0.171 0.657,0.171 z"
   id="text2-1"
   aria-label="Ratio" /><path
   style="font-weight:600;font-size:9px;line-height:1.25;font-family:'Hanken Grotesk';-inkscape-font-specification:'Hanken Grotesk Semi-Bold';text-align:center;text-anchor:middle;fill:#d9d9d9"
   d="m 17.160946,286.55881 v -6.273 h 1.53 l 1.755,4.689 h -0.189 l 1.764,-4.689 h 1.521 v 6.273 h -1.044 v -5.058 l 0.09,0.018 -1.728,4.491 h -1.017 l -1.737,-4.491 0.099,-0.018 v 5.058 z m 7.595998,0 v -4.437 h 0.999 v 4.437 z m -0.045,-5.166 v -1.107 h 1.089 v 1.107 z m 1.818003,5.166 1.539,-2.232 -1.539,-2.205 h 1.197 l 1.008,1.539 1.026,-1.539 h 1.179 l -1.548,2.205 1.548,2.232 h -1.197 l -1.008,-1.566 -1.026,1.566 z"
   id="text2-3"
   aria-label="Mix" /></svg>
