<?xml version="1.0" encoding="UTF-8" standalone="no"?>
<!-- Created with Inkscape (http://www.inkscape.org/) -->

<svg
   width="12"
   height="12"
   viewBox="0 0 12 12"
   version="1.1"
   id="svg43020"
   inkscape:version="1.2.2 (732a01da63, 2022-12-09)"
   sodipodi:docname="cv-jack.svg"
   xmlns:inkscape="http://www.inkscape.org/namespaces/inkscape"
   xmlns:sodipodi="http://sodipodi.sourceforge.net/DTD/sodipodi-0.dtd"
   xmlns="http://www.w3.org/2000/svg"
   xmlns:svg="http://www.w3.org/2000/svg">
  <sodipodi:namedview
     id="namedview43022"
     pagecolor="#141414"
     bordercolor="#666666"
     borderopacity="1.0"
     inkscape:showpageshadow="2"
     inkscape:pageopacity="0"
     inkscape:pagecheckerboard="0"
     inkscape:deskcolor="#d1d1d1"
     inkscape:document-units="px"
     showgrid="false"
     inkscape:zoom="11.313709"
     inkscape:cx="-14.584077"
     inkscape:cy="-6.8942911"
     inkscape:window-width="3840"
     inkscape:window-height="2126"
     inkscape:window-x="-11"
     inkscape:window-y="-11"
     inkscape:window-maximized="1"
     inkscape:current-layer="layer1" />
  <defs
     id="defs43017" />
  <g
     inkscape:label="Layer 1"
     inkscape:groupmode="layer"
     id="layer1">
    <path
       id="rect42197"
       style="fill:#d9d9d9;fill-opacity:1;stroke:none;stroke-width:0.213797;stroke-linecap:round;stroke-linejoin:round;stroke-dasharray:none;stroke-opacity:1;paint-order:fill markers stroke"
       d="m 1.6359254,8.7023054 c -0.043421,-9.999e-4 -0.088358,10e-4 -0.1346308,0.00635 C 1.0980026,8.7549092 0.83911849,9.1246607 0.63172928,9.4513157 0.42433953,9.7779681 0.22567291,9.9667072 0,10.188113 l 0.42578644,0.399401 C 0.62335392,10.34977 0.79542575,10.185591 0.99098296,9.8775732 1.1865404,9.5695555 1.3286247,9.3804549 1.5409338,9.3561029 c 0.2771826,-0.031792 0.3353551,0.024174 0.4510311,0.1865183 0.1156759,0.1623287 0.2569611,0.4844238 0.5192394,0.8617978 0.2829994,0.407185 0.7038626,0.436167 1.0406213,0.422352 0.1085359,-0.0044 0.209792,-0.0172 0.2992591,-0.03174 l -0.012185,0.437486 c -0.045261,0.175767 0.183624,0.377658 0.3017315,0.377923 l 3.4846896,0.0078 c 0,0 0.2173868,-0.02921 0.2314192,-0.221673 l 0.022855,-0.31347 2.4876945,-0.03223 V 9.9337249 L 7.8795944,9.9659512 7.9024493,9.6759214 C 7.9252876,9.3861026 7.6944676,9.3214336 7.6944676,9.3214336 l -3.492502,0.015625 C 4.0258853,9.3378464 3.8862706,9.5640274 3.8767966,9.7618589 L 3.8625116,10.13831 C 3.7718676,10.15576 3.6592196,10.17238 3.5375403,10.17737 3.2540299,10.188996 2.9584907,10.104406 2.8558156,9.956674 2.6310048,9.6332091 2.5145105,9.3442382 2.332648,9.0890191 2.1735182,8.8657042 1.939868,8.7094329 1.6359245,8.702308 Z m 9.4341576,1.2245819 -0.301045,0.00293 v 1.1171617 l 0.301045,-0.0029 c 0.103202,-0.07091 0.109494,-0.113718 0.14463,-0.268061 0.06375,-0.0055 0.106005,-0.0015 0.175342,-0.0083 v 0.06982 c 0,0.11418 0.07097,0.20605 0.159271,0.20605 h 0.08856 c 0.03503,0 0.06732,-0.01447 0.09356,-0.03906 C 11.795606,10.964918 11.93462,10.644704 12,10.485495 11.93274,10.321699 11.786767,9.973944 11.725382,9.9503522 c -0.0097,-0.00373 -0.01897,-0.00407 -0.02857,-0.00636 -0.01824,-0.00935 -0.03806,-0.014649 -0.05892,-0.014649 h -0.08856 c -0.0883,2.5e-6 -0.159272,0.091873 -0.159272,0.2060528 v 0.0059 c -0.0053,0.01725 -0.01059,0.03464 -0.01643,0.05078 l -0.156772,-0.0029 C 11.205378,9.9830159 11.134243,9.9564139 11.070084,9.9268822 Z"
       sodipodi:nodetypes="ccsccsscscccscsccccscsccsssccccccccsssccscsssccccc" />
  </g>
</svg>
