<?xml version="1.0" encoding="UTF-8" standalone="no"?>
<!-- Created with Inkscape (http://www.inkscape.org/) -->

<svg
   width="12"
   height="12"
   viewBox="0 0 12 12"
   version="1.1"
   id="svg43020"
   inkscape:version="1.2.2 (732a01da63, 2022-12-09)"
   sodipodi:docname="drone.svg"
   xmlns:inkscape="http://www.inkscape.org/namespaces/inkscape"
   xmlns:sodipodi="http://sodipodi.sourceforge.net/DTD/sodipodi-0.dtd"
   xmlns="http://www.w3.org/2000/svg"
   xmlns:svg="http://www.w3.org/2000/svg">
  <sodipodi:namedview
     id="namedview43022"
     pagecolor="#141414"
     bordercolor="#666666"
     borderopacity="1.0"
     inkscape:showpageshadow="2"
     inkscape:pageopacity="0"
     inkscape:pagecheckerboard="0"
     inkscape:deskcolor="#d1d1d1"
     inkscape:document-units="px"
     showgrid="false"
     inkscape:zoom="18.270833"
     inkscape:cx="9.7696695"
     inkscape:cy="7.6624859"
     inkscape:window-width="2253"
     inkscape:window-height="1194"
     inkscape:window-x="1185"
     inkscape:window-y="605"
     inkscape:window-maximized="0"
     inkscape:current-layer="layer1" />
  <defs
     id="defs43017" />
  <g
     inkscape:label="Layer 1"
     inkscape:groupmode="layer"
     id="layer1">
    <path
       style="color:#000000;fill:#d9d9d9;stroke-width:0.200794;stroke-linecap:round;stroke-linejoin:round;-inkscape-stroke:none;paint-order:fill markers stroke;fill-opacity:1"
       d="M 4.4505898,7.5323883 C 4.2103887,7.4877173 4.0011068,7.6347309 3.8568365,7.8131843 3.7130139,7.9911438 3.5939021,8.2223478 3.4736812,8.4794903 3.3536448,8.7362352 3.2364387,9.0150996 3.1226844,9.2583512 3.0090773,9.5012714 2.8944492,9.7096833 2.8046301,9.8207303 c -0.053726,0.063383 -0.069822,0.087251 -0.1070638,0.1011819 -0.042567,0 -0.084602,-0.047367 -0.185499,-0.2019703 C 2.4106938,9.5646359 2.2956261,9.3269744 2.180287,9.0697155 2.0647791,8.812073 1.947399,8.5350981 1.8249762,8.2916397 1.7023662,8.047856 1.5832692,7.8409219 1.4178982,7.6908266 1.335154,7.6157258 1.2361393,7.555074 1.1190607,7.5331714 1.0019823,7.5112704 0.8752632,7.5362814 0.7743386,7.5923894 0.5733114,7.7041151 0.4520961,7.8903252 0.3256901,8.115945 0.1995787,8.3410649 0.081479,8.6091086 -0.0355035,8.8736262 c -0.056478,0.1277912 0.00127,0.2771737 0.1290258,0.3337413 0.1277907,0.056477 0.2771748,-0.0012 0.3337411,-0.1290261 0.1168154,-0.2641381 0.232369,-0.5227745 0.3400162,-0.7149341 0.079883,-0.126237 0.1777016,-0.3253622 0.2572673,-0.3298138 0.073417,-0.0041 0.092125,0.032169 0.1411834,0.1086335 0.040348,0.062886 0.095488,0.1558079 0.2066764,0.3768818 C 1.4837424,8.740518 1.6000143,9.0129429 1.7183051,9.2767919 1.8367638,9.5410084 1.9557015,9.7935547 2.0881265,9.9964326 2.2208824,10.199853 2.3642051,10.374586 2.6042292,10.41959 2.8450797,10.464658 3.0542155,10.317384 3.1983748,10.139185 3.3423541,9.9611773 3.4613387,9.7294855 3.58153,9.4724855 3.7015753,9.2157827 3.8183732,8.9373421 3.9321347,8.6940182 4.0457139,8.4510819 4.1653301,8.2562517 4.24862,8.1288942 c 0.029277,-0.041813 0.060235,-0.095264 0.1094172,-0.098829 0.047901,4.019e-4 0.1008874,0.070332 0.1847144,0.2023619 h 4.019e-4 c 0.1012874,0.155063 0.2160328,0.3925659 0.331388,0.6498348 0.1155072,0.2576064 0.2332792,0.5345612 0.3557031,0.7780758 0.1226396,0.2439164 0.2412571,0.4511713 0.4062935,0.6012043 0.082847,0.07531 0.182125,0.135843 0.2992297,0.157656 0.1169752,0.02179 0.2436269,-0.0039 0.3443296,-0.05961 C 6.4817871,10.247841 6.6027936,10.061809 6.7291381,9.8364243 6.8553167,9.6113144 6.9733631,9.3428472 7.0903315,9.0783496 7.2071481,8.8142094 7.3227005,8.555575 7.4303476,8.3634154 7.5377407,8.1717317 7.6099747,8.0865389 7.6411495,8.0562391 c 0.045264,-0.019517 0.094799,-0.012208 0.1097846,0.00691 0.059869,0.072294 0.1733515,0.2348926 0.2845406,0.4559665 C 8.14681,8.7405222 8.2630816,9.0129471 8.3813732,9.2767962 8.4998321,9.5410086 8.6187681,9.7935589 8.7511946,9.9964367 8.8839501,10.199857 9.0272729,10.37459 9.2672973,10.419594 9.5081478,10.464662 9.7172835,10.317388 9.8614432,10.139189 10.005421,9.9611814 10.124407,9.7294897 10.244598,9.4724898 10.364642,9.215787 10.481441,8.9373463 10.595203,8.6940224 10.708782,8.4510841 10.822709,8.2481017 10.906198,8.124977 c 0.03316,-0.039384 0.0622,-0.094632 0.119613,-0.09726 0.05701,0.00217 0.07892,0.049941 0.180009,0.2047152 h 3.99e-4 c 0.08479,0.1298046 0.247265,0.5069475 0.367076,0.7741538 0.05717,0.1275884 0.206953,0.184658 0.334526,0.1274579 0.127438,-0.057317 0.184317,-0.2070607 0.127067,-0.3345265 C 11.9209,8.5453004 11.778782,8.1836829 11.629771,7.9555571 11.497095,7.7524101 11.35447,7.5771774 11.113668,7.5324003 10.873467,7.4877298 10.664185,7.6347429 10.519915,7.8131964 10.376089,7.9911578 10.25698,8.2223598 10.136759,8.4795023 10.016723,8.7362473 9.8995162,9.0151116 9.7857627,9.2583632 9.6721552,9.5012835 9.5011601,9.7682127 9.4677083,9.8207423 9.4342565,9.8732719 9.4085566,9.9216311 9.3606443,9.9219242 9.3127321,9.9221252 9.2762807,9.8749085 9.1751456,9.7199539 9.0740103,9.5649993 8.9587059,9.3269865 8.8433652,9.0697275 8.7278571,8.812087 8.610477,8.5351101 8.4880545,8.2916517 8.365444,8.047868 8.2463482,7.840934 8.0809764,7.6908387 7.9982321,7.6157378 7.8992175,7.555086 7.7821389,7.5331835 7.6650602,7.5112829 7.5383415,7.5363158 7.4374167,7.5924015 7.2363889,7.7041272 7.1151747,7.8903373 6.9887682,8.1159572 6.8626567,8.3410771 6.7445574,8.6091227 6.6275748,8.8736384 6.5107526,9.1378046 6.3951723,9.3969772 6.2875589,9.5889661 6.1801122,9.7806398 6.088101,9.8928053 6.0546066,9.9176113 6.0280549,9.9377308 5.9956839,9.9105433 5.9718577,9.8866207 5.9031037,9.8241176 5.793584,9.6539409 5.6824324,9.432875 5.5710656,9.2113534 5.4548257,8.9390088 5.3365336,8.6751919 5.218091,8.4110377 5.0992251,8.158415 4.9667125,7.9555511 4.834037,7.7524 4.6914118,7.5771714 4.4506097,7.5323943 Z"
       id="path33370"
       sodipodi:nodetypes="scsccccscssccccccsscscccssccccscssccsccccsccccsccccccccscsczzzscssccsccccscss"
       inkscape:label="drone" />
  </g>
</svg>
