<?xml version="1.0" encoding="UTF-8" standalone="no"?>
<!-- Created with Inkscape (http://www.inkscape.org/) -->

<svg
   width="12"
   height="12"
   viewBox="0 0 12 12"
   version="1.1"
   id="svg43020"
   inkscape:version="1.2.2 (732a01da63, 2022-12-09)"
   sodipodi:docname="drum.svg"
   xmlns:inkscape="http://www.inkscape.org/namespaces/inkscape"
   xmlns:sodipodi="http://sodipodi.sourceforge.net/DTD/sodipodi-0.dtd"
   xmlns="http://www.w3.org/2000/svg"
   xmlns:svg="http://www.w3.org/2000/svg">
  <sodipodi:namedview
     id="namedview43022"
     pagecolor="#141414"
     bordercolor="#666666"
     borderopacity="1.0"
     inkscape:showpageshadow="2"
     inkscape:pageopacity="0"
     inkscape:pagecheckerboard="0"
     inkscape:deskcolor="#d1d1d1"
     inkscape:document-units="px"
     showgrid="false"
     inkscape:zoom="103.35544"
     inkscape:cx="9.3076865"
     inkscape:cy="6.695342"
     inkscape:window-width="3840"
     inkscape:window-height="2126"
     inkscape:window-x="-11"
     inkscape:window-y="-11"
     inkscape:window-maximized="1"
     inkscape:current-layer="layer1" />
  <defs
     id="defs43017" />
  <g
     inkscape:label="Layer 1"
     inkscape:groupmode="layer"
     id="layer1">
    <path
       id="path21480"
       style="color:#000000;fill:#d9d9d9;fill-opacity:1;stroke-width:0.811013;-inkscape-stroke:none"
       d="m 9.8102787,2.2794163 c -0.035958,-0.00253 -0.069757,0.00481 -0.096621,0.022176 l -0.00951,-0.0095 -1.9388284,1.8770526 C 7.5202633,4.1422799 7.2662427,4.1279589 7.0065842,4.1279589 6.0041088,4.1279589 5.093105,4.3359413 4.407223,4.6918668 3.7213409,5.047792 3.2223831,5.5825796 3.222383,6.242613 c 10e-8,0.6600331 0.4989579,1.1948207 1.18484,1.5507463 0.685882,0.3559254 1.5968858,0.5623237 2.5993612,0.5623237 1.0024756,0 1.9134792,-0.2063983 2.5993608,-0.5623237 0.685882,-0.3559251 1.184838,-0.8907127 1.184838,-1.5507458 0,-0.4278988 -0.210505,-0.8023815 -0.544899,-1.1103913 l 1.435115,-0.6605326 -0.0015,-0.00158 C 11.76134,4.4208884 11.770608,4.2823745 11.700053,4.161226 11.637866,4.0547019 11.533267,3.9947828 11.451362,4.0186649 L 11.445019,4.0075696 9.8388333,4.824919 C 9.7637144,4.7781337 9.6867119,4.7337787 9.6059411,4.6918645 9.2209142,4.4920623 8.7643828,4.3379456 8.2611167,4.2420053 L 10.06372,2.670667 10.06222,2.667487 C 10.12661,2.596904 10.09637,2.4624348 9.99411,2.366531 9.9377807,2.3138539 9.8702554,2.2836144 9.8103309,2.2794089 Z M 7.0065803,4.7520568 c 0.05189,0 0.1039494,3.376e-4 0.155233,0.00158 L 6.2589273,5.6280145 6.14171,5.7309757 C 5.9871221,5.6944013 5.8964372,5.7754894 5.8201559,5.857697 5.6743999,5.9749894 5.6343937,6.1540968 5.7108595,6.2489476 5.787337,6.3438296 5.9672794,6.3265125 6.1131982,6.2093478 6.2200632,6.1236471 6.2948235,6.05146 6.2842714,5.9543222 l 0.147313,-0.1172173 1.2086,-1.053367 c 0.5824284,0.059233 1.1062024,0.1990235 1.5206493,0.3864985 L 7.1966616,6.1697461 7.0525166,6.2758749 C 6.9283267,6.2429388 6.8554263,6.2739926 6.7151224,6.3249782 6.5337044,6.4139177 6.4393023,6.5448599 6.4854408,6.6576205 6.5315816,6.7704136 6.7096907,6.8041829 6.8830273,6.733654 7.0099411,6.6821026 7.1235464,6.6095733 7.1412212,6.5134765 L 7.3582307,6.4596208 9.6138609,5.4220939 c 0.3705875,0.258094 0.5528191,0.5499427 0.5528191,0.8205174 0,0.334973 -0.2783709,0.7002106 -0.8490293,0.9963427 -0.570657,0.2961313 -1.3961303,0.4926265 -2.3110704,0.4926265 -0.9149401,0 -1.7404134,-0.1964952 -2.3110712,-0.4926272 C 4.1248509,6.9428212 3.8464794,6.5775836 3.8464794,6.2426107 c 0,-0.334973 0.2783715,-0.7017945 0.8490297,-0.9979267 C 5.2661669,4.9485518 6.0916402,4.7520568 7.0065803,4.7520568 Z m -3.6543124,2.6706417 0.034848,2.187519 c 1.499e-4,1.2255855 1.5075305,2.1416385 3.5972879,2.1415815 2.0544373,5.7e-5 3.6223622,-0.945142 3.6749022,-2.1415815 h 0.0015 V 9.5484454 7.4686401 C 9.7910322,8.3584168 8.3337034,8.6603102 7.1428052,8.6423866 5.710996,8.6208374 4.2685197,8.3434876 3.3522679,7.4226985 Z" />
  </g>
</svg>
