<?xml version="1.0" encoding="UTF-8" standalone="no"?>
<!-- Created with Inkscape (http://www.inkscape.org/) -->

<svg
   width="12"
   height="12"
   viewBox="0 0 12 12"
   version="1.1"
   id="svg43020"
   inkscape:version="1.2.2 (732a01da63, 2022-12-09)"
   sodipodi:docname="gear.svg"
   xmlns:inkscape="http://www.inkscape.org/namespaces/inkscape"
   xmlns:sodipodi="http://sodipodi.sourceforge.net/DTD/sodipodi-0.dtd"
   xmlns="http://www.w3.org/2000/svg"
   xmlns:svg="http://www.w3.org/2000/svg">
  <sodipodi:namedview
     id="namedview43022"
     pagecolor="#141414"
     bordercolor="#666666"
     borderopacity="1.0"
     inkscape:showpageshadow="2"
     inkscape:pageopacity="0"
     inkscape:pagecheckerboard="0"
     inkscape:deskcolor="#d1d1d1"
     inkscape:document-units="px"
     showgrid="false"
     inkscape:zoom="18.270833"
     inkscape:cx="9.3044471"
     inkscape:cy="7.3888257"
     inkscape:window-width="3840"
     inkscape:window-height="2126"
     inkscape:window-x="-11"
     inkscape:window-y="-11"
     inkscape:window-maximized="1"
     inkscape:current-layer="layer1" />
  <defs
     id="defs43017" />
  <g
     inkscape:label="Layer 1"
     inkscape:groupmode="layer"
     id="layer1">
    <path
       id="path31243"
       style="fill:#d9d9d9;fill-opacity:1;stroke:none;stroke-width:0.0035082"
       d="M 6.971186,3.8517618 5.6275828,4.4094912 5.8661959,5.4513074 c -0.06081,0.05613 -0.1193112,0.1146332 -0.1754394,0.1754412 L 4.6489403,5.3881337 4.091211,6.7320991 4.9998208,7.2966874 c 0,0.02105 -7.38e-4,0.042122 -0.00185,0.063172 -0.00111,0.02105 -0.00185,0.042124 -0.00185,0.063173 0,0.02105 7.38e-4,0.042124 0.00185,0.063173 0.00111,0.02105 0.00185,0.042122 0.00185,0.063172 L 4.091211,8.1139669 4.6489403,9.4579327 5.6907565,9.2193176 c 0.056128,0.060808 0.1146296,0.1193112 0.1754394,0.175441 L 5.6275828,10.436576 6.971186,10.994305 7.5361346,10.085693 c 0.02105,0 0.042124,7.38e-4 0.063173,0.0019 0.02105,0.0011 0.042124,0.0015 0.063172,0.0015 0.02105,0 0.042124,-3.7e-4 0.063174,-0.0015 0.02105,-0.0011 0.042124,-0.0019 0.063174,-0.0019 l 0.5645866,0.908612 1.3436052,-0.557729 -0.238255,-1.0418174 c 0.06081,-0.056132 0.118951,-0.1146334 0.175081,-0.175441 L 10.676022,9.4579327 11.233751,8.1139669 10.325139,7.5493787 c 0,-0.02105 7.38e-4,-0.042122 0.0019,-0.063172 0.0011,-0.02105 0.0015,-0.042124 0.0015,-0.063173 0,-0.02105 -3.7e-4,-0.042124 -0.0015,-0.063174 -0.0011,-0.02105 -0.0019,-0.042122 -0.0019,-0.063172 L 11.233751,6.7320991 10.676022,5.3881337 9.6338454,5.6267486 C 9.5777154,5.5659406 9.5195744,5.5074375 9.4587644,5.4513074 L 9.6970194,4.4094912 8.3534142,3.8517618 7.7888278,4.7603735 c -0.02105,0 -0.042124,-7.045e-4 -0.063173,-0.00181 -0.02105,-0.00111 -0.042124,-0.00144 -0.063174,-0.00144 -0.021048,0 -0.042122,3.326e-4 -0.063172,0.00144 -0.02105,0.00111 -0.042124,0.00181 -0.063174,0.00181 z m 0.6912943,2.046451 A 1.5248202,1.5248202 0 0 1 9.1873004,7.423033 1.5248202,1.5248202 0 0 1 7.6624803,8.9478533 1.5248202,1.5248202 0 0 1 6.1376601,7.423033 1.5248202,1.5248202 0 0 1 7.6624803,5.8982128 Z"
       inkscape:label="processing" />
  </g>
</svg>
