<?xml version="1.0" encoding="UTF-8" standalone="no"?>
<svg width="12" height="12" viewBox="0 0 12 12" version="1.1" 
xmlns="http://www.w3.org/2000/svg"
xmlns:svg="http://www.w3.org/2000/svg">
<path style="fill:#d9d9d9" d="m 8.046461,5.1335106 a 3.2410583,3.1726799 0 0 0 -3.2421875,3.171875 3.2410583,3.1726799 0 0 0 2.4355469,3.0683584 v -0.874999 h 1.5859375 v 0.878906 A 3.2410583,3.1726799 0 0 0 11.286696,8.3053856 3.2410583,3.1726799 0 0 0 8.046461,5.1335106 Z M 7.966383,5.8073387 c 0.0041,-4.155e-4 0.00947,0 0.013672,0 H 8.02693 c 0.067292,0 0.1210938,0.053805 0.1210938,0.1210938 V 6.26437 c 0.1329262,0.057801 0.218602,0.189035 0.21875,0.3339844 -1.475e-4,0.1449493 -0.085824,0.2742304 -0.21875,0.3320312 v 0.3359375 c 0,0.06729 -0.053803,0.1230469 -0.1210938,0.1230469 H 7.980055 c -0.067292,0 -0.1230468,-0.055756 -0.1230468,-0.1230469 V 6.9303856 C 7.7240814,6.872585 7.6384052,6.7433037 7.6382579,6.5983544 7.6385338,6.4535222 7.7241889,6.3221241 7.8570079,6.26437 V 5.9284325 c 0,-0.06308 0.047937,-0.1148544 0.1093751,-0.1210938 z M 6.4331797,6.2897606 c 0.038824,-0.00473 0.079839,0.00927 0.1074219,0.041016 l 0.2207031,0.2539062 c 0.1381397,-0.043519 0.2876095,-0.00172 0.3828126,0.1074219 0.09496,0.1095124 0.1171164,0.2656678 0.054687,0.3964843 l 0.2207032,0.2519532 c 0.044135,0.050794 0.037124,0.1277383 -0.013672,0.171875 l -0.035156,0.03125 c -0.050794,0.044135 -0.1277396,0.039076 -0.171875,-0.011719 L 6.9781016,7.279995 C 6.8398509,7.3235491 6.690472,7.279939 6.5952891,7.17062 6.5003295,7.0611074 6.4781731,6.9049524 6.5406016,6.7741356 l -0.21875,-0.2519531 c -0.044134,-0.050793 -0.039077,-0.1277384 0.011719,-0.171875 l 0.035156,-0.03125 c 0.019048,-0.016551 0.041159,-0.02646 0.064453,-0.029297 z m 3.2792969,0.070312 c 0.030558,-0.00157 0.060937,0.00953 0.085937,0.03125 l 0.035156,0.03125 c 0.050796,0.044137 0.055853,0.1210816 0.011719,0.171875 l -0.21875,0.2519532 C 9.6889676,6.9772176 9.6668106,7.1333723 9.5718516,7.2428851 9.4766686,7.3522044 9.3272904,7.3938611 9.1890391,7.350307 L 8.968336,7.6042137 C 8.924201,7.6550087 8.8472553,7.6600677 8.796461,7.6159327 L 8.761305,7.5846827 C 8.7105089,7.5405458 8.7034975,7.4636018 8.7476329,7.4128075 L 8.968336,7.1608544 C 8.9059071,7.0300373 8.928063,6.8738826 9.0230235,6.76437 9.1182264,6.6552237 9.2676961,6.613429 9.405836,6.6569481 L 9.6265391,6.4030419 c 0.019308,-0.022221 0.045333,-0.036518 0.072266,-0.041016 0.00433,-7.23e-4 0.00931,-0.00173 0.013672,-0.00195 z m -4.2714843,1.007813 c 0.023275,-0.00299 0.047776,0.00232 0.070312,0.013672 L 5.8101329,7.5319481 C 5.9214519,7.4392952 6.0771355,7.4221342 6.2066173,7.4870263 6.3360134,7.552349 6.4139946,7.6880093 6.405836,7.8327294 L 6.7066173,7.98312 c 0.060101,0.030264 0.082999,0.1039602 0.052734,0.1640625 l -0.021484,0.041016 c -0.030264,0.060101 -0.1020089,0.084951 -0.1621094,0.054687 L 6.2749766,8.092495 C 6.1635678,8.1852225 6.008021,8.2024763 5.8784923,8.1374169 5.7490965,8.0720935 5.671115,7.9364336 5.6792735,7.7917137 L 5.3804454,7.6413231 c -0.0601,-0.030263 -0.084952,-0.10396 -0.054687,-0.1640625 l 0.021484,-0.042969 c 0.018915,-0.037563 0.054957,-0.061427 0.09375,-0.066406 z m 5.0996097,0 c 0.04737,-0.00315 0.09449,0.021331 0.117187,0.066406 l 0.02149,0.042969 c 0.03026,0.060103 0.0054,0.1337991 -0.05469,0.1640625 l -0.298828,0.1503906 c 0.0082,0.1447201 -0.06982,0.2803798 -0.199219,0.3457032 C 9.99701,8.2024765 9.8414638,8.1852227 9.7300547,8.092495 L 9.4292735,8.2428856 C 9.3691727,8.2731495 9.297428,8.2482989 9.2671641,8.1881981 L 9.2456797,8.1471825 C 9.2154149,8.08708 9.2383134,8.0133839 9.2984141,7.98312 L 9.5991954,7.8327294 c -0.00816,-0.1447203 0.069822,-0.2803802 0.1992187,-0.3457031 0.129482,-0.064892 0.2851649,-0.047731 0.3964849,0.044922 l 0.298828,-0.1503906 c 0.01502,-0.00757 0.03108,-0.012623 0.04687,-0.013672 z" />
<path style="fill:#141414" d="m 7.966383,5.8073387 c 0.0041,-4.155e-4 0.00947,0 0.013672,0 H 8.02693 c 0.067292,0 0.1210938,0.053805 0.1210938,0.1210938 V 6.26437 c 0.1329262,0.057801 0.218602,0.189035 0.21875,0.3339844 -1.475e-4,0.1449493 -0.085824,0.2742304 -0.21875,0.3320312 v 0.3359375 c 0,0.06729 -0.053803,0.1230469 -0.1210938,0.1230469 H 7.980055 c -0.067292,0 -0.1230468,-0.055756 -0.1230468,-0.1230469 V 6.9303856 C 7.7240814,6.872585 7.6384052,6.7433037 7.6382579,6.5983544 7.6385338,6.4535222 7.7241889,6.3221241 7.8570079,6.26437 V 5.9284325 c 0,-0.06308 0.047937,-0.1148544 0.1093751,-0.1210938 z M 6.4331797,6.2897606 c 0.038824,-0.00473 0.079839,0.00927 0.1074219,0.041016 l 0.2207031,0.2539062 c 0.1381397,-0.043519 0.2876095,-0.00172 0.3828126,0.1074219 0.09496,0.1095124 0.1171164,0.2656678 0.054687,0.3964843 l 0.2207032,0.2519532 c 0.044135,0.050794 0.037124,0.1277383 -0.013672,0.171875 l -0.035156,0.03125 c -0.050794,0.044135 -0.1277396,0.039076 -0.171875,-0.011719 L 6.9781016,7.279995 C 6.8398509,7.3235491 6.690472,7.279939 6.5952891,7.17062 6.5003295,7.0611074 6.4781731,6.9049524 6.5406016,6.7741356 l -0.21875,-0.2519531 c -0.044134,-0.050793 -0.039077,-0.1277384 0.011719,-0.171875 l 0.035156,-0.03125 c 0.019048,-0.016551 0.041159,-0.02646 0.064453,-0.029297 z m 3.2792969,0.070312 c 0.030558,-0.00157 0.060937,0.00953 0.085937,0.03125 l 0.035156,0.03125 c 0.050796,0.044137 0.055853,0.1210816 0.011719,0.171875 l -0.21875,0.2519532 C 9.6889676,6.9772176 9.6668106,7.1333723 9.5718516,7.2428851 9.4766686,7.3522044 9.3272904,7.3938611 9.1890391,7.350307 L 8.968336,7.6042137 C 8.924201,7.6550087 8.8472553,7.6600677 8.796461,7.6159327 L 8.761305,7.5846827 C 8.7105089,7.5405458 8.7034975,7.4636018 8.7476329,7.4128075 L 8.968336,7.1608544 C 8.9059071,7.0300373 8.928063,6.8738826 9.0230235,6.76437 9.1182264,6.6552237 9.2676961,6.613429 9.405836,6.6569481 L 9.6265391,6.4030419 c 0.019308,-0.022221 0.045333,-0.036518 0.072266,-0.041016 0.00433,-7.23e-4 0.00931,-0.00173 0.013672,-0.00195 z m -4.2714843,1.007813 c 0.023275,-0.00299 0.047776,0.00232 0.070312,0.013672 L 5.8101329,7.5319481 C 5.9214519,7.4392952 6.0771355,7.4221342 6.2066173,7.4870263 6.3360134,7.552349 6.4139946,7.6880093 6.405836,7.8327294 L 6.7066173,7.98312 c 0.060101,0.030264 0.082999,0.1039602 0.052734,0.1640625 l -0.021484,0.041016 c -0.030264,0.060101 -0.1020089,0.084951 -0.1621094,0.054687 L 6.2749766,8.092495 C 6.1635678,8.1852225 6.008021,8.2024763 5.8784923,8.1374169 5.7490965,8.0720935 5.671115,7.9364336 5.6792735,7.7917137 L 5.3804454,7.6413231 c -0.0601,-0.030263 -0.084952,-0.10396 -0.054687,-0.1640625 l 0.021484,-0.042969 c 0.018915,-0.037563 0.054957,-0.061427 0.09375,-0.066406 z m 5.0996097,0 c 0.04737,-0.00315 0.09449,0.021331 0.117187,0.066406 l 0.02149,0.042969 c 0.03026,0.060103 0.0054,0.1337991 -0.05469,0.1640625 l -0.298828,0.1503906 c 0.0082,0.1447201 -0.06982,0.2803798 -0.199219,0.3457032 C 9.99701,8.2024765 9.8414638,8.1852227 9.7300547,8.092495 L 9.4292735,8.2428856 C 9.3691727,8.2731495 9.297428,8.2482989 9.2671641,8.1881981 L 9.2456797,8.1471825 C 9.2154149,8.08708 9.2383134,8.0133839 9.2984141,7.98312 L 9.5991954,7.8327294 c -0.00816,-0.1447203 0.069822,-0.2803802 0.1992187,-0.3457031 0.129482,-0.064892 0.2851649,-0.047731 0.3964849,0.044922 l 0.298828,-0.1503906 c 0.01502,-0.00757 0.03108,-0.012623 0.04687,-0.013672 z" />
</svg>