<?xml version="1.0" encoding="UTF-8" standalone="no"?>
<!-- Created with Inkscape (http://www.inkscape.org/) -->

<svg
   width="12"
   height="12"
   viewBox="0 0 12 12"
   version="1.1"
   id="svg43020"
   inkscape:version="1.2.2 (732a01da63, 2022-12-09)"
   sodipodi:docname="other.svg"
   xmlns:inkscape="http://www.inkscape.org/namespaces/inkscape"
   xmlns:sodipodi="http://sodipodi.sourceforge.net/DTD/sodipodi-0.dtd"
   xmlns="http://www.w3.org/2000/svg"
   xmlns:svg="http://www.w3.org/2000/svg">
  <sodipodi:namedview
     id="namedview43022"
     pagecolor="#141414"
     bordercolor="#666666"
     borderopacity="1.0"
     inkscape:showpageshadow="2"
     inkscape:pageopacity="0"
     inkscape:pagecheckerboard="0"
     inkscape:deskcolor="#d1d1d1"
     inkscape:document-units="px"
     showgrid="false"
     inkscape:zoom="18.270833"
     inkscape:cx="9.3591792"
     inkscape:cy="7.3888257"
     inkscape:window-width="3840"
     inkscape:window-height="2126"
     inkscape:window-x="-11"
     inkscape:window-y="-11"
     inkscape:window-maximized="1"
     inkscape:current-layer="layer1" />
  <defs
     id="defs43017" />
  <g
     inkscape:label="Layer 1"
     inkscape:groupmode="layer"
     id="layer1">
    <g
       aria-label="*"
       transform="matrix(0.60271285,-0.21501899,0.21501899,0.60271285,4.4895537,4.5298254)"
       id="text342"
       style="font-weight:bold;font-size:20px;line-height:1.25;font-family:Garamond;-inkscape-font-specification:'Garamond Bold'">
      <path
         d="M 4.8655603,7.0226784 5.3050134,6.4758034 Q 5.8518884,5.782444 6.4475915,5.782444 q 0.4785157,0 0.7910157,0.4296875 0.3222656,0.4199219 0.3222656,0.9082031 0,0.46875 -0.3222656,0.7519532 -0.3222657,0.2832031 -0.7324219,0.2832031 -0.2929688,0 -0.7617188,-0.1171875 -0.6738281,-0.1855469 -0.859375,-0.2050781 -0.1855468,-0.029297 -0.5761718,0.00977 0,0.2246094 -0.1660157,0.5175781 0.4394532,0.4101563 1.1035157,0.6347656 0.6152343,0.1953125 0.9765625,0.46875 0.3613281,0.2636719 0.3613281,0.800781 0,0.478516 -0.4492188,0.849609 -0.4492187,0.361328 -0.9082031,0.361328 -0.3417969,0 -0.6738281,-0.283203 Q 4.221029,10.899632 4.1819665,10.059788 4.1526697,9.2687721 4.1136072,9.0343971 4.0745447,8.8000221 3.908529,8.516819 3.6350915,8.575413 3.6253259,8.575413 q 0.00977,0 -0.097656,-0.029297 Q 3.4202478,8.516819 3.3811853,8.516819 3.205404,8.9172096 3.1663415,9.5422096 3.0979822,10.2551 3.0198572,10.606663 q -0.068359,0.351562 -0.3027344,0.615234 -0.2246094,0.253906 -0.6542969,0.253906 -0.4785156,0 -0.9082031,-0.361328 -0.42968751,-0.361328 -0.42968751,-0.810547 0,-0.5566402 0.38085941,-0.8398434 0.3808593,-0.2832031 1.2988281,-0.625 Q 2.6682947,8.7414284 2.8343103,8.6340065 3.0100915,8.516819 3.127279,8.360569 2.9417322,8.1652565 2.9417322,7.8429909 q -0.00977,0 -0.1171875,-0.019531 -0.1074219,-0.019531 -0.1757813,-0.019531 -0.1953125,0 -0.9863281,0.1660156 -0.79101563,0.1660156 -0.87890626,0.1660156 -0.53710937,0 -0.81054687,-0.3320312 -0.26367188,-0.3320313 -0.26367188,-0.703125 0,-0.46875 0.29296875,-0.8886719 0.30273438,-0.4296875 0.78125,-0.4296875 0.63476566,0 1.20117186,0.7617188 Q 2.502279,7.2179909 2.6194665,7.344944 2.7464197,7.4621315 3.0296228,7.5597878 3.2249353,7.2765846 3.4886072,7.2179909 3.4495447,6.9933815 3.3323572,6.7687721 3.2249353,6.5343971 2.8245447,5.9191628 2.4436853,5.3039284 2.4436853,4.923069 q 0,-0.3417969 0.2539062,-0.703125 0.2539063,-0.3613281 0.9472657,-0.3613281 0.703125,0 0.9375,0.3613281 0.2441406,0.3613281 0.2441406,0.6640625 0,0.4101563 -0.4589844,1.1328125 -0.3808594,0.625 -0.46875,0.7910156 -0.078125,0.15625 -0.1171875,0.4101563 Q 4.0745447,7.3254128 4.221029,7.5597878 4.5725915,7.3742409 4.8655603,7.0226784 Z"
         style="font-family:'Perpetua Titling MT';-inkscape-font-specification:'Perpetua Titling MT Bold';fill:#d9d9d9"
         id="path948" />
    </g>
  </g>
</svg>
