<?xml version="1.0" encoding="UTF-8" standalone="no"?>
<!-- Created with Inkscape (http://www.inkscape.org/) -->

<svg
   width="200"
   height="200"
   viewBox="0 0 200 200.00001"
   version="1.1"
   id="svg18049"
   xml:space="preserve"
   inkscape:version="1.2.2 (732a01da63, 2022-12-09)"
   sodipodi:docname="symbols.svg"
   xmlns:inkscape="http://www.inkscape.org/namespaces/inkscape"
   xmlns:sodipodi="http://sodipodi.sourceforge.net/DTD/sodipodi-0.dtd"
   xmlns="http://www.w3.org/2000/svg"
   xmlns:svg="http://www.w3.org/2000/svg"><sodipodi:namedview
     id="namedview18051"
     pagecolor="#ffffff"
     bordercolor="#666666"
     borderopacity="1.0"
     inkscape:showpageshadow="2"
     inkscape:pageopacity="0.0"
     inkscape:pagecheckerboard="0"
     inkscape:deskcolor="#d1d1d1"
     inkscape:document-units="px"
     showgrid="true"
     inkscape:zoom="128"
     inkscape:cx="74.464844"
     inkscape:cy="166.44531"
     inkscape:window-width="3840"
     inkscape:window-height="2054"
     inkscape:window-x="3829"
     inkscape:window-y="-11"
     inkscape:window-maximized="1"
     inkscape:current-layer="layer1"
     showguides="true"><inkscape:grid
       type="xygrid"
       id="grid18218"
       spacingx="5.0000001"
       spacingy="5.0000001"
       empspacing="15" /></sodipodi:namedview><defs
     id="defs18046" /><g
     inkscape:label="Layer 1"
     inkscape:groupmode="layer"
     id="layer1"><g
       id="g38223"
       transform="rotate(-27.330869,143.63225,81.640405)"
       inkscape:label="viol"><path
         id="path20894"
         style="fill:#000000;fill-opacity:1;stroke:none;stroke-width:1px;stroke-linecap:butt;stroke-linejoin:miter;stroke-opacity:1"
         d="m 174.10156,15.517578 -3.45117,1.857422 -0.10547,1.894531 -0.40234,0.09375 -3.00391,2.691407 -0.26367,0.548828 -7.7207,7.013672 -0.004,-0.0039 -8.00391,7.50586 2.95313,3.191406 7.76562,-7.792969 0.0176,0.01758 7.30664,-7.957031 0.51563,-0.285156 2.61914,-2.978516 0.1289,-0.289062 1.71485,-0.195313 1.91601,-3.261719 -0.54882,-1.550781 z m -21.07812,11.238281 c -3.19573,0.07432 -6.87157,3.631429 -7.34571,4.775391 -0.70121,1.691923 1.28953,3.175326 -0.49414,4.958984 -1.78363,1.783662 -4.5926,0.56649 -5.53711,0.81836 -1.11476,0.297274 -4.57031,3.107422 -4.57031,3.107422 0,0 -4.27445,3.283239 -3.53125,7.59375 0.51582,2.991734 1.819,4.575611 3.08985,5.74414 0.15442,-0.191453 0.32177,-0.398035 0.5332,-0.652344 0.51409,-0.618369 1.16889,-1.390617 1.8125,-2.146484 1.28722,-1.511733 2.5332,-2.957031 2.5332,-2.957031 l 0.36719,-0.423828 4.26758,4.621093 -6.10938,4.582032 c 2.62024,2.346226 3.92211,3.186257 7.10742,3.125 3.86461,-0.07432 9.09592,-5.340392 8.91797,-7.285156 -0.19214,-2.099798 -2.00607,-2.883166 1.04102,-5.796876 3.0471,-2.913707 4.08638,-0.445312 5.20117,-0.445312 1.11479,0 2.33389,-1.181099 3.49414,-2.898438 1.04967,-1.55365 1.9312,-2.749186 0.81641,-6.242187 -0.65778,-2.061041 -1.5946,-3.462623 -2.17188,-4.148437 l -8.37304,8.326171 -4.07032,-4.396484 8.51953,-7.929687 c -1.07055,-0.859926 -3.27473,-2.381783 -5.49804,-2.330079 z m -8.66187,17.251434 3.59457,3.635257 -0.54848,0.655365 -3.59458,-3.766637 z m -4.45532,5.070832 c -0.28609,0.331896 -1.06686,1.234525 -2.16602,2.525391 -0.64222,0.754257 -1.29331,1.525914 -1.80273,2.138672 -0.222,0.267033 -0.40037,0.486218 -0.55469,0.677734 0.28898,0.244662 0.58812,0.492391 0.84375,0.724609 0.4193,0.380893 0.69657,0.623418 1.05664,0.951172 l 5.37891,-4.037109 z"
         sodipodi:nodetypes="ccccccccccccccccccccsccscscssccccssssssccccsccccccsscsccc" /><path
         id="path20948-3"
         style="stroke-width:3.46861;stroke-opacity:0.501961"
         d="m 168.02399,17.913014 a 0.95697616,1.1164722 43.073999 0 0 -0.0624,1.468782 0.95697616,1.1164722 43.073999 0 0 1.12317,0.09484 l 0.50806,0.475006 0.55059,-0.588895 -0.49983,-0.467295 a 0.95697616,1.1164722 43.073999 0 0 -0.15674,-1.145071 0.95697616,1.1164722 43.073999 0 0 -1.46281,0.16263 z m 0.0566,0.06608 a 0.95697616,1.1164722 43.073999 0 0 -0.0624,1.468782 0.95697616,1.1164722 43.073999 0 0 1.12317,0.09484 l 0.50806,0.475006 0.55059,-0.588895 -0.49983,-0.467295 a 0.95697616,1.1164722 43.073999 0 0 -0.15674,-1.145071 0.95697616,1.1164722 43.073999 0 0 -1.46281,0.16263 z" /><path
         id="path20948-3-8"
         style="stroke-width:3.46861;stroke-opacity:0.501961"
         d="m 166.10802,19.513028 a 0.95697616,1.1164722 43.073999 0 0 -0.0624,1.468782 0.95697616,1.1164722 43.073999 0 0 1.12317,0.09484 l 0.50806,0.475006 0.55059,-0.588895 -0.49983,-0.467295 a 0.95697616,1.1164722 43.073999 0 0 -0.15674,-1.145071 0.95697616,1.1164722 43.073999 0 0 -1.46281,0.16263 z m 0.0566,0.06608 a 0.95697616,1.1164722 43.073999 0 0 -0.0624,1.468782 0.95697616,1.1164722 43.073999 0 0 1.12317,0.09484 l 0.50806,0.475006 0.55059,-0.588895 -0.49983,-0.467295 a 0.95697616,1.1164722 43.073999 0 0 -0.15674,-1.145071 0.95697616,1.1164722 43.073999 0 0 -1.46281,0.16263 z" /><path
         id="path20948-3-8-8"
         style="stroke-width:3.46861;stroke-opacity:0.501961"
         d="m 172.28156,25.204783 a 0.95697616,1.1164722 43.073999 0 0 0.0624,-1.468782 0.95697616,1.1164722 43.073999 0 0 -1.12317,-0.09484 l -0.50806,-0.475006 -0.55059,0.588895 0.49983,0.467295 a 0.95697616,1.1164722 43.073999 0 0 0.15674,1.145071 0.95697616,1.1164722 43.073999 0 0 1.46281,-0.16263 z m -0.0566,-0.06608 a 0.95697616,1.1164722 43.073999 0 0 0.0624,-1.468782 0.95697616,1.1164722 43.073999 0 0 -1.12317,-0.09484 l -0.50806,-0.475006 -0.55059,0.588895 0.49983,0.467295 a 0.95697616,1.1164722 43.073999 0 0 0.15674,1.145071 0.95697616,1.1164722 43.073999 0 0 1.46281,-0.16263 z" /><path
         id="path20948-3-8-8-2"
         style="stroke-width:3.46861;stroke-opacity:0.501961"
         d="m 173.89355,23.352661 a 0.95697616,1.1164722 43.073999 0 0 0.0624,-1.468782 0.95697616,1.1164722 43.073999 0 0 -1.12317,-0.09484 l -0.50806,-0.475006 -0.55059,0.588895 0.49983,0.467295 a 0.95697616,1.1164722 43.073999 0 0 0.15674,1.145071 0.95697616,1.1164722 43.073999 0 0 1.46281,-0.16263 z m -0.0566,-0.06608 a 0.95697616,1.1164722 43.073999 0 0 0.0624,-1.468782 0.95697616,1.1164722 43.073999 0 0 -1.12317,-0.09484 l -0.50806,-0.475006 -0.55059,0.588895 0.49983,0.467295 a 0.95697616,1.1164722 43.073999 0 0 0.15674,1.145071 0.95697616,1.1164722 43.073999 0 0 1.46281,-0.16263 z" /><path
         style="fill:none;stroke:#000000;stroke-width:1px;stroke-linecap:butt;stroke-linejoin:miter;stroke-opacity:1"
         d="M 134.84773,52.949736 Z"
         id="path21409" /></g><g
       id="g22587"
       inkscape:label="drum"
       transform="translate(-26.392793,-11.844039)"><ellipse
         style="opacity:1;fill:none;fill-opacity:1;stroke:#000000;stroke-width:3;stroke-dasharray:none;stroke-opacity:1"
         id="path21480"
         cx="47.778694"
         cy="35.799416"
         rx="16.684698"
         ry="8.658206" /><path
         id="path21482"
         style="opacity:1;fill:#000000;fill-opacity:1;stroke:none;stroke-width:3;stroke-dasharray:none;stroke-opacity:1"
         d="m 30.215593,41.470401 0.167219,10.515927 c 7.21e-4,5.889905 7.250035,10.293244 17.292969,10.292969 9.873193,2.7e-4 17.401793,-4.543137 17.654297,-10.292969 h 0.01172 V 51.689453 41.693359 C 61.161445,45.969464 54.154767,47.422264 48.431561,47.336127 41.550587,47.232566 34.618906,45.895519 30.215594,41.470401 Z"
         sodipodi:nodetypes="cccccccscc" /><path
         id="path22350"
         style="fill:#000000;fill-opacity:1;stroke:none;stroke-width:1px;stroke-linecap:butt;stroke-linejoin:miter;stroke-opacity:1"
         d="m 60.746646,16.814979 -16.561331,16.030609 -0.560558,0.494691 c -0.742917,-0.175767 -1.181453,0.215305 -1.548045,0.610376 -0.700473,0.56368 -0.891419,1.429046 -0.523942,1.884879 0.367529,0.455983 1.233601,0.369202 1.934856,-0.193869 0.51357,-0.411861 0.867775,-0.76117 0.817064,-1.227994 l 0.70882,-0.564558 17.457232,-15.214706 -0.02685,-0.02903 0.01908,0.01848 c 0.309463,-0.339234 0.162267,-0.986572 -0.329189,-1.447465 -0.432853,-0.405037 -0.999138,-0.537987 -1.343473,-0.315417 z"
         sodipodi:nodetypes="cccccccccccccc" /><path
         id="path22350-0"
         style="fill:#000000;fill-opacity:1;stroke:none;stroke-width:1px;stroke-linecap:butt;stroke-linejoin:miter;stroke-opacity:1"
         d="m 69.107854,25.057207 -20.412651,10.397249 -0.694622,0.505897 c -0.596828,-0.158284 -0.945558,-0.0088 -1.61983,0.236247 -0.871857,0.427426 -1.327208,1.054029 -1.105476,1.595932 0.221739,0.542059 1.076446,0.706644 1.909465,0.367692 0.609923,-0.247745 1.154744,-0.591943 1.239686,-1.053767 l 1.046905,-0.264387 20.768216,-9.548371 -0.01743,-0.0355 0.013,0.02317 c 0.393569,-0.236538 0.437694,-0.898933 0.09861,-1.481148 -0.298905,-0.511928 -0.803498,-0.801308 -1.197111,-0.686535 z"
         sodipodi:nodetypes="cccccccccccccc" /></g><g
       id="g22581"
       transform="translate(-69.19581,-55.96184)"
       inkscape:label="keys"><rect
         style="opacity:1;fill:none;fill-opacity:1;stroke:#000000;stroke-width:3.30058;stroke-dasharray:none;stroke-opacity:1"
         id="rect22411"
         width="65"
         height="33.062618"
         x="75"
         y="115" /><g
         id="g22481"
         transform="matrix(1,0,0,1.0840828,0,-9.6695515)"><path
           style="fill:none;stroke:#000000;stroke-width:5;stroke-linecap:butt;stroke-linejoin:miter;stroke-dasharray:none;stroke-opacity:1"
           d="m 85.000002,115 v 20"
           id="path22413" /><path
           style="fill:none;stroke:#000000;stroke-width:5;stroke-linecap:butt;stroke-linejoin:miter;stroke-dasharray:none;stroke-opacity:1"
           d="m 95.000002,115 v 20"
           id="path22413-0" /><path
           style="fill:none;stroke:#000000;stroke-width:5;stroke-linecap:butt;stroke-linejoin:miter;stroke-dasharray:none;stroke-opacity:1"
           d="m 110,115 v 20"
           id="path22413-5" /><path
           style="fill:none;stroke:#000000;stroke-width:5;stroke-linecap:butt;stroke-linejoin:miter;stroke-dasharray:none;stroke-opacity:1"
           d="m 120,115 v 20"
           id="path22413-7" /><path
           style="fill:none;stroke:#000000;stroke-width:5;stroke-linecap:butt;stroke-linejoin:miter;stroke-dasharray:none;stroke-opacity:1"
           d="m 130,115 v 20"
           id="path22413-1" /></g><path
         style="fill:none;stroke:#000000;stroke-width:1px;stroke-linecap:butt;stroke-linejoin:miter;stroke-opacity:1"
         d="m 102.47587,115 -0.21021,33.06262"
         id="path22483" /><path
         style="fill:none;stroke:#000000;stroke-width:1px;stroke-linecap:butt;stroke-linejoin:miter;stroke-opacity:1"
         d="m 110.34303,115 -0.21021,33.06262"
         id="path22483-9" /><path
         style="fill:none;stroke:#000000;stroke-width:1px;stroke-linecap:butt;stroke-linejoin:miter;stroke-opacity:1"
         d="m 120.1051,115 -0.21021,33.06262"
         id="path22483-1" /><path
         style="fill:none;stroke:#000000;stroke-width:1px;stroke-linecap:butt;stroke-linejoin:miter;stroke-opacity:1"
         d="m 129.86718,114.42759 -0.21021,33.06262"
         id="path22483-1-4" /><path
         style="fill:none;stroke:#000000;stroke-width:1px;stroke-linecap:butt;stroke-linejoin:miter;stroke-opacity:1"
         d="m 95.105107,115.68884 -0.21021,33.06262"
         id="path22483-1-7" /><path
         style="fill:none;stroke:#000000;stroke-width:1px;stroke-linecap:butt;stroke-linejoin:miter;stroke-opacity:1"
         d="m 84.84664,115.68884 -0.21021,33.06262"
         id="path22483-1-78" /></g><rect
       style="fill:none;fill-opacity:1;stroke:#000000;stroke-width:2.63174;stroke-dasharray:none;stroke-opacity:1"
       id="rect22411-4"
       width="65.593613"
       height="20.830206"
       x="123.79047"
       y="154.30244" /><rect
       style="fill:none;fill-opacity:1;stroke:#000000;stroke-width:2.78074;stroke-dasharray:none;stroke-opacity:1"
       id="rect22411-4-5"
       width="65.519844"
       height="23.28182"
       x="123.86423"
       y="131.09439" /><path
       style="fill:none;stroke:#000000;stroke-width:3.8146;stroke-linecap:butt;stroke-linejoin:miter;stroke-dasharray:none;stroke-opacity:1"
       d="m 134.12415,154.37621 v 11.6409"
       id="path22413-73" /><path
       style="fill:none;stroke:#000000;stroke-width:3.8146;stroke-linecap:butt;stroke-linejoin:miter;stroke-dasharray:none;stroke-opacity:1"
       d="m 144.63692,154.37621 v 11.6409"
       id="path22413-0-7" /><path
       style="fill:none;stroke:#000000;stroke-width:3.8146;stroke-linecap:butt;stroke-linejoin:miter;stroke-dasharray:none;stroke-opacity:1"
       d="m 160.31087,154.37621 v 11.6409"
       id="path22413-5-7" /><path
       style="fill:none;stroke:#000000;stroke-width:3.8146;stroke-linecap:butt;stroke-linejoin:miter;stroke-dasharray:none;stroke-opacity:1"
       d="m 169.12415,154.37621 v 11.6409"
       id="path22413-7-0" /><path
       style="fill:none;stroke:#000000;stroke-width:3.8146;stroke-linecap:butt;stroke-linejoin:miter;stroke-dasharray:none;stroke-opacity:1"
       d="m 179.12415,154.37621 v 11.6409"
       id="path22413-1-6" /><path
       style="fill:none;stroke:#000000;stroke-width:0.783382px;stroke-linecap:butt;stroke-linejoin:miter;stroke-opacity:1"
       d="m 152.2812,154.73449 -0.21363,19.96611"
       id="path22483-6" /><path
       style="fill:none;stroke:#000000;stroke-width:0.786877px;stroke-linecap:butt;stroke-linejoin:miter;stroke-opacity:1"
       d="m 160.41755,154.96426 -0.21337,20.16838"
       id="path22483-9-3" /><path
       style="fill:none;stroke:#000000;stroke-width:0.736559px;stroke-linecap:butt;stroke-linejoin:miter;stroke-opacity:1"
       d="m 169.23143,157.23082 -0.21457,17.57258"
       id="path22483-1-74" /><path
       style="fill:none;stroke:#000000;stroke-width:0.64654px;stroke-linecap:butt;stroke-linejoin:miter;stroke-opacity:1"
       d="m 178.77624,155.18025 -0.1472,19.7364"
       id="path22483-1-4-5" /><path
       style="fill:none;stroke:#000000;stroke-width:0.8126px;stroke-linecap:butt;stroke-linejoin:miter;stroke-opacity:1"
       d="m 144.74342,153.15255 -0.21299,21.54706"
       id="path22483-1-7-4" /><path
       style="fill:none;stroke:#000000;stroke-width:0.78363px;stroke-linecap:butt;stroke-linejoin:miter;stroke-opacity:1"
       d="m 133.97258,154.73566 -0.21379,19.96377"
       id="path22483-1-78-7" /><g
       id="g22724"
       transform="translate(38.084576,170.0475)"
       inkscape:label="tuned percussion"><g
         id="g22715"><g
           id="g22707"><rect
             style="opacity:1;fill:#000000;fill-opacity:1;stroke:none;stroke-width:5;stroke-dasharray:none;stroke-opacity:1"
             id="rect22595"
             width="11.115838"
             height="35.314762"
             x="45.219612"
             y="-101.21463" /><path
             id="rect22595-7"
             style="fill:#000000;fill-opacity:1;stroke:none;stroke-width:4.74028;stroke-dasharray:none;stroke-opacity:1"
             d="M 60.40625,-99.427734 V -67.6875 h 11.115234 v -9.998047 c -1.968362,0.67514 -4.101429,0.51382 -5.814453,-0.675781 l -0.002,-0.002 c -3.120684,-2.179649 -3.588183,-6.683817 -1.283203,-9.984375 1.68793,-2.417093 4.492873,-3.656075 7.099609,-3.292969 v -7.787109 z" /><path
             id="rect22595-79"
             style="fill:#000000;fill-opacity:1;stroke:none;stroke-width:4.46548;stroke-dasharray:none;stroke-opacity:1"
             d="m 75.591797,-97.640625 v 8.375 c 1.168111,1.562624 1.549615,3.65098 1.121094,5.701172 l 9.99414,6.978515 v -21.054687 z m 0,21.123047 v 7.044922 h 10.087891 z" /><path
             id="rect22595-78"
             style="stroke-width:4.20813"
             d="m 90.777191,-96.06456 9.778089,0.222958 -0.14864,25.311902 -4.947329,-0.148639 -4.819494,-3.330845 z"
             sodipodi:nodetypes="cccccc" /><path
             id="rect22647"
             style="fill:#000000;fill-opacity:1;stroke:none;stroke-width:2.2;stroke-dasharray:none;stroke-opacity:1"
             d="m 65.400752,-87.502967 a 5.5179324,6.2011037 34.928327 0 0 0.9732,8.243248 5.5179324,6.2011037 34.928327 0 0 6.63195,-0.42611 l 19.74091,13.785961 2.24435,-3.213821 -19.68966,-13.750176 a 5.5179324,6.2011037 34.928327 0 0 -1.82657,-6.564152 5.5179324,6.2011037 34.928327 0 0 -8.07418,1.92505 z" /></g></g></g><path
       id="rect22778"
       style="opacity:1;fill:#000000;fill-opacity:1;stroke:none;stroke-width:12.3743;stroke-dasharray:none;stroke-opacity:1"
       d="m 60.767063,98.654379 c -0.356147,0.0714 -0.915633,0.83649 -1.72461,1.748041 -0.575228,0.64816 -1.292191,1.16061 -4.255859,2.02344 -2.890156,0.84143 -3.849392,0.84707 -4.75586,1.02539 -0.192326,0.0378 -5.303153,0.16678 -11.349609,0.3125 v -2.81055 c 0,-0.2216 -0.178791,-0.40039 -0.400391,-0.40039 h -1.65039 c -0.2216,0 -0.400391,0.17879 -0.400391,0.40039 v 2.86914 c -0.500644,0.0119 -0.938117,0.0232 -1.449219,0.0352 v -2.9043 c 0,-0.2216 -0.17879,-0.40039 -0.40039,-0.40039 h -1.650391 c -0.2216,0 -0.40039,0.17879 -0.40039,0.40039 v 2.9629 c -0.521905,0.0121 -0.924997,0.023 -1.449219,0.0352 v -2.99805 c 0,-0.2216 -0.178792,-0.40039 -0.400391,-0.40039 h -1.65039 c -0.2216,0 -0.398438,0.17879 -0.398438,0.40039 v 3.05274 c -8.210089,0.18672 -15.691328,0.35244 -16.537109,0.37109 a 1.1708981,1.97657 0 0 0 -0.939453,-0.80078 1.1708981,1.97657 0 0 0 -1.1699221,1.98047 1.1708981,1.97657 0 0 0 1.1718751,1.97266 1.1708981,1.97657 0 0 0 0.9375,-0.80078 c 0.998237,0.0223 3.787769,0.0855 5.144531,0.11523 -4.09e-4,0.003 -0.114987,0.92042 -0.07422,1.53125 l 0.132813,1.96875 c 0.209157,3.13364 1.322877,3.74969 2.458984,4.89648 1.061134,1.07111 3.354535,1.22266 4.90625,1.22266 h 3.96875 v 1.04687 c 0,0.2216 0.176838,0.39844 0.398438,0.39844 h 1.65039 c 0.221599,0 0.400391,-0.17684 0.400391,-0.39844 v -1.04687 h 1.449219 v 1.04687 c 0,0.2216 0.17879,0.39844 0.40039,0.39844 h 1.650391 c 0.2216,0 0.400391,-0.17684 0.40039,-0.39844 v -1.04687 h 1.449219 v 1.04687 c 0,0.2216 0.178791,0.39844 0.400391,0.39844 h 1.65039 c 0.2216,0 0.400391,-0.17684 0.400391,-0.39844 v -1.04687 h 3.480469 c 2.234888,0 4.306043,0.0494 5.847656,-1.14453 0.657325,-0.50906 1.281851,-1.18198 1.660156,-2.01953 0.508922,-1.12673 0.657085,-2.42279 0.644532,-2.79883 0.0024,-0.91675 0.01271,-1.89864 -0.09766,-2.81641 0.866398,0.15279 1.844087,0.2024 4.570313,0.9961 2.963668,0.86283 3.680631,1.37528 4.255859,2.02343 0.924546,1.04177 1.523649,1.892 1.865235,1.73438 0.339955,-0.1569 0.187452,-2.89582 0.263672,-6.88477 -0.07622,-3.98894 0.07628,-6.727861 -0.263672,-6.884761 -0.0427,-0.0197 -0.08975,-0.02387 -0.140625,-0.01367 z m -41.359375,8.242181 c 2.551889,0.0563 5.884433,0.13214 9.023437,0.20313 V 114.42 h -3.943359 c -1.657028,0 -2.466866,-0.60405 -3.464844,-1.37695 -0.997978,-0.77291 -1.28768,-1.76745 -1.617188,-2.9375 -0.06758,-1.41026 -0.01368,-2.83562 0.002,-3.20899 z m 11.472656,0.25782 c 0.510853,0.0117 0.938195,0.0214 1.449219,0.0332 V 114.42 h -1.449219 z m 3.90039,0.0898 c 0.564304,0.0132 0.894567,0.0221 1.449219,0.0352 V 114.42 h -1.449219 z m 3.900391,0.0977 c 3.23033,0.0783 6.743815,0.16179 8.84375,0.22265 0.177102,0.43385 0.263785,0.8977 0.271485,1.33594 l 0.02539,1.49414 c 0.01801,1.0252 -0.490303,2.47904 -1.488281,3.25195 -0.997978,0.7729 -2.489457,0.77344 -4.146485,0.77344 h -3.505859 z" /><path
       id="path31243"
       style="stroke:none;stroke-width:0.018981"
       d="m 169.32196,14.568911 -7.26953,3.01758 1.29101,5.63672 c -0.32901,0.30369 -0.64553,0.62022 -0.94921,0.94922 l -5.63672,-1.29102 -3.01758,7.27149 4.91601,3.05469 c 0,0.11389 -0.004,0.2279 -0.01,0.34179 -0.006,0.11389 -0.01,0.22791 -0.01,0.3418 0,0.11389 0.004,0.22791 0.01,0.3418 0.006,0.11389 0.01,0.2279 0.01,0.34179 l -4.91601,3.05469 3.01758,7.271491 5.63672,-1.29102 c 0.30368,0.329 0.6202,0.64553 0.94921,0.94922 l -1.29101,5.63672 7.26953,3.01758 3.05664,-4.91602 c 0.11389,0 0.22791,0.004 0.3418,0.01 0.11389,0.006 0.22791,0.008 0.34179,0.008 0.11389,0 0.22791,-0.002 0.3418,-0.008 0.11389,-0.006 0.22791,-0.01 0.3418,-0.01 l 3.05468,4.91602 7.26954,-3.01758 -1.28907,-5.63672 c 0.32901,-0.30369 0.64358,-0.62022 0.94727,-0.94922 l 5.63867,1.29102 3.01758,-7.271491 -4.91602,-3.05469 c 0,-0.11389 0.004,-0.2279 0.01,-0.34179 0.006,-0.11389 0.008,-0.22791 0.008,-0.3418 0,-0.11389 -0.002,-0.22791 -0.008,-0.3418 -0.006,-0.11389 -0.01,-0.2279 -0.01,-0.34179 l 4.91602,-3.05469 -3.01758,-7.27149 -5.63867,1.29102 c -0.30369,-0.329 -0.61826,-0.64553 -0.94727,-0.94922 l 1.28907,-5.63672 -7.26954,-3.01758 -3.05468,4.91602 c -0.11389,0 -0.22791,-0.0038 -0.3418,-0.0098 -0.11389,-0.006 -0.22791,-0.0078 -0.3418,-0.0078 -0.11388,0 -0.2279,0.0018 -0.34179,0.0078 -0.11389,0.006 -0.22791,0.0098 -0.3418,0.0098 z m 3.74023,11.07227 a 8.25,8.25 0 0 1 8.25,8.25 8.25,8.25 0 0 1 -8.25,8.25 8.25,8.25 0 0 1 -8.25,-8.25 8.25,8.25 0 0 1 8.25,-8.25 z"
       inkscape:label="processing" /><path
       style="color:#000000;fill:#000000;stroke-linecap:round;stroke-linejoin:round;-inkscape-stroke:none;paint-order:fill markers stroke"
       d="m 29.407914,123.80491 c -1.196258,-0.22247 -2.238531,0.50969 -2.957031,1.39843 -0.71627,0.88628 -1.309475,2.03773 -1.908203,3.31836 -0.59781,1.27865 -1.181524,2.66746 -1.748047,3.87891 -0.56579,1.2098 -1.136664,2.24774 -1.583985,2.80078 -0.267569,0.31566 -0.347731,0.43453 -0.533203,0.50391 -0.211992,0 -0.421336,-0.2359 -0.923828,-1.00586 -0.504864,-0.77346 -1.077928,-1.95707 -1.652344,-3.23828 -0.575256,-1.28312 -1.159837,-2.66252 -1.769531,-3.875 -0.610627,-1.2141 -1.203758,-2.24468 -2.027344,-2.99219 -0.412086,-0.37402 -0.905202,-0.67608 -1.488281,-0.78516 -0.583078,-0.10907 -1.214169,0.0155 -1.716797,0.29492 -1.001164,0.55642 -1.6048426,1.48379 -2.2343746,2.60743 -0.628065,1.12115 -1.216229,2.45607 -1.798828,3.77343 -0.281275,0.63643 0.0063,1.38039 0.642578,1.66211 0.636429,0.28127 1.380395,-0.006 1.66211,-0.64258 0.581767,-1.31547 1.1572496,-2.60354 1.6933586,-3.56054 0.397838,-0.62869 0.884996,-1.62038 1.281253,-1.64255 0.365633,-0.0204 0.458804,0.16021 0.703125,0.54102 0.200937,0.31319 0.475554,0.77596 1.029297,1.87696 0.554479,1.10267 1.13354,2.45941 1.722656,3.77344 0.589952,1.31586 1.18229,2.5736 1.841797,3.58398 0.661155,1.01308 1.374937,1.88329 2.570313,2.10742 1.199492,0.22445 2.241037,-0.50901 2.958984,-1.39648 0.717051,-0.88652 1.309622,-2.0404 1.908203,-3.32032 0.597854,-1.27844 1.179535,-2.66514 1.746094,-3.87695 0.565651,-1.20988 1.161368,-2.18018 1.576171,-2.81445 0.145805,-0.20824 0.299984,-0.47444 0.544923,-0.49219 0.238557,0.002 0.502443,0.35027 0.919921,1.00781 h 0.002 c 0.504435,0.77225 1.075894,1.95507 1.65039,3.23633 0.575253,1.28294 1.161785,2.66224 1.771485,3.875 0.610774,1.21476 1.201517,2.24694 2.023437,2.99414 0.4126,0.37508 0.907025,0.67653 1.490234,0.78516 0.582566,0.10851 1.213321,-0.0193 1.714844,-0.29688 1.004462,-0.55652 1.607103,-1.483 2.236328,-2.60547 0.628399,-1.1211 1.216298,-2.45813 1.798828,-3.77539 0.581774,-1.31548 1.157252,-2.60354 1.69336,-3.56054 0.534843,-0.95463 0.894585,-1.37891 1.049843,-1.52981 0.225427,-0.0972 0.472121,-0.0608 0.546753,0.0344 0.298163,0.36004 0.863331,1.16982 1.417079,2.27082 0.554476,1.10267 1.133535,2.45941 1.722656,3.77344 0.589953,1.31584 1.182282,2.5736 1.841797,3.58398 0.661154,1.01308 1.374935,1.88329 2.570312,2.10742 1.199492,0.22445 2.241038,-0.50901 2.958985,-1.39648 0.717046,-0.88652 1.30962,-2.0404 1.908203,-3.32032 0.597848,-1.27844 1.179532,-2.66514 1.746094,-3.87695 0.565651,-1.20989 1.133035,-2.22079 1.548828,-2.83398 0.165168,-0.19614 0.309767,-0.47129 0.595702,-0.48438 0.283943,0.0108 0.393064,0.24872 0.896485,1.01953 h 0.002 c 0.422266,0.64646 1.231435,2.52472 1.828125,3.85547 0.284704,0.63542 1.030674,0.91964 1.666016,0.63477 0.634663,-0.28545 0.917929,-1.03121 0.632812,-1.66602 -0.567684,-1.26606 -1.275468,-3.067 -2.017578,-4.20312 -0.660757,-1.01172 -1.371063,-1.88442 -2.570312,-2.10742 -1.196258,-0.22247 -2.238532,0.50969 -2.957031,1.39843 -0.716289,0.88629 -1.309478,2.03773 -1.908204,3.31836 -0.597812,1.27865 -1.181526,2.66746 -1.748046,3.87891 -0.565792,1.2098 -1.417387,2.53917 -1.583985,2.80078 -0.166598,0.26161 -0.294589,0.50245 -0.533203,0.50391 -0.238614,10e-4 -0.420151,-0.23415 -0.923828,-1.00586 -0.503677,-0.77171 -1.07792,-1.95707 -1.652344,-3.23828 -0.575257,-1.28311 -1.159837,-2.66252 -1.769531,-3.875 -0.610629,-1.2141 -1.203754,-2.24468 -2.027344,-2.99219 -0.412086,-0.37402 -0.905202,-0.67608 -1.488281,-0.78516 -0.583079,-0.10907 -1.214168,0.0156 -1.716797,0.29492 -1.001166,0.55642 -1.604841,1.48379 -2.234375,2.60743 -0.628065,1.12115 -1.216227,2.45608 -1.798828,3.77343 -0.581802,1.31561 -1.157419,2.60635 -1.693359,3.5625 -0.53511,0.95458 -0.993347,1.51319 -1.160157,1.63673 -0.132234,0.1002 -0.293449,-0.0352 -0.412109,-0.15434 -0.342411,-0.31128 -0.887845,-1.1588 -1.441406,-2.25976 -0.554633,-1.10323 -1.133535,-2.45957 -1.722657,-3.77344 -0.589872,-1.31555 -1.181852,-2.57367 -1.841796,-3.58398 -0.660755,-1.01174 -1.371062,-1.88442 -2.570313,-2.10742 z"
       id="path33370"
       sodipodi:nodetypes="scsccccscssccccccsscscccssccccscssccsccccsccccsccccccccscsczzzscssccsccccscss"
       inkscape:label="drone" /><g
       id="g38215"
       transform="rotate(44.466158,130.55147,116.98373)"
       inkscape:label="utility"><path
         fill="currentColor"
         d="m 93.713675,149.5347 q 0.32094,-0.28716 0.54053,-0.53208 0.21958,-0.24493 0.45606,-0.48141 0.25337,-0.28715 0.55742,-0.59964 0.30404,-0.31249 0.74322,-0.75167 0.16891,-0.16891 0.40539,-0.16891 0.18581,0.0507 0.35472,0.0676 0.16892,0.0169 0.30405,0.0169 0.70944,0 1.22462,-0.28716 0.51519,-0.28715 0.85302,-0.67565 0.45607,-0.52364 0.72633,-1.11483 0.270255,-0.5912 0.270255,-1.1824 0,-0.1858 -0.0169,-0.34627 -0.0169,-0.16047 -0.0845,-0.31249 -0.0169,-0.0676 -0.0169,-0.16892 0,-0.16891 0.10135,-0.28715 0.18581,-0.23648 0.3885,-0.45607 l 0.4054,-0.43917 q 1.99318,-2.02697 4.54378,-3.09113 2.5506,-1.06416 5.37146,-1.06416 1.87494,0 3.64854,0.48141 1.77359,0.4814 3.36138,1.39354 0.13514,0.11824 0.21959,0.35472 0,0.21958 -0.11824,0.37161 l -0.777,0.777 q -0.11824,0.11824 -0.28716,0.11824 h -0.11823 q -0.42229,-0.0845 -0.84458,-0.13513 -0.42228,-0.0507 -0.89524,-0.0507 -1.08104,0 -2.15365,0.22804 -1.0726,0.22803 -1.97629,0.61654 -0.90369,0.3885 -1.58779,0.91213 -0.6841,0.52363 -1.00504,1.13172 -0.23648,0.45607 -0.23648,0.99659 0,0.57431 0.28716,1.09795 l 7.70247,7.82071 q 0.5912,-0.33783 1.13172,-0.33783 0.27026,0 0.4983,0.076 0.22803,0.076 0.41384,0.26182 l 8.96932,9.08756 q 0.18581,0.18581 0.27026,0.43073 0.0845,0.24493 0.0845,0.53208 0,0.43917 -0.18581,0.89524 -0.1858,0.45607 -0.5743,0.84457 l -2.04386,2.06074 q -0.37161,0.3885 -0.81079,0.5912 -0.43918,0.20269 -0.86146,0.20269 -0.57431,0 -0.94592,-0.37161 l -8.98621,-9.10445 q -0.35472,-0.35472 -0.35472,-0.96281 0,-0.55742 0.32093,-1.13172 l -7.4491,-7.51667 q -0.42228,-0.23648 -0.82768,-0.38006 -0.40538,-0.14357 -0.82767,-0.14357 -0.43917,0 -0.80234,0.12668 -0.36316,0.12669 -0.65031,0.32094 -0.28716,0.19425 -0.50674,0.43917 -0.21959,0.24493 -0.35473,0.48141 -0.32093,0.5912 -0.32093,1.09794 0,0.30404 0.13513,0.57431 0.0676,0.11823 0.0676,0.25337 0,0.16891 -0.10135,0.32093 -0.45607,0.45607 -0.90369,0.89525 -0.447625,0.43917 -0.819235,0.79389 -0.43918,0.42229 -0.82768,0.7939 -0.0507,0.0845 -0.14358,0.10979 -0.0929,0.0253 -0.19425,0.0253 -0.13513,0 -0.27026,-0.10134 -0.32094,-0.25338 -0.97126,-0.76012 -0.65031,-0.50674 -1.35975,-1.17395 -0.70944,-0.66721 -1.33442,-1.43577 -0.62498,-0.76855 -0.92903,-1.51178 -0.0169,-0.0507 -0.0169,-0.16891 0,-0.1858 0.13513,-0.35472 z"
         id="path35641"
         style="stroke-width:0.0168914"
         inkscape:label="hammer" /><path
         fill="currentColor"
         d="m 119.85804,132.57568 10.03393,9.1136 c 0.39413,-0.22522 0.77137,-0.33783 1.13172,-0.33783 0.18017,0 0.34627,0.0253 0.4983,0.076 0.15202,0.0507 0.28997,0.13794 0.41384,0.26182 l 8.96932,9.08756 c 0.12387,0.12387 0.21396,0.26745 0.27026,0.43073 0.0563,0.16329 0.0845,0.34065 0.0845,0.53208 0,0.29278 -0.0619,0.59119 -0.18581,0.89524 -0.12387,0.30405 -0.3153,0.58557 -0.5743,0.84457 l -2.04386,2.06074 c -0.24774,0.259 -0.518,0.45607 -0.81079,0.5912 -0.29279,0.13513 -0.57994,0.20269 -0.86146,0.20269 -0.38287,0 -0.69818,-0.12387 -0.94592,-0.37161 l -8.98621,-9.10445 c -0.23648,-0.23648 -0.35472,-0.55742 -0.35472,-0.96281 0,-0.37161 0.10698,-0.74885 0.32093,-1.13172 l -9.11764,-10.11329 -1.5568,0.0846 -4.41895,-6.23185 1.89729,-1.95439 6.03018,3.93505 z"
         id="path35641-3"
         style="stroke-width:0.0168914"
         sodipodi:nodetypes="ccssccsssccssccsccccccc"
         inkscape:label="screwdriver" /></g><path
       id="circle38302"
       d="m 170.43564,66.708926 a 21.015221,21.015221 0 0 0 -21.01562,21.01563 21.015221,21.015221 0 0 0 21.01562,21.015624 21.015221,21.015221 0 0 0 21.01563,-21.015624 21.015221,21.015221 0 0 0 -21.01563,-21.01563 z m 0,2.25977 a 18.75585,18.75585 0 0 1 18.75586,18.75586 18.75585,18.75585 0 0 1 -14.17578,18.148434 v -3.76367 h -9.16015 v 3.76367 a 18.75585,18.75585 0 0 1 -14.17579,-18.148434 18.75585,18.75585 0 0 1 18.75586,-18.75586 z m -0.14257,2.30664 c -0.40668,0 -0.73633,0.32966 -0.73633,0.73633 v 2.02734 a 2.2025101,2.2025101 0 0 0 -1.32422,2.01562 2.2025101,2.2025101 0 0 0 1.32422,2.01758 v 2.02735 c 0,0.40668 0.32965,0.73633 0.73633,0.73633 h 0.28515 c 0.40668,0 0.73633,-0.32965 0.73633,-0.73633 v -2.02735 a 2.2025101,2.2025101 0 0 0 1.32422,-2.01758 2.2025101,2.2025101 0 0 0 -1.32422,-2.01757 v -2.02539 c 0,-0.40667 -0.32965,-0.73633 -0.73633,-0.73633 z m -9.6543,3.54492 c -0.11869,0.0031 -0.2376,0.03416 -0.34766,0.09766 l -0.24609,0.14257 c -0.35223,0.20333 -0.47285,0.65367 -0.26953,1.00586 l 1.01562,1.75782 a 2.2025101,2.2025101 0 0 0 -0.43554,1.30468 2.2025101,2.2025101 0 0 0 2.20312,2.20313 2.2025101,2.2025101 0 0 0 0.24609,-0.01758 l 1.01368,1.75586 c 0.20334,0.35223 0.65367,0.47287 1.00586,0.26953 l 0.24609,-0.14258 c 0.35223,-0.20334 0.47287,-0.65367 0.26953,-1.00586 l -1.01367,-1.75781 a 2.2025101,2.2025101 0 0 0 0.43359,-1.30469 2.2025101,2.2025101 0 0 0 -2.20117,-2.20117 2.2025101,2.2025101 0 0 0 -0.24805,0.01758 l -1.01367,-1.75781 c -0.1398,-0.24213 -0.39706,-0.37419 -0.6582,-0.36719 z m 19.59375,0 c -0.26113,-0.0068 -0.5184,0.12505 -0.6582,0.36719 l -1.01172,1.7539 a 2.2025101,2.2025101 0 0 0 -0.24805,-0.01367 2.2025101,2.2025101 0 0 0 -2.20312,2.20117 2.2025101,2.2025101 0 0 0 0.43359,1.30469 l -1.01367,1.75781 c -0.20334,0.35219 -0.0827,0.80252 0.26953,1.00586 l 0.24609,0.14258 c 0.35219,0.20334 0.80252,0.08267 1.00586,-0.26953 l 1.01367,-1.75586 a 2.2025101,2.2025101 0 0 0 0.24805,0.01758 2.2025101,2.2025101 0 0 0 2.20117,-2.20313 2.2025101,2.2025101 0 0 0 -0.43164,-1.30859 l 1.01172,-1.75391 c 0.20333,-0.35219 0.0827,-0.80252 -0.26953,-1.00586 l -0.24609,-0.14257 c -0.11006,-0.0636 -0.22896,-0.09466 -0.34766,-0.09766 z m -24.9707,9.94141 c -0.26116,0.0056 -0.51049,0.14996 -0.63868,0.39843 l -0.13086,0.25391 c -0.18645,0.36141 -0.045,0.80572 0.31641,0.99219 l 1.80469,0.93164 a 2.2025101,2.2025101 0 0 0 -0.01,0.14062 2.2025101,2.2025101 0 0 0 2.20313,2.20313 2.2025101,2.2025101 0 0 0 1.38867,-0.49805 l 1.80078,0.92969 c 0.36141,0.18646 0.80574,0.04499 0.99219,-0.31641 l 0.13086,-0.25195 c 0.18646,-0.36142 0.045,-0.80573 -0.31641,-0.99219 l -1.80469,-0.93164 a 2.2025101,2.2025101 0 0 0 0.01,-0.14258 2.2025101,2.2025101 0 0 0 -2.20117,-2.20117 2.2025101,2.2025101 0 0 0 -1.38867,0.4961 l -1.80274,-0.92969 c -0.11294,-0.0582 -0.2348,-0.08403 -0.35351,-0.08203 z m 30.34765,0 c -0.11871,-0.0026 -0.24056,0.02373 -0.35351,0.08203 l -1.79883,0.92773 a 2.2025101,2.2025101 0 0 0 -1.39063,-0.49414 2.2025101,2.2025101 0 0 0 -2.20312,2.20117 2.2025101,2.2025101 0 0 0 0.01,0.14258 l -1.80468,0.93164 c -0.36141,0.18646 -0.50287,0.63077 -0.31641,0.99219 l 0.13086,0.25195 c 0.18646,0.3614 0.63078,0.50287 0.99219,0.31641 l 1.80078,-0.92969 a 2.2025101,2.2025101 0 0 0 1.39062,0.49805 2.2025101,2.2025101 0 0 0 2.20118,-2.20313 2.2025101,2.2025101 0 0 0 -0.004,-0.14453 l 1.79883,-0.92773 c 0.36141,-0.18646 0.50286,-0.63078 0.3164,-0.99219 l -0.13086,-0.25391 c -0.12819,-0.24847 -0.37751,-0.39243 -0.63867,-0.39843 z" /><g
       id="g43360"><path
         style="fill:#000000;fill-opacity:1;stroke:none;stroke-width:3;stroke-linecap:butt;stroke-linejoin:miter;stroke-dasharray:none;stroke-opacity:1"
         d="m 106.02981,3.3768667 c 0,0 -1.98136,-1.1552782 -6.029813,0.567257 -2.11321,0.8991321 -4.36984,3.5323791 -5.1202,4.6615191 -1.4208,2.1380312 -2.01355,3.7200302 -2.13296,5.0470192 0.15223,2.757876 0.44409,3.94617 -1.07525,6.200145 -2.327,1.583347 -7.623015,2.721015 -9.213975,5.226847 -0.356035,0.414312 -0.849733,1.184151 -0.847259,1.730419 0.0042,0.930157 0.836641,1.187988 1.648335,1.788833 0.831638,0.615609 1.625285,0.859959 1.719084,1.687141 0.09878,0.871421 -0.746477,1.063543 -1.451271,1.585456 -0.451415,0.334281 -1.154728,1.005443 -1.120455,1.626916 0.04061,0.736376 0.775467,1.16415 1.504467,1.663176 1.091944,0.747473 2.585724,0.949843 3.580044,1.715467 0.92588,0.71292 2.06235,1.86505 1.8054,3.004996 -0.46708,2.072224 -3.46642,2.467719 -5.308037,3.526363 -0.458758,0.263715 -1.170791,0.236193 -1.424527,0.700542 -0.303439,0.55531 -0.293515,1.341954 0.08506,1.849033 0.90782,1.215984 1.462531,1.554828 1.328832,2.655247 -0.14051,1.156474 -0.638553,2.841003 -0.543723,4.02276 0.109703,1.367106 0.533494,2.622944 1.689218,3.361399 1.184107,0.756593 2.842117,0.440945 4.213427,0.13422 1.22047,-0.272987 2.99504,-0.70341 5.45931,-0.466762 1.91075,0.183494 2.7272,0.874405 3.3764,1.91051 0.0728,0.02313 7.809973,-0.1875 7.809973,-0.1875"
         id="path18285"
         sodipodi:nodetypes="csscccsssssssssssssssscc"
         inkscape:label="vocal" /><path
         id="path42058"
         style="opacity:1;fill:none;fill-opacity:1;stroke:#000000;stroke-width:1;stroke-linecap:round;stroke-linejoin:round;stroke-dasharray:none;stroke-opacity:1;paint-order:fill markers stroke"
         d="m 79.869141,36.029297 c -0.303348,-0.09541 -0.618559,-0.144108 -0.935547,-0.144531 -1.788681,-1.9e-5 -3.238611,1.50413 -3.238282,3.359375 -3.29e-4,1.855245 1.449601,3.359394 3.238282,3.359375 0.151649,-7e-4 0.303063,-0.01245 0.453125,-0.03516"
         sodipodi:nodetypes="ccccc" /><path
         id="path42058-9"
         style="fill:none;fill-opacity:1;stroke:#000000;stroke-width:1;stroke-linecap:round;stroke-linejoin:round;stroke-dasharray:none;stroke-opacity:1;paint-order:fill markers stroke"
         d="m 80.603516,33.505859 c -0.542486,-0.158614 -1.104724,-0.239497 -1.669922,-0.240234 -3.301895,-1.26e-4 -5.978642,2.676621 -5.978516,5.978516 -1.25e-4,3.301895 2.676621,5.978641 5.978516,5.978515 0.26985,-6.53e-4 0.539346,-0.01958 0.80664,-0.05664"
         sodipodi:nodetypes="ccccc" /><path
         id="circle42082"
         style="fill:none;fill-opacity:1;stroke:#000000;stroke-width:1;stroke-linecap:round;stroke-linejoin:round;stroke-dasharray:none;stroke-opacity:1;paint-order:fill markers stroke"
         d="m 81.318359,31.044922 c -0.774782,-0.226027 -1.577688,-0.341103 -2.384765,-0.341797 -4.717713,-7.83e-4 -8.542674,3.823303 -8.542969,8.541016 2.96e-4,4.717713 3.825256,8.541798 8.542969,8.541015 0.386178,-0.0012 0.771828,-0.02862 1.154297,-0.08203"
         sodipodi:nodetypes="ccccc" /></g><path
       id="rect42197"
       style="opacity:1;fill:#d9d9d9;fill-opacity:1;stroke:none;stroke-width:1;stroke-linecap:round;stroke-linejoin:round;stroke-dasharray:none;stroke-opacity:1;paint-order:fill markers stroke"
       d="M 16.652344 161.73828 C 16.414867 161.73428 16.169096 161.74227 15.916016 161.76367 C 13.710316 161.94869 12.294417 163.42773 11.160156 164.73438 C 10.025892 166.04102 9.0455748 167.24816 7.7050781 167.83789 L 8.7519531 170.2168 C 10.821081 169.30653 12.055451 167.67155 13.125 166.43945 C 14.19455 165.20735 14.971643 164.45093 16.132812 164.35352 C 17.64879 164.22635 17.966949 164.45021 18.599609 165.09961 C 19.232268 165.74894 20.00499 167.03735 21.439453 168.54688 C 22.987244 170.17566 25.289045 170.29159 27.130859 170.23633 C 27.724467 170.21853 28.278261 170.16752 28.767578 170.10938 L 28.658203 172.54688 C 28.651303 173.00355 28.917871 173.37109 29.240234 173.37109 L 45.521484 173.37109 C 45.843843 173.37109 46.058209 173.00135 46.103516 172.54688 L 46.228516 171.29297 L 64.40625 171.13281 L 64.40625 166.66406 L 46.228516 166.82422 L 46.353516 165.07031 C 46.385986 164.61476 45.771484 164.24609 45.771484 164.24609 L 29.490234 164.24609 C 29.167871 164.24609 28.921867 164.61378 28.908203 165.07031 L 28.830078 167.48242 C 28.334325 167.55222 27.718227 167.6187 27.052734 167.63867 C 25.502148 167.68517 23.885774 167.3468 23.324219 166.75586 C 22.094675 165.46197 21.45754 164.30606 20.462891 163.28516 C 19.592572 162.39188 18.314683 161.76678 16.652344 161.73828 z M 68.25 166.63672 L 66.603516 166.64844 L 66.603516 171.11719 L 68.25 171.10547 C 68.814437 170.82181 68.848849 170.65059 69.041016 170.0332 C 69.389661 170.0111 69.62078 170.0272 70 170 L 70 170.2793 C 70 170.73603 70.388138 171.10352 70.871094 171.10352 L 71.355469 171.10352 C 71.547034 171.10352 71.723636 171.04558 71.867188 170.94727 C 72.218025 170.78882 72.978359 169.50794 73.335938 168.87109 C 72.968052 168.21589 72.169714 166.82484 71.833984 166.73047 C 71.781087 166.71558 71.730235 166.7142 71.677734 166.70508 C 71.578009 166.66769 71.469598 166.64648 71.355469 166.64648 L 70.871094 166.64648 C 70.388138 166.64648 70 167.01397 70 167.4707 L 70 167.49414 C 69.97091 167.56316 69.942099 167.63271 69.910156 167.69727 L 69.052734 167.68555 C 68.989954 166.86126 68.600903 166.75485 68.25 166.63672 z " /><ellipse
       style="opacity:1;fill:#000000;fill-opacity:1;stroke:none;stroke-width:2.6;stroke-linecap:round;stroke-linejoin:round;stroke-dasharray:none;stroke-opacity:1;paint-order:fill markers stroke"
       id="path42661"
       cx="131.1683"
       cy="139.43637"
       rx="3.169503"
       ry="3.2989321" /><ellipse
       style="fill:#000000;fill-opacity:1;stroke:none;stroke-width:2.6;stroke-linecap:round;stroke-linejoin:round;stroke-dasharray:none;stroke-opacity:1;paint-order:fill markers stroke"
       id="path42661-2"
       cx="141.21071"
       cy="139.43637"
       rx="3.169503"
       ry="3.2989321" /><ellipse
       style="fill:#000000;fill-opacity:1;stroke:none;stroke-width:2.6;stroke-linecap:round;stroke-linejoin:round;stroke-dasharray:none;stroke-opacity:1;paint-order:fill markers stroke"
       id="path42661-3"
       cx="151.25313"
       cy="139.43637"
       rx="3.169503"
       ry="3.2989321" /><ellipse
       style="fill:#000000;fill-opacity:1;stroke:none;stroke-width:2.6;stroke-linecap:round;stroke-linejoin:round;stroke-dasharray:none;stroke-opacity:1;paint-order:fill markers stroke"
       id="path42661-5"
       cx="161.29553"
       cy="139.43637"
       rx="3.169503"
       ry="3.2989321" /><ellipse
       style="fill:#000000;fill-opacity:1;stroke:none;stroke-width:2.6;stroke-linecap:round;stroke-linejoin:round;stroke-dasharray:none;stroke-opacity:1;paint-order:fill markers stroke"
       id="path42661-3-3"
       cx="171.33795"
       cy="139.43637"
       rx="3.169503"
       ry="3.2989321" /><ellipse
       style="fill:#000000;fill-opacity:1;stroke:none;stroke-width:2.6;stroke-linecap:round;stroke-linejoin:round;stroke-dasharray:none;stroke-opacity:1;paint-order:fill markers stroke"
       id="path42661-5-7"
       cx="181.38036"
       cy="139.43637"
       rx="3.169503"
       ry="3.2989321" /><rect
       style="opacity:1;fill:#000000;fill-opacity:1;stroke:none;stroke-width:2.6;stroke-linecap:round;stroke-linejoin:round;stroke-dasharray:none;stroke-opacity:1;paint-order:fill markers stroke"
       id="rect42864"
       width="4.3373361"
       height="4.1531768"
       x="128.99963"
       y="145.8855" /><rect
       style="fill:#000000;fill-opacity:1;stroke:none;stroke-width:2.6;stroke-linecap:round;stroke-linejoin:round;stroke-dasharray:none;stroke-opacity:1;paint-order:fill markers stroke"
       id="rect42864-4"
       width="4.3373361"
       height="4.1531768"
       x="139.04204"
       y="145.8855" /><rect
       style="fill:#000000;fill-opacity:1;stroke:none;stroke-width:2.6;stroke-linecap:round;stroke-linejoin:round;stroke-dasharray:none;stroke-opacity:1;paint-order:fill markers stroke"
       id="rect42864-3"
       width="4.3373361"
       height="4.1531768"
       x="149.08446"
       y="145.8855" /><rect
       style="fill:#000000;fill-opacity:1;stroke:none;stroke-width:2.6;stroke-linecap:round;stroke-linejoin:round;stroke-dasharray:none;stroke-opacity:1;paint-order:fill markers stroke"
       id="rect42864-0"
       width="4.3373361"
       height="4.1531768"
       x="159.12686"
       y="145.8855" /><rect
       style="fill:#000000;fill-opacity:1;stroke:none;stroke-width:2.6;stroke-linecap:round;stroke-linejoin:round;stroke-dasharray:none;stroke-opacity:1;paint-order:fill markers stroke"
       id="rect42864-32"
       width="4.3373361"
       height="4.1531768"
       x="169.16928"
       y="145.8855" /><rect
       style="fill:#000000;fill-opacity:1;stroke:none;stroke-width:2.6;stroke-linecap:round;stroke-linejoin:round;stroke-dasharray:none;stroke-opacity:1;paint-order:fill markers stroke"
       id="rect42864-9"
       width="4.3373361"
       height="4.1531768"
       x="179.21169"
       y="145.8855" /></g></svg>
