<?xml version="1.0" encoding="UTF-8" standalone="no"?>
<!-- Created with Inkscape (http://www.inkscape.org/) -->

<svg
   width="12"
   height="12"
   viewBox="0 0 12 12"
   version="1.1"
   id="svg43020"
   inkscape:version="1.2.2 (732a01da63, 2022-12-09)"
   sodipodi:docname="tools.svg"
   xmlns:inkscape="http://www.inkscape.org/namespaces/inkscape"
   xmlns:sodipodi="http://sodipodi.sourceforge.net/DTD/sodipodi-0.dtd"
   xmlns="http://www.w3.org/2000/svg"
   xmlns:svg="http://www.w3.org/2000/svg">
  <sodipodi:namedview
     id="namedview43022"
     pagecolor="#141414"
     bordercolor="#666666"
     borderopacity="1.0"
     inkscape:showpageshadow="2"
     inkscape:pageopacity="0"
     inkscape:pagecheckerboard="0"
     inkscape:deskcolor="#d1d1d1"
     inkscape:document-units="px"
     showgrid="false"
     inkscape:zoom="18.270833"
     inkscape:cx="9.3044471"
     inkscape:cy="7.3888257"
     inkscape:window-width="3840"
     inkscape:window-height="2126"
     inkscape:window-x="-11"
     inkscape:window-y="-11"
     inkscape:window-maximized="1"
     inkscape:current-layer="layer1" />
  <defs
     id="defs43017" />
  <g
     inkscape:label="Layer 1"
     inkscape:groupmode="layer"
     id="layer1">
    <g
       id="g38215"
       transform="matrix(0.14562503,0.14293634,-0.14293634,0.14562503,11.457755,-31.78903)"
       inkscape:label="utility"
       style="fill:#d9d9d9;fill-opacity:1">
      <path
         fill="currentColor"
         d="m 93.713675,149.5347 q 0.32094,-0.28716 0.54053,-0.53208 0.21958,-0.24493 0.45606,-0.48141 0.25337,-0.28715 0.55742,-0.59964 0.30404,-0.31249 0.74322,-0.75167 0.16891,-0.16891 0.40539,-0.16891 0.18581,0.0507 0.35472,0.0676 0.16892,0.0169 0.30405,0.0169 0.70944,0 1.22462,-0.28716 0.51519,-0.28715 0.85302,-0.67565 0.45607,-0.52364 0.72633,-1.11483 0.270255,-0.5912 0.270255,-1.1824 0,-0.1858 -0.0169,-0.34627 -0.0169,-0.16047 -0.0845,-0.31249 -0.0169,-0.0676 -0.0169,-0.16892 0,-0.16891 0.10135,-0.28715 0.18581,-0.23648 0.3885,-0.45607 l 0.4054,-0.43917 q 1.99318,-2.02697 4.54378,-3.09113 2.5506,-1.06416 5.37146,-1.06416 1.87494,0 3.64854,0.48141 1.77359,0.4814 3.36138,1.39354 0.13514,0.11824 0.21959,0.35472 0,0.21958 -0.11824,0.37161 l -0.777,0.777 q -0.11824,0.11824 -0.28716,0.11824 h -0.11823 q -0.42229,-0.0845 -0.84458,-0.13513 -0.42228,-0.0507 -0.89524,-0.0507 -1.08104,0 -2.15365,0.22804 -1.0726,0.22803 -1.97629,0.61654 -0.90369,0.3885 -1.58779,0.91213 -0.6841,0.52363 -1.00504,1.13172 -0.23648,0.45607 -0.23648,0.99659 0,0.57431 0.28716,1.09795 l 7.70247,7.82071 q 0.5912,-0.33783 1.13172,-0.33783 0.27026,0 0.4983,0.076 0.22803,0.076 0.41384,0.26182 l 8.96932,9.08756 q 0.18581,0.18581 0.27026,0.43073 0.0845,0.24493 0.0845,0.53208 0,0.43917 -0.18581,0.89524 -0.1858,0.45607 -0.5743,0.84457 l -2.04386,2.06074 q -0.37161,0.3885 -0.81079,0.5912 -0.43918,0.20269 -0.86146,0.20269 -0.57431,0 -0.94592,-0.37161 l -8.98621,-9.10445 q -0.35472,-0.35472 -0.35472,-0.96281 0,-0.55742 0.32093,-1.13172 l -7.4491,-7.51667 q -0.42228,-0.23648 -0.82768,-0.38006 -0.40538,-0.14357 -0.82767,-0.14357 -0.43917,0 -0.80234,0.12668 -0.36316,0.12669 -0.65031,0.32094 -0.28716,0.19425 -0.50674,0.43917 -0.21959,0.24493 -0.35473,0.48141 -0.32093,0.5912 -0.32093,1.09794 0,0.30404 0.13513,0.57431 0.0676,0.11823 0.0676,0.25337 0,0.16891 -0.10135,0.32093 -0.45607,0.45607 -0.90369,0.89525 -0.447625,0.43917 -0.819235,0.79389 -0.43918,0.42229 -0.82768,0.7939 -0.0507,0.0845 -0.14358,0.10979 -0.0929,0.0253 -0.19425,0.0253 -0.13513,0 -0.27026,-0.10134 -0.32094,-0.25338 -0.97126,-0.76012 -0.65031,-0.50674 -1.35975,-1.17395 -0.70944,-0.66721 -1.33442,-1.43577 -0.62498,-0.76855 -0.92903,-1.51178 -0.0169,-0.0507 -0.0169,-0.16891 0,-0.1858 0.13513,-0.35472 z"
         id="path35641"
         style="fill:#d9d9d9;fill-opacity:1;stroke-width:0.0168914"
         inkscape:label="hammer" />
      <path
         fill="currentColor"
         d="m 119.85804,132.57568 10.03393,9.1136 c 0.39413,-0.22522 0.77137,-0.33783 1.13172,-0.33783 0.18017,0 0.34627,0.0253 0.4983,0.076 0.15202,0.0507 0.28997,0.13794 0.41384,0.26182 l 8.96932,9.08756 c 0.12387,0.12387 0.21396,0.26745 0.27026,0.43073 0.0563,0.16329 0.0845,0.34065 0.0845,0.53208 0,0.29278 -0.0619,0.59119 -0.18581,0.89524 -0.12387,0.30405 -0.3153,0.58557 -0.5743,0.84457 l -2.04386,2.06074 c -0.24774,0.259 -0.518,0.45607 -0.81079,0.5912 -0.29279,0.13513 -0.57994,0.20269 -0.86146,0.20269 -0.38287,0 -0.69818,-0.12387 -0.94592,-0.37161 l -8.98621,-9.10445 c -0.23648,-0.23648 -0.35472,-0.55742 -0.35472,-0.96281 0,-0.37161 0.10698,-0.74885 0.32093,-1.13172 l -9.11764,-10.11329 -1.5568,0.0846 -4.41895,-6.23185 1.89729,-1.95439 6.03018,3.93505 z"
         id="path35641-3"
         style="fill:#d9d9d9;fill-opacity:1;stroke-width:0.0168914"
         sodipodi:nodetypes="ccssccsssccssccsccccccc"
         inkscape:label="screwdriver" />
    </g>
  </g>
</svg>
