<?xml version="1.0" encoding="UTF-8" standalone="no"?>
<!-- Created with Inkscape (http://www.inkscape.org/) -->

<svg
   width="12"
   height="12"
   viewBox="0 0 12 12"
   version="1.1"
   id="svg43020"
   inkscape:version="1.2.2 (732a01da63, 2022-12-09)"
   sodipodi:docname="viol.svg"
   xml:space="preserve"
   xmlns:inkscape="http://www.inkscape.org/namespaces/inkscape"
   xmlns:sodipodi="http://sodipodi.sourceforge.net/DTD/sodipodi-0.dtd"
   xmlns="http://www.w3.org/2000/svg"
   xmlns:svg="http://www.w3.org/2000/svg"><sodipodi:namedview
     id="namedview43022"
     pagecolor="#141414"
     bordercolor="#666666"
     borderopacity="1.0"
     inkscape:showpageshadow="2"
     inkscape:pageopacity="0"
     inkscape:pagecheckerboard="0"
     inkscape:deskcolor="#d1d1d1"
     inkscape:document-units="px"
     showgrid="false"
     inkscape:zoom="64"
     inkscape:cx="4.03125"
     inkscape:cy="4.71875"
     inkscape:window-width="3840"
     inkscape:window-height="2126"
     inkscape:window-x="-11"
     inkscape:window-y="-11"
     inkscape:window-maximized="1"
     inkscape:current-layer="layer1" /><defs
     id="defs43017" /><g
     inkscape:label="Layer 1"
     inkscape:groupmode="layer"
     id="layer1"><path
       id="path19662"
       style="fill:#d9d9d9;fill-opacity:1;stroke:none;stroke-width:0.0173773px;stroke-linecap:butt;stroke-linejoin:miter;stroke-opacity:1"
       d="m 11.084572,10.917286 c 0.07618,-0.172063 0.146425,-0.460844 0.104576,-0.735712 -0.04784,-0.3141412 -0.204724,-0.7248471 -0.138603,-0.8194922 0.06612,-0.094644 0.192593,-0.1523136 0.202019,-0.1579322 0.0095,-0.00561 0.01041,-0.065679 -0.01628,-0.079459 -0.02673,-0.013783 -0.09734,-0.151344 -0.09734,-0.151344 l 0.03733,-0.039048 -0.05726,-0.070545 c 0,0 -0.172646,0.00559 -0.269621,-0.035695 -0.09698,-0.041303 -0.32189,-0.3173064 -0.32189,-0.3173064 0,0 -0.05755,-0.3537963 0.03383,-0.5966031 0.09139,-0.2428094 0.184308,-0.3968519 0.421645,-0.3896892 0.207671,0.00625 0.272098,0.076137 0.284652,0.09265 l 0.06236,-0.059155 c 0,0 -0.09922,-0.065256 -0.124263,-0.1650121 C 11.180709,7.2931548 11.65298,6.8381072 11.599357,6.4396366 11.5457,6.0411595 11.44758,5.9017982 11.02609,5.5031812 10.604592,5.1045629 10.634289,5.110945 10.560372,4.8916495 c -0.07392,-0.2192957 0.0074,-0.3014216 -0.02461,-0.3511291 -0.03189,-0.049702 -0.07991,-0.042822 -0.07991,-0.042822 l 0.541318,-2.5262795 0.06375,7.74e-4 0.08061,-0.165677 0.04446,-0.7802176 0.08521,-6.606e-4 0.02088,-0.10383237 0.11229,0.03903 0.06736,-0.057507 0.01441,-0.123063 -0.119117,-0.0375399 -0.01807,-0.11977179 -0.07853,-0.0354972 -0.05966,-0.2013803 -0.07043,-0.005819 -0.05298,-0.029156 0.0044,-0.009095 -0.06109,-0.006239 -0.06473,-0.0363613 -0.144174,0.17737815 -0.09416,0.0551983 -0.149658,-0.0461084 -0.06706,0.0971782 0.0099,0.0916261 0.112426,0.0324903 -0.02916,0.11392437 0.06955,0.0477496 -0.321298,0.72312534 -0.01636,0.1842444 0.05285,0.035693 -0.8749085,2.3879468 c 0,0 -0.03766,-0.032918 -0.089918,-0.00972 -0.05215,0.023203 -0.064392,0.1242203 -0.2388994,0.2652681 C 9.0105794,4.5964768 9.0571877,4.6072998 8.4993482,4.6974838 7.9415091,4.7876682 7.7868508,4.8463907 7.5375354,5.1494547 7.2882175,5.4525164 7.448375,6.1083518 7.376215,6.1774961 7.3040586,6.2466422 7.1887667,6.2427295 7.1887667,6.2427295 l 0.022119,0.086343 0.00349,-7.05e-4 c 0.018993,-0.00657 0.1065517,-0.027057 0.2838957,0.08793 0.2026851,0.1314131 0.2007404,0.3140945 0.152849,0.5706001 -0.047897,0.2565051 -0.2780224,0.5211839 -0.2780224,0.5211839 0,0 -0.3291691,0.099244 -0.4316636,0.07772 C 6.8389568,7.5642736 6.6965056,7.4617145 6.6965065,7.4617158 l -0.082968,0.02621 0.010859,0.052975 c 0,0 -0.1309028,0.076274 -0.1603775,0.072364 -0.029486,-0.00391 -0.057141,0.046762 -0.052128,0.056923 0.00501,0.010164 0.080033,0.1303754 0.086932,0.2480169 0.0069,0.1176413 -0.3386174,0.3717978 -0.5398324,0.6074994 -0.2012018,0.2357035 -0.2848396,0.5716714 -0.292766,0.7522764 -0.00793,0.1805996 -0.072739,0.2009655 0.1324621,0.6564276 0.2052017,0.4554709 0.5711774,0.6876749 0.8255721,0.8570899 0.1824236,0.121474 0.8155909,0.35238 1.1612156,0.474732 3.483e-4,-7.4e-4 0.1754113,-0.374239 0.2436808,-0.720431 0.068269,-0.346566 -0.090187,-0.7746949 -0.090187,-0.7746949 L 8.0588778,9.2924866 c 0,0 0.2530645,0.1123605 0.4852034,0.1824525 0.2321725,0.070112 0.3861454,0.072137 0.3861454,0.072137 l -0.058179,0.4082085 c 0,0 -0.4066953,0.3146774 -0.5315462,0.7912514 -0.124839,0.476576 -0.1346478,0.665761 -0.1346478,0.665761 0.3393227,0.09452 1.0407387,0.282149 1.2652316,0.286053 0.3002127,0.0053 0.7254598,0.02168 1.1310898,-0.241418 0.304222,-0.197314 0.357007,-0.276787 0.400011,-0.370328 0.01436,-0.03116 0.02902,-0.06476 0.05048,-0.103781 0.01079,-0.01949 0.02102,-0.04095 0.03187,-0.06553 z m -2.8787171,0.49501 -0.188315,-0.06474 6.253e-4,0.01125 c 0,0 0.073291,0.02179 0.1876477,0.05359 z M 10.656624,9.2492744 c -0.01722,0.036585 -0.06137,0.062232 -0.09944,0.085133 -0.06644,0.039953 -0.36581,0.1040189 -0.6387738,-0.067623 C 9.5400142,9.0288446 9.6771257,8.4387312 9.6771257,8.4387312 c 0,0 0.108786,-0.4838891 0.1092138,-0.6260412 C 9.7867991,7.6705435 9.6239065,7.5566969 9.6239065,7.5566969 L 9.452147,7.602231 c 0,0 0.06144,0.052819 0.032852,0.1019051 C 9.456402,7.7532231 9.42738,7.7578161 9.3449877,7.7346181 9.2728927,7.7143141 9.229705,7.6589311 9.228924,7.6280456 c -9.01e-5,-0.00441 1.686e-4,-0.0069 0.00189,-0.010179 0.013919,-0.026066 0.058458,-0.072068 0.1122028,-0.086291 0.053748,-0.014216 0.1907695,-0.031665 0.3126288,0.010056 0.1132151,0.038773 0.250039,0.155264 0.2991423,0.2636612 0.048869,0.1083571 0.03648,0.219939 0.03648,0.219939 L 9.925123,8.449824 c 0,0 -0.076754,0.2234789 -0.032021,0.4611064 0.034268,0.1817223 0.017838,0.1963185 0.1007062,0.2824548 0.082862,0.086126 0.1704308,0.1517043 0.1704308,0.1517043 l 0.217169,-0.063568 c 0,0 -0.178482,-0.067273 -0.130967,-0.1700628 0.05812,-0.1257374 0.265138,-0.096748 0.346149,-0.00864 0.06837,0.062061 0.07719,0.109844 0.06003,0.1464466 z M 9.5375038,7.2385668 c 0,0 -0.113875,-0.084437 -0.3301611,-0.155988 C 8.9910559,7.0110357 8.8705809,7.0029033 8.8705809,7.0029033 L 10.595661,1.669204 10.830242,1.7422525 Z M 8.7198145,7.4508045 c -0.012336,0.027341 -0.072786,0.053599 -0.145198,0.03487 -0.082751,-0.021422 -0.1064863,-0.040209 -0.1136653,-0.09896 -0.00719,-0.058749 0.067814,-0.07662 0.067814,-0.07662 L 8.3893075,7.182578 c 0,0 -0.1869477,0.020401 -0.2400852,0.1483156 -0.053159,0.1279114 -0.1379194,0.616014 -0.1379194,0.616014 0,0 -0.1011907,0.6004469 -0.5307342,0.6201655 C 7.1707159,8.5812973 6.927706,8.3715842 6.8830873,8.3016402 6.8319739,8.2214763 6.7664516,8.1150122 6.9360304,8.0736285 c 0.1059625,-0.037605 0.3001365,0.039883 0.304985,0.1826301 0.00394,0.1166859 -0.1793547,0.086263 -0.1793547,0.086263 l 0.168403,0.168423 c 0,0 0.1057327,-0.013039 0.2126101,-0.047927 C 7.5495652,8.4281384 7.539539,8.4064634 7.6387641,8.2607998 7.7684824,8.0702931 7.7840842,7.8303613 7.7840842,7.8303613 l 0.099156,-0.4171285 c 0,0 0.032686,-0.1063031 0.1174214,-0.178574 0.084945,-0.072194 0.2533953,-0.1053504 0.3696965,-0.08213 0.1251765,0.024994 0.2405702,0.111177 0.2834937,0.151498 0.042918,0.04033 0.06607,0.1042261 0.068757,0.1347799 3.978e-4,0.00386 -0.00103,0.00809 -0.0027,0.012032 z"
       sodipodi:nodetypes="ccscccccccsccccccsccccccccccccccccccccccccccccccccccsccccccccccccccccsccccccccccccccccccccccccsccccccccccccccsccsccccccccccccccccsccccccccccscccc" /></g></svg>
