<?xml version="1.0" encoding="UTF-8" standalone="no"?>
<!-- Created with Inkscape (http://www.inkscape.org/) -->

<svg
   width="12"
   height="12"
   viewBox="0 0 12 12"
   version="1.1"
   id="svg43020"
   inkscape:version="1.2.2 (732a01da63, 2022-12-09)"
   sodipodi:docname="vocal.svg"
   xmlns:inkscape="http://www.inkscape.org/namespaces/inkscape"
   xmlns:sodipodi="http://sodipodi.sourceforge.net/DTD/sodipodi-0.dtd"
   xmlns="http://www.w3.org/2000/svg"
   xmlns:svg="http://www.w3.org/2000/svg">
  <sodipodi:namedview
     id="namedview43022"
     pagecolor="#141414"
     bordercolor="#666666"
     borderopacity="1.0"
     inkscape:showpageshadow="2"
     inkscape:pageopacity="0"
     inkscape:pagecheckerboard="0"
     inkscape:deskcolor="#d1d1d1"
     inkscape:document-units="px"
     showgrid="false"
     inkscape:zoom="90.509668"
     inkscape:cx="0.87283493"
     inkscape:cy="8.0654367"
     inkscape:window-width="3840"
     inkscape:window-height="2054"
     inkscape:window-x="3829"
     inkscape:window-y="-11"
     inkscape:window-maximized="1"
     inkscape:current-layer="layer1" />
  <defs
     id="defs43017" />
  <g
     inkscape:label="Layer 1"
     inkscape:groupmode="layer"
     id="layer1">
    <path
       id="path18285"
       style="fill:#d9d9d9;fill-opacity:1;stroke:none;stroke-width:0.659589;stroke-linecap:butt;stroke-linejoin:miter;stroke-dasharray:none;stroke-opacity:1"
       inkscape:label="vocal"
       d="M 11.470703,0.00195313 C 11.263742,0.01278098 10.993945,0.06696389 10.660156,0.20898438 10.195541,0.40667002 9.6981793,0.98416606 9.5332031,1.2324219 9.2208221,1.7024952 9.0907069,2.0500415 9.0644531,2.3417969 9.0979228,2.9481511 9.1621713,3.209513 8.828125,3.7050781 8.3165045,4.0531971 7.1525272,4.3045297 6.8027344,4.8554688 6.7244556,4.9465606 6.6166435,5.1162241 6.6171875,5.2363281 6.6181109,5.440835 6.8000543,5.4968029 6.9785156,5.6289062 7.1613617,5.7642557 7.336799,5.8181335 7.3574219,6 7.37914,6.191593 7.1920673,6.232907 7.0371094,6.3476562 6.9378601,6.4211522 6.7834802,6.5684394 6.7910156,6.7050781 6.7999442,6.8669798 6.9627669,6.9625484 7.1230469,7.0722656 7.3631247,7.2366071 7.6915423,7.2808866 7.9101562,7.4492188 8.1137227,7.6059633 8.3631344,7.8587434 8.3066406,8.109375 8.2039471,8.5649798 7.5435748,8.6520093 7.1386719,8.8847656 c -0.1008638,0.057981 -0.2567129,0.052204 -0.3125,0.1542969 -0.066715,0.122092 -0.063704,0.2947622 0.019531,0.40625 0.1995958,0.2673495 0.3204111,0.3420435 0.2910157,0.5839845 -0.030893,0.254266 -0.1399903,0.624942 -0.1191407,0.884765 0.02412,0.300576 0.1169931,0.575923 0.3710938,0.738282 0.260341,0.166347 0.6242813,0.09674 0.9257812,0.0293 C 8.582789,11.621621 8.9738238,11.528047 9.515625,11.580078 9.9357277,11.620418 10.115078,11.772199 10.257812,12 10.273822,12.0051 12,12 12,12 V 0 c 0,0 -0.184361,-0.0160933 -0.529297,0.00195313 z M 6.0273438,5.9824219 C 4.9306802,5.9822399 4.039131,6.8720865 4.0390625,7.96875 c 6.87e-5,1.0966635 0.8916178,1.9884632 1.9882813,1.9882812 6.51e-4,5.8e-6 0.0013,5.8e-6 0.00195,0 C 6.11918,9.956752 6.2078599,9.9499328 6.296875,9.9375 6.3565782,9.9291296 6.3984015,9.8742366 6.390625,9.8144531 6.3822546,9.7547499 6.3273616,9.7129266 6.2675781,9.7207031 6.188412,9.7317603 6.1072755,9.7360798 6.0273438,9.7363281 5.0495108,9.7364905 4.2598269,8.9465829 4.2597656,7.96875 4.2598267,6.9909171 5.0495108,6.2010096 6.0273438,6.2011719 c 0.1670592,1.436e-4 0.3337663,0.023527 0.4941406,0.070312 0.058253,0.0173 0.1194921,-0.015944 0.1367187,-0.074219 0.0173,-0.058253 -0.015944,-0.1194921 -0.074219,-0.1367187 C 6.4036675,6.0079431 6.2151768,5.9825834 6.0273438,5.9824219 Z m 0,0.5625 c -0.7853771,-3e-5 -1.4238581,0.6384509 -1.4238282,1.4238281 -2.97e-5,0.7853772 0.6384511,1.4258111 1.4238282,1.4257812 0.064287,-1.554e-4 0.1296666,-0.00484 0.1933593,-0.013672 0.060576,-0.00834 0.1027033,-0.064511 0.09375,-0.125 -0.00834,-0.060576 -0.064511,-0.1027033 -0.125,-0.09375 C 6.13561,9.1695792 6.0817164,9.1736966 6.0273438,9.1738281 5.3607952,9.1738536 4.8241936,8.6352987 4.8242188,7.96875 4.8241934,7.3022013 5.3607952,6.7655996 6.0273438,6.765625 6.1412169,6.7657735 6.2559373,6.7805432 6.3652344,6.8125 6.4228681,6.8285537 6.4827582,6.7955707 6.5,6.7382812 6.5173002,6.6800281 6.4840561,6.6187891 6.4257812,6.6015625 6.2965337,6.5637725 6.1620023,6.5450975 6.0273438,6.5449219 Z m 0,0.5761719 C 5.5724498,7.121089 5.2069489,7.5035643 5.2070312,7.96875 c -8.23e-5,0.4651857 0.3654186,0.8496142 0.8203126,0.8496094 6.51e-4,5.8e-6 0.0013,5.8e-6 0.00195,0 0.038688,-1.786e-4 0.076983,-0.00398 0.1152343,-0.00977 0.059784,-0.00931 0.1008102,-0.065171 0.091797,-0.125 -0.00931,-0.059784 -0.065171,-0.1008102 -0.125,-0.091797 -0.027735,0.00419 -0.055989,0.00573 -0.083984,0.00586 C 5.6957127,8.5976636 5.4257192,8.3193618 5.4257812,7.96875 5.4257192,7.6181382 5.69571,7.3398403 6.0273438,7.3398438 c 0.058532,7.81e-5 0.117712,0.00969 0.1738281,0.027344 0.057677,0.017455 0.1186551,-0.014777 0.1367187,-0.072266 C 6.3555153,7.2378126 6.3242841,7.1770852 6.2675781,7.1582031 6.1903044,7.1338988 6.1081993,7.1212016 6.0273438,7.1210938 Z"
       sodipodi:nodetypes="sssccccscsssscsssssssccccsccccccccccccccccccccccccccccccccccccccccc" />
  </g>
</svg>
