<?xml version="1.0" encoding="UTF-8" standalone="no"?>
<!-- Created with Inkscape (http://www.inkscape.org/) -->

<svg
   width="12"
   height="12"
   viewBox="0 0 12 12"
   version="1.1"
   id="svg43020"
   inkscape:version="1.2.2 (732a01da63, 2022-12-09)"
   sodipodi:docname="wind.svg"
   xml:space="preserve"
   xmlns:inkscape="http://www.inkscape.org/namespaces/inkscape"
   xmlns:sodipodi="http://sodipodi.sourceforge.net/DTD/sodipodi-0.dtd"
   xmlns="http://www.w3.org/2000/svg"
   xmlns:svg="http://www.w3.org/2000/svg"><sodipodi:namedview
     id="namedview43022"
     pagecolor="#6f7cbc"
     bordercolor="#666666"
     borderopacity="1.0"
     inkscape:showpageshadow="2"
     inkscape:pageopacity="0"
     inkscape:pagecheckerboard="0"
     inkscape:deskcolor="#d1d1d1"
     inkscape:document-units="px"
     showgrid="false"
     inkscape:zoom="181.01934"
     inkscape:cx="6.1540387"
     inkscape:cy="9.1205726"
     inkscape:window-width="3840"
     inkscape:window-height="2126"
     inkscape:window-x="-11"
     inkscape:window-y="-11"
     inkscape:window-maximized="1"
     inkscape:current-layer="svg43020" /><defs
     id="defs43017" /><path
     id="path933"
     style="fill:#d9d9d9;fill-opacity:1;stroke:none;stroke-width:1px;stroke-linecap:butt;stroke-linejoin:miter;stroke-opacity:1"
     d="m 0.78320312,4.9023438 c -0.26967473,0.020043 -0.44220002,1.2807111 -0.46875,1.9472656 -0.02627,0.6595131 0.081036,1.9448621 0.30859376,1.9550781 C 0.85765964,8.8152206 0.84658445,8.4461001 1.0820312,8.1640625 1.316497,7.8831999 1.8503016,7.7734872 2.2128906,7.7246094 2.5809392,7.6749939 3.1167994,7.6412809 3.5664062,7.6230469 c 0.00528,-2.142e-4 0.012258,2.12e-4 0.017578,0 V 8.0234375 C 3.3375914,8.0221375 2.989081,8.0216112 2.8925781,8.0195312 2.4385071,8.0097725 1.8773804,8.1814812 1.6503906,8.5429688 1.4575818,8.8500277 1.3213,9.0279031 1.3125,9.5800781 1.30589,9.9954498 1.3771617,10.39072 1.6171875,10.824219 c 0.3090987,0.558244 0.6876852,0.614175 1.1464844,0.609375 0.5424132,-0.0056 5.5689146,-0.01823 6.078125,-0.03906 0.5165339,-0.02113 1.0573821,-0.327055 1.3574221,-0.748047 0.307461,-0.431392 0.4914,-1.0277978 0.5,-1.5664059 0.0034,-0.2114469 -0.01915,-0.4142642 -0.06445,-0.6074219 h 0.002 l 0.388672,-0.03125 v -0.046875 c 0.02449,0.083965 0.08664,0.1398546 0.15625,0.140625 0.06966,0.014793 0.155209,0.00705 0.236328,-0.013672 0.02706,0.090258 0.07329,0.1484375 0.125,0.1484375 0.08336,0 0.15039,-0.1533013 0.15039,-0.34375 0,-0.1904488 -0.06703,-0.34375 -0.15039,-0.34375 -0.0455,0 -0.08573,0.046677 -0.113281,0.1191406 -0.07052,-0.014364 -0.151953,-0.017698 -0.248047,0 -0.06668,-1.675e-4 -0.127237,0.050382 -0.154297,0.1289063 V 8.203125 c 0,0 -0.338769,-0.039063 -0.488282,-0.039063 C 10.432137,7.9016429 10.269892,7.6627806 10.044922,7.4550781 9.3995584,6.8592464 8.4214181,6.8529447 8.1152344,6.8242188 7.9990331,6.8133158 7.8078588,6.7942667 7.6308594,6.7773438 v -0.021484 c 0,-0.0554 -0.04421,-0.099609 -0.099609,-0.099609 H 7.4179688 V 6.3300781 h 0.00586 c 0.055399,0 0.099609,-0.033557 0.099609,-0.076172 v -0.011719 c 0,-0.037289 -0.034428,-0.069022 -0.080078,-0.076172 -0.00652,-0.00102 -0.012611,0 -0.019531,0 H 7.203125 c -0.0554,0 -0.099609,0.033557 -0.099609,0.076172 v 0.011719 c 0,0.042616 0.04421,0.076172 0.099609,0.076172 H 7.224609 V 6.65625 H 7.193359 C 7.148252,6.65625 7.1102,6.685671 7.097656,6.726562 7.055885,6.722792 7.011199,6.718702 6.9707029,6.714843 6.9549731,6.6803248 6.9213983,6.65625 6.8808594,6.65625 H 6.796875 V 6.3300781 h 0.00586 c 0.0554,0 0.099609,-0.033557 0.099609,-0.076172 v -0.011719 c -1e-7,-0.037289 -0.034429,-0.069022 -0.080078,-0.076172 -0.00652,-0.00102 -0.012611,0 -0.019531,0 H 6.5820312 c -0.055398,0 -0.099609,0.033557 -0.099609,0.076172 v 0.011719 c 0,0.042616 0.04421,0.076172 0.099609,0.076172 h 0.021484 V 6.65625 h -0.060547 c -0.016267,0 -0.031373,0.00488 -0.044922,0.011719 -0.1091921,-0.010457 -0.2033537,-0.019603 -0.33789,-0.033203 v -0.28125 h 0.021484 c 0.055397,0 0.099609,-0.03551 0.099609,-0.078125 v -0.011719 c 0,-0.039952 -0.039297,-0.072242 -0.089844,-0.076172 -0.00337,-2.617e-4 -0.00631,0 -0.00977,0 H 5.9609375 c -0.055399,0 -0.099609,0.033557 -0.099609,0.076172 v 0.011719 c 0,0.042615 0.044211,0.078125 0.099609,0.078125 h 0.00586 V 6.6171875 C 5.0975961,6.5280231 4.1441477,6.4203563 3.2890625,6.3027344 2.702141,6.2220003 1.9899054,6.1188299 1.5449219,5.8730469 1.426259,5.8075049 1.2072185,5.5941026 1.0410156,5.359375 0.91459171,5.1808105 0.95102986,4.9230697 0.8125,4.9023438 c -0.00924,-0.00138 -0.0183969,-8.101e-4 -0.0292969,0 z M 6.3554688,7.5859375 c 0.028945,-1.1e-5 0.059112,-1.9e-6 0.087891,0 V 8.203125 H 6.3632812 V 8.0859375 c 10e-8,-0.024422 -0.00314,-0.048923 -0.00781,-0.072266 z m 0.625,0 c 0.062964,2.261e-4 0.052194,-2.676e-4 0.1132812,0 V 7.9785156 H 6.9804688 Z m -1.1621094,0.00195 v 0.140625 C 5.679633,7.759224 5.5730518,7.8744915 5.5449219,8.0136719 5.5320618,8.0138779 4.6019582,8.0282906 3.84375,8.0253906 V 7.6152344 c 0.5758078,-0.018084 1.2783682,-0.024804 1.9746094,-0.027344 z m 2.0820312,0.00391 c 0.2464974,-0.00131 0.7597656,0.00586 0.7597656,0.00586 0.3593743,0.023437 0.6269727,0.1181415 0.84375,0.2929688 0.099129,0.079946 0.1845722,0.169239 0.2597657,0.265625 L 8.0429688,8.1425781 V 7.8828125 c 0,-0.1149247 -0.052879,-0.2280517 -0.1425782,-0.291015 z m -0.2695312,0.228515 h 0.109375 c 0.00559,0.00554 0.021484,0.023991 0.021484,0.0625 v 0.2558594 h -0.130859 z m -2.09375,0.4960937 v 2.5019528 c 0,0.07426 0.023522,0.145769 0.0625,0.205079 -0.3719452,0.0014 -2.3515863,0.025 -2.578125,0.0293 -0.119587,0.013 -0.2785651,0.0097 -0.4121094,0.0039 C 2.5161899,11.041356 2.2721121,11.009384 2.1152344,10.849609 1.8100936,10.538848 1.6391844,10.066334 1.6464844,9.6308594 1.6523714,9.2784985 1.8037855,8.8996961 2.0585938,8.65625 2.2807422,8.444007 2.6168259,8.3499976 2.9238281,8.3378906 3.1301846,8.3297519 5.4957124,8.3166429 5.5371094,8.3164062 Z m 1.4433594,0 H 7.09375 v 1.0410157 c 0,0.055399 0.044209,0.099609 0.099609,0.099609 H 7.21875 c 0.00427,0.1690673 0.1227043,0.3320313 0.3027344,0.3320313 h 0.21875 c 0.1833896,0 0.3027344,-0.1694097 0.3027344,-0.3417969 V 8.4453125 l 1.9101562,0.019531 c 0.085004,0.1802871 0.140372,0.3766251 0.164063,0.5839843 0.05316,0.4652559 -0.108721,1.0463702 -0.3652349,1.3574222 -0.2349837,0.284944 -0.6529288,0.530033 -1.0449219,0.541016 -1.1198115,0.03139 -1.7254553,0.04605 -2.3964843,0.06055 0.033044,-0.05599 0.052734,-0.121553 0.052734,-0.189453 V 8.5429688 h 0.080078 v 0.8144531 c 0,0.055399 0.044209,0.099609 0.099609,0.099609 h 0.3378906 c 0.0554,1e-7 0.099609,-0.044209 0.099609,-0.099609 z m 0.6503906,0.125 0.1308594,0.00195 v 1.0039062 c -10e-8,0.03851 -0.013931,0.055007 -0.019531,0.060547 l -0.00195,0.00195 h -0.21875 c -0.00507,-0.00502 -0.017351,-0.02156 -0.019531,-0.052734 H 7.53125 c 0.055399,1e-7 0.099609,-0.044209 0.099609,-0.099609 z M 5.8632812,9.4375 c 0.015975,0.010881 0.033711,0.019531 0.054688,0.019531 h 0.1191406 v 1.361328 c 0,0.02887 -0.015018,0.03906 -0.029297,0.03906 H 5.8925781 c -0.01428,0 -0.029297,-0.01019 -0.029297,-0.03906 z" /></svg>
